<?xml version="1.0" standalone="no"?>
<!DOCTYPE svg PUBLIC "-//W3C//DTD SVG 1.1//EN" "http://www.w3.org/Graphics/SVG/1.1/DTD/svg11.dtd" >
<svg xmlns="http://www.w3.org/2000/svg" xmlns:xlink="http://www.w3.org/1999/xlink" version="1.1">
<metadata></metadata>
<defs>
<font id="novecento_sans_widedemibold" horiz-adv-x="1368" >
<font-face units-per-em="2048" ascent="1681" descent="-367" />
<missing-glyph horiz-adv-x="512" />
<glyph unicode=" "  horiz-adv-x="512" />
<glyph unicode="&#x09;" horiz-adv-x="512" />
<glyph unicode="&#xa0;" horiz-adv-x="512" />
<glyph unicode="!" horiz-adv-x="653" d="M172 123q0 62 41 101.5t115 39.5q73 0 113 -39.5t40 -101.5q0 -61 -40.5 -101t-112.5 -40q-74 0 -115 40t-41 101zM184 383v1051h285v-1051h-285z" />
<glyph unicode="&#x22;" horiz-adv-x="874" d="M102 1434h267l-15 -500h-237zM502 1434h268l-16 -500h-236z" />
<glyph unicode="#" horiz-adv-x="1361" d="M63 170l70 248h156l84 311h-156l70 250h153l45 168h234l-45 -168h229l45 168h236l-45 -168h157l-67 -250h-158l-82 -311h156l-70 -248h-155l-46 -170h-235l47 170h-231l-45 -170h-234l45 170h-158zM524 418h228l84 311h-230z" />
<glyph unicode="$" horiz-adv-x="1009" d="M61 287l244 65q10 -71 64.5 -120.5t150.5 -49.5q75 0 119.5 33.5t44.5 97.5q0 27 -7.5 49t-25.5 38t-35 27.5t-49.5 22t-54 16.5t-63.5 16t-64 16q-51 13 -90 27.5t-81.5 41t-70 60t-45.5 85.5t-18 117q0 143 83 228t234 106v168h203v-170q274 -38 336 -276l-234 -64 q-29 146 -204 146q-84 0 -125 -34.5t-41 -90.5q0 -25 6 -44.5t23 -35t33 -26t49.5 -21.5t58 -18t73.5 -19q46 -12 72.5 -19t71.5 -23.5t72 -32.5t60.5 -43.5t52 -58.5t31.5 -75.5t13 -97.5q0 -147 -89 -234.5t-243 -109.5v-168h-202v168q-63 8 -117.5 27.5t-104 54t-84 91 t-47.5 130.5z" />
<glyph unicode="%" horiz-adv-x="1507" d="M68 813q0 356 282 356q281 0 281 -356q0 -354 -281 -354q-282 0 -282 354zM248 813q0 -100 24.5 -136t77.5 -36q51 0 76 36t25 136t-25 136t-76 36q-53 0 -77.5 -36t-24.5 -136zM473 0l385 1147h172l-385 -1147h-172zM877 344q0 354 282 354q279 0 279 -354 q0 -356 -279 -356q-282 0 -282 356zM1057 344q0 -101 23.5 -137.5t76.5 -36.5q51 0 75.5 37t24.5 137t-24.5 136t-75.5 36t-75.5 -36t-24.5 -136z" />
<glyph unicode="&#x26;" horiz-adv-x="1269" d="M90 313q0 107 54.5 179.5t140.5 95.5v4q-76 17 -131.5 85t-55.5 181q0 157 112.5 234t315.5 77q197 0 322 -71t186 -224l-248 -67q-27 71 -82 106t-151 35q-178 0 -178 -119q0 -129 192 -129h650v-237h-173v-92q0 -193 -125 -293.5t-362 -100.5q-231 0 -349 91.5 t-118 244.5zM365 330q0 -135 196 -135q113 0 163 41t50 135v92h-219q-190 0 -190 -133z" />
<glyph unicode="'" horiz-adv-x="475" d="M102 1434h267l-15 -500h-237z" />
<glyph unicode="(" horiz-adv-x="806" d="M104 590q0 838 586 1038l74 -262q-201 -64 -293 -259t-92 -517q0 -324 91 -519t294 -259l-74 -263q-586 200 -586 1041z" />
<glyph unicode=")" horiz-adv-x="806" d="M45 -186q200 63 291.5 258.5t91.5 517.5q0 323 -91 518.5t-292 259.5l72 260q585 -195 585 -1038q0 -839 -585 -1039z" />
<glyph unicode="*" horiz-adv-x="966" d="M129 1106l55 172l209 -68l-2 224h182v-224l209 68l56 -172l-213 -64l135 -180l-148 -106l-129 184l-129 -184l-147 106l133 180z" />
<glyph unicode="+" d="M276 463v233h285l-2 308h248l2 -308h283v-233h-283v-309h-248v309h-285z" />
<glyph unicode="," horiz-adv-x="540" d="M102 -90q44 12 77.5 42.5t45.5 67.5q-48 -3 -77 27t-29 84q0 56 40.5 92.5t104.5 36.5q76 0 123 -48t47 -134q0 -91 -60.5 -171.5t-164.5 -111.5z" />
<glyph unicode="-" horiz-adv-x="1175" d="M180 463v233h815v-233h-815z" />
<glyph unicode="." horiz-adv-x="540" d="M115 123q0 62 40.5 101.5t114.5 39.5q73 0 113.5 -39.5t40.5 -101.5q0 -61 -41 -101t-113 -40q-74 0 -114.5 40t-40.5 101z" />
<glyph unicode="/" horiz-adv-x="1075" d="M33 0l719 1434h288l-710 -1434h-297z" />
<glyph unicode="0" horiz-adv-x="1093" d="M72 573q0 293 126 444.5t349 151.5q222 0 348.5 -151.5t126.5 -444.5t-126.5 -444.5t-348.5 -151.5q-223 0 -349 151.5t-126 444.5zM340 573q0 -185 49.5 -267.5t157.5 -82.5q107 0 157 83t50 267t-50 266.5t-157 82.5q-108 0 -157.5 -82t-49.5 -267z" />
<glyph unicode="1" horiz-adv-x="774" d="M61 877l320 270h252v-1147h-271v608q0 40 2.5 97.5t5 94t1.5 36.5h-6q-1 0 -13 -15.5t-30 -36t-31 -30.5l-74 -72z" />
<glyph unicode="2" horiz-adv-x="1034" d="M78 872q17 80 58.5 138.5t101.5 92.5t130.5 50t153.5 16q207 0 317.5 -93t110.5 -261q0 -60 -16 -111t-39 -88t-66 -76t-80 -64.5t-98 -63.5l-252 -170l2 -9q87 7 174 7h381v-240h-862v293l398 280q102 75 144 123.5t42 104.5q0 62 -44 101.5t-128 39.5 q-76 0 -120.5 -37.5t-53.5 -99.5z" />
<glyph unicode="3" horiz-adv-x="1042" d="M72 301l235 66q39 -160 217 -160q88 0 136.5 42t48.5 109t-48.5 102.5t-132.5 35.5h-127v190h117q84 0 131 36t47 99q0 61 -45.5 96t-126.5 35q-90 0 -135 -39.5t-53 -103.5l-242 63q18 82 61 141.5t105.5 92.5t133 48t153.5 15q203 0 308.5 -78.5t105.5 -220.5 q0 -65 -21.5 -116.5t-56.5 -82.5t-72.5 -48t-75.5 -21v-8q101 -10 168.5 -81t67.5 -191q0 -157 -116.5 -251t-319.5 -94q-183 0 -305.5 83.5t-157.5 240.5z" />
<glyph unicode="4" horiz-adv-x="1124" d="M68 262v238l405 647h410v-658h166v-227h-166v-262h-271v262h-544zM315 496l7 -7h155h135v177v57t0.5 56t0.5 51.5v45.5t0.5 35t0.5 24v9h-10z" />
<glyph unicode="5" horiz-adv-x="1042" d="M78 270l231 58q18 -57 71.5 -92t133.5 -35q90 0 143.5 46.5t53.5 127.5t-54.5 127.5t-148.5 46.5q-123 0 -176 -80l-219 57l112 621h666v-252h-490l-18 -104q-3 -23 -8 -46t-7.5 -35t-2.5 -14l6 -4q29 22 81.5 39t114.5 17q187 0 292.5 -103t105.5 -270 q0 -179 -120 -288.5t-323 -109.5q-177 0 -294.5 82t-149.5 211z" />
<glyph unicode="6" horiz-adv-x="1046" d="M61 393q0 113 47.5 218t145.5 231l242 305h284l-358 -467l6 -6q64 61 180 61q158 0 266.5 -100t108.5 -262q0 -178 -126.5 -287t-334.5 -109q-205 0 -333 109t-128 307zM326 381q0 -82 54 -129t146 -47q93 0 147 47.5t54 130.5q1 81 -53 127.5t-148 46.5 q-93 0 -146.5 -46.5t-53.5 -129.5z" />
<glyph unicode="7" horiz-adv-x="1021" d="M61 895v252h916v-195l-537 -952h-276l364 645q32 56 69 118t57 94.5t20 33.5l-4 6l-156 -2h-453z" />
<glyph unicode="8" horiz-adv-x="1054" d="M72 315q0 63 20.5 114.5t55.5 85.5t76 56t87 33v4q-25 5 -55 22t-61.5 46.5t-52.5 79t-21 108.5q0 130 110.5 217.5t294.5 87.5t295 -87.5t111 -217.5q0 -48 -14 -90t-35.5 -69.5t-48 -49t-49.5 -32.5t-42 -15v-4q44 -10 84.5 -31t77 -54.5t58.5 -86.5t22 -117 q0 -147 -118 -243.5t-337 -96.5q-216 0 -337 94.5t-121 245.5zM328 334q0 -76 54.5 -116t143.5 -40q92 0 145.5 41t53.5 115q0 73 -54 112t-145 39t-144.5 -40t-53.5 -111zM354 848q0 -65 48 -100t124 -33q79 0 126.5 35.5t47.5 99.5q0 63 -48.5 98t-125.5 35 q-78 0 -125 -36t-47 -99z" />
<glyph unicode="9" horiz-adv-x="1058" d="M72 770q0 176 129.5 287.5t330.5 111.5q128 0 231 -46t167.5 -142.5t64.5 -228.5q0 -79 -19 -150t-58 -135t-69.5 -103.5t-82.5 -97.5l-234 -266h-301l406 455l-6 6q-60 -60 -180 -60q-169 0 -274 105t-105 264zM324 762q0 -89 56 -133.5t148 -44.5q93 0 148 45.5 t55 134.5q0 86 -55.5 131t-147.5 45q-91 0 -147.5 -45.5t-56.5 -132.5z" />
<glyph unicode=":" horiz-adv-x="540" d="M115 123q0 62 40.5 101.5t114.5 39.5q73 0 113.5 -39.5t40.5 -101.5q0 -61 -41 -101t-113 -40q-74 0 -114.5 40t-40.5 101zM115 811q0 61 40.5 100t114.5 39q73 0 113.5 -39t40.5 -100q0 -62 -40.5 -102.5t-113.5 -40.5q-74 0 -114.5 40t-40.5 103z" />
<glyph unicode=";" horiz-adv-x="540" d="M102 -88q44 12 77.5 43t45.5 68q-48 -3 -77 26.5t-29 83.5q0 55 40.5 92t104.5 37q75 0 122.5 -49t47.5 -133q0 -91 -60.5 -171.5t-164.5 -113.5zM115 811q0 61 40.5 100t114.5 39q73 0 113.5 -39t40.5 -100q0 -62 -40.5 -102.5t-113.5 -40.5q-74 0 -114.5 40t-40.5 103z " />
<glyph unicode="&#x3c;" d="M195 485v189l923 413v-243l-606 -262v-7l606 -260v-243z" />
<glyph unicode="=" d="M276 248v233h816v-233h-816zM276 688v236h816v-236h-816z" />
<glyph unicode="&#x3e;" d="M250 72v243l606 260v7l-606 262v243l924 -413v-189z" />
<glyph unicode="?" horiz-adv-x="1171" d="M63 1083q46 176 189 277.5t354 101.5q236 0 369 -118.5t133 -294.5q0 -91 -34 -165.5t-94.5 -127t-123 -87t-141.5 -63.5v-223h-287v354q151 48 238 92.5t120 86.5t33 94q0 77 -52.5 129.5t-170.5 52.5q-110 0 -170.5 -45.5t-91.5 -136.5zM416 123q0 62 40.5 101.5 t114.5 39.5q73 0 113.5 -39.5t40.5 -101.5q0 -61 -41 -101t-113 -40q-74 0 -114.5 40t-40.5 101z" />
<glyph unicode="@" horiz-adv-x="1622" d="M63 541q0 215 95 387.5t266.5 271t388.5 98.5q172 0 313 -57t235.5 -157.5t146 -237.5t51.5 -297q0 -91 -19.5 -168t-59 -138t-106 -95.5t-153.5 -34.5t-155.5 39t-94.5 88h-4q-25 -53 -87 -90t-145 -37q-71 0 -132 23.5t-109 70t-75.5 122.5t-27.5 173q0 194 91.5 296.5 t238.5 102.5q40 0 73 -7.5t57 -23t34.5 -24t25.5 -23.5h4v56h271v-377v-26q0 -36 0.5 -53t4 -42t11 -36t22 -19.5t36.5 -8.5q102 0 102 238q0 260 -142.5 411.5t-400.5 151.5q-259 0 -409 -158.5t-150 -424.5q0 -128 27.5 -229t73.5 -166t111.5 -107.5t137 -60t154.5 -17.5 q60 0 113 8t87.5 18.5t66.5 26t47 26.5t32.5 24.5t19.5 15.5l152 -117q-27 -27 -70 -55t-106.5 -58t-151.5 -49.5t-182 -19.5q-121 0 -225.5 26.5t-194.5 85.5t-153.5 147t-99.5 217t-36 290zM655 506q0 -79 34.5 -124.5t94.5 -45.5q62 0 95 44.5t36 117.5v20 q0 73 -34.5 116.5t-96.5 43.5q-64 0 -96.5 -46.5t-32.5 -125.5z" />
<glyph unicode="A" horiz-adv-x="1533" d="M33 0l573 1434h322l573 -1434h-305l-109 287h-645l-108 -287h-301zM541 545h446l-119 315q-19 48 -45.5 115.5t-40 101.5t-14.5 35h-6q-2 -2 -100 -252z" />
<glyph unicode="B" horiz-adv-x="1288" d="M129 0v1434h584q191 0 312.5 -106.5t121.5 -260.5q0 -61 -18.5 -113.5t-49 -88t-63 -58.5t-66.5 -35v-8q116 -30 198.5 -119t82.5 -233q0 -87 -31.5 -160.5t-92.5 -130.5t-159 -89t-223 -32h-596zM414 238h286q109 0 170.5 52t61.5 144q0 95 -65 149t-167 54h-286v-399z M414 852h250q89 0 142.5 45.5t53.5 126.5q0 76 -54.5 124t-148.5 48h-243v-344z" />
<glyph unicode="C" horiz-adv-x="1548" d="M63 721q0 216 97 386t265.5 262.5t379.5 92.5q239 0 414 -113.5t249 -291.5l-282 -78q-56 94 -154 154.5t-239 60.5q-199 0 -321 -130t-122 -345q0 -216 124.5 -346.5t316.5 -130.5q146 0 252.5 68.5t160.5 181.5l281 -74q-83 -207 -265.5 -326t-414.5 -119 q-211 0 -379.5 92.5t-265.5 264t-97 391.5z" />
<glyph unicode="D" horiz-adv-x="1523" d="M129 0v1434h573q215 0 386.5 -89t270.5 -254.5t99 -379.5t-99 -377t-269 -248.5t-383 -85.5h-578zM414 264h276q97 0 181.5 26.5t152.5 79t107.5 140.5t39.5 201t-39.5 202t-108 144t-154.5 83.5t-183 28.5h-272v-905z" />
<glyph unicode="E" horiz-adv-x="1247" d="M129 0v1434h1018v-265h-733v-301h551v-266h-551v-338h741v-264h-1026z" />
<glyph unicode="F" horiz-adv-x="1208" d="M129 0v1434h1004v-265h-719v-342h563v-266h-563v-561h-285z" />
<glyph unicode="G" horiz-adv-x="1603" d="M63 719q0 163 56.5 302t155.5 235.5t236.5 151t295.5 54.5q236 0 412.5 -114.5t248.5 -290.5l-280 -78q-21 39 -52.5 73.5t-78.5 68t-115 53.5t-147 20q-200 0 -322.5 -130t-122.5 -345q0 -217 131 -347t342 -130q150 0 260.5 57.5t153.5 126.5v113h-381v266h647v-805 h-254q0 48 0.5 78.5t1 43t0.5 15.5h-6q-66 -66 -184 -115t-260 -49q-150 0 -284.5 54t-235 150t-159.5 237t-59 305z" />
<glyph unicode="H" horiz-adv-x="1458" d="M129 0v1434h285v-562h630v562h285v-1434h-285v598h-630v-598h-285z" />
<glyph unicode="I" horiz-adv-x="542" d="M129 0v1434h285v-1434h-285z" />
<glyph unicode="J" horiz-adv-x="1038" d="M0 121l164 221q79 -100 211 -100q149 0 204.5 94t55.5 303v795h287v-818q0 -312 -139 -477.5t-406 -165.5q-241 0 -377 148z" />
<glyph unicode="K" horiz-adv-x="1404" d="M129 0v1434h285v-414v-250h6l180 205l401 459h340l-518 -578l555 -856h-331l-435 651l-198 -217v-434h-285z" />
<glyph unicode="L" horiz-adv-x="1161" d="M129 0v1434h285v-1170h680v-264h-965z" />
<glyph unicode="M" horiz-adv-x="1662" d="M129 0v1434h303l402 -719h6l403 719h291v-1434h-285v449v96t0.5 89t0.5 80t0.5 71t1 60t0.5 49t0.5 36t0.5 23v8h-4q-1 -1 -19.5 -36.5t-57.5 -107t-78 -141.5l-181 -322h-161l-181 318q-40 72 -79 144.5t-58 108.5l-18 36h-6v-8q0 -8 0.5 -23t0.5 -36t0.5 -49t1 -60 t0.5 -71t0.5 -80t0.5 -89v-96v-449h-285z" />
<glyph unicode="N" horiz-adv-x="1519" d="M129 0v1434h289l686 -945h6v11q0 11 -0.5 29.5t-1 43.5t-1 55.5t-1 62.5t-0.5 68v68v607h285v-1434h-289l-686 958h-6v-10q0 -11 0.5 -30t1 -43.5t1 -56.5t1 -66t0.5 -73.5v-76.5v-602h-285z" />
<glyph unicode="O" horiz-adv-x="1632" d="M63 717q0 163 57 302.5t156.5 236.5t239 151.5t299.5 54.5t299.5 -54.5t239 -151.5t156.5 -236.5t57 -302.5q0 -216 -97.5 -386.5t-269 -264t-385.5 -93.5t-385.5 93.5t-269 264t-97.5 386.5zM350 717q0 -215 131.5 -345t333.5 -130t333.5 129.5t131.5 345.5 t-131.5 346.5t-333.5 130.5t-333.5 -130.5t-131.5 -346.5z" />
<glyph unicode="P" horiz-adv-x="1232" d="M129 0v1434h502q259 0 406 -126t147 -354q0 -222 -147.5 -349.5t-405.5 -127.5h-217v-477h-285zM414 727h225q129 0 194.5 58t65.5 165q0 108 -66 166t-194 58h-225v-447z" />
<glyph unicode="Q" horiz-adv-x="1632" d="M63 717q0 163 57 302.5t156.5 236.5t239 151.5t299.5 54.5t299.5 -54.5t239 -151.5t156.5 -236.5t57 -302.5q0 -289 -169 -488.5t-440 -244.5v-269h-286v269q-270 45 -439.5 245t-169.5 488zM350 717q0 -215 131.5 -345t333.5 -130q203 0 334 129.5t131 345.5t-131 346.5 t-334 130.5q-202 0 -333.5 -130.5t-131.5 -346.5z" />
<glyph unicode="R" horiz-adv-x="1292" d="M129 0v1434h508q264 0 412.5 -126t148.5 -345q0 -154 -76 -257.5t-215 -146.5l338 -559h-338l-289 504h-92h-112v-504h-285zM414 733h243q250 0 250 215q0 110 -65.5 168t-188.5 58h-239v-441z" />
<glyph unicode="S" horiz-adv-x="1259" d="M61 365l273 73q17 -104 103 -159.5t220 -55.5q119 0 185.5 45t66.5 133q0 41 -16.5 72t-39 49t-64 32.5t-74 21.5t-88.5 17.5t-88 18.5q-57 13 -101 27t-98.5 37t-94 55t-74.5 74.5t-53 102.5t-18 132q0 205 141.5 313.5t383.5 108.5q217 0 362 -91.5t201 -276.5 l-273 -72q-57 188 -297 188q-227 0 -227 -161q0 -29 9.5 -53.5t23 -42t40 -32.5t49.5 -25t64 -21t70.5 -17.5t80.5 -16.5l15 -3q73 -14 130 -31t121 -50.5t106 -78t70 -116t28 -161.5q0 -211 -141 -319.5t-400 -108.5q-79 0 -150 10t-145.5 37.5t-132 70t-103 113 t-65.5 161.5z" />
<glyph unicode="T" horiz-adv-x="1333" d="M68 1169v265h1198v-265h-457v-1169h-285v1169h-456z" />
<glyph unicode="U" horiz-adv-x="1443" d="M115 625v809h288v-801q0 -200 80 -295.5t242 -95.5t242 95.5t80 295.5v801h282v-809q0 -313 -161.5 -482.5t-444.5 -169.5q-286 0 -447 169.5t-161 482.5z" />
<glyph unicode="V" horiz-adv-x="1474" d="M27 1434h321l246 -705q43 -120 80 -226t51.5 -149.5t15.5 -44.5h7q1 1 15.5 44t50 147t77.5 223l248 711h307l-531 -1434h-358z" />
<glyph unicode="W" horiz-adv-x="2119" d="M35 1434h315l178 -635q118 -410 119 -412h6q1 2 15 51.5t39.5 141.5t44.5 159l151 541h344l150 -543l98 -350h6q1 2 15.5 52.5t45 156.5t54.5 190l186 648h283l-432 -1434h-310l-186 610q-26 86 -49 171t-33.5 125.5t-11.5 41.5h-8q-1 -1 -11 -41.5t-34 -130t-49 -180.5 l-173 -596h-321z" />
<glyph unicode="X" horiz-adv-x="1497" d="M41 0l541 741l-510 693h346l194 -275q35 -48 75 -104t57 -79.5t18 -23.5h2q3 0 141 209l185 273h342l-504 -695l528 -739h-356l-203 287q-150 219 -152 219h-2l-159 -221l-199 -285h-344z" />
<glyph unicode="Y" horiz-adv-x="1421" d="M27 1434l329 2l254 -418q25 -40 52 -85.5t40.5 -67.5t14.5 -23h6q1 1 14 23.5t38.5 66t51.5 84.5l263 418h305l-541 -850v-584h-287v584z" />
<glyph unicode="Z" horiz-adv-x="1355" d="M80 0v264l698 752q39 42 75.5 78.5t53.5 52t17 16.5l-4 8h-11q-11 0 -30 -0.5t-41.5 -1t-52 -0.5h-56.5h-629v265h1176v-275l-666 -723q-45 -48 -87 -89.5t-60.5 -58.5t-18.5 -18l5 -8h5q6 0 15.5 0.5t22.5 0.5h30t36 0.5t43 0.5h48h627v-264h-1196z" />
<glyph unicode="[" horiz-adv-x="839" d="M188 -432v2070h574v-254h-299v-1562h299v-254h-574z" />
<glyph unicode="\" horiz-adv-x="1075" d="M33 1434h291l716 -1434h-295z" />
<glyph unicode="]" horiz-adv-x="839" d="M78 -172h301v1563h-301v254h573v-2071h-573v254z" />
<glyph unicode="^" d="M131 885l430 555h242l434 -555l-209 -137l-346 454l-344 -454z" />
<glyph unicode="_" horiz-adv-x="1505" d="M129 0h1247v-225h-1247v225z" />
<glyph unicode="`" horiz-adv-x="1163" d="M358 1829l224 74l223 -359h-254z" />
<glyph unicode="a" horiz-adv-x="1257" d="M33 0l428 1147h334l428 -1147h-279l-82 236h-473l-80 -236h-276zM467 467h317l-63 182q-29 83 -51.5 151.5t-31.5 96.5t-9 29h-6l-99 -289z" />
<glyph unicode="b" horiz-adv-x="1128" d="M129 0v1147h514q157 0 261 -89.5t104 -211.5q0 -92 -48.5 -151t-113.5 -81v-8q97 -27 161 -97t64 -177q0 -67 -26 -125.5t-77 -105.5t-134 -74t-189 -27h-516zM399 223h232q75 0 117.5 34.5t42.5 94.5q0 61 -44 97t-118 36h-230v-262zM399 692h193q66 0 104.5 30.5 t38.5 86.5q0 49 -36.5 82t-106.5 33h-193v-232z" />
<glyph unicode="c" horiz-adv-x="1296" d="M63 571q0 259 174.5 428.5t444.5 169.5q189 0 334 -88.5t213 -249.5l-256 -69q-112 160 -291 160q-155 0 -249.5 -96.5t-94.5 -252.5q0 -157 95.5 -253.5t248.5 -96.5q102 0 175.5 44t115.5 114l258 -70q-73 -154 -214 -244t-333 -90q-180 0 -322 76.5t-220.5 212 t-78.5 305.5z" />
<glyph unicode="d" horiz-adv-x="1277" d="M129 0v1147h444q184 0 328.5 -68t228.5 -200.5t84 -309.5q0 -178 -84 -308.5t-226.5 -195.5t-325.5 -65h-449zM399 252h174q175 0 271 77t96 240t-97 244.5t-272 81.5h-172v-643z" />
<glyph unicode="e" horiz-adv-x="1099" d="M129 0v1147h870v-252h-600v-190h441v-240h-441v-213h611v-252h-881z" />
<glyph unicode="f" horiz-adv-x="1032" d="M129 0v1147h827v-252h-557v-258h408v-252h-408v-385h-270z" />
<glyph unicode="g" horiz-adv-x="1372" d="M63 573q0 170 78.5 306t220.5 213t320 77q186 0 333.5 -86.5t217.5 -251.5l-248 -65q-38 70 -118.5 115t-182.5 45q-158 0 -252 -94.5t-94 -258.5q0 -160 101 -255t278 -95q92 0 182 33t127 72v90h-311v237h555v-655h-240q0 42 0.5 69.5t1 37.5t0.5 12h-6 q-52 -56 -146 -99t-216 -43q-167 0 -304 75t-217 212.5t-80 308.5z" />
<glyph unicode="h" horiz-adv-x="1269" d="M129 0v1147h270v-442h471v442h271v-1147h-271v453h-471v-453h-270z" />
<glyph unicode="i" horiz-adv-x="526" d="M129 0v1147h270v-1147h-270z" />
<glyph unicode="j" horiz-adv-x="915" d="M0 94l147 195q66 -66 175 -66q122 0 164 69.5t42 229.5v625h269v-641q0 -258 -120 -393.5t-353 -135.5q-210 0 -324 117z" />
<glyph unicode="k" horiz-adv-x="1251" d="M129 0v1147h270v-270l-2 -244h6q7 7 121 133l340 381h336l-422 -453l447 -694h-310l-333 512l-183 -197v-315h-270z" />
<glyph unicode="l" horiz-adv-x="1001" d="M129 0v1147h270v-895h535v-252h-805z" />
<glyph unicode="m" horiz-adv-x="1468" d="M129 0v1147h328l182 -336q27 -50 54 -102.5t39 -76.5t13 -24h7q2 0 14 23t40.5 79.5t53.5 102.5l178 334h301v-1147h-270v514v236h-6l-244 -474h-174l-250 488h-6v-236v-528h-260z" />
<glyph unicode="n" horiz-adv-x="1327" d="M129 0v1147h279l516 -711h6v7q0 7 -0.5 18.5t-0.5 27.5v36t-0.5 41.5t-0.5 46.5v49v485h270v-1147h-280l-517 731h-6v-7q0 -8 0.5 -21.5t1 -31.5t1 -41t1 -47t0.5 -52.5v-55.5v-475h-270z" />
<glyph unicode="o" horiz-adv-x="1355" d="M63 573q0 171 79.5 307t220 212.5t315.5 76.5t315.5 -76.5t219.5 -212.5t79 -307q0 -260 -174 -428t-440 -168t-440.5 168t-174.5 428zM338 573q0 -156 94.5 -253t245.5 -97q150 0 245 97t95 253q0 155 -95 252t-245 97q-151 0 -245.5 -97t-94.5 -252z" />
<glyph unicode="p" horiz-adv-x="1087" d="M129 0v1147h438q221 0 347 -107.5t126 -285.5q0 -181 -125 -285t-348 -104h-168v-365h-270zM399 584h179q92 0 140 44.5t48 119.5q0 72 -47 116.5t-141 44.5h-179v-325z" />
<glyph unicode="q" horiz-adv-x="1351" d="M63 573q0 171 79.5 307t220 212.5t315.5 76.5t315.5 -76.5t219.5 -212.5t79 -307q0 -225 -132.5 -384t-348.5 -199v-228h-270v228q-214 42 -346 200.5t-132 382.5zM338 573q0 -156 94.5 -253t245.5 -97q150 0 245 97t95 253q0 155 -95 252t-245 97q-151 0 -245.5 -97 t-94.5 -252z" />
<glyph unicode="r" horiz-adv-x="1157" d="M129 0v1147h446q226 0 352 -101.5t126 -277.5q0 -124 -59 -206t-156 -116l272 -446h-291l-235 393q-27 -2 -111 -2h-74v-391h-270zM399 600h193q92 0 139 39t47 113t-47 112.5t-139 38.5h-193v-303z" />
<glyph unicode="s" horiz-adv-x="1079" d="M61 287l244 65q12 -69 74.5 -117.5t175.5 -48.5q88 0 137 34t49 102q0 24 -7 43t-17 33t-30.5 25.5t-39 19t-51.5 16t-57.5 13.5t-68 14t-73.5 16q-53 12 -91.5 25t-83.5 38t-73.5 57t-47.5 84t-19 117q0 170 117.5 258t328.5 88q194 0 316 -72.5t162 -211.5l-236 -64 q-19 65 -76.5 102.5t-148.5 37.5q-88 0 -136.5 -32.5t-48.5 -92.5q0 -24 6.5 -41.5t25.5 -32t35.5 -23.5t54.5 -19t64 -16t82 -17l15 -3q57 -12 98.5 -23.5t97.5 -39t92 -63t61.5 -95t25.5 -135.5q0 -121 -62 -201.5t-163 -115t-238 -34.5q-65 0 -124 8t-121.5 29t-111 54.5 t-85.5 89.5t-52 129z" />
<glyph unicode="t" horiz-adv-x="1159" d="M68 895v252h1024v-252h-377v-895h-271v895h-376z" />
<glyph unicode="u" horiz-adv-x="1284" d="M115 535v612h274v-637q0 -148 63.5 -217.5t192.5 -69.5q128 0 192 70t64 217v637h268v-612q0 -280 -140 -419t-388 -139t-387 139t-139 419z" />
<glyph unicode="v" horiz-adv-x="1290" d="M27 1147h301l186 -488q105 -273 137 -370h6l136 368l184 490h287l-455 -1147h-328z" />
<glyph unicode="w" horiz-adv-x="1773" d="M35 1147h287l133 -459q30 -98 53.5 -183.5t32.5 -119.5t10 -35h6q1 1 10 32.5t31 110.5t45 158l115 385h289l110 -385q23 -82 43 -158.5t28 -109t9 -33.5h6q1 1 9.5 34.5t32.5 119t54 184.5l138 459h262l-348 -1147h-281l-127 410q-90 303 -94 307h-4q-1 -1 -10 -31 t-33.5 -111.5t-50.5 -166.5l-127 -408h-281z" />
<glyph unicode="x" horiz-adv-x="1259" d="M41 0l416 586l-385 561h321l125 -186q126 -185 127 -185h2q1 0 131 193l115 178h293l-389 -561l422 -586h-326l-152 211q-35 48 -67 93t-44.5 64t-13.5 19h-2q-3 0 -125 -178l-143 -209h-305z" />
<glyph unicode="y" horiz-adv-x="1175" d="M27 1147h309l141 -248q29 -52 60 -108.5t46.5 -85t16.5 -29.5h6q1 1 16 29t46.5 86t60.5 110l141 246h279l-428 -729v-418h-268v418z" />
<glyph unicode="z" horiz-adv-x="1163" d="M80 0v260l483 467q53 52 96.5 93.5t57.5 54.5t14 14l-2 6h-162h-469v252h985v-260l-450 -445q-62 -60 -113.5 -106.5t-70.5 -63.5l-19 -16l4 -6q78 2 182 2h467v-252h-1003z" />
<glyph unicode="{" horiz-adv-x="919" d="M129 477v242q40 6 55 12q102 45 103 209v174q0 244 145 381t408 137v-241q-51 0 -91 -6.5t-80 -27t-66 -54.5t-42 -92t-16 -136v-149q0 -73 -17.5 -133t-41 -94t-52 -58t-47 -32.5t-29.5 -10.5q10 -2 29 -12t47.5 -35.5t52.5 -60.5t41 -93t17 -127v-151q0 -66 10.5 -117 t31.5 -85.5t47 -57.5t60.5 -35.5t69 -17.5t76.5 -5v-241q-263 0 -408 138t-145 384v174q0 59 -14 102.5t-32.5 65t-42.5 34t-38.5 15.5t-26.5 4h-4z" />
<glyph unicode="|" horiz-adv-x="471" d="M123 -152v1739h225v-1739h-225z" />
<glyph unicode="}" horiz-adv-x="919" d="M82 -197q51 0 90.5 6.5t79 27t65.5 54.5t42 92t16 136v149q0 73 17 133t41 94t52 58t46.5 32.5t29.5 10.5q-10 2 -29 12t-47 35.5t-52 60.5t-41 94t-17 128v149q0 78 -16 136.5t-42 92.5t-65.5 54.5t-79 27.5t-90.5 7v241q261 0 406 -138t145 -382v-176q0 -58 14 -101.5 t32 -65t42.5 -34t39 -15t26.5 -3.5h4v-244q-38 -5 -48 -9q-110 -38 -110 -212v-174q0 -244 -144.5 -381t-406.5 -137v241z" />
<glyph unicode="~" d="M221 631q27 33 92 65.5t146 32.5q78 0 211.5 -42t216.5 -42q63 0 119.5 26.5t95.5 61.5l43 -225q-22 -32 -88 -64t-146 -32t-214.5 42t-215.5 42q-64 0 -120.5 -26t-92.5 -64z" />
<glyph unicode="&#xa1;" horiz-adv-x="653" d="M174 1311q0 61 40 101t114 40t113.5 -40t39.5 -101q0 -62 -40 -102t-113 -40t-113.5 40t-40.5 102zM184 0v1051h287v-1051h-287z" />
<glyph unicode="&#xa2;" horiz-adv-x="1183" d="M63 586q0 209 117 350.5t312 175.5v213h229v-213q137 -23 243 -102.5t156 -218.5l-250 -70q-76 168 -256 168q-136 0 -211 -82.5t-75 -222.5q0 -143 76.5 -227.5t205.5 -84.5q178 0 256 156l250 -68q-51 -126 -155.5 -211.5t-239.5 -111.5v-203h-229v203 q-188 38 -308.5 186t-120.5 363z" />
<glyph unicode="&#xa3;" horiz-adv-x="1073" d="M72 440v199h86q-17 149 -17 188q0 162 102.5 252t297.5 90q60 0 113 -8.5t110 -31.5t100 -59.5t76 -98t45 -142.5l-250 -67q-22 99 -65.5 139.5t-114.5 40.5q-75 0 -113.5 -37t-38.5 -125q0 -55 13 -141h354v-199h-330q4 -46 4 -61q0 -91 -49 -125l4 -6q113 4 279 4h317 v-252h-921v252q64 10 85 39.5t21 95.5l-2 53h-106z" />
<glyph unicode="&#xa4;" horiz-adv-x="1341" d="M76 1026l139 141l141 -139q141 98 312 98q174 0 315 -98l143 139l140 -141l-142 -141q99 -138 99 -312q0 -167 -99 -313l140 -141l-140 -142l-143 142q-146 -101 -313 -101q-169 0 -310 101l-141 -142l-139 142l137 141q-98 145 -98 313q0 173 98 314zM371 573 q0 -133 86 -217t213 -84q128 0 213.5 84t85.5 217q0 129 -86 214t-213 85q-126 0 -212.5 -85t-86.5 -214z" />
<glyph unicode="&#xa5;" horiz-adv-x="1081" d="M41 1147h297l137 -320q12 -30 28.5 -67.5t27 -60t10.5 -23.5h6q8 8 65 151l138 320h290l-182 -361h119v-170h-205l-43 -86h248v-172h-303v-358h-271v358h-294v172h239l-43 86h-196v170h112z" />
<glyph unicode="&#xa6;" horiz-adv-x="471" d="M123 -152v584h225v-584h-225zM123 1004v583h225v-583h-225z" />
<glyph unicode="&#xa7;" d="M158 260l266 70q9 -76 79 -117t189 -41q219 0 219 123q0 59 -56.5 82t-230.5 53q-74 13 -116 21q-54 10 -97 22.5t-89.5 34.5t-78 50t-51.5 70t-20 93q0 155 162 229q-141 67 -141 221q0 76 33 132.5t94.5 91t143.5 51t185 16.5q214 0 351.5 -70.5t181.5 -209.5l-234 -64 q-60 158 -291 158q-180 0 -180 -98q0 -16 4 -29t14 -24t20 -18.5t31 -15t36.5 -12t46.5 -10.5t52 -9.5t61.5 -10t66.5 -11.5q78 -13 133.5 -27t109 -37t86 -52.5t52.5 -72.5t20 -99q0 -162 -161 -226q155 -81 155 -241q0 -156 -127 -233t-362 -77q-103 0 -191.5 14.5 t-166.5 46.5t-130.5 89.5t-68.5 136.5zM430 762q0 -19 6 -35t20 -28.5t29 -22.5t40.5 -19t46.5 -15t54.5 -13t56.5 -11t62 -11t62 -11l35 -6q108 32 108 119q0 53 -44.5 86.5t-91 44.5t-149.5 28l-18 3t-16.5 3t-18.5 3l-45 8q-60 -13 -98.5 -44t-38.5 -79z" />
<glyph unicode="&#xa8;" horiz-adv-x="1163" d="M240 1702q0 54 39 92.5t94 38.5q54 0 91.5 -38.5t37.5 -92.5q0 -56 -38 -93.5t-93 -37.5t-93 37.5t-38 93.5zM659 1702q0 54 38.5 92.5t93.5 38.5t94 -38.5t39 -92.5q0 -55 -38.5 -93t-94.5 -38t-94 38t-38 93z" />
<glyph unicode="&#xa9;" horiz-adv-x="1617" d="M63 543q0 217 100.5 388.5t270 264t373.5 92.5q205 0 374.5 -92.5t270 -264t100.5 -388.5q0 -162 -58.5 -302.5t-159 -237t-237.5 -151.5t-290 -55t-289.5 55t-236.5 151.5t-159 237t-59 302.5zM211 545q0 -267 167.5 -436.5t428.5 -169.5q262 0 431 169.5t169 436.5 q0 132 -45 244.5t-124 191t-190.5 122.5t-240.5 44q-171 0 -307 -75.5t-212.5 -213.5t-76.5 -313zM406 541q0 172 111.5 282.5t285.5 110.5q126 0 219 -60t131 -167l-170 -45q-50 96 -174 96q-98 0 -157.5 -58.5t-59.5 -156.5t60 -156.5t157 -58.5q120 0 178 90l172 -58 q-44 -94 -138.5 -151t-219.5 -57q-176 0 -285.5 109t-109.5 280z" />
<glyph unicode="&#xaa;" horiz-adv-x="854" d="M72 176v174h710v-174h-710zM74 481l243 666h222l241 -666h-176l-43 125h-274l-45 -125h-168zM330 735h186l-37 109q-13 36 -26.5 77t-19.5 59.5t-7 18.5h-6q-1 0 -6.5 -19t-18.5 -59t-26 -77z" />
<glyph unicode="&#xab;" horiz-adv-x="1447" d="M123 573l483 480l154 -154l-334 -321v-7l336 -321l-158 -156zM686 573l483 480l154 -154l-334 -321v-7l336 -321l-158 -156z" />
<glyph unicode="&#xad;" horiz-adv-x="1175" d="M180 463v233h815v-233h-815z" />
<glyph unicode="&#xae;" horiz-adv-x="1617" d="M63 543q0 217 100.5 388.5t270 264t373.5 92.5q205 0 374.5 -92.5t270 -264t100.5 -388.5q0 -162 -58.5 -302.5t-159 -237t-237.5 -151.5t-290 -55t-289.5 55t-236.5 151.5t-159 237t-59 302.5zM211 545q0 -267 167.5 -436.5t428.5 -169.5q262 0 431 169.5t169 436.5 q0 132 -45 244.5t-124 191t-190.5 122.5t-240.5 44q-171 0 -307 -75.5t-212.5 -213.5t-76.5 -313zM508 168v756h305q151 0 235.5 -67.5t84.5 -184.5q0 -76 -39.5 -127t-104.5 -72l168 -305h-211l-145 270q-16 -2 -60 -2h-43v-268h-190zM698 578h125q56 0 85.5 24t29.5 66 q0 43 -29.5 66.5t-85.5 23.5h-125v-180z" />
<glyph unicode="&#xaf;" horiz-adv-x="1163" d="M254 1563v235h655v-235h-655z" />
<glyph unicode="&#xb0;" horiz-adv-x="589" d="M27 1436q0 116 74.5 187t193.5 71q120 0 194 -70.5t74 -187.5q0 -118 -73.5 -189t-194.5 -71q-119 0 -193.5 71t-74.5 189zM195 1436q0 -46 28 -74.5t72 -28.5t72 28.5t28 74.5q0 45 -27.5 72.5t-72.5 27.5t-72.5 -27.5t-27.5 -72.5z" />
<glyph unicode="&#xb1;" d="M276 2v234h816v-234h-816zM276 659v234h283v295h250v-295h283v-234h-283l2 -282h-252v282h-283z" />
<glyph unicode="&#xb2;" horiz-adv-x="696" d="M57 1556q55 226 301 226q130 0 203.5 -64.5t73.5 -183.5q0 -134 -127 -231q-23 -18 -55 -41.5t-61.5 -44t-56 -38.5t-43.5 -29l-16 -11l3 -11q81 7 120 7h246v-164h-584v213l291 192q103 64 103 137q0 47 -30 74t-87 27q-53 0 -84.5 -23t-44.5 -78z" />
<glyph unicode="&#xb3;" horiz-adv-x="696" d="M47 1190l162 47q6 -59 42 -91t99 -32q59 0 92 30t33 75t-34 72.5t-91 27.5h-59v119h51q56 0 89.5 27.5t33.5 72.5q0 38 -30.5 65t-88.5 27t-89 -27.5t-42 -89.5l-152 41q16 107 90 167.5t205 60.5q135 0 206 -59.5t71 -155.5q0 -76 -40 -127.5t-99 -57.5v-8 q64 -8 108.5 -57.5t44.5 -130.5q0 -99 -79.5 -165.5t-200.5 -66.5q-142 0 -222 66t-100 170z" />
<glyph unicode="&#xb4;" horiz-adv-x="1163" d="M358 1544l224 359l223 -74l-193 -285h-254z" />
<glyph unicode="&#xb6;" horiz-adv-x="1341" d="M63 776q0 178 110 274.5t319 96.5h720v-1434h-284v1170h-152v-1170h-284v680q-209 0 -319 99.5t-110 283.5z" />
<glyph unicode="&#xb7;" horiz-adv-x="540" d="M115 578q0 61 40.5 101t114.5 40q73 0 113.5 -39.5t40.5 -101.5t-41 -103t-113 -41q-73 0 -114 41t-41 103z" />
<glyph unicode="&#xb8;" horiz-adv-x="1163" d="M354 -156q50 -22 140 -22q139 0 139 57q0 37 -59 54t-189 16v149h193v-59q115 -7 183 -54.5t68 -144.5q0 -96 -72.5 -148t-219.5 -52q-118 0 -183 26v178z" />
<glyph unicode="&#xb9;" horiz-adv-x="696" d="M68 1544l233 221h174v-630h162v-164h-508v162h162v256q0 92 12 161h-8q-1 0 -7.5 -8.5t-18.5 -23t-23 -25.5l-62 -61z" />
<glyph unicode="&#xba;" horiz-adv-x="847" d="M72 817q0 152 102 252t250 100t250 -100t102 -252t-102 -252t-250 -100t-250 100t-102 252zM92 172v174h666v-174h-666zM242 817q0 -83 49.5 -136.5t132.5 -53.5t132.5 53.5t49.5 136.5t-49.5 137t-132.5 54t-132.5 -54t-49.5 -137z" />
<glyph unicode="&#xbb;" horiz-adv-x="1447" d="M123 250l336 321v7l-334 321l154 154l483 -480l-481 -479zM686 250l336 321v7l-334 321l154 154l483 -480l-481 -479z" />
<glyph unicode="&#xbc;" horiz-adv-x="1718" d="M68 1212l233 222h174v-631h162v-164h-508v162h162v256q0 28 4.5 86t7.5 76h-8q-1 0 -7.5 -9t-18.5 -23.5t-23 -25.5l-62 -61zM545 0l428 1434h201l-429 -1434h-200zM1049 178v154l268 463h264v-455h113v-162h-113v-176h-176v176h-356zM1225 346l8 -8l86 2h86v164 q0 109 6 145h-10q-1 0 -43.5 -74t-86.5 -150t-46 -79z" />
<glyph unicode="&#xbd;" horiz-adv-x="1718" d="M68 1212l233 222h174v-631h162v-164h-508v162h162v256q0 28 4.5 86t7.5 76h-8q-1 0 -7.5 -9t-18.5 -23.5t-23 -25.5l-62 -61zM545 0l428 1434h201l-429 -1434h-200zM1081 586q54 225 299 225q132 0 205.5 -64.5t73.5 -183.5q0 -129 -127 -231q-35 -27 -94 -67.5t-99 -68 t-41 -28.5l5 -10q69 6 118 6h246v-162h-582v211l289 193q103 62 103 139q0 45 -29.5 71.5t-85.5 26.5q-55 0 -86 -22.5t-43 -77.5z" />
<glyph unicode="&#xbe;" horiz-adv-x="1718" d="M47 858l162 47q6 -59 42 -91t99 -32q59 0 92 30t33 75t-34 72.5t-91 27.5h-59v119h51q56 0 89.5 27.5t33.5 72.5q0 38 -30.5 65t-88.5 27q-59 0 -90 -27.5t-41 -88.5l-152 41q16 106 90 166.5t205 60.5q135 0 206 -59.5t71 -155.5q0 -76 -40 -127t-99 -57v-9 q64 -8 108.5 -57.5t44.5 -130.5q0 -99 -79.5 -165t-200.5 -66q-142 0 -222 65.5t-100 169.5zM545 0l428 1434h201l-429 -1434h-200zM1049 178v154l268 463h264v-455h113v-162h-113v-176h-176v176h-356zM1225 346l8 -8l86 2h86v164q0 109 6 145h-10q-1 0 -43.5 -74 t-86.5 -150t-46 -79z" />
<glyph unicode="&#xbf;" horiz-adv-x="1171" d="M63 385q0 73 24 137t60.5 109t91 84t105.5 64t113 48v224h286v-355q-151 -48 -237.5 -92.5t-120 -86t-33.5 -93.5q0 -77 52.5 -129.5t170.5 -52.5q111 0 171.5 45.5t91.5 136.5l270 -74q-46 -176 -189 -277.5t-354 -101.5q-120 0 -216.5 33t-158 90.5t-94.5 131.5 t-33 159zM449 1311q0 61 39.5 101t111.5 40q74 0 115 -40t41 -101q0 -62 -41 -102t-115 -40q-72 0 -111.5 39.5t-39.5 102.5z" />
<glyph unicode="&#xc0;" horiz-adv-x="1533" d="M33 0l573 1434h322l573 -1434h-305l-109 287h-645l-108 -287h-301zM459 1829l223 74l223 -359h-254zM541 545h446l-119 315q-19 48 -45.5 115.5t-40 101.5t-14.5 35h-6q-2 -2 -100 -252z" />
<glyph unicode="&#xc1;" horiz-adv-x="1533" d="M33 0l573 1434h322l573 -1434h-305l-109 287h-645l-108 -287h-301zM541 545h446l-119 315q-19 48 -45.5 115.5t-40 101.5t-14.5 35h-6q-2 -2 -100 -252zM623 1544l225 359l223 -74l-192 -285h-256z" />
<glyph unicode="&#xc2;" horiz-adv-x="1533" d="M33 0l573 1434h322l573 -1434h-305l-109 287h-645l-108 -287h-301zM418 1675l342 260l340 -260l-125 -151l-215 164l-217 -162zM541 545h446l-119 315q-19 48 -45.5 115.5t-40 101.5t-14.5 35h-6q-2 -2 -100 -252z" />
<glyph unicode="&#xc3;" horiz-adv-x="1533" d="M33 0l573 1434h322l573 -1434h-305l-109 287h-645l-108 -287h-301zM391 1786q20 24 70 45.5t119 21.5q63 0 165.5 -31.5t169.5 -31.5q99 0 166 55l45 -205q-17 -22 -68 -43.5t-118 -21.5q-64 0 -167 31.5t-167 31.5q-54 0 -99.5 -17t-70.5 -40zM541 545h446l-119 315 q-19 48 -45.5 115.5t-40 101.5t-14.5 35h-6q-2 -2 -100 -252z" />
<glyph unicode="&#xc4;" horiz-adv-x="1533" d="M33 0l573 1434h322l573 -1434h-305l-109 287h-645l-108 -287h-301zM424 1702q0 54 39 92.5t96 38.5q54 0 91.5 -38.5t37.5 -92.5q0 -55 -38.5 -93t-94.5 -38q-55 0 -93 37.5t-38 93.5zM541 545h446l-119 315q-19 48 -45.5 115.5t-40 101.5t-14.5 35h-6q-2 -2 -100 -252z M844 1702q0 54 38 92.5t95 38.5q54 0 92.5 -38.5t38.5 -92.5q0 -55 -38.5 -93t-92.5 -38q-57 0 -95 37.5t-38 93.5z" />
<glyph unicode="&#xc5;" horiz-adv-x="1533" d="M33 0l573 1434h322l573 -1434h-305l-109 287h-645l-108 -287h-301zM506 1733q0 108 72 169.5t188 61.5t188 -61.5t72 -169.5t-72 -170t-188 -62t-188 62t-72 170zM541 545h446l-119 315q-19 48 -45.5 115.5t-40 101.5t-14.5 35h-6q-2 -2 -100 -252zM680 1733 q0 -36 23.5 -57t62.5 -21t62.5 21t23.5 57q0 35 -23.5 56t-62.5 21t-62.5 -21t-23.5 -56z" />
<glyph unicode="&#xc6;" horiz-adv-x="2048" d="M33 0l573 1434h332h1010v-252h-731v-326h565v-240h-565v-364h739v-252h-1018v299h-487l-115 -299h-303zM543 537h395v645h-147z" />
<glyph unicode="&#xc7;" horiz-adv-x="1548" d="M63 721q0 216 97 386t265.5 262.5t379.5 92.5q239 0 414 -113.5t249 -291.5l-282 -78q-56 94 -154 154.5t-239 60.5q-199 0 -321 -130t-122 -345q0 -216 124.5 -346.5t316.5 -130.5q146 0 252.5 68.5t160.5 181.5l281 -74q-64 -161 -191.5 -270.5t-294.5 -151.5 q86 -50 86 -156q0 -96 -72.5 -148t-219.5 -52q-118 0 -183 26v178q50 -22 140 -22q139 0 139 57q0 37 -59 54t-189 16v39q-258 52 -418 249t-160 484z" />
<glyph unicode="&#xc8;" horiz-adv-x="1247" d="M129 0v1434h1018v-265h-733v-301h551v-266h-551v-338h741v-264h-1026zM334 1829l223 74l223 -359h-254z" />
<glyph unicode="&#xc9;" horiz-adv-x="1247" d="M129 0v1434h1018v-265h-733v-301h551v-266h-551v-338h741v-264h-1026zM500 1544l223 359l223 -74l-192 -285h-254z" />
<glyph unicode="&#xca;" horiz-adv-x="1247" d="M129 0v1434h1018v-265h-733v-301h551v-266h-551v-338h741v-264h-1026zM293 1675l342 260l340 -260l-123 -151l-217 164l-217 -162z" />
<glyph unicode="&#xcb;" horiz-adv-x="1247" d="M129 0v1434h1018v-265h-733v-301h551v-266h-551v-338h741v-264h-1026zM301 1702q0 54 38.5 92.5t94.5 38.5q54 0 91.5 -38.5t37.5 -92.5q0 -55 -38.5 -93t-92.5 -38q-56 0 -93.5 37.5t-37.5 93.5zM721 1702q0 55 37.5 93t93.5 38q55 0 93 -38.5t38 -92.5 q0 -56 -37.5 -93.5t-93.5 -37.5q-57 0 -94 37.5t-37 93.5z" />
<glyph unicode="&#xcc;" horiz-adv-x="542" d="M-37 1829l225 74l224 -359h-256zM129 0v1434h285v-1434h-285z" />
<glyph unicode="&#xcd;" horiz-adv-x="542" d="M129 0v1434h285v-1434h-285zM129 1544l223 359l223 -74l-192 -285h-254z" />
<glyph unicode="&#xce;" horiz-adv-x="542" d="M4 1686l268 249l269 -249l-133 -146l-136 129l-137 -127zM129 0v1434h285v-1434h-285z" />
<glyph unicode="&#xcf;" horiz-adv-x="542" d="M-16 1702q0 54 39 92.5t96 38.5q54 0 91.5 -38.5t37.5 -92.5q0 -55 -38.5 -93t-94.5 -38q-55 0 -93 37.5t-38 93.5zM129 0v1434h285v-1434h-285zM295 1702q0 54 38.5 92.5t94.5 38.5q55 0 93 -38.5t38 -92.5q0 -56 -37.5 -93.5t-93.5 -37.5q-57 0 -95 37.5t-38 93.5z" />
<glyph unicode="&#xd0;" horiz-adv-x="1523" d="M23 608v252h106v574h573q215 0 386.5 -89t270.5 -254.5t99 -379.5t-99 -377t-269 -248.5t-383 -85.5h-578v608h-106zM414 264h276q97 0 181.5 26.5t152.5 79t107.5 140.5t39.5 201t-39.5 202t-108 144t-154.5 83.5t-183 28.5h-272v-309h315v-252h-315v-344z" />
<glyph unicode="&#xd1;" horiz-adv-x="1519" d="M129 0v1434h289l686 -945h6v11q0 11 -0.5 29.5t-1 43.5t-1 55.5t-1 62.5t-0.5 68v68v607h285v-1434h-289l-686 958h-6v-10q0 -11 0.5 -30t1 -43.5t1 -56.5t1 -66t0.5 -73.5v-76.5v-602h-285zM387 1786q17 24 67.5 45.5t120.5 21.5q63 0 165.5 -31.5t168.5 -31.5 q103 0 166 55l45 -205q-15 -22 -67 -43.5t-119 -21.5q-64 0 -167 31.5t-167 31.5q-53 0 -98 -17t-70 -40z" />
<glyph unicode="&#xd2;" horiz-adv-x="1632" d="M63 717q0 163 57 302.5t156.5 236.5t239 151.5t299.5 54.5t299.5 -54.5t239 -151.5t156.5 -236.5t57 -302.5q0 -216 -97.5 -386.5t-269 -264t-385.5 -93.5t-385.5 93.5t-269 264t-97.5 386.5zM350 717q0 -215 131.5 -345t333.5 -130t333.5 129.5t131.5 345.5 t-131.5 346.5t-333.5 130.5t-333.5 -130.5t-131.5 -346.5zM510 1829l223 74l223 -359h-254z" />
<glyph unicode="&#xd3;" horiz-adv-x="1632" d="M63 717q0 163 57 302.5t156.5 236.5t239 151.5t299.5 54.5t299.5 -54.5t239 -151.5t156.5 -236.5t57 -302.5q0 -216 -97.5 -386.5t-269 -264t-385.5 -93.5t-385.5 93.5t-269 264t-97.5 386.5zM350 717q0 -215 131.5 -345t333.5 -130t333.5 129.5t131.5 345.5 t-131.5 346.5t-333.5 130.5t-333.5 -130.5t-131.5 -346.5zM676 1544l223 359l223 -74l-192 -285h-254z" />
<glyph unicode="&#xd4;" horiz-adv-x="1632" d="M63 717q0 163 57 302.5t156.5 236.5t239 151.5t299.5 54.5t299.5 -54.5t239 -151.5t156.5 -236.5t57 -302.5q0 -216 -97.5 -386.5t-269 -264t-385.5 -93.5t-385.5 93.5t-269 264t-97.5 386.5zM350 717q0 -215 131.5 -345t333.5 -130t333.5 129.5t131.5 345.5 t-131.5 346.5t-333.5 130.5t-333.5 -130.5t-131.5 -346.5zM469 1675l342 260l340 -260l-123 -151l-217 164l-217 -162z" />
<glyph unicode="&#xd5;" horiz-adv-x="1632" d="M63 717q0 163 57 302.5t156.5 236.5t239 151.5t299.5 54.5t299.5 -54.5t239 -151.5t156.5 -236.5t57 -302.5q0 -216 -97.5 -386.5t-269 -264t-385.5 -93.5t-385.5 93.5t-269 264t-97.5 386.5zM350 717q0 -215 131.5 -345t333.5 -130t333.5 129.5t131.5 345.5 t-131.5 346.5t-333.5 130.5t-333.5 -130.5t-131.5 -346.5zM442 1786q20 24 70 45.5t119 21.5q63 0 166.5 -31.5t169.5 -31.5q99 0 166 55l45 -205q-17 -22 -68.5 -43.5t-118.5 -21.5q-63 0 -167 31.5t-167 31.5q-54 0 -99.5 -17t-68.5 -40z" />
<glyph unicode="&#xd6;" horiz-adv-x="1632" d="M63 717q0 163 57 302.5t156.5 236.5t239 151.5t299.5 54.5t299.5 -54.5t239 -151.5t156.5 -236.5t57 -302.5q0 -216 -97.5 -386.5t-269 -264t-385.5 -93.5t-385.5 93.5t-269 264t-97.5 386.5zM350 717q0 -215 131.5 -345t333.5 -130t333.5 129.5t131.5 345.5 t-131.5 346.5t-333.5 130.5t-333.5 -130.5t-131.5 -346.5zM477 1702q0 54 38.5 92.5t94.5 38.5q54 0 91.5 -38.5t37.5 -92.5q0 -55 -38.5 -93t-92.5 -38q-56 0 -93.5 37.5t-37.5 93.5zM897 1702q0 55 37.5 93t93.5 38q55 0 93 -38.5t38 -92.5q0 -56 -37.5 -93.5t-93.5 -37.5 q-57 0 -94 37.5t-37 93.5z" />
<glyph unicode="&#xd7;" d="M274 817l172 170l238 -233l238 233l172 -170l-240 -235l238 -238l-170 -170l-238 236l-238 -236l-170 170l238 238z" />
<glyph unicode="&#xd8;" horiz-adv-x="1632" d="M63 717q0 163 57 302.5t156.5 236.5t239 151.5t299.5 54.5q191 0 352 -76l162 209l205 -153l-160 -207q193 -209 193 -518q0 -216 -97.5 -386.5t-269 -264t-385.5 -93.5q-192 0 -350 76l-164 -213l-205 158l160 209q-193 206 -193 514zM350 717q0 -163 82 -285l563 729 q-91 33 -180 33q-202 0 -333.5 -130.5t-131.5 -346.5zM637 272q79 -30 178 -30q203 0 334 129.5t131 345.5q0 168 -82 289z" />
<glyph unicode="&#xd9;" horiz-adv-x="1443" d="M115 625v809h288v-801q0 -200 80 -295.5t242 -95.5t242 95.5t80 295.5v801h282v-809q0 -313 -161.5 -482.5t-444.5 -169.5q-286 0 -447 169.5t-161 482.5zM424 1829l223 74l223 -359h-254z" />
<glyph unicode="&#xda;" horiz-adv-x="1443" d="M115 625v809h288v-801q0 -200 80 -295.5t242 -95.5t242 95.5t80 295.5v801h282v-809q0 -313 -161.5 -482.5t-444.5 -169.5q-286 0 -447 169.5t-161 482.5zM588 1544l225 359l223 -74l-192 -285h-256z" />
<glyph unicode="&#xdb;" horiz-adv-x="1443" d="M115 625v809h288v-801q0 -200 80 -295.5t242 -95.5t242 95.5t80 295.5v801h282v-809q0 -313 -161.5 -482.5t-444.5 -169.5q-286 0 -447 169.5t-161 482.5zM383 1675l342 260l340 -260l-125 -151l-215 164l-217 -162z" />
<glyph unicode="&#xdc;" horiz-adv-x="1443" d="M115 625v809h288v-801q0 -200 80 -295.5t242 -95.5t242 95.5t80 295.5v801h282v-809q0 -313 -161.5 -482.5t-444.5 -169.5q-286 0 -447 169.5t-161 482.5zM389 1702q0 54 39 92.5t96 38.5q54 0 91.5 -38.5t37.5 -92.5q0 -55 -38.5 -93t-94.5 -38t-93.5 37.5t-37.5 93.5z M809 1702q0 54 38.5 92.5t94.5 38.5q54 0 92.5 -38.5t38.5 -92.5q0 -55 -38.5 -93t-92.5 -38q-57 0 -95 37.5t-38 93.5z" />
<glyph unicode="&#xdd;" horiz-adv-x="1421" d="M27 1434l329 2l254 -418q25 -40 52 -85.5t40.5 -67.5t14.5 -23h6q1 1 14 23.5t38.5 66t51.5 84.5l263 418h305l-541 -850v-584h-287v584zM596 1544l223 359l223 -74l-190 -285h-256z" />
<glyph unicode="&#xde;" horiz-adv-x="1212" d="M129 0v1434h285v-260h200q258 0 404.5 -123.5t146.5 -341.5q0 -213 -146 -332t-405 -119h-200v-258h-285zM414 510h217q122 0 185 52.5t63 148.5q0 94 -63 146t-185 52h-217v-399z" />
<glyph unicode="&#xdf;" horiz-adv-x="1228" d="M129 0v1147h948l-252 -451l4 -6h7q148 0 246 -96.5t98 -251.5q0 -158 -101 -263.5t-274 -105.5q-200 0 -293 97l111 188q67 -63 145 -63q72 0 114 42.5t42 102.5q0 67 -46 108t-130 41h-158v183l123 219l-4 4h-125h-185v-895h-270z" />
<glyph unicode="&#xe0;" horiz-adv-x="1257" d="M33 0l428 1147h334l428 -1147h-279l-82 236h-473l-80 -236h-276zM324 1542l223 74l223 -359h-254zM467 467h317l-63 182q-29 83 -51.5 151.5t-31.5 96.5t-9 29h-6l-99 -289z" />
<glyph unicode="&#xe1;" horiz-adv-x="1257" d="M33 0l428 1147h334l428 -1147h-279l-82 236h-473l-80 -236h-276zM467 467h317l-63 182q-29 83 -51.5 151.5t-31.5 96.5t-9 29h-6l-99 -289zM489 1257l224 359l223 -74l-193 -285h-254z" />
<glyph unicode="&#xe2;" horiz-adv-x="1257" d="M33 0l428 1147h334l428 -1147h-279l-82 236h-473l-80 -236h-276zM362 1399l269 250l268 -250l-131 -146l-137 129l-135 -127zM467 467h317l-63 182q-29 83 -51.5 151.5t-31.5 96.5t-9 29h-6l-99 -289z" />
<glyph unicode="&#xe3;" horiz-adv-x="1257" d="M33 0l428 1147h334l428 -1147h-279l-82 236h-473l-80 -236h-276zM293 1501q15 22 63 44t105 22t149.5 -32t151.5 -32q46 0 85 16.5t62 39.5l45 -207q-15 -21 -62 -42.5t-104 -21.5q-58 0 -151.5 32t-149.5 32q-46 0 -86 -17.5t-63 -40.5zM467 467h317l-63 182 q-29 83 -51.5 151.5t-31.5 96.5t-9 29h-6l-99 -289z" />
<glyph unicode="&#xe4;" horiz-adv-x="1257" d="M33 0l428 1147h334l428 -1147h-279l-82 236h-473l-80 -236h-276zM291 1415q0 55 38.5 93t94.5 38q54 0 91.5 -38.5t37.5 -92.5q0 -55 -38.5 -93t-92.5 -38q-56 0 -93.5 38t-37.5 93zM467 467h317l-63 182q-29 83 -51.5 151.5t-31.5 96.5t-9 29h-6l-99 -289zM711 1415 q0 54 38 92.5t93 38.5t93 -38.5t38 -92.5q0 -55 -37.5 -93t-93.5 -38t-93.5 38t-37.5 93z" />
<glyph unicode="&#xe5;" horiz-adv-x="1257" d="M33 0l428 1147h334l428 -1147h-279l-82 236h-473l-80 -236h-276zM371 1446q0 108 72 169.5t188 61.5q118 0 189 -61.5t71 -169.5q0 -109 -71.5 -170.5t-188.5 -61.5q-116 0 -188 62t-72 170zM467 467h317l-63 182q-29 83 -51.5 151.5t-31.5 96.5t-9 29h-6l-99 -289z M547 1446q0 -36 22.5 -57t61.5 -21q40 0 63 20.5t23 57.5q0 35 -23 56.5t-63 21.5q-38 0 -61 -21.5t-23 -56.5z" />
<glyph unicode="&#xe6;" horiz-adv-x="1701" d="M33 0l434 1147h1132v-252h-600v-190h443v-240h-443v-213h611v-252h-867v223h-360l-76 -223h-274zM461 451h282v454h-127z" />
<glyph unicode="&#xe7;" horiz-adv-x="1296" d="M63 571q0 259 174.5 428.5t444.5 169.5q189 0 334 -88.5t213 -249.5l-256 -69q-112 160 -291 160q-155 0 -249.5 -96.5t-94.5 -252.5q0 -157 95.5 -253.5t248.5 -96.5q102 0 175.5 44t115.5 114l258 -70q-55 -116 -149.5 -197t-221.5 -114q90 -54 90 -160 q0 -200 -293 -200q-117 0 -182 26v176q45 -20 141 -20q138 0 138 57q0 37 -57.5 53.5t-190.5 16.5v49q-201 51 -322 206t-121 367z" />
<glyph unicode="&#xe8;" horiz-adv-x="1099" d="M129 0v1147h870v-252h-600v-190h441v-240h-441v-213h611v-252h-881zM260 1542l223 74l224 -359h-254z" />
<glyph unicode="&#xe9;" horiz-adv-x="1099" d="M129 0v1147h870v-252h-600v-190h441v-240h-441v-213h611v-252h-881zM424 1257l225 359l223 -74l-192 -285h-256z" />
<glyph unicode="&#xea;" horiz-adv-x="1099" d="M129 0v1147h870v-252h-600v-190h441v-240h-441v-213h611v-252h-881zM219 1389l342 260l340 -260l-125 -152l-215 164l-217 -162z" />
<glyph unicode="&#xeb;" horiz-adv-x="1099" d="M129 0v1147h870v-252h-600v-190h441v-240h-441v-213h611v-252h-881zM225 1415q0 54 39 92.5t96 38.5q54 0 91.5 -38.5t37.5 -92.5q0 -55 -38.5 -93t-94.5 -38t-93.5 38t-37.5 93zM645 1415q0 55 38.5 93t94.5 38q54 0 92.5 -38.5t38.5 -92.5q0 -55 -38.5 -93t-92.5 -38 q-57 0 -95 37.5t-38 93.5z" />
<glyph unicode="&#xec;" horiz-adv-x="526" d="M-43 1542l225 74l224 -359h-256zM129 0v1147h270v-1147h-270z" />
<glyph unicode="&#xed;" horiz-adv-x="526" d="M123 1257l223 359l225 -74l-192 -285h-256zM129 0v1147h270v-1147h-270z" />
<glyph unicode="&#xee;" horiz-adv-x="526" d="M-2 1399l268 250l269 -250l-134 -146l-135 129l-135 -127zM129 0v1147h270v-1147h-270z" />
<glyph unicode="&#xef;" horiz-adv-x="526" d="M-20 1415q0 55 38 93t95 38q54 0 91.5 -38.5t37.5 -92.5q0 -55 -38.5 -93t-92.5 -38q-55 0 -93 38t-38 93zM129 0v1147h270v-1147h-270zM291 1415q0 54 38 92.5t93 38.5t93 -38.5t38 -92.5q0 -55 -37.5 -93t-93.5 -38t-93.5 38t-37.5 93z" />
<glyph unicode="&#xf0;" horiz-adv-x="1277" d="M23 461v235h106v451h444q184 0 328.5 -68t228.5 -200.5t84 -309.5q0 -178 -84 -308.5t-226.5 -195.5t-325.5 -65h-449v461h-106zM399 252h174q175 0 271 77t96 240t-97 244.5t-272 81.5h-172v-199h301v-235h-301v-209z" />
<glyph unicode="&#xf1;" horiz-adv-x="1327" d="M129 0v1147h279l516 -711h6v7q0 7 -0.5 18.5t-0.5 27.5v36t-0.5 41.5t-0.5 46.5v49v485h270v-1147h-280l-517 731h-6v-7q0 -8 0.5 -21.5t1 -31.5t1 -41t1 -47t0.5 -52.5v-55.5v-475h-270zM317 1501q15 22 63 44t105 22t149.5 -32t151.5 -32q45 0 84.5 17t63.5 39l45 -207 q-15 -21 -62 -42.5t-104 -21.5q-58 0 -151.5 32t-149.5 32q-46 0 -86.5 -17.5t-63.5 -40.5z" />
<glyph unicode="&#xf2;" horiz-adv-x="1355" d="M63 573q0 171 79.5 307t220 212.5t315.5 76.5t315.5 -76.5t219.5 -212.5t79 -307q0 -260 -174 -428t-440 -168t-440.5 168t-174.5 428zM338 573q0 -156 94.5 -253t245.5 -97q150 0 245 97t95 253q0 155 -95 252t-245 97q-151 0 -245.5 -97t-94.5 -252zM371 1542l223 74 l223 -359h-254z" />
<glyph unicode="&#xf3;" horiz-adv-x="1355" d="M63 573q0 171 79.5 307t220 212.5t315.5 76.5t315.5 -76.5t219.5 -212.5t79 -307q0 -260 -174 -428t-440 -168t-440.5 168t-174.5 428zM338 573q0 -156 94.5 -253t245.5 -97q150 0 245 97t95 253q0 155 -95 252t-245 97q-151 0 -245.5 -97t-94.5 -252zM535 1257l223 359 l225 -74l-192 -285h-256z" />
<glyph unicode="&#xf4;" horiz-adv-x="1355" d="M63 573q0 171 79.5 307t220 212.5t315.5 76.5t315.5 -76.5t219.5 -212.5t79 -307q0 -260 -174 -428t-440 -168t-440.5 168t-174.5 428zM330 1389l342 260l340 -260l-125 -152l-215 164l-219 -162zM338 573q0 -156 94.5 -253t245.5 -97q150 0 245 97t95 253q0 155 -95 252 t-245 97q-151 0 -245.5 -97t-94.5 -252z" />
<glyph unicode="&#xf5;" horiz-adv-x="1355" d="M63 573q0 171 79.5 307t220 212.5t315.5 76.5t315.5 -76.5t219.5 -212.5t79 -307q0 -260 -174 -428t-440 -168t-440.5 168t-174.5 428zM338 573q0 -156 94.5 -253t245.5 -97q150 0 245 97t95 253q0 155 -95 252t-245 97q-151 0 -245.5 -97t-94.5 -252zM338 1501 q17 22 64.5 44t103.5 22q57 0 149.5 -32t151.5 -32q89 0 149 56l43 -207q-13 -21 -60 -42.5t-103 -21.5q-59 0 -153 32t-151 32q-45 0 -84.5 -17.5t-62.5 -40.5z" />
<glyph unicode="&#xf6;" horiz-adv-x="1355" d="M63 573q0 171 79.5 307t220 212.5t315.5 76.5t315.5 -76.5t219.5 -212.5t79 -307q0 -260 -174 -428t-440 -168t-440.5 168t-174.5 428zM336 1415q0 54 39 92.5t96 38.5q54 0 91.5 -38.5t37.5 -92.5q0 -55 -38.5 -93t-94.5 -38q-55 0 -93 38t-38 93zM338 573 q0 -156 94.5 -253t245.5 -97q150 0 245 97t95 253q0 155 -95 252t-245 97q-151 0 -245.5 -97t-94.5 -252zM756 1415q0 55 38 93t95 38q54 0 92.5 -38.5t38.5 -92.5q0 -55 -38.5 -93t-92.5 -38q-57 0 -95 37.5t-38 93.5z" />
<glyph unicode="&#xf7;" d="M276 463v233h816v-233h-816zM530 184q0 61 41 100.5t115 39.5q72 0 112 -39.5t40 -100.5q0 -63 -40 -103t-112 -40q-74 0 -115 40t-41 103zM530 979q0 62 41 101.5t115 39.5q73 0 112.5 -39.5t39.5 -101.5q0 -61 -40 -101t-112 -40q-74 0 -115 40t-41 101z" />
<glyph unicode="&#xf8;" horiz-adv-x="1355" d="M63 573q0 171 79.5 307t220 212.5t315.5 76.5q157 0 289 -63l112 147l150 -108l-111 -144q83 -81 128.5 -191t45.5 -237q0 -260 -174 -428t-440 -168q-167 0 -297 68l-109 -141l-149 110l106 140q-166 169 -166 419zM338 573q0 -118 57 -206l412 534q-59 21 -129 21 q-151 0 -245.5 -97t-94.5 -252zM539 250q69 -27 139 -27q150 0 245 97t95 253q0 126 -64 215z" />
<glyph unicode="&#xf9;" horiz-adv-x="1284" d="M115 535v612h274v-637q0 -148 63.5 -217.5t192.5 -69.5q128 0 192 70t64 217v637h268v-612q0 -280 -140 -419t-388 -139t-387 139t-139 419zM340 1542l223 74l223 -359h-254z" />
<glyph unicode="&#xfa;" horiz-adv-x="1284" d="M115 535v612h274v-637q0 -148 63.5 -217.5t192.5 -69.5q128 0 192 70t64 217v637h268v-612q0 -280 -140 -419t-388 -139t-387 139t-139 419zM506 1257l223 359l223 -74l-192 -285h-254z" />
<glyph unicode="&#xfb;" horiz-adv-x="1284" d="M115 535v612h274v-637q0 -148 63.5 -217.5t192.5 -69.5q128 0 192 70t64 217v637h268v-612q0 -280 -140 -419t-388 -139t-387 139t-139 419zM299 1389l342 260l340 -260l-123 -152l-217 164l-217 -162z" />
<glyph unicode="&#xfc;" horiz-adv-x="1284" d="M115 535v612h274v-637q0 -148 63.5 -217.5t192.5 -69.5q128 0 192 70t64 217v637h268v-612q0 -280 -140 -419t-388 -139t-387 139t-139 419zM307 1415q0 55 38.5 93t94.5 38q54 0 91.5 -38.5t37.5 -92.5q0 -55 -38.5 -93t-92.5 -38q-56 0 -93.5 38t-37.5 93zM727 1415 q0 54 38 92.5t93 38.5t93 -38.5t38 -92.5q0 -55 -37.5 -93t-93.5 -38t-93.5 38t-37.5 93z" />
<glyph unicode="&#xfd;" horiz-adv-x="1175" d="M27 1147h309l141 -248q29 -52 60 -108.5t46.5 -85t16.5 -29.5h6q1 1 16 29t46.5 86t60.5 110l141 246h279l-428 -729v-418h-268v418zM471 1257l223 359l224 -74l-193 -285h-254z" />
<glyph unicode="&#xfe;" horiz-adv-x="1048" d="M129 0v1147h270v-211h131q223 0 347 -97t124 -274q0 -167 -124 -259.5t-347 -92.5h-131v-213h-270zM399 424h142q186 0 186 137q0 135 -186 135h-142v-272z" />
<glyph unicode="&#xff;" horiz-adv-x="1175" d="M27 1147h309l141 -248q29 -52 60 -108.5t46.5 -85t16.5 -29.5h6q1 1 16 29t46.5 86t60.5 110l141 246h279l-428 -729v-418h-268v418zM270 1415q0 54 39.5 92.5t96.5 38.5q54 0 91.5 -38.5t37.5 -92.5q0 -55 -39 -93t-93 -38q-57 0 -95 37.5t-38 93.5zM690 1415 q0 55 38 93t95 38q55 0 93 -38.5t38 -92.5q0 -55 -38 -93t-93 -38q-57 0 -95 37.5t-38 93.5z" />
<glyph unicode="&#x100;" horiz-adv-x="1533" d="M33 0l573 1434h322l573 -1434h-305l-109 287h-645l-108 -287h-301zM438 1563v235h656v-235h-656zM541 545h446l-119 315q-19 48 -45.5 115.5t-40 101.5t-14.5 35h-6q-2 -2 -100 -252z" />
<glyph unicode="&#x101;" horiz-adv-x="1257" d="M33 0l428 1147h334l428 -1147h-279l-82 236h-473l-80 -236h-276zM305 1276v235h653v-235h-653zM467 467h317l-63 182q-29 83 -51.5 151.5t-31.5 96.5t-9 29h-6l-99 -289z" />
<glyph unicode="&#x102;" horiz-adv-x="1533" d="M33 0l573 1434h322l573 -1434h-305l-109 287h-645l-108 -287h-301zM406 1821h208q3 -55 41.5 -88t108.5 -33q73 0 111 33.5t40 87.5h209q-7 -139 -104 -219t-256 -80t-255 79.5t-103 219.5zM541 545h446l-119 315q-19 48 -45.5 115.5t-40 101.5t-14.5 35h-6 q-2 -2 -100 -252z" />
<glyph unicode="&#x103;" horiz-adv-x="1257" d="M33 0l428 1147h334l428 -1147h-279l-82 236h-473l-80 -236h-276zM270 1534h209q5 -55 43 -88t109 -33q72 0 109.5 33.5t39.5 87.5h209q-6 -139 -102.5 -219t-255.5 -80q-160 0 -257 79.5t-104 219.5zM467 467h317l-63 182q-29 83 -51.5 151.5t-31.5 96.5t-9 29h-6 l-99 -289z" />
<glyph unicode="&#x104;" horiz-adv-x="1533" d="M33 0l573 1434h322l573 -1434h-47q-111 0 -169 -28.5t-58 -75.5q0 -64 100 -64q106 0 191 33v-189q-88 -36 -222 -36q-135 0 -216 60t-81 161q0 67 40 128t120 105l-72 193h-645l-108 -287h-301zM541 545h446l-119 315q-19 48 -45.5 115.5t-40 101.5t-14.5 35h-6 q-2 -2 -100 -252z" />
<glyph unicode="&#x105;" horiz-adv-x="1257" d="M33 0l428 1147h334l428 -1147h-29q-111 0 -169 -28.5t-58 -75.5q0 -64 98 -64q103 0 192 33v-189q-92 -36 -221 -36q-135 0 -216 60t-81 161q0 70 42 132.5t128 104.5l-47 138h-473l-80 -236h-276zM467 467h317l-63 182q-29 83 -51.5 151.5t-31.5 96.5t-9 29h-6l-99 -289 z" />
<glyph unicode="&#x106;" horiz-adv-x="1548" d="M63 721q0 216 97 386t265.5 262.5t379.5 92.5q239 0 414 -113.5t249 -291.5l-282 -78q-56 94 -154 154.5t-239 60.5q-199 0 -321 -130t-122 -345q0 -216 124.5 -346.5t316.5 -130.5q146 0 252.5 68.5t160.5 181.5l281 -74q-83 -207 -265.5 -326t-414.5 -119 q-211 0 -379.5 92.5t-265.5 264t-97 391.5zM662 1544l223 359l225 -74l-192 -285h-256z" />
<glyph unicode="&#x107;" horiz-adv-x="1296" d="M63 571q0 259 174.5 428.5t444.5 169.5q189 0 334 -88.5t213 -249.5l-256 -69q-112 160 -291 160q-155 0 -249.5 -96.5t-94.5 -252.5q0 -157 95.5 -253.5t248.5 -96.5q102 0 175.5 44t115.5 114l258 -70q-73 -154 -214 -244t-333 -90q-180 0 -322 76.5t-220.5 212 t-78.5 305.5zM528 1257l224 359l225 -74l-193 -285h-256z" />
<glyph unicode="&#x108;" horiz-adv-x="1548" d="M63 721q0 216 97 386t265.5 262.5t379.5 92.5q239 0 414 -113.5t249 -291.5l-282 -78q-56 94 -154 154.5t-239 60.5q-199 0 -321 -130t-122 -345q0 -216 124.5 -346.5t316.5 -130.5q146 0 252.5 68.5t160.5 181.5l281 -74q-83 -207 -265.5 -326t-414.5 -119 q-211 0 -379.5 92.5t-265.5 264t-97 391.5zM457 1675l340 260l342 -260l-125 -151l-217 164l-217 -162z" />
<glyph unicode="&#x109;" horiz-adv-x="1296" d="M63 571q0 259 174.5 428.5t444.5 169.5q189 0 334 -88.5t213 -249.5l-256 -69q-112 160 -291 160q-155 0 -249.5 -96.5t-94.5 -252.5q0 -157 95.5 -253.5t248.5 -96.5q102 0 175.5 44t115.5 114l258 -70q-73 -154 -214 -244t-333 -90q-180 0 -322 76.5t-220.5 212 t-78.5 305.5zM324 1389l340 260l342 -260l-125 -152l-217 164l-218 -162z" />
<glyph unicode="&#x10a;" horiz-adv-x="1548" d="M63 721q0 216 97 386t265.5 262.5t379.5 92.5q239 0 414 -113.5t249 -291.5l-282 -78q-56 94 -154 154.5t-239 60.5q-199 0 -321 -130t-122 -345q0 -216 124.5 -346.5t316.5 -130.5q146 0 252.5 68.5t160.5 181.5l281 -74q-83 -207 -265.5 -326t-414.5 -119 q-211 0 -379.5 92.5t-265.5 264t-97 391.5zM672 1702q0 54 39 92.5t94 38.5t93 -38.5t38 -92.5q0 -56 -38 -93.5t-93 -37.5q-56 0 -94.5 38t-38.5 93z" />
<glyph unicode="&#x10b;" horiz-adv-x="1296" d="M63 571q0 259 174.5 428.5t444.5 169.5q189 0 334 -88.5t213 -249.5l-256 -69q-112 160 -291 160q-155 0 -249.5 -96.5t-94.5 -252.5q0 -157 95.5 -253.5t248.5 -96.5q102 0 175.5 44t115.5 114l258 -70q-73 -154 -214 -244t-333 -90q-180 0 -322 76.5t-220.5 212 t-78.5 305.5zM539 1415q0 54 39 92.5t94 38.5t93 -38.5t38 -92.5q0 -55 -37.5 -93t-93.5 -38t-94.5 38t-38.5 93z" />
<glyph unicode="&#x10c;" horiz-adv-x="1548" d="M63 721q0 216 97 386t265.5 262.5t379.5 92.5q239 0 414 -113.5t249 -291.5l-282 -78q-56 94 -154 154.5t-239 60.5q-199 0 -321 -130t-122 -345q0 -216 124.5 -346.5t316.5 -130.5q146 0 252.5 68.5t160.5 181.5l281 -74q-83 -207 -265.5 -326t-414.5 -119 q-211 0 -379.5 92.5t-265.5 264t-97 391.5zM465 1769l123 152l217 -152l217 152l125 -152l-342 -245z" />
<glyph unicode="&#x10d;" horiz-adv-x="1296" d="M63 571q0 259 174.5 428.5t444.5 169.5q189 0 334 -88.5t213 -249.5l-256 -69q-112 160 -291 160q-155 0 -249.5 -96.5t-94.5 -252.5q0 -157 95.5 -253.5t248.5 -96.5q102 0 175.5 44t115.5 114l258 -70q-73 -154 -214 -244t-333 -90q-180 0 -322 76.5t-220.5 212 t-78.5 305.5zM332 1483l123 151l217 -151l217 151l125 -151l-342 -246z" />
<glyph unicode="&#x10e;" horiz-adv-x="1523" d="M129 0v1434h573q215 0 386.5 -89t270.5 -254.5t99 -379.5t-99 -377t-269 -248.5t-383 -85.5h-578zM391 1769l125 152l217 -152l217 152l123 -152l-340 -245zM414 264h276q97 0 181.5 26.5t152.5 79t107.5 140.5t39.5 201t-39.5 202t-108 144t-154.5 83.5t-183 28.5h-272 v-905z" />
<glyph unicode="&#x10f;" horiz-adv-x="1277" d="M129 0v1147h444q184 0 328.5 -68t228.5 -200.5t84 -309.5q0 -178 -84 -308.5t-226.5 -195.5t-325.5 -65h-449zM256 1483l123 151l217 -151l217 151l125 -151l-342 -246zM399 252h174q175 0 271 77t96 240t-97 244.5t-272 81.5h-172v-643z" />
<glyph unicode="&#x110;" horiz-adv-x="1523" d="M23 608v252h106v574h573q215 0 386.5 -89t270.5 -254.5t99 -379.5t-99 -377t-269 -248.5t-383 -85.5h-578v608h-106zM414 264h276q97 0 181.5 26.5t152.5 79t107.5 140.5t39.5 201t-39.5 202t-108 144t-154.5 83.5t-183 28.5h-272v-309h315v-252h-315v-344z" />
<glyph unicode="&#x111;" horiz-adv-x="1277" d="M23 461v235h106v451h444q184 0 328.5 -68t228.5 -200.5t84 -309.5q0 -178 -84 -308.5t-226.5 -195.5t-325.5 -65h-449v461h-106zM399 252h174q175 0 271 77t96 240t-97 244.5t-272 81.5h-172v-199h301v-235h-301v-209z" />
<glyph unicode="&#x112;" horiz-adv-x="1247" d="M129 0v1434h1018v-265h-733v-301h551v-266h-551v-338h741v-264h-1026zM315 1563v235h654v-235h-654z" />
<glyph unicode="&#x113;" horiz-adv-x="1099" d="M129 0v1147h870v-252h-600v-190h441v-240h-441v-213h611v-252h-881zM242 1276v235h653v-235h-653z" />
<glyph unicode="&#x116;" horiz-adv-x="1247" d="M129 0v1434h1018v-265h-733v-301h551v-266h-551v-338h741v-264h-1026zM510 1702q0 54 38.5 92.5t92.5 38.5q55 0 94 -38.5t39 -92.5q0 -55 -38.5 -93t-94.5 -38q-54 0 -92.5 38t-38.5 93z" />
<glyph unicode="&#x117;" horiz-adv-x="1099" d="M129 0v1147h870v-252h-600v-190h441v-240h-441v-213h611v-252h-881zM436 1415q0 54 38 92.5t93 38.5t93 -38.5t38 -92.5q0 -55 -38 -93t-93 -38t-93 38t-38 93z" />
<glyph unicode="&#x118;" horiz-adv-x="1247" d="M129 0v1434h1018v-265h-733v-301h551v-266h-551v-338h741v-264h-76q-178 -7 -178 -90q0 -41 35 -59.5t88 -18.5q69 0 141 33v-189q-74 -36 -184 -36q-87 0 -154.5 20.5t-110 67t-42.5 114.5q0 100 84 158h-629z" />
<glyph unicode="&#x119;" horiz-adv-x="1099" d="M129 0v1147h870v-252h-600v-190h441v-240h-441v-213h611v-252h-90q-179 -7 -179 -90q0 -41 35 -59.5t88 -18.5q70 0 142 33v-189q-74 -36 -185 -36q-87 0 -154.5 20.5t-110 67t-42.5 114.5q0 100 84 158h-469z" />
<glyph unicode="&#x11a;" horiz-adv-x="1247" d="M129 0v1434h1018v-265h-733v-301h551v-266h-551v-338h741v-264h-1026zM301 1769l125 152l217 -152l217 152l123 -152l-340 -245z" />
<glyph unicode="&#x11b;" horiz-adv-x="1099" d="M129 0v1147h870v-252h-600v-190h441v-240h-441v-213h611v-252h-881zM227 1483l123 151l217 -151l217 151l125 -151l-342 -246z" />
<glyph unicode="&#x11c;" horiz-adv-x="1603" d="M63 719q0 163 56.5 302t155.5 235.5t236.5 151t295.5 54.5q236 0 412.5 -114.5t248.5 -290.5l-280 -78q-21 39 -52.5 73.5t-78.5 68t-115 53.5t-147 20q-200 0 -322.5 -130t-122.5 -345q0 -217 131 -347t342 -130q150 0 260.5 57.5t153.5 126.5v113h-381v266h647v-805 h-254q0 48 0.5 78.5t1 43t0.5 15.5h-6q-66 -66 -184 -115t-260 -49q-150 0 -284.5 54t-235 150t-159.5 237t-59 305zM457 1675l340 260l342 -260l-125 -151l-217 164l-217 -162z" />
<glyph unicode="&#x11d;" horiz-adv-x="1372" d="M63 573q0 170 78.5 306t220.5 213t320 77q186 0 333.5 -86.5t217.5 -251.5l-248 -65q-38 70 -118.5 115t-182.5 45q-158 0 -252 -94.5t-94 -258.5q0 -160 101 -255t278 -95q92 0 182 33t127 72v90h-311v237h555v-655h-240q0 42 0.5 69.5t1 37.5t0.5 12h-6 q-52 -56 -146 -99t-216 -43q-167 0 -304 75t-217 212.5t-80 308.5zM322 1389l340 260l339 -260l-122 -152l-217 164l-218 -162z" />
<glyph unicode="&#x11e;" horiz-adv-x="1603" d="M63 719q0 163 56.5 302t155.5 235.5t236.5 151t295.5 54.5q236 0 412.5 -114.5t248.5 -290.5l-280 -78q-21 39 -52.5 73.5t-78.5 68t-115 53.5t-147 20q-200 0 -322.5 -130t-122.5 -345q0 -217 131 -347t342 -130q150 0 260.5 57.5t153.5 126.5v113h-381v266h647v-805 h-254q0 48 0.5 78.5t1 43t0.5 15.5h-6q-66 -66 -184 -115t-260 -49q-150 0 -284.5 54t-235 150t-159.5 237t-59 305zM444 1821h209q3 -55 41.5 -88t108.5 -33q72 0 109.5 33.5t39.5 87.5h211q-7 -139 -104 -219t-256 -80t-256 79.5t-103 219.5z" />
<glyph unicode="&#x11f;" horiz-adv-x="1372" d="M63 573q0 170 78.5 306t220.5 213t320 77q186 0 333.5 -86.5t217.5 -251.5l-248 -65q-38 70 -118.5 115t-182.5 45q-158 0 -252 -94.5t-94 -258.5q0 -160 101 -255t278 -95q92 0 182 33t127 72v90h-311v237h555v-655h-240q0 42 0.5 69.5t1 37.5t0.5 12h-6 q-52 -56 -146 -99t-216 -43q-167 0 -304 75t-217 212.5t-80 308.5zM307 1534h211q3 -55 41.5 -88t108.5 -33q72 0 109.5 33.5t39.5 87.5h209q-6 -139 -102.5 -219t-255.5 -80t-256.5 79.5t-104.5 219.5z" />
<glyph unicode="&#x120;" horiz-adv-x="1603" d="M63 719q0 163 56.5 302t155.5 235.5t236.5 151t295.5 54.5q236 0 412.5 -114.5t248.5 -290.5l-280 -78q-21 39 -52.5 73.5t-78.5 68t-115 53.5t-147 20q-200 0 -322.5 -130t-122.5 -345q0 -217 131 -347t342 -130q150 0 260.5 57.5t153.5 126.5v113h-381v266h647v-805 h-254q0 48 0.5 78.5t1 43t0.5 15.5h-6q-66 -66 -184 -115t-260 -49q-150 0 -284.5 54t-235 150t-159.5 237t-59 305zM672 1702q0 54 39 92.5t94 38.5t93 -38.5t38 -92.5q0 -56 -38 -93.5t-93 -37.5q-56 0 -94.5 38t-38.5 93z" />
<glyph unicode="&#x121;" horiz-adv-x="1372" d="M63 573q0 170 78.5 306t220.5 213t320 77q186 0 333.5 -86.5t217.5 -251.5l-248 -65q-38 70 -118.5 115t-182.5 45q-158 0 -252 -94.5t-94 -258.5q0 -160 101 -255t278 -95q92 0 182 33t127 72v90h-311v237h555v-655h-240q0 42 0.5 69.5t1 37.5t0.5 12h-6 q-52 -56 -146 -99t-216 -43q-167 0 -304 75t-217 212.5t-80 308.5zM537 1415q0 54 39 92.5t94 38.5q54 0 92.5 -38.5t38.5 -92.5q0 -55 -38.5 -93t-92.5 -38q-56 0 -94.5 38t-38.5 93z" />
<glyph unicode="&#x122;" horiz-adv-x="1603" d="M63 719q0 163 56.5 302t155.5 235.5t236.5 151t295.5 54.5q236 0 412.5 -114.5t248.5 -290.5l-280 -78q-21 39 -52.5 73.5t-78.5 68t-115 53.5t-147 20q-200 0 -322.5 -130t-122.5 -345q0 -217 131 -347t342 -130q150 0 260.5 57.5t153.5 126.5v113h-381v266h647v-805 h-254q0 48 0.5 78.5t1 43t0.5 15.5h-6q-66 -66 -184 -115t-260 -49q-150 0 -284.5 54t-235 150t-159.5 237t-59 305zM682 -338q30 8 62 31t42 47q-46 -3 -73 24t-27 70q0 53 38 83t103 30q69 0 108.5 -35.5t39.5 -106.5q0 -84 -53 -148.5t-152 -94.5z" />
<glyph unicode="&#x123;" horiz-adv-x="1372" d="M63 573q0 170 78.5 306t220.5 213t320 77q186 0 333.5 -86.5t217.5 -251.5l-248 -65q-38 70 -118.5 115t-182.5 45q-158 0 -252 -94.5t-94 -258.5q0 -160 101 -255t278 -95q92 0 182 33t127 72v90h-311v237h555v-655h-240q0 42 0.5 69.5t1 37.5t0.5 12h-6 q-52 -56 -146 -99t-216 -43q-167 0 -304 75t-217 212.5t-80 308.5zM573 -338q30 8 62.5 31t44.5 47q-46 -3 -74 24t-28 70q0 53 39 83t104 30q67 0 107 -35.5t40 -106.5q0 -83 -53.5 -148t-152.5 -95z" />
<glyph unicode="&#x124;" horiz-adv-x="1458" d="M129 0v1434h285v-562h630v562h285v-1434h-285v598h-630v-598h-285zM383 1675l340 260l340 -260l-123 -151l-217 164l-217 -162z" />
<glyph unicode="&#x125;" horiz-adv-x="1269" d="M129 0v1147h270v-442h471v442h271v-1147h-271v453h-471v-453h-270zM289 1389l340 260l342 -260l-125 -152l-217 164l-217 -162z" />
<glyph unicode="&#x126;" horiz-adv-x="1560" d="M41 961v235h139v238h285v-238h631v238h284v-238h140v-235h-140v-961h-284v520h-631v-520h-285v961h-139zM465 793h631v168h-631v-168z" />
<glyph unicode="&#x127;" horiz-adv-x="1316" d="M37 795v211h115v141h270v-141h473v141h268v-141h117v-211h-117v-795h-268v461h-473v-461h-270v795h-115zM422 700h473v95h-473v-95z" />
<glyph unicode="&#x12a;" horiz-adv-x="542" d="M18 1561v235h506v-235h-506zM129 0v1434h285v-1434h-285z" />
<glyph unicode="&#x12b;" horiz-adv-x="526" d="M12 1274v235h506v-235h-506zM129 0v1147h270v-1147h-270z" />
<glyph unicode="&#x12e;" horiz-adv-x="542" d="M47 -125q0 107 82 182v1377h285l-2 -1434q-69 -2 -109.5 -26.5t-40.5 -67.5q0 -37 26 -56.5t74 -19.5q83 0 132 27v-181q-28 -14 -78 -25t-97 -11t-92.5 12.5t-87 38.5t-67 73.5t-25.5 110.5z" />
<glyph unicode="&#x12f;" horiz-adv-x="526" d="M8 -125q0 136 121 213v1059h270v-1147h-26q-71 -2 -111.5 -26.5t-40.5 -67.5q0 -36 26.5 -56t74.5 -20q84 0 133 27v-181q-28 -14 -78.5 -25t-97.5 -11t-92 12.5t-86.5 38.5t-67 73.5t-25.5 110.5z" />
<glyph unicode="&#x130;" horiz-adv-x="542" d="M129 0v1434h285v-1434h-285zM139 1702q0 54 39 92.5t94 38.5q54 0 92.5 -38.5t38.5 -92.5q0 -55 -38.5 -93t-92.5 -38q-56 0 -94.5 38t-38.5 93z" />
<glyph unicode="&#x131;" horiz-adv-x="526" d="M129 0v1147h270v-1147h-270z" />
<glyph unicode="&#x132;" horiz-adv-x="1593" d="M129 0v1434h285v-1434h-285zM555 121l164 221q79 -100 211 -100q149 0 204.5 94t55.5 303v795h285v-818q0 -312 -138 -477.5t-405 -165.5q-244 0 -377 148z" />
<glyph unicode="&#x133;" horiz-adv-x="1447" d="M129 0v1147h270v-1147h-270zM532 94l148 195q69 -66 174 -66q122 0 164.5 69.5t42.5 229.5v625h268v-641q0 -258 -119.5 -393.5t-351.5 -135.5q-209 0 -326 117z" />
<glyph unicode="&#x134;" horiz-adv-x="1038" d="M0 121l164 221q79 -100 211 -100q149 0 204.5 94t55.5 303v795h287v-818q0 -312 -139 -477.5t-406 -165.5q-241 0 -377 148zM438 1675l342 260l340 -260l-123 -151l-217 164l-217 -162z" />
<glyph unicode="&#x135;" horiz-adv-x="915" d="M0 94l147 195q66 -66 175 -66q122 0 164 69.5t42 229.5v625h269v-641q0 -258 -120 -393.5t-353 -135.5q-210 0 -324 117zM317 1389l340 260l342 -260l-125 -152l-217 164l-217 -162z" />
<glyph unicode="&#x136;" horiz-adv-x="1404" d="M129 0v1434h285v-414v-250h6l180 205l401 459h340l-518 -578l555 -856h-331l-435 651l-198 -217v-434h-285zM551 -338q30 8 62 31t44 47q-46 -3 -74 24t-28 70q0 53 39 83t104 30q68 0 108 -35.5t40 -106.5q0 -83 -53.5 -148t-153.5 -95z" />
<glyph unicode="&#x137;" horiz-adv-x="1251" d="M129 0v1147h270v-270l-2 -244h6q7 7 121 133l340 381h336l-422 -453l447 -694h-310l-333 512l-183 -197v-315h-270zM496 -338q32 8 64 31t42 47q-46 -3 -73 24t-27 70q0 53 38 83t103 30q68 0 108 -35.5t40 -106.5q0 -84 -53 -148.5t-154 -94.5z" />
<glyph unicode="&#x139;" horiz-adv-x="1161" d="M121 1544l223 359l223 -74l-192 -285h-254zM129 0v1434h285v-1170h680v-264h-965z" />
<glyph unicode="&#x13a;" horiz-adv-x="1001" d="M129 0v1147h270v-895h535v-252h-805zM160 1257l223 359l223 -74l-192 -285h-254z" />
<glyph unicode="&#x13b;" horiz-adv-x="1161" d="M129 0v1434h285v-1170h680v-264h-965zM440 -338q31 8 63 31t42 47q-45 -3 -73 24.5t-28 69.5q0 53 39 83t103 30q69 0 108 -35.5t39 -106.5q0 -84 -53 -148.5t-152 -94.5z" />
<glyph unicode="&#x13c;" horiz-adv-x="1001" d="M129 0v1147h270v-895h535v-252h-805zM387 -338q30 8 62.5 31t44.5 47q-46 -3 -74.5 24.5t-28.5 69.5q0 53 39 83t105 30q67 0 107 -35.5t40 -106.5q0 -83 -53.5 -148t-153.5 -95z" />
<glyph unicode="&#x13d;" horiz-adv-x="1161" d="M129 0v1434h285v-1170h680v-264h-965zM715 1032q30 63 53 188t23 214h223q3 -85 -28 -209.5t-68 -192.5h-203z" />
<glyph unicode="&#x13e;" horiz-adv-x="1001" d="M129 0v1147h270v-895h535v-252h-805zM551 745q30 63 53 188t23 214h223q3 -85 -28 -209.5t-68 -192.5h-203z" />
<glyph unicode="&#x13f;" horiz-adv-x="1161" d="M129 0v1434h285v-1170h680v-264h-965zM684 788q0 61 41 100.5t115 39.5q72 0 112.5 -39.5t40.5 -100.5q0 -62 -40.5 -102.5t-112.5 -40.5q-74 0 -115 40t-41 103z" />
<glyph unicode="&#x140;" horiz-adv-x="1001" d="M129 0v1147h270v-895h535v-252h-805zM610 631q0 61 38 100t108 39q68 0 105.5 -39t37.5 -100q0 -63 -37.5 -103.5t-105.5 -40.5q-69 0 -107.5 40.5t-38.5 103.5z" />
<glyph unicode="&#x141;" horiz-adv-x="1161" d="M129 0v1434h285v-629l512 237v-270l-512 -237v-271h680v-264h-965z" />
<glyph unicode="&#x142;" horiz-adv-x="1001" d="M129 0v1147h270v-465l377 172v-254l-377 -172v-176h535v-252h-805z" />
<glyph unicode="&#x143;" horiz-adv-x="1519" d="M129 0v1434h289l686 -945h6v11q0 11 -0.5 29.5t-1 43.5t-1 55.5t-1 62.5t-0.5 68v68v607h285v-1434h-289l-686 958h-6v-10q0 -11 0.5 -30t1 -43.5t1 -56.5t1 -66t0.5 -73.5v-76.5v-602h-285zM618 1544l224 359l223 -74l-193 -285h-254z" />
<glyph unicode="&#x144;" horiz-adv-x="1327" d="M129 0v1147h279l516 -711h6v7q0 7 -0.5 18.5t-0.5 27.5v36t-0.5 41.5t-0.5 46.5v49v485h270v-1147h-280l-517 731h-6v-7q0 -8 0.5 -21.5t1 -31.5t1 -41t1 -47t0.5 -52.5v-55.5v-475h-270zM514 1257l223 359l224 -74l-193 -285h-254z" />
<glyph unicode="&#x145;" horiz-adv-x="1519" d="M129 0v1434h289l686 -945h6v11q0 11 -0.5 29.5t-1 43.5t-1 55.5t-1 62.5t-0.5 68v68v607h285v-1434h-289l-686 958h-6v-10q0 -11 0.5 -30t1 -43.5t1 -56.5t1 -66t0.5 -73.5v-76.5v-602h-285zM604 -338q31 8 63 31t42 47q-46 -3 -73.5 24t-27.5 70q0 53 38.5 83t103.5 30 q69 0 108 -35.5t39 -106.5q0 -84 -53 -148.5t-152 -94.5z" />
<glyph unicode="&#x146;" horiz-adv-x="1327" d="M129 0v1147h279l516 -711h6v7q0 7 -0.5 18.5t-0.5 27.5v36t-0.5 41.5t-0.5 46.5v49v485h270v-1147h-280l-517 731h-6v-7q0 -8 0.5 -21.5t1 -31.5t1 -41t1 -47t0.5 -52.5v-55.5v-475h-270zM506 -338q30 8 62 31t44 47q-46 -3 -74 24t-28 70q0 53 39 83t104 30 q68 0 108 -35.5t40 -106.5q0 -83 -53.5 -148t-153.5 -95z" />
<glyph unicode="&#x147;" horiz-adv-x="1519" d="M129 0v1434h289l686 -945h6v11q0 11 -0.5 29.5t-1 43.5t-1 55.5t-1 62.5t-0.5 68v68v607h285v-1434h-289l-686 958h-6v-10q0 -11 0.5 -30t1 -43.5t1 -56.5t1 -66t0.5 -73.5v-76.5v-602h-285zM420 1769l125 152l217 -152l217 152l123 -152l-340 -245z" />
<glyph unicode="&#x148;" horiz-adv-x="1327" d="M129 0v1147h279l516 -711h6v7q0 7 -0.5 18.5t-0.5 27.5v36t-0.5 41.5t-0.5 46.5v49v485h270v-1147h-280l-517 731h-6v-7q0 -8 0.5 -21.5t1 -31.5t1 -41t1 -47t0.5 -52.5v-55.5v-475h-270zM315 1483l125 151l217 -151l217 151l123 -151l-340 -246z" />
<glyph unicode="&#x14a;" horiz-adv-x="1519" d="M129 0v1434h289l686 -945h6v11q0 11 -0.5 29.5t-1 43.5t-1 55.5t-1 62.5t-0.5 68v68v607h285v-1434q0 -83 -19.5 -143.5t-50 -96t-76.5 -56.5t-90.5 -27.5t-101.5 -6.5h-121v203h92q47 0 68.5 33.5t9.5 93.5l-686 958h-6v-10q0 -11 0.5 -30t1 -43.5t1 -56.5t1 -66 t0.5 -73.5v-76.5v-602h-285z" />
<glyph unicode="&#x14b;" horiz-adv-x="1327" d="M129 0v1147h279l516 -711h6v7q0 7 -0.5 18.5t-0.5 27.5v36t-0.5 41.5t-0.5 46.5v49v485h270v-1147q-1 -93 -28 -159t-77 -102.5t-111 -52.5t-140 -16h-109v211h103q45 0 67 31t15 88l-517 731h-6v-7q0 -8 0.5 -21.5t1 -31.5t1 -41t1 -47t0.5 -52.5v-55.5v-475h-270z" />
<glyph unicode="&#x14c;" horiz-adv-x="1632" d="M63 717q0 163 57 302.5t156.5 236.5t239 151.5t299.5 54.5t299.5 -54.5t239 -151.5t156.5 -236.5t57 -302.5q0 -216 -97.5 -386.5t-269 -264t-385.5 -93.5t-385.5 93.5t-269 264t-97.5 386.5zM350 717q0 -215 131.5 -345t333.5 -130t333.5 129.5t131.5 345.5 t-131.5 346.5t-333.5 130.5t-333.5 -130.5t-131.5 -346.5zM492 1563v235h653v-235h-653z" />
<glyph unicode="&#x14d;" horiz-adv-x="1355" d="M63 573q0 171 79.5 307t220 212.5t315.5 76.5t315.5 -76.5t219.5 -212.5t79 -307q0 -260 -174 -428t-440 -168t-440.5 168t-174.5 428zM338 573q0 -156 94.5 -253t245.5 -97q150 0 245 97t95 253q0 155 -95 252t-245 97q-151 0 -245.5 -97t-94.5 -252zM350 1276v235h654 v-235h-654z" />
<glyph unicode="&#x150;" horiz-adv-x="1632" d="M63 717q0 163 57 302.5t156.5 236.5t239 151.5t299.5 54.5t299.5 -54.5t239 -151.5t156.5 -236.5t57 -302.5q0 -216 -97.5 -386.5t-269 -264t-385.5 -93.5t-385.5 93.5t-269 264t-97.5 386.5zM350 717q0 -215 131.5 -345t333.5 -130t333.5 129.5t131.5 345.5 t-131.5 346.5t-333.5 130.5t-333.5 -130.5t-131.5 -346.5zM451 1544l223 359l225 -74l-192 -285h-256zM879 1544l223 359l223 -74l-190 -285h-256z" />
<glyph unicode="&#x151;" horiz-adv-x="1355" d="M63 573q0 171 79.5 307t220 212.5t315.5 76.5t315.5 -76.5t219.5 -212.5t79 -307q0 -260 -174 -428t-440 -168t-440.5 168t-174.5 428zM311 1257l224 359l223 -74l-193 -285h-254zM338 573q0 -156 94.5 -253t245.5 -97q150 0 245 97t95 253q0 155 -95 252t-245 97 q-151 0 -245.5 -97t-94.5 -252zM739 1257l224 359l223 -74l-193 -285h-254z" />
<glyph unicode="&#x152;" horiz-adv-x="2076" d="M63 717q0 161 59 297.5t160.5 229.5t239.5 145.5t293 52.5q121 0 182 -8h977v-265h-733v-297h565v-264h-565v-344h741v-264h-985q-57 -8 -182 -8q-155 0 -293 52.5t-239.5 145.5t-160.5 229.5t-59 297.5zM350 717q0 -220 128.5 -345.5t340.5 -125.5q89 0 144 18v910 q-65 14 -144 14q-212 0 -340.5 -125.5t-128.5 -345.5z" />
<glyph unicode="&#x153;" horiz-adv-x="1751" d="M63 573q0 260 173.5 420t439.5 160q111 0 162 -6h809v-252h-600v-190h440v-240h-440v-213h610v-252h-823q-51 -6 -158 -6q-130 0 -243 41.5t-195 115.5t-128.5 183t-46.5 239zM338 573q0 -153 92 -245t250 -92q64 0 111 8v659q-47 8 -111 8q-158 0 -250 -92t-92 -246z " />
<glyph unicode="&#x154;" horiz-adv-x="1292" d="M129 0v1434h508q264 0 412.5 -126t148.5 -345q0 -154 -76 -257.5t-215 -146.5l338 -559h-338l-289 504h-92h-112v-504h-285zM414 733h243q250 0 250 215q0 110 -65.5 168t-188.5 58h-239v-441zM469 1544l223 359l223 -74l-190 -285h-256z" />
<glyph unicode="&#x155;" horiz-adv-x="1157" d="M129 0v1147h446q226 0 352 -101.5t126 -277.5q0 -124 -59 -206t-156 -116l272 -446h-291l-235 393q-27 -2 -111 -2h-74v-391h-270zM397 1257l224 359l225 -74l-193 -285h-256zM399 600h193q92 0 139 39t47 113t-47 112.5t-139 38.5h-193v-303z" />
<glyph unicode="&#x156;" horiz-adv-x="1292" d="M129 0v1434h508q264 0 412.5 -126t148.5 -345q0 -154 -76 -257.5t-215 -146.5l338 -559h-338l-289 504h-92h-112v-504h-285zM414 733h243q250 0 250 215q0 110 -65.5 168t-188.5 58h-239v-441zM547 -338q30 8 62 31t42 47q-45 -3 -72.5 24.5t-27.5 69.5q0 53 38.5 83 t102.5 30q69 0 108.5 -35.5t39.5 -106.5q0 -84 -53 -148.5t-152 -94.5z" />
<glyph unicode="&#x157;" horiz-adv-x="1157" d="M129 0v1147h446q226 0 352 -101.5t126 -277.5q0 -124 -59 -206t-156 -116l272 -446h-291l-235 393q-27 -2 -111 -2h-74v-391h-270zM399 600h193q92 0 139 39t47 113t-47 112.5t-139 38.5h-193v-303zM463 -338q30 8 62 31t44 47q-46 -3 -74 24t-28 70q0 53 39 83t104 30 q68 0 108 -35.5t40 -106.5q0 -83 -53.5 -148t-153.5 -95z" />
<glyph unicode="&#x158;" horiz-adv-x="1292" d="M129 0v1434h508q264 0 412.5 -126t148.5 -345q0 -154 -76 -257.5t-215 -146.5l338 -559h-338l-289 504h-92h-112v-504h-285zM270 1769l125 152l217 -152l217 152l125 -152l-342 -245zM414 733h243q250 0 250 215q0 110 -65.5 168t-188.5 58h-239v-441z" />
<glyph unicode="&#x159;" horiz-adv-x="1157" d="M129 0v1147h446q226 0 352 -101.5t126 -277.5q0 -124 -59 -206t-156 -116l272 -446h-291l-235 393q-27 -2 -111 -2h-74v-391h-270zM201 1483l123 151l217 -151l217 151l125 -151l-342 -246zM399 600h193q92 0 139 39t47 113t-47 112.5t-139 38.5h-193v-303z" />
<glyph unicode="&#x15a;" horiz-adv-x="1259" d="M61 365l273 73q17 -104 103 -159.5t220 -55.5q119 0 185.5 45t66.5 133q0 41 -16.5 72t-39 49t-64 32.5t-74 21.5t-88.5 17.5t-88 18.5q-57 13 -101 27t-98.5 37t-94 55t-74.5 74.5t-53 102.5t-18 132q0 205 141.5 313.5t383.5 108.5q217 0 362 -91.5t201 -276.5 l-273 -72q-57 188 -297 188q-227 0 -227 -161q0 -29 9.5 -53.5t23 -42t40 -32.5t49.5 -25t64 -21t70.5 -17.5t80.5 -16.5l15 -3q73 -14 130 -31t121 -50.5t106 -78t70 -116t28 -161.5q0 -211 -141 -319.5t-400 -108.5q-79 0 -150 10t-145.5 37.5t-132 70t-103 113 t-65.5 161.5zM487 1544l224 359l225 -74l-193 -285h-256z" />
<glyph unicode="&#x15b;" horiz-adv-x="1079" d="M61 287l244 65q12 -69 74.5 -117.5t175.5 -48.5q88 0 137 34t49 102q0 24 -7 43t-17 33t-30.5 25.5t-39 19t-51.5 16t-57.5 13.5t-68 14t-73.5 16q-53 12 -91.5 25t-83.5 38t-73.5 57t-47.5 84t-19 117q0 170 117.5 258t328.5 88q194 0 316 -72.5t162 -211.5l-236 -64 q-19 65 -76.5 102.5t-148.5 37.5q-88 0 -136.5 -32.5t-48.5 -92.5q0 -24 6.5 -41.5t25.5 -32t35.5 -23.5t54.5 -19t64 -16t82 -17l15 -3q57 -12 98.5 -23.5t97.5 -39t92 -63t61.5 -95t25.5 -135.5q0 -121 -62 -201.5t-163 -115t-238 -34.5q-65 0 -124 8t-121.5 29t-111 54.5 t-85.5 89.5t-52 129zM395 1257l223 359l226 -74l-193 -285h-256z" />
<glyph unicode="&#x15c;" horiz-adv-x="1259" d="M61 365l273 73q17 -104 103 -159.5t220 -55.5q119 0 185.5 45t66.5 133q0 41 -16.5 72t-39 49t-64 32.5t-74 21.5t-88.5 17.5t-88 18.5q-57 13 -101 27t-98.5 37t-94 55t-74.5 74.5t-53 102.5t-18 132q0 205 141.5 313.5t383.5 108.5q217 0 362 -91.5t201 -276.5 l-273 -72q-57 188 -297 188q-227 0 -227 -161q0 -29 9.5 -53.5t23 -42t40 -32.5t49.5 -25t64 -21t70.5 -17.5t80.5 -16.5l15 -3q73 -14 130 -31t121 -50.5t106 -78t70 -116t28 -161.5q0 -211 -141 -319.5t-400 -108.5q-79 0 -150 10t-145.5 37.5t-132 70t-103 113 t-65.5 161.5zM283 1675l340 260l342 -260l-125 -151l-217 164l-217 -162z" />
<glyph unicode="&#x15d;" horiz-adv-x="1079" d="M61 287l244 65q12 -69 74.5 -117.5t175.5 -48.5q88 0 137 34t49 102q0 24 -7 43t-17 33t-30.5 25.5t-39 19t-51.5 16t-57.5 13.5t-68 14t-73.5 16q-53 12 -91.5 25t-83.5 38t-73.5 57t-47.5 84t-19 117q0 170 117.5 258t328.5 88q194 0 316 -72.5t162 -211.5l-236 -64 q-19 65 -76.5 102.5t-148.5 37.5q-88 0 -136.5 -32.5t-48.5 -92.5q0 -24 6.5 -41.5t25.5 -32t35.5 -23.5t54.5 -19t64 -16t82 -17l15 -3q57 -12 98.5 -23.5t97.5 -39t92 -63t61.5 -95t25.5 -135.5q0 -121 -62 -201.5t-163 -115t-238 -34.5q-65 0 -124 8t-121.5 29t-111 54.5 t-85.5 89.5t-52 129zM190 1389l340 260l342 -260l-124 -152l-218 164l-217 -162z" />
<glyph unicode="&#x15e;" horiz-adv-x="1259" d="M61 365l273 73q17 -104 103 -159.5t220 -55.5q119 0 185.5 45t66.5 133q0 41 -16.5 72t-39 49t-64 32.5t-74 21.5t-88.5 17.5t-88 18.5q-57 13 -101 27t-98.5 37t-94 55t-74.5 74.5t-53 102.5t-18 132q0 205 141.5 313.5t383.5 108.5q217 0 362 -91.5t201 -276.5 l-273 -72q-57 188 -297 188q-227 0 -227 -161q0 -29 9.5 -53.5t23 -42t40 -32.5t49.5 -25t64 -21t70.5 -17.5t80.5 -16.5l15 -3q73 -14 130 -31t121 -50.5t106 -78t70 -116t28 -161.5q0 -167 -89 -270t-255 -139q78 -49 78 -152q0 -200 -293 -200q-117 0 -182 26v178 q49 -22 139 -22q139 0 139 57q0 37 -59 54t-189 16v37q-358 65 -426 379z" />
<glyph unicode="&#x15f;" horiz-adv-x="1079" d="M61 287l244 65q12 -69 74.5 -117.5t175.5 -48.5q88 0 137 34t49 102q0 24 -7 43t-17 33t-30.5 25.5t-39 19t-51.5 16t-57.5 13.5t-68 14t-73.5 16q-53 12 -91.5 25t-83.5 38t-73.5 57t-47.5 84t-19 117q0 170 117.5 258t328.5 88q194 0 316 -72.5t162 -211.5l-236 -64 q-19 65 -76.5 102.5t-148.5 37.5q-88 0 -136.5 -32.5t-48.5 -92.5q0 -24 6.5 -41.5t25.5 -32t35.5 -23.5t54.5 -19t64 -16t82 -17l15 -3q57 -12 98.5 -23.5t97.5 -39t92 -63t61.5 -95t25.5 -135.5q0 -257 -264 -328q94 -51 94 -160q0 -96 -73 -148t-222 -52q-113 0 -182 26 v178q49 -22 141 -22q137 0 137 57q0 37 -58.5 54t-189.5 16v41q-290 54 -340 297z" />
<glyph unicode="&#x160;" horiz-adv-x="1259" d="M61 365l273 73q17 -104 103 -159.5t220 -55.5q119 0 185.5 45t66.5 133q0 41 -16.5 72t-39 49t-64 32.5t-74 21.5t-88.5 17.5t-88 18.5q-57 13 -101 27t-98.5 37t-94 55t-74.5 74.5t-53 102.5t-18 132q0 205 141.5 313.5t383.5 108.5q217 0 362 -91.5t201 -276.5 l-273 -72q-57 188 -297 188q-227 0 -227 -161q0 -29 9.5 -53.5t23 -42t40 -32.5t49.5 -25t64 -21t70.5 -17.5t80.5 -16.5l15 -3q73 -14 130 -31t121 -50.5t106 -78t70 -116t28 -161.5q0 -211 -141 -319.5t-400 -108.5q-79 0 -150 10t-145.5 37.5t-132 70t-103 113 t-65.5 161.5zM291 1769l123 152l217 -152l217 152l125 -152l-342 -245z" />
<glyph unicode="&#x161;" horiz-adv-x="1079" d="M61 287l244 65q12 -69 74.5 -117.5t175.5 -48.5q88 0 137 34t49 102q0 24 -7 43t-17 33t-30.5 25.5t-39 19t-51.5 16t-57.5 13.5t-68 14t-73.5 16q-53 12 -91.5 25t-83.5 38t-73.5 57t-47.5 84t-19 117q0 170 117.5 258t328.5 88q194 0 316 -72.5t162 -211.5l-236 -64 q-19 65 -76.5 102.5t-148.5 37.5q-88 0 -136.5 -32.5t-48.5 -92.5q0 -24 6.5 -41.5t25.5 -32t35.5 -23.5t54.5 -19t64 -16t82 -17l15 -3q57 -12 98.5 -23.5t97.5 -39t92 -63t61.5 -95t25.5 -135.5q0 -121 -62 -201.5t-163 -115t-238 -34.5q-65 0 -124 8t-121.5 29t-111 54.5 t-85.5 89.5t-52 129zM197 1483l125 151l217 -151l217 151l125 -151l-342 -246z" />
<glyph unicode="&#x162;" horiz-adv-x="1333" d="M68 1169v265h1198v-265h-457v-1144q160 -39 160 -185q0 -96 -72.5 -148t-220.5 -52q-117 0 -182 26v178q50 -22 139 -22q139 0 139 57q0 37 -59 54t-189 16v149v1071h-456z" />
<glyph unicode="&#x163;" horiz-adv-x="1159" d="M68 895v252h1024v-252h-377v-866q81 -16 127.5 -62.5t46.5 -126.5q0 -200 -293 -200q-117 0 -182 26v178q50 -22 141 -22q137 0 137 57q0 37 -59 54t-189 16v946h-376z" />
<glyph unicode="&#x164;" horiz-adv-x="1333" d="M68 1169v265h1198v-265h-457v-1169h-285v1169h-456zM326 1769l125 152l217 -152l217 152l125 -152l-342 -245z" />
<glyph unicode="&#x165;" horiz-adv-x="1159" d="M68 895v252h1024v-252h-377v-895h-271v895h-376zM229 1483l125 151l217 -151l217 151l123 -151l-340 -246z" />
<glyph unicode="&#x166;" horiz-adv-x="1333" d="M68 1169v265h1198v-265h-457v-344h238v-264h-238v-561h-285v561h-237v264h237v344h-456z" />
<glyph unicode="&#x167;" horiz-adv-x="1159" d="M68 895v252h1024v-252h-377v-223h190v-240h-190v-432h-271v432h-190v240h190v223h-376z" />
<glyph unicode="&#x16a;" horiz-adv-x="1443" d="M115 625v809h288v-801q0 -200 80 -295.5t242 -95.5t242 95.5t80 295.5v801h282v-809q0 -313 -161.5 -482.5t-444.5 -169.5q-286 0 -447 169.5t-161 482.5zM403 1563v235h654v-235h-654z" />
<glyph unicode="&#x16b;" horiz-adv-x="1284" d="M115 535v612h274v-637q0 -148 63.5 -217.5t192.5 -69.5q128 0 192 70t64 217v637h268v-612q0 -280 -140 -419t-388 -139t-387 139t-139 419zM322 1276v235h653v-235h-653z" />
<glyph unicode="&#x16c;" horiz-adv-x="1443" d="M115 625v809h288v-801q0 -200 80 -295.5t242 -95.5t242 95.5t80 295.5v801h282v-809q0 -313 -161.5 -482.5t-444.5 -169.5q-286 0 -447 169.5t-161 482.5zM371 1821h209q3 -55 41 -88t108 -33q73 0 111.5 33.5t40.5 87.5h209q-7 -139 -104.5 -219t-256.5 -80t-255 79.5 t-103 219.5z" />
<glyph unicode="&#x16d;" horiz-adv-x="1284" d="M115 535v612h274v-637q0 -148 63.5 -217.5t192.5 -69.5q128 0 192 70t64 217v637h268v-612q0 -280 -140 -419t-388 -139t-387 139t-139 419zM287 1534h209q5 -55 42.5 -88t108.5 -33q72 0 110 33.5t40 87.5h209q-6 -139 -103 -219t-256 -80q-160 0 -256.5 79.5 t-103.5 219.5z" />
<glyph unicode="&#x16e;" horiz-adv-x="1443" d="M115 625v809h288v-801q0 -200 80 -295.5t242 -95.5t242 95.5t80 295.5v801h282v-809q0 -313 -161.5 -482.5t-444.5 -169.5q-286 0 -447 169.5t-161 482.5zM471 1733q0 108 72 169.5t188 61.5t188 -61.5t72 -169.5t-72 -170t-188 -62t-188 62t-72 170zM645 1733 q0 -36 23.5 -57t62.5 -21t62.5 21t23.5 57q0 35 -23.5 56t-62.5 21t-62.5 -21t-23.5 -56z" />
<glyph unicode="&#x16f;" horiz-adv-x="1284" d="M115 535v612h274v-637q0 -148 63.5 -217.5t192.5 -69.5q128 0 192 70t64 217v637h268v-612q0 -280 -140 -419t-388 -139t-387 139t-139 419zM387 1446q0 108 72 169.5t188 61.5q118 0 189 -61.5t71 -169.5q0 -109 -71.5 -170.5t-188.5 -61.5q-116 0 -188 62t-72 170z M563 1446q0 -36 22.5 -57t61.5 -21q40 0 63 20.5t23 57.5q0 35 -23 56.5t-63 21.5q-38 0 -61 -21.5t-23 -56.5z" />
<glyph unicode="&#x170;" horiz-adv-x="1443" d="M115 625v809h288v-801q0 -200 80 -295.5t242 -95.5t242 95.5t80 295.5v801h282v-809q0 -313 -161.5 -482.5t-444.5 -169.5q-286 0 -447 169.5t-161 482.5zM365 1544l223 359l223 -74l-193 -285h-253zM793 1544l223 359l223 -74l-192 -285h-254z" />
<glyph unicode="&#x171;" horiz-adv-x="1284" d="M115 535v612h274v-637q0 -148 63.5 -217.5t192.5 -69.5q128 0 192 70t64 217v637h268v-612q0 -280 -140 -419t-388 -139t-387 139t-139 419zM281 1257l223 359l225 -74l-192 -285h-256zM709 1257l223 359l225 -74l-192 -285h-256z" />
<glyph unicode="&#x172;" horiz-adv-x="1437" d="M115 625v809h288v-801q0 -200 80 -295.5t242 -95.5t242 95.5t80 295.5v801h282v-809q0 -277 -128 -443t-357 -200q-38 -11 -55 -29t-17 -51q0 -76 111 -76q97 0 161 37v-189q-95 -34 -186 -34q-89 0 -159 22.5t-115 74t-45 126.5q0 71 41 123q-221 39 -343 203t-122 436z " />
<glyph unicode="&#x173;" horiz-adv-x="1277" d="M115 535v612h274v-637q0 -148 63.5 -217.5t192.5 -69.5q128 0 192 70t64 217v637h268v-612q0 -248 -109.5 -385t-307.5 -166q-41 -9 -60.5 -25.5t-19.5 -46.5q0 -78 131 -78q81 0 172 31v-189q-82 -36 -201 -36q-93 0 -166 22.5t-120.5 74t-47.5 126.5q0 76 47 129 q-178 39 -275 175t-97 368z" />
<glyph unicode="&#x174;" horiz-adv-x="2119" d="M35 1434h315l178 -635q118 -410 119 -412h6q1 2 15 51.5t39.5 141.5t44.5 159l151 541h344l150 -543l98 -350h6q1 2 15.5 52.5t45 156.5t54.5 190l186 648h283l-432 -1434h-310l-186 610q-26 86 -49 171t-33.5 125.5t-11.5 41.5h-8q-1 -1 -11 -41.5t-34 -130t-49 -180.5 l-173 -596h-321zM745 1675l340 260l340 -260l-122 -151l-218 164l-217 -162z" />
<glyph unicode="&#x175;" horiz-adv-x="1773" d="M35 1147h287l133 -459q30 -98 53.5 -183.5t32.5 -119.5t10 -35h6q1 1 10 32.5t31 110.5t45 158l115 385h289l110 -385q23 -82 43 -158.5t28 -109t9 -33.5h6q1 1 9.5 34.5t32.5 119t54 184.5l138 459h262l-348 -1147h-281l-127 410q-90 303 -94 307h-4q-1 -1 -10 -31 t-33.5 -111.5t-50.5 -166.5l-127 -408h-281zM553 1389l342 260l340 -260l-125 -152l-215 164l-217 -162z" />
<glyph unicode="&#x176;" horiz-adv-x="1421" d="M27 1434l329 2l254 -418q25 -40 52 -85.5t40.5 -67.5t14.5 -23h6q1 1 14 23.5t38.5 66t51.5 84.5l263 418h305l-541 -850v-584h-287v584zM391 1675l340 260l340 -260l-123 -151l-217 164l-217 -162z" />
<glyph unicode="&#x177;" horiz-adv-x="1175" d="M27 1147h309l141 -248q29 -52 60 -108.5t46.5 -85t16.5 -29.5h6q1 1 16 29t46.5 86t60.5 110l141 246h279l-428 -729v-418h-268v418zM264 1389l342 260l340 -260l-125 -152l-215 164l-217 -162z" />
<glyph unicode="&#x178;" horiz-adv-x="1421" d="M27 1434l329 2l254 -418q25 -40 52 -85.5t40.5 -67.5t14.5 -23h6q1 1 14 23.5t38.5 66t51.5 84.5l263 418h305l-541 -850v-584h-287v584zM397 1702q0 54 39 92.5t94 38.5q54 0 91.5 -38.5t37.5 -92.5q0 -56 -37.5 -93.5t-93.5 -37.5t-93.5 37.5t-37.5 93.5zM817 1702 q0 54 38 92.5t93 38.5t94 -38.5t39 -92.5q0 -55 -38.5 -93t-94.5 -38t-93.5 37.5t-37.5 93.5z" />
<glyph unicode="&#x179;" horiz-adv-x="1355" d="M80 0v264l698 752q39 42 75.5 78.5t53.5 52t17 16.5l-4 8h-11q-11 0 -30 -0.5t-41.5 -1t-52 -0.5h-56.5h-629v265h1176v-275l-666 -723q-45 -48 -87 -89.5t-60.5 -58.5t-18.5 -18l5 -8h5q6 0 15.5 0.5t22.5 0.5h30t36 0.5t43 0.5h48h627v-264h-1196zM553 1544l223 359 l223 -74l-192 -285h-254z" />
<glyph unicode="&#x17a;" horiz-adv-x="1163" d="M80 0v260l483 467q53 52 96.5 93.5t57.5 54.5t14 14l-2 6h-162h-469v252h985v-260l-450 -445q-62 -60 -113.5 -106.5t-70.5 -63.5l-19 -16l4 -6q78 2 182 2h467v-252h-1003zM442 1257l224 359l225 -74l-193 -285h-256z" />
<glyph unicode="&#x17b;" horiz-adv-x="1355" d="M80 0v264l698 752q39 42 75.5 78.5t53.5 52t17 16.5l-4 8h-11q-11 0 -30 -0.5t-41.5 -1t-52 -0.5h-56.5h-629v265h1176v-275l-666 -723q-45 -48 -87 -89.5t-60.5 -58.5t-18.5 -18l5 -8h5q6 0 15.5 0.5t22.5 0.5h30t36 0.5t43 0.5h48h627v-264h-1196zM563 1702 q0 54 38.5 92.5t92.5 38.5q55 0 94 -38.5t39 -92.5q0 -55 -38.5 -93t-94.5 -38q-54 0 -92.5 38t-38.5 93z" />
<glyph unicode="&#x17c;" horiz-adv-x="1163" d="M80 0v260l483 467q53 52 96.5 93.5t57.5 54.5t14 14l-2 6h-162h-469v252h985v-260l-450 -445q-62 -60 -113.5 -106.5t-70.5 -63.5l-19 -16l4 -6q78 2 182 2h467v-252h-1003zM455 1415q0 54 38 92.5t93 38.5t93 -38.5t38 -92.5q0 -55 -37.5 -93t-93.5 -38t-93.5 38 t-37.5 93z" />
<glyph unicode="&#x17d;" horiz-adv-x="1355" d="M80 0v264l698 752q39 42 75.5 78.5t53.5 52t17 16.5l-4 8h-11q-11 0 -30 -0.5t-41.5 -1t-52 -0.5h-56.5h-629v265h1176v-275l-666 -723q-45 -48 -87 -89.5t-60.5 -58.5t-18.5 -18l5 -8h5q6 0 15.5 0.5t22.5 0.5h30t36 0.5t43 0.5h48h627v-264h-1196zM354 1769l125 152 l217 -152l217 152l123 -152l-340 -245z" />
<glyph unicode="&#x17e;" horiz-adv-x="1163" d="M80 0v260l483 467q53 52 96.5 93.5t57.5 54.5t14 14l-2 6h-162h-469v252h985v-260l-450 -445q-62 -60 -113.5 -106.5t-70.5 -63.5l-19 -16l4 -6q78 2 182 2h467v-252h-1003zM246 1483l123 151l217 -151l217 151l125 -151l-342 -246z" />
<glyph unicode="&#x218;" horiz-adv-x="1259" d="M61 365l273 73q17 -104 103 -159.5t220 -55.5q119 0 185.5 45t66.5 133q0 41 -16.5 72t-39 49t-64 32.5t-74 21.5t-88.5 17.5t-88 18.5q-57 13 -101 27t-98.5 37t-94 55t-74.5 74.5t-53 102.5t-18 132q0 205 141.5 313.5t383.5 108.5q217 0 362 -91.5t201 -276.5 l-273 -72q-57 188 -297 188q-227 0 -227 -161q0 -29 9.5 -53.5t23 -42t40 -32.5t49.5 -25t64 -21t70.5 -17.5t80.5 -16.5l15 -3q73 -14 130 -31t121 -50.5t106 -78t70 -116t28 -161.5q0 -211 -141 -319.5t-400 -108.5q-79 0 -150 10t-145.5 37.5t-132 70t-103 113 t-65.5 161.5zM481 -338q30 8 62.5 31t44.5 47q-46 -3 -74.5 24.5t-28.5 69.5q0 53 39 83t105 30q67 0 107 -35.5t40 -106.5q0 -83 -53.5 -148t-153.5 -95z" />
<glyph unicode="&#x219;" horiz-adv-x="1079" d="M61 287l244 65q12 -69 74.5 -117.5t175.5 -48.5q88 0 137 34t49 102q0 24 -7 43t-17 33t-30.5 25.5t-39 19t-51.5 16t-57.5 13.5t-68 14t-73.5 16q-53 12 -91.5 25t-83.5 38t-73.5 57t-47.5 84t-19 117q0 170 117.5 258t328.5 88q194 0 316 -72.5t162 -211.5l-236 -64 q-19 65 -76.5 102.5t-148.5 37.5q-88 0 -136.5 -32.5t-48.5 -92.5q0 -24 6.5 -41.5t25.5 -32t35.5 -23.5t54.5 -19t64 -16t82 -17l15 -3q57 -12 98.5 -23.5t97.5 -39t92 -63t61.5 -95t25.5 -135.5q0 -121 -62 -201.5t-163 -115t-238 -34.5q-65 0 -124 8t-121.5 29t-111 54.5 t-85.5 89.5t-52 129zM395 -338q32 8 64.5 31t42.5 47q-46 -3 -74.5 24.5t-28.5 69.5q0 53 39 83t105 30q67 0 107 -35.5t40 -106.5q0 -83 -53.5 -148t-153.5 -95z" />
<glyph unicode="&#x21a;" horiz-adv-x="1333" d="M68 1169v265h1198v-265h-457v-1169h-285v1169h-456zM518 -338q30 8 62.5 31t44.5 47q-46 -3 -74.5 24.5t-28.5 69.5q0 53 39 83t105 30q67 0 107 -35.5t40 -106.5q0 -83 -53.5 -148t-153.5 -95z" />
<glyph unicode="&#x21b;" horiz-adv-x="1159" d="M68 895v252h1024v-252h-377v-895h-271v895h-376zM438 -338q30 8 62.5 31t44.5 47q-46 -3 -74.5 24.5t-28.5 69.5q0 53 39 83t105 30q67 0 107 -35.5t40 -106.5q0 -83 -53.5 -148t-153.5 -95z" />
<glyph unicode="&#x237;" horiz-adv-x="915" d="M0 94l147 195q66 -66 175 -66q122 0 164 69.5t42 229.5v625h269v-641q0 -258 -120 -393.5t-353 -135.5q-210 0 -324 117z" />
<glyph unicode="&#x2c6;" horiz-adv-x="1163" d="M240 1675l342 260l340 -260l-123 -151l-217 164l-217 -162z" />
<glyph unicode="&#x2c7;" horiz-adv-x="1163" d="M240 1769l125 152l217 -152l217 152l125 -152l-342 -245z" />
<glyph unicode="&#x2d8;" horiz-adv-x="1163" d="M219 1821h209q3 -55 41.5 -88t108.5 -33q73 0 111 33.5t40 87.5h209q-6 -139 -103 -219t-257 -80q-159 0 -255.5 79.5t-103.5 219.5z" />
<glyph unicode="&#x2d9;" horiz-adv-x="1163" d="M451 1702q0 54 38 92.5t93 38.5t93 -38.5t38 -92.5q0 -56 -37.5 -93.5t-93.5 -37.5t-93.5 37.5t-37.5 93.5z" />
<glyph unicode="&#x2da;" horiz-adv-x="1163" d="M322 1733q0 108 72 169.5t188 61.5t188 -61.5t72 -169.5q0 -107 -72 -168.5t-188 -61.5t-188 61.5t-72 168.5zM496 1733q0 -35 24 -56.5t62 -21.5t62 21.5t24 56.5q0 36 -23.5 57.5t-62.5 21.5t-62.5 -21.5t-23.5 -57.5z" />
<glyph unicode="&#x2db;" horiz-adv-x="1163" d="M285 -158q0 48 19 85t48 61t76.5 43t91.5 29t105 20l63 -80q-176 -6 -176 -90q0 -41 34.5 -59.5t86.5 -18.5q73 0 141 33v-189q-74 -36 -184 -36q-87 0 -154 20.5t-109 67t-42 114.5z" />
<glyph unicode="&#x2dc;" horiz-adv-x="1163" d="M248 1788q17 22 64 43.5t104 21.5t149.5 -31.5t151.5 -31.5q46 0 85 16t62 39l45 -207q-13 -21 -61 -42t-105 -21q-58 0 -151.5 31.5t-149.5 31.5q-46 0 -85 -17t-62 -40z" />
<glyph unicode="&#x2dd;" horiz-adv-x="1163" d="M211 1544l223 359l225 -74l-192 -285h-256zM639 1544l223 359l223 -74l-192 -285h-254z" />
<glyph unicode="&#x326;" horiz-adv-x="0" d="M436 -338q30 8 62.5 31t44.5 47q-46 -3 -74.5 24.5t-28.5 69.5q0 53 39 83t105 30q67 0 107 -35.5t40 -106.5q0 -83 -53.5 -148t-153.5 -95z" />
<glyph unicode="&#x1e80;" horiz-adv-x="2119" d="M35 1434h315l178 -635q118 -410 119 -412h6q1 2 15 51.5t39.5 141.5t44.5 159l151 541h344l150 -543l98 -350h6q1 2 15.5 52.5t45 156.5t54.5 190l186 648h283l-432 -1434h-310l-186 610q-26 86 -49 171t-33.5 125.5t-11.5 41.5h-8q-1 -1 -11 -41.5t-34 -130t-49 -180.5 l-173 -596h-321zM784 1829l224 74l225 -359h-256z" />
<glyph unicode="&#x1e81;" horiz-adv-x="1773" d="M35 1147h287l133 -459q30 -98 53.5 -183.5t32.5 -119.5t10 -35h6q1 1 10 32.5t31 110.5t45 158l115 385h289l110 -385q23 -82 43 -158.5t28 -109t9 -33.5h6q1 1 9.5 34.5t32.5 119t54 184.5l138 459h262l-348 -1147h-281l-127 410q-90 303 -94 307h-4q-1 -1 -10 -31 t-33.5 -111.5t-50.5 -166.5l-127 -408h-281zM594 1542l223 74l223 -359h-254z" />
<glyph unicode="&#x1e82;" horiz-adv-x="2119" d="M35 1434h315l178 -635q118 -410 119 -412h6q1 2 15 51.5t39.5 141.5t44.5 159l151 541h344l150 -543l98 -350h6q1 2 15.5 52.5t45 156.5t54.5 190l186 648h283l-432 -1434h-310l-186 610q-26 86 -49 171t-33.5 125.5t-11.5 41.5h-8q-1 -1 -11 -41.5t-34 -130t-49 -180.5 l-173 -596h-321zM950 1544l224 359l223 -74l-193 -285h-254z" />
<glyph unicode="&#x1e83;" horiz-adv-x="1773" d="M35 1147h287l133 -459q30 -98 53.5 -183.5t32.5 -119.5t10 -35h6q1 1 10 32.5t31 110.5t45 158l115 385h289l110 -385q23 -82 43 -158.5t28 -109t9 -33.5h6q1 1 9.5 34.5t32.5 119t54 184.5l138 459h262l-348 -1147h-281l-127 410q-90 303 -94 307h-4q-1 -1 -10 -31 t-33.5 -111.5t-50.5 -166.5l-127 -408h-281zM758 1257l225 359l223 -74l-192 -285h-256z" />
<glyph unicode="&#x1e84;" horiz-adv-x="2119" d="M35 1434h315l178 -635q118 -410 119 -412h6q1 2 15 51.5t39.5 141.5t44.5 159l151 541h344l150 -543l98 -350h6q1 2 15.5 52.5t45 156.5t54.5 190l186 648h283l-432 -1434h-310l-186 610q-26 86 -49 171t-33.5 125.5t-11.5 41.5h-8q-1 -1 -11 -41.5t-34 -130t-49 -180.5 l-173 -596h-321zM752 1702q0 54 38 92.5t95 38.5q54 0 91.5 -38.5t37.5 -92.5q0 -56 -38 -93.5t-93 -37.5t-93 37.5t-38 93.5zM1171 1702q0 54 38.5 92.5t93.5 38.5t94 -38.5t39 -92.5q0 -55 -38.5 -93t-94.5 -38t-94 38t-38 93z" />
<glyph unicode="&#x1e85;" horiz-adv-x="1773" d="M35 1147h287l133 -459q30 -98 53.5 -183.5t32.5 -119.5t10 -35h6q1 1 10 32.5t31 110.5t45 158l115 385h289l110 -385q23 -82 43 -158.5t28 -109t9 -33.5h6q1 1 9.5 34.5t32.5 119t54 184.5l138 459h262l-348 -1147h-281l-127 410q-90 303 -94 307h-4q-1 -1 -10 -31 t-33.5 -111.5t-50.5 -166.5l-127 -408h-281zM559 1415q0 54 39 92.5t96 38.5q54 0 91.5 -38.5t37.5 -92.5q0 -55 -38.5 -93t-94.5 -38t-93.5 38t-37.5 93zM979 1415q0 55 38.5 93t94.5 38q54 0 92.5 -38.5t38.5 -92.5q0 -55 -38.5 -93t-92.5 -38q-57 0 -95 37.5t-38 93.5z " />
<glyph unicode="&#x1e9e;" horiz-adv-x="1406" d="M129 0v1434h1102l-305 -557l4 -5h12q182 0 299 -122t117 -314q0 -90 -28.5 -171t-85 -147.5t-150.5 -105.5t-215 -39q-206 0 -338 119l123 211q77 -74 186 -74q103 0 162 59.5t59 151.5q0 95 -60 153t-171 58h-178v223l155 289l-6 6h-135h-262v-1169h-285z" />
<glyph unicode="&#x1ef2;" horiz-adv-x="1421" d="M27 1434l329 2l254 -418q25 -40 52 -85.5t40.5 -67.5t14.5 -23h6q1 1 14 23.5t38.5 66t51.5 84.5l263 418h305l-541 -850v-584h-287v584zM430 1829l225 74l224 -359h-256z" />
<glyph unicode="&#x1ef3;" horiz-adv-x="1175" d="M27 1147h309l141 -248q29 -52 60 -108.5t46.5 -85t16.5 -29.5h6q1 1 16 29t46.5 86t60.5 110l141 246h279l-428 -729v-418h-268v418zM305 1542l223 74l224 -359h-254z" />
<glyph unicode="&#x2000;" horiz-adv-x="982" />
<glyph unicode="&#x2001;" horiz-adv-x="1964" />
<glyph unicode="&#x2002;" horiz-adv-x="716" />
<glyph unicode="&#x2003;" horiz-adv-x="1298" />
<glyph unicode="&#x2004;" horiz-adv-x="654" />
<glyph unicode="&#x2005;" horiz-adv-x="491" />
<glyph unicode="&#x2006;" horiz-adv-x="327" />
<glyph unicode="&#x2007;" />
<glyph unicode="&#x2008;" horiz-adv-x="540" />
<glyph unicode="&#x2009;" horiz-adv-x="256" />
<glyph unicode="&#x200a;" horiz-adv-x="81" />
<glyph unicode="&#x200b;" horiz-adv-x="0" />
<glyph unicode="&#x2010;" horiz-adv-x="1175" d="M180 463v233h815v-233h-815z" />
<glyph unicode="&#x2011;" horiz-adv-x="1175" d="M180 463v233h815v-233h-815z" />
<glyph unicode="&#x2012;" horiz-adv-x="1175" d="M180 463v233h815v-233h-815z" />
<glyph unicode="&#x2013;" d="M180 463v233h1006v-233h-1006z" />
<glyph unicode="&#x2014;" horiz-adv-x="1990" d="M180 463v233h1628v-233h-1628z" />
<glyph unicode="&#x2018;" horiz-adv-x="540" d="M106 1167q0 92 60.5 173t163.5 114l108 -121q-42 -10 -76.5 -40t-48.5 -66q49 3 79 -27.5t30 -83.5q0 -56 -41 -92.5t-105 -36.5q-77 0 -123.5 47.5t-46.5 132.5z" />
<glyph unicode="&#x2019;" horiz-adv-x="540" d="M102 1110q43 12 77 42t46 67q-48 -3 -77 26.5t-29 83.5q0 55 40.5 92t104.5 37q75 0 122.5 -49t47.5 -133q0 -91 -60.5 -171.5t-164.5 -113.5z" />
<glyph unicode="&#x201a;" horiz-adv-x="540" d="M102 -90q43 12 77 41.5t46 66.5q-48 -3 -77 27t-29 84q0 55 40.5 92t104.5 37q75 0 122.5 -49t47.5 -133q0 -91 -60.5 -171.5t-164.5 -113.5z" />
<glyph unicode="&#x201c;" horiz-adv-x="978" d="M102 1167q0 92 61 173t165 114l106 -121q-42 -10 -76.5 -40t-48.5 -66q49 3 79 -27.5t30 -83.5q0 -56 -41 -92.5t-105 -36.5q-75 0 -122.5 48t-47.5 132zM543 1167q0 92 60 173t163 114l106 -121q-41 -10 -74.5 -40t-47.5 -66q49 3 78.5 -27.5t29.5 -83.5 q0 -56 -40.5 -92.5t-104.5 -36.5q-77 0 -123.5 47.5t-46.5 132.5z" />
<glyph unicode="&#x201d;" horiz-adv-x="978" d="M102 1110q43 12 77 42t46 67q-48 -3 -77 26.5t-29 83.5q0 55 40.5 92t104.5 37q75 0 122.5 -49t47.5 -133q0 -91 -60.5 -171.5t-164.5 -113.5zM543 1110q41 12 75.5 42t47.5 67q-50 -3 -79.5 26.5t-29.5 83.5q0 55 40.5 92t104.5 37q76 0 123 -48.5t47 -133.5 q0 -91 -60.5 -171.5t-162.5 -113.5z" />
<glyph unicode="&#x201e;" horiz-adv-x="970" d="M102 -90q43 12 77 41.5t46 66.5q-48 -3 -77 27t-29 84q0 55 40.5 92t104.5 37q75 0 122.5 -49t47.5 -133q0 -91 -60.5 -171.5t-164.5 -113.5zM532 -90q43 12 77.5 41.5t47.5 66.5q-50 -3 -79 27t-29 84q0 55 40.5 92t104.5 37q75 0 122.5 -49t47.5 -133 q0 -91 -60.5 -171.5t-164.5 -113.5z" />
<glyph unicode="&#x2020;" d="M225 842v248h318v344h284v-344h316v-248h-316v-217q0 -150 -8.5 -305.5t-16 -236.5t-9.5 -83h-218q-2 2 -9 83t-15 236.5t-8 305.5v217h-318z" />
<glyph unicode="&#x2021;" d="M225 367v247h318v11v217h-318v248h318v344h284v-344h316v-248h-316v-217v-11h316v-247h-322q-5 -97 -11.5 -186.5t-11 -134.5t-5.5 -46h-218l-1 10q-1 9 -3 26.5t-4 41.5t-4.5 56t-5.5 67t-5.5 79t-4.5 87h-322z" />
<glyph unicode="&#x2022;" horiz-adv-x="681" d="M129 584q0 88 59.5 143t153.5 55q91 0 151 -55.5t60 -142.5q0 -90 -59.5 -146.5t-151.5 -56.5q-94 0 -153.5 56.5t-59.5 146.5z" />
<glyph unicode="&#x2026;" horiz-adv-x="1531" d="M115 96q0 49 34 82t93 33q61 0 94 -32t33 -83q0 -52 -33 -85.5t-94 -33.5t-94 33.5t-33 85.5zM629 96q0 50 33 82.5t94 32.5q60 0 92.5 -32t32.5 -83q0 -52 -32.5 -85.5t-92.5 -33.5q-61 0 -94 33.5t-33 85.5zM1161 96q0 50 33 82.5t94 32.5t94 -32t33 -83 q0 -52 -33 -85.5t-94 -33.5t-94 33.5t-33 85.5z" />
<glyph unicode="&#x202f;" horiz-adv-x="392" />
<glyph unicode="&#x2030;" horiz-adv-x="2125" d="M68 813q0 356 282 356q281 0 281 -356q0 -354 -281 -354q-282 0 -282 354zM248 813q0 -100 24.5 -136t77.5 -36q51 0 76 36t25 136t-25 136t-76 36q-53 0 -77.5 -36t-24.5 -136zM473 0l385 1147h172l-385 -1147h-172zM877 344q0 354 282 354q279 0 279 -354 q0 -356 -279 -356q-282 0 -282 356zM1057 344q0 -101 23.5 -137.5t76.5 -36.5q51 0 75.5 37t24.5 137t-24.5 136t-75.5 36t-75.5 -36t-24.5 -136zM1495 344q0 354 283 354q280 0 280 -354q0 -356 -280 -356q-283 0 -283 356zM1675 344q0 -100 25 -137t76 -37q53 0 77.5 36.5 t24.5 137.5q0 100 -24.5 136t-77.5 36q-51 0 -76 -36t-25 -136z" />
<glyph unicode="&#x2039;" horiz-adv-x="884" d="M123 573l483 480l154 -154l-334 -321v-7l336 -321l-158 -156z" />
<glyph unicode="&#x203a;" horiz-adv-x="884" d="M123 250l336 321v7l-334 321l154 154l483 -480l-481 -479z" />
<glyph unicode="&#x2044;" horiz-adv-x="325" d="M-152 0l428 1434h201l-428 -1434h-201z" />
<glyph unicode="&#x205f;" horiz-adv-x="491" />
<glyph unicode="&#x20ac;" horiz-adv-x="1214" d="M63 358v172h74v60v26h-71v170h90q80 383 503 383q123 0 220.5 -33t169 -110t98.5 -192l-266 -72q-45 166 -236 166q-161 0 -207 -142h260v-170h-284v-26q0 -10 1 -30.5t1 -29.5h282v-172h-247q55 -133 206 -133q90 0 139.5 29t84.5 102l266 -71q-20 -58 -56 -110 t-92.5 -98t-141.5 -73t-189 -27q-197 0 -328.5 92.5t-179.5 288.5h-97z" />
<glyph unicode="&#x20b9;" horiz-adv-x="1038" d="M129 719v172h385q-36 86 -170 86h-215v170h844v-170h-228l-2 -6q25 -35 41 -80h189v-172h-164q-10 -133 -97.5 -216.5t-213.5 -103.5l231 -399h-319l-228 410v186h154q163 0 190 123h-397z" />
<glyph unicode="&#x20ba;" horiz-adv-x="1181" d="M119 369v172l114 24v86l-114 -24v172l114 24v324h271v-264l184 39v-170l-184 -41v-86l184 41v-172l-184 -41v-201h67q238 0 287 211l254 -70q-15 -82 -53.5 -151t-101.5 -124t-158.5 -86.5t-214.5 -31.5h-351v395z" />
<glyph unicode="&#x2116;" horiz-adv-x="2174" d="M129 0v1147h279l516 -711h6v7q0 7 -0.5 18.5t-0.5 27.5v36t-0.5 41.5t-0.5 46.5v49v485h270v-1147h-280l-517 731h-6v-7q0 -8 0.5 -21.5t1 -31.5t1 -41t1 -47t0.5 -52.5v-55.5v-475h-270zM1399 817q0 152 101.5 252t250.5 100q147 0 249.5 -100t102.5 -252t-102.5 -252 t-249.5 -100q-149 0 -250.5 100t-101.5 252zM1419 172v174h664v-174h-664zM1569 817q0 -84 48.5 -136t133.5 -52q83 0 131.5 52.5t48.5 135.5q0 84 -48.5 137.5t-131.5 53.5q-84 0 -133 -53.5t-49 -137.5z" />
<glyph unicode="&#x2117;" horiz-adv-x="1617" d="M63 543q0 217 100.5 388.5t270 264t373.5 92.5q205 0 374.5 -92.5t270 -264t100.5 -388.5q0 -162 -58.5 -302.5t-159 -237t-237.5 -151.5t-290 -55t-289.5 55t-236.5 151.5t-159 237t-59 302.5zM211 545q0 -267 167.5 -436.5t428.5 -169.5q262 0 431 169.5t169 436.5 q0 132 -45 244.5t-124 191t-190.5 122.5t-240.5 44q-171 0 -307 -75.5t-212.5 -213.5t-76.5 -313zM547 168v756h303q145 0 225 -73.5t80 -199.5q0 -120 -82.5 -188t-251.5 -68h-86v-227h-188zM735 545h113q59 0 90 26t31 74q0 100 -121 100h-113v-200z" />
<glyph unicode="&#x2122;" horiz-adv-x="1652" d="M68 1272v162h608v-162h-217v-504h-174v504h-217zM801 768v666h194l111 -203q12 -22 27.5 -51t24 -45t9.5 -17h2q1 1 9 16.5t22.5 44.5t26.5 52l100 203h197v-666h-168v217v215h-2q-1 -1 -11 -20.5t-28.5 -56.5t-34.5 -66l-74 -139h-84l-75 139q-81 146 -82 147h-2l2 -219 v-217h-164z" />
<glyph unicode="&#x2150;" horiz-adv-x="1718" d="M68 1212l233 222h174v-631h162v-164h-508v162h162v256q0 28 4.5 86t7.5 76h-8q-1 0 -7.5 -9t-18.5 -23.5t-23 -25.5l-62 -61zM545 0l428 1434h201l-429 -1434h-200zM1094 633v162h569v-168l-322 -625h-186l229 453q11 23 25 49t25 47t21 38.5l16 28t6 11.5l-4 8 q-12 -4 -105 -4h-274z" />
<glyph unicode="&#x2151;" horiz-adv-x="1718" d="M68 1212l233 222h174v-631h162v-164h-508v162h162v256q0 28 4.5 86t7.5 76h-8q-1 0 -7.5 -9t-18.5 -23.5t-23 -25.5l-62 -61zM545 0l428 1434h201l-429 -1434h-200zM1059 535q0 127 86 201.5t221 74.5q131 0 219 -76.5t88 -216.5q0 -151 -133 -321l-158 -195h-206 l272 332l-6 6q-18 -18 -29 -27t-40 -19.5t-66 -10.5q-112 0 -180 71t-68 181zM1223 535q0 -58 38 -89.5t97 -31.5q61 0 98 31.5t37 89.5q0 57 -38 89.5t-97 32.5t-96.5 -32.5t-38.5 -89.5z" />
<glyph unicode="&#x2152;" horiz-adv-x="2414" d="M68 1212l233 222h174v-631h162v-164h-508v162h162v256q0 28 4.5 86t7.5 76h-8q-1 0 -7.5 -9t-18.5 -23.5t-23 -25.5l-62 -61zM545 0l428 1434h201l-429 -1434h-200zM1090 573l233 222h176v-631h162v-162h-508v162h162v254q0 32 4 89t8 73h-8q-1 0 -8 -9t-19.5 -23 t-23.5 -24l-60 -61zM1761 397q0 211 80.5 312.5t226.5 101.5t226 -101t80 -313q0 -210 -80 -310.5t-226 -100.5t-226.5 100.5t-80.5 310.5zM1954 397q0 -130 27.5 -184.5t86.5 -54.5q60 0 86.5 54t26.5 185q0 132 -26.5 186t-86.5 54q-59 0 -86.5 -54.5t-27.5 -185.5z" />
<glyph unicode="&#x2153;" horiz-adv-x="1718" d="M68 1212l233 222h174v-631h162v-164h-508v162h162v256q0 28 4.5 86t7.5 76h-8q-1 0 -7.5 -9t-18.5 -23.5t-23 -25.5l-62 -61zM545 0l428 1434h201l-429 -1434h-200zM1069 219l162 47q8 -59 44 -91t97 -32q59 0 92 30t33 75q0 46 -33.5 73t-91.5 27h-59v119h51 q57 0 90 28.5t33 73.5q0 38 -30 64t-89 26q-58 0 -88 -27t-41 -89l-154 41q38 227 295 227q136 0 207.5 -59.5t71.5 -155.5q0 -74 -40.5 -125t-98.5 -59v-6q63 -10 108 -60t45 -129q0 -100 -79.5 -165.5t-200.5 -65.5q-143 0 -223.5 64.5t-100.5 168.5z" />
<glyph unicode="&#x2154;" horiz-adv-x="1718" d="M57 1225q54 225 301 225q130 0 203.5 -64.5t73.5 -183.5q0 -134 -127 -231q-23 -18 -55 -41.5t-61.5 -44t-56 -38.5t-43.5 -29l-16 -11l3 -10q69 6 120 6h246v-164h-584v213l291 192q103 64 103 138q0 47 -30 73.5t-87 26.5q-53 0 -84.5 -22.5t-44.5 -77.5zM545 0 l428 1434h201l-429 -1434h-200zM1069 219l162 47q8 -59 44 -91t97 -32q59 0 92 30t33 75q0 46 -33.5 73t-91.5 27h-59v119h51q57 0 90 28.5t33 73.5q0 38 -30 64t-89 26q-58 0 -88 -27t-41 -89l-154 41q38 227 295 227q136 0 207.5 -59.5t71.5 -155.5q0 -74 -40.5 -125 t-98.5 -59v-6q63 -10 108 -60t45 -129q0 -100 -79.5 -165.5t-200.5 -65.5q-143 0 -223.5 64.5t-100.5 168.5z" />
<glyph unicode="&#x2155;" horiz-adv-x="1718" d="M68 1212l233 222h174v-631h162v-164h-508v162h162v256q0 28 4.5 86t7.5 76h-8q-1 0 -7.5 -9t-18.5 -23.5t-23 -25.5l-62 -61zM545 0l428 1434h201l-429 -1434h-200zM1075 209l158 41q7 -47 41.5 -81t95.5 -34q58 0 93.5 32t35.5 89q0 55 -35 88t-94 33q-83 0 -119 -60 l-159 43l82 435h452v-162h-340l-16 -82q-5 -22 -12 -45t-11 -35l-4 -12l8 -4q22 21 65.5 36t92.5 15q111 0 185.5 -68t74.5 -186t-77 -192t-212 -74t-213 66.5t-92 156.5z" />
<glyph unicode="&#x2156;" horiz-adv-x="1718" d="M57 1225q54 225 301 225q130 0 203.5 -64.5t73.5 -183.5q0 -134 -127 -231q-23 -18 -55 -41.5t-61.5 -44t-56 -38.5t-43.5 -29l-16 -11l3 -10q69 6 120 6h246v-164h-584v213l291 192q103 64 103 138q0 47 -30 73.5t-87 26.5q-53 0 -84.5 -22.5t-44.5 -77.5zM545 0 l428 1434h201l-429 -1434h-200zM1075 209l158 41q7 -47 41.5 -81t95.5 -34q58 0 93.5 32t35.5 89q0 55 -35 88t-94 33q-83 0 -119 -60l-159 43l82 435h452v-162h-340l-16 -82q-5 -22 -12 -45t-11 -35l-4 -12l8 -4q22 21 65.5 36t92.5 15q111 0 185.5 -68t74.5 -186t-77 -192 t-212 -74t-213 66.5t-92 156.5z" />
<glyph unicode="&#x2157;" horiz-adv-x="1718" d="M47 858l162 47q6 -59 42 -91t99 -32q59 0 92 30t33 75t-34 72.5t-91 27.5h-59v119h51q56 0 89.5 27.5t33.5 72.5q0 38 -30.5 65t-88.5 27q-59 0 -90 -27.5t-41 -88.5l-152 41q16 106 90 166.5t205 60.5q135 0 206 -59.5t71 -155.5q0 -76 -40 -127t-99 -57v-9 q64 -8 108.5 -57.5t44.5 -130.5q0 -99 -79.5 -165t-200.5 -66q-142 0 -222 65.5t-100 169.5zM545 0l428 1434h201l-429 -1434h-200zM1075 209l158 41q7 -47 41.5 -81t95.5 -34q58 0 93.5 32t35.5 89q0 55 -35 88t-94 33q-83 0 -119 -60l-159 43l82 435h452v-162h-340 l-16 -82q-5 -22 -12 -45t-11 -35l-4 -12l8 -4q22 21 65.5 36t92.5 15q111 0 185.5 -68t74.5 -186t-77 -192t-212 -74t-213 66.5t-92 156.5z" />
<glyph unicode="&#x2158;" horiz-adv-x="1718" d="M27 815v156l266 463h266v-457h111v-162h-111v-176h-176v176h-356zM203 985l6 -8h88h86v166q0 109 6 145h-12q-1 0 -85.5 -147.5t-88.5 -155.5zM545 0l428 1434h201l-429 -1434h-200zM1075 209l158 41q7 -47 41.5 -81t95.5 -34q58 0 93.5 32t35.5 89q0 55 -35 88t-94 33 q-83 0 -119 -60l-159 43l82 435h452v-162h-340l-16 -82q-5 -22 -12 -45t-11 -35l-4 -12l8 -4q22 21 65.5 36t92.5 15q111 0 185.5 -68t74.5 -186t-77 -192t-212 -74t-213 66.5t-92 156.5z" />
<glyph unicode="&#x2159;" horiz-adv-x="1718" d="M68 1212l233 222h174v-631h162v-164h-508v162h162v256q0 28 4.5 86t7.5 76h-8q-1 0 -7.5 -9t-18.5 -23.5t-23 -25.5l-62 -61zM545 0l428 1434h201l-429 -1434h-200zM1069 279q0 133 94 262l189 254h207l-269 -353l8 -6q56 64 152 64q91 0 162 -64t71 -180 q0 -123 -82 -196.5t-215 -73.5q-139 0 -228 77.5t-89 215.5zM1247 258q0 -58 38 -90.5t97 -32.5q60 0 97.5 32t38.5 91q0 56 -38.5 88.5t-97.5 32.5t-97 -32.5t-38 -88.5z" />
<glyph unicode="&#x215a;" horiz-adv-x="1718" d="M51 848l160 39q5 -46 40 -80.5t97 -34.5q57 0 92 32.5t35 88.5q0 57 -35 90t-94 33q-45 0 -74.5 -18t-42.5 -42l-159 43l82 435h450v-162h-338l-18 -84q-4 -22 -10.5 -44t-10.5 -34l-4 -12l8 -4q22 20 64 34.5t92 14.5q112 0 186 -67.5t74 -186.5q0 -117 -77 -191.5 t-212 -74.5t-213 67.5t-92 157.5zM545 0l428 1434h201l-429 -1434h-200zM1069 279q0 133 94 262l189 254h207l-269 -353l8 -6q56 64 152 64q91 0 162 -64t71 -180q0 -123 -82 -196.5t-215 -73.5q-139 0 -228 77.5t-89 215.5zM1247 258q0 -58 38 -90.5t97 -32.5q60 0 97.5 32 t38.5 91q0 56 -38.5 88.5t-97.5 32.5t-97 -32.5t-38 -88.5z" />
<glyph unicode="&#x215b;" horiz-adv-x="1718" d="M68 1212l233 222h174v-631h162v-164h-508v162h162v256q0 28 4.5 86t7.5 76h-8q-1 0 -7.5 -9t-18.5 -23.5t-23 -25.5l-62 -61zM545 0l428 1434h201l-429 -1434h-200zM1065 215q0 83 49 136t111 69v6q-45 9 -85 54t-40 118q0 100 74 156.5t196 56.5q123 0 197.5 -56.5 t74.5 -154.5q0 -73 -40 -118.5t-82 -55.5v-6q61 -16 109 -69t48 -136q0 -108 -82 -168.5t-225 -60.5q-142 0 -223.5 60.5t-81.5 168.5zM1237 231q0 -49 37 -77.5t96 -28.5q61 0 99 28.5t38 77.5t-38 77t-99 28q-60 0 -96.5 -27.5t-36.5 -77.5zM1253 590q0 -42 32 -67t85 -25 q54 0 86.5 24.5t32.5 67.5t-32.5 67.5t-86.5 24.5q-53 0 -85 -25t-32 -67z" />
<glyph unicode="&#x215c;" horiz-adv-x="1718" d="M47 858l162 47q6 -59 42 -91t99 -32q59 0 92 30t33 75t-34 72.5t-91 27.5h-59v119h51q56 0 89.5 27.5t33.5 72.5q0 38 -30.5 65t-88.5 27q-59 0 -90 -27.5t-41 -88.5l-152 41q16 106 90 166.5t205 60.5q135 0 206 -59.5t71 -155.5q0 -76 -40 -127t-99 -57v-9 q64 -8 108.5 -57.5t44.5 -130.5q0 -99 -79.5 -165t-200.5 -66q-142 0 -222 65.5t-100 169.5zM545 0l428 1434h201l-429 -1434h-200zM1065 215q0 83 49 136t111 69v6q-45 9 -85 54t-40 118q0 100 74 156.5t196 56.5q123 0 197.5 -56.5t74.5 -154.5q0 -73 -40 -118.5 t-82 -55.5v-6q61 -16 109 -69t48 -136q0 -108 -82 -168.5t-225 -60.5q-142 0 -223.5 60.5t-81.5 168.5zM1237 231q0 -49 37 -77.5t96 -28.5q61 0 99 28.5t38 77.5t-38 77t-99 28q-60 0 -96.5 -27.5t-36.5 -77.5zM1253 590q0 -42 32 -67t85 -25q54 0 86.5 24.5t32.5 67.5 t-32.5 67.5t-86.5 24.5q-53 0 -85 -25t-32 -67z" />
<glyph unicode="&#x215d;" horiz-adv-x="1718" d="M51 848l160 39q5 -46 40 -80.5t97 -34.5q57 0 92 32.5t35 88.5q0 57 -35 90t-94 33q-45 0 -74.5 -18t-42.5 -42l-159 43l82 435h450v-162h-338l-18 -84q-4 -22 -10.5 -44t-10.5 -34l-4 -12l8 -4q22 20 64 34.5t92 14.5q112 0 186 -67.5t74 -186.5q0 -117 -77 -191.5 t-212 -74.5t-213 67.5t-92 157.5zM545 0l428 1434h201l-429 -1434h-200zM1065 215q0 83 49 136t111 69v6q-45 9 -85 54t-40 118q0 100 74 156.5t196 56.5q123 0 197.5 -56.5t74.5 -154.5q0 -73 -40 -118.5t-82 -55.5v-6q61 -16 109 -69t48 -136q0 -108 -82 -168.5 t-225 -60.5q-142 0 -223.5 60.5t-81.5 168.5zM1237 231q0 -49 37 -77.5t96 -28.5q61 0 99 28.5t38 77.5t-38 77t-99 28q-60 0 -96.5 -27.5t-36.5 -77.5zM1253 590q0 -42 32 -67t85 -25q54 0 86.5 24.5t32.5 67.5t-32.5 67.5t-86.5 24.5q-53 0 -85 -25t-32 -67z" />
<glyph unicode="&#x215e;" horiz-adv-x="1718" d="M72 1272v162h567v-168l-322 -627h-186l229 455q19 38 41.5 79.5t37 67t16.5 27.5l-6 8q-12 -4 -103 -4h-274zM545 0l428 1434h201l-429 -1434h-200zM1065 215q0 83 49 136t111 69v6q-45 9 -85 54t-40 118q0 100 74 156.5t196 56.5q123 0 197.5 -56.5t74.5 -154.5 q0 -73 -40 -118.5t-82 -55.5v-6q61 -16 109 -69t48 -136q0 -108 -82 -168.5t-225 -60.5q-142 0 -223.5 60.5t-81.5 168.5zM1237 231q0 -49 37 -77.5t96 -28.5q61 0 99 28.5t38 77.5t-38 77t-99 28q-60 0 -96.5 -27.5t-36.5 -77.5zM1253 590q0 -42 32 -67t85 -25 q54 0 86.5 24.5t32.5 67.5t-32.5 67.5t-86.5 24.5q-53 0 -85 -25t-32 -67z" />
<glyph unicode="&#x215f;" horiz-adv-x="1021" d="M68 1212l233 222h174v-631h162v-164h-508v162h162v256q0 28 4.5 86t7.5 76h-8q-1 0 -7.5 -9t-18.5 -23.5t-23 -25.5l-62 -61zM545 0l428 1434h201l-429 -1434h-200z" />
<glyph unicode="&#x2189;" horiz-adv-x="1683" d="M43 1036q0 211 80.5 312.5t226.5 101.5q145 0 224 -101t79 -313q0 -210 -79 -311.5t-224 -101.5q-146 0 -226.5 101.5t-80.5 311.5zM233 1036q0 -131 28 -185t89 -54q60 0 86.5 53.5t26.5 185.5t-26.5 186t-86.5 54t-88.5 -54.5t-28.5 -185.5zM510 0l428 1434h201 l-428 -1434h-201zM1034 219l162 47q8 -59 44 -91t97 -32q59 0 92 30t33 75q0 46 -33.5 73t-91.5 27h-59v119h51q57 0 90 28.5t33 73.5q0 38 -30 64t-89 26q-58 0 -88 -27t-41 -89l-153 41q38 227 295 227q136 0 207 -59.5t71 -155.5q0 -74 -40.5 -125t-98.5 -59v-6 q63 -10 108 -60t45 -129q0 -100 -79.5 -165.5t-200.5 -65.5q-143 0 -223.5 64.5t-100.5 168.5z" />
<glyph unicode="&#x2212;" d="M276 463v233h816v-233h-816z" />
<glyph unicode="&#x2260;" d="M276 248v233h248l88 207h-336v236h435l86 200h231l-84 -200h148v-236h-244l-86 -207h330v-233h-428l-84 -205h-240l86 205h-150z" />
<glyph unicode="&#x2264;" d="M221 0v233h924v-233h-924zM221 590v272l924 301v-241l-662 -193v-6l662 -191v-243z" />
<glyph unicode="&#x2265;" d="M223 0v233h924v-233h-924zM223 289v243l662 191v6l-662 193v241l924 -301v-272z" />
<glyph unicode="&#x25ca;" horiz-adv-x="1558" d="M33 717l745 745l746 -745l-746 -744zM356 717l422 -422l424 422l-424 424z" />
<glyph unicode="&#x25fc;" horiz-adv-x="1146" d="M0 0v1147h1147v-1147h-1147z" />
<glyph unicode="&#xf8ff;" horiz-adv-x="1523" d="M129 4q12 -6 33 -6q25 0 37 10t12 25q0 22 -29 33q-22 7 -22 14q0 8 14 8q9 0 25 -8l6 24q-11 7 -31 7q-19 0 -31 -10.5t-12 -24.5q0 -23 31 -33q18 -6 18 -12q0 -11 -14 -11q-2 0 -29 9zM129 168h88q191 0 296.5 8.5t128.5 16.5t40 24l55 47l23 21l26 -21l56 -47 q17 -16 38.5 -23.5t126.5 -16t298 -9.5h90v92q-1 185 -9.5 290t-15.5 126t-20 39l-52 59l-22 27l22 24l45 54q17 17 25 38.5t17 126.5t10 299v91h-90q-193 0 -298.5 -9t-126.5 -17.5t-40 -25.5l-41 -34l-35 -33l-37 33l-41 38q-18 14 -39 21.5t-129 16.5t-301 10h-88v-91 q0 -190 8.5 -297t16.5 -128t22 -39l49 -56l21 -22l-21 -25l-49 -55q-14 -17 -22 -37.5t-16.5 -128t-8.5 -299.5v-88zM213 109l35 -68v-41h28v41l35 68h-32l-17 -48l-14 48h-35zM307 348q8 218 15 270l161 183l-161 182q-7 51 -15 272q201 -3 273 -14l180 -166l186 166 q72 11 271 14q-8 -219 -15 -272l-166 -182l166 -187q9 -90 15 -266q-218 4 -273 14l-184 162l-182 -162q-52 -10 -271 -14zM322 0h28l-2 72l39 -72h31v109h-27v-66l-33 66h-36v-109zM428 86h29v-86h26v86h29v23h-84v-23zM522 0h31v43h37v-43h28v109h-28v-41h-37v41h-31v-109 zM629 109l35 -109h32l35 109h-31l-20 -80l-18 80h-33zM741 0h31v109h-31v-109zM788 0h74v23h-43v20h39v23h-39v20h43v23h-74v-109zM870 109l27 -109h31l14 72l12 -72h33l27 109h-29l-14 -74l-13 74h-30l-13 -74l-14 74h-31zM1004 10q0 13 12 13t12 -13q0 -12 -12 -12t-12 12 zM1030 51q0 -24 14 -38.5t43 -14.5q17 0 29 4l-6 25q-7 -7 -18 -7q-14 0 -22.5 9t-8.5 24q0 16 9 25.5t22 9.5q12 0 18 -6l8 24q-10 5 -28 5q-26 0 -43 -16t-17 -44zM1120 53q0 -24 14.5 -39.5t41.5 -15.5q25 0 40 14.5t15 40.5q0 25 -14.5 41.5t-40.5 16.5t-41 -16.5 t-15 -41.5zM1151 53q0 35 25 35q22 0 22 -35q0 -33 -22 -33q-25 0 -25 33zM1239 0h29l2 82l22 -80h21l22 80v-82h29l-4 109h-39l-18 -70l-17 70h-39z" />
<glyph horiz-adv-x="1548" d="M63 721q0 216 97 386t265.5 262.5t379.5 92.5q239 0 414 -113.5t249 -291.5l-282 -78q-56 94 -154 154.5t-239 60.5q-199 0 -321 -130t-122 -345q0 -216 124.5 -346.5t316.5 -130.5q146 0 252.5 68.5t160.5 181.5l281 -74q-83 -207 -265.5 -326t-414.5 -119 q-211 0 -379.5 92.5t-265.5 264t-97 391.5zM688 1544l127 387l223 -41l-125 -346h-225z" />
<glyph horiz-adv-x="1050" d="M117 0v264h266v905h-266v265h817v-265h-266v-905h266v-264h-817z" />
<glyph horiz-adv-x="2091" d="M117 0v264h266v905h-266v265h817v-265h-266v-905h266v-264h-817zM1051 121l163 221q82 -100 211 -100q149 0 206 94.5t57 302.5v795h284v-818q0 -313 -138.5 -478t-406.5 -165q-240 0 -376 148z" />
<glyph horiz-adv-x="2091" d="M117 0v264h266v905h-266v265h817v-265h-266v-905h266v-264h-817zM1051 121l163 221q82 -100 211 -100q149 0 206 94.5t57 302.5v530h-508v265h792v-265v-553q0 -313 -138.5 -478t-406.5 -165q-240 0 -376 148z" />
<glyph horiz-adv-x="1581" d="M129 0v1434h285v-1434h-285zM543 121l164 221q79 -100 211 -100q149 0 204.5 94t55.5 303v530h-508v265h792v-265v-553q0 -312 -137.5 -477.5t-404.5 -165.5q-241 0 -377 148z" />
<glyph horiz-adv-x="1050" d="M117 0v264h266v905h-266v265h817v-265h-266v-905h266v-264h-817zM383 1544l223 359l225 -74l-192 -285h-256z" />
<glyph horiz-adv-x="1593" d="M129 0v1434h285v-1434h-285zM129 1544l223 359l223 -74l-192 -285h-254zM555 121l164 221q79 -100 211 -100q149 0 204.5 94t55.5 303v795h285v-818q0 -312 -138 -477.5t-405 -165.5q-244 0 -377 148zM1200 1544l223 359l224 -74l-193 -285h-254z" />
<glyph horiz-adv-x="1050" d="M117 0v264h266v905h-266v265h817v-265h-266v-905h266v-264h-817zM178 1675l340 260l342 -260l-125 -151l-217 164l-217 -162z" />
<glyph horiz-adv-x="1050" d="M117 0v264h266v905h-266v265h817v-265h-266v-905h266v-264h-817zM184 1702q0 54 39 92.5t96 38.5q54 0 92 -38.5t38 -92.5q0 -55 -39 -93t-95 -38q-55 0 -93 37.5t-38 93.5zM604 1702q0 54 38 92.5t95 38.5q54 0 92.5 -38.5t38.5 -92.5q0 -55 -38.5 -93t-92.5 -38 q-57 0 -95 37.5t-38 93.5z" />
<glyph horiz-adv-x="1050" d="M117 0v264h266v905h-266v265h817v-265h-266v-905h266v-264h-817zM395 1702q0 54 38 92.5t93 38.5t93 -38.5t38 -92.5q0 -56 -37.5 -93.5t-93.5 -37.5t-93.5 37.5t-37.5 93.5z" />
<glyph horiz-adv-x="1050" d="M117 0v264h266v905h-266v265h817v-265h-266v-905h266v-264h-817zM219 1829l223 74l224 -359h-256z" />
<glyph horiz-adv-x="1075" d="M129 0v264h266v905h-266v265h817v-265h-266v-905h266v-264h-817zM129 1577v221h817v-221h-817z" />
<glyph horiz-adv-x="1050" d="M117 0v264h266v905h-266v265h817v-265h-266v-905h266v-264h-74q-178 -7 -178 -90q0 -41 35 -59.5t88 -18.5q69 0 141 33v-189q-74 -36 -184 -36q-87 0 -154.5 20.5t-110 67t-42.5 114.5q0 100 84 158h-422z" />
<glyph horiz-adv-x="1038" d="M0 121l164 221q79 -100 211 -100q149 0 204.5 94t55.5 303v530h-508v265h795v-265v-553q0 -312 -139 -477.5t-406 -165.5q-241 0 -377 148z" />
<glyph horiz-adv-x="1038" d="M0 121l164 221q79 -100 211 -100q149 0 204.5 94t55.5 303v530h-508v265h795v-265v-553q0 -312 -139 -477.5t-406 -165.5q-241 0 -377 148zM178 1675l340 260l342 -260l-125 -151l-217 164l-217 -162z" />
<glyph horiz-adv-x="1519" d="M129 0v1434h289l682 -586h6v352v234h285v-1434h-285v475l-686 590h-6q-2 0 -2 -38.5t1 -156t1 -229.5v-641h-285z" />
<glyph horiz-adv-x="1519" d="M129 0v1434h289l686 -945h6v11q0 11 -0.5 29.5t-1 43.5t-1 55.5t-1 62.5t-0.5 68v68v607h285v-1434h-289l-686 958h-6v-10q0 -11 0.5 -30t1 -43.5t1 -56.5t1 -66t0.5 -73.5v-76.5v-602h-285zM645 1544l125 387l225 -41l-125 -346h-225z" />
<glyph horiz-adv-x="1519" d="M129 0v1434h289l682 -586h6v352v234h285v-1434h-285v475l-686 590h-6q-2 0 -2 -38.5t1 -156t1 -229.5v-641h-285zM645 1544l127 387l223 -41l-123 -346h-227z" />
<glyph horiz-adv-x="1519" d="M129 0v1434h289l682 -586h6v352v234h285v-1434h-285v475l-686 590h-6q-2 0 -2 -38.5t1 -156t1 -229.5v-641h-285zM618 1544l226 359l223 -74l-193 -285h-256z" />
<glyph horiz-adv-x="1519" d="M129 0v1434h289l682 -586h6v352v234h285v-1434h-285v475l-686 590h-6q-2 0 -2 -38.5t1 -156t1 -229.5v-641h-285zM422 1769l123 152l217 -152l217 152l125 -152l-342 -245z" />
<glyph horiz-adv-x="1519" d="M129 0v1434h289l682 -586h6v352v234h285v-1434h-285v475l-686 590h-6q-2 0 -2 -38.5t1 -156t1 -229.5v-641h-285zM604 -338q31 8 63 31t42 47q-46 -3 -73.5 24t-27.5 70q0 53 38.5 83t103.5 30q69 0 108 -35.5t39 -106.5q0 -84 -53 -148.5t-152 -94.5z" />
<glyph horiz-adv-x="1519" d="M129 0v1434h289l399 -322q173 -143 283 -225h6v313v234h285v-1434q0 -82 -21 -142.5t-55.5 -96t-87.5 -56.5t-106.5 -28t-123.5 -7h-65v203h84q54 0 80 30t26 97v528l-379 306q-308 249 -323 264h-6q-2 0 -2 -43.5t1 -170.5t1 -243v-641h-285z" />
<glyph horiz-adv-x="1519" d="M129 0v1434h289l682 -586h6v352v234h285v-1434h-285v475l-686 590h-6q-2 0 -2 -38.5t1 -156t1 -229.5v-641h-285zM387 1786q21 24 70 45.5t118 21.5q63 0 166 -31.5t170 -31.5q99 0 166 55l45 -205q-17 -22 -68 -43.5t-118 -21.5q-63 0 -166.5 31.5t-167.5 31.5 q-54 0 -99.5 -17t-70.5 -40z" />
<glyph horiz-adv-x="1632" d="M63 717q0 163 57 302.5t156.5 236.5t239 151.5t299.5 54.5t299.5 -54.5t239 -151.5t156.5 -236.5t57 -302.5q0 -216 -97.5 -386.5t-269 -264t-385.5 -93.5t-385.5 93.5t-269 264t-97.5 386.5zM350 717q0 -215 131.5 -345t333.5 -130t333.5 129.5t131.5 345.5 t-131.5 346.5t-333.5 130.5t-333.5 -130.5t-131.5 -346.5zM702 1544l125 387l224 -41l-123 -346h-226z" />
<glyph horiz-adv-x="1708" d="M63 731q0 161 59.5 299.5t161 232.5t238.5 147.5t289 53.5q205 0 376.5 -91t273.5 -258.5t102 -377.5q0 -173 -65.5 -293.5t-168.5 -179.5l6 -8l9 1q8 1 23.5 2t36 2t49 2t58.5 1h129v-264h-827q-204 0 -375 93t-273 261.5t-102 376.5zM350 731q0 -204 130 -333.5 t333 -129.5q202 0 333.5 130t131.5 333q0 205 -131 334t-334 129q-204 0 -333.5 -128.5t-129.5 -334.5z" />
<glyph horiz-adv-x="1259" d="M61 365l273 73q17 -104 103 -159.5t220 -55.5q119 0 185.5 45t66.5 133q0 41 -16.5 72t-39 49t-64 32.5t-74 21.5t-88.5 17.5t-88 18.5q-57 13 -101 27t-98.5 37t-94 55t-74.5 74.5t-53 102.5t-18 132q0 205 141.5 313.5t383.5 108.5q217 0 362 -91.5t201 -276.5 l-273 -72q-57 188 -297 188q-227 0 -227 -161q0 -29 9.5 -53.5t23 -42t40 -32.5t49.5 -25t64 -21t70.5 -17.5t80.5 -16.5l15 -3q73 -14 130 -31t121 -50.5t106 -78t70 -116t28 -161.5q0 -211 -141 -319.5t-400 -108.5q-79 0 -150 10t-145.5 37.5t-132 70t-103 113 t-65.5 161.5zM514 1544l127 387l223 -41l-125 -346h-225z" />
<glyph horiz-adv-x="1421" d="M27 1434l329 2l254 -418q25 -40 52 -85.5t40.5 -67.5t14.5 -23h6q1 1 14 23.5t38.5 66t51.5 84.5l263 418h305l-434 -680h215v-265h-322v-489h-287v489h-319v265h213z" />
<glyph horiz-adv-x="1421" d="M27 1434l329 2l254 -418q25 -40 52 -85.5t40.5 -67.5t14.5 -23h6q1 1 14 23.5t38.5 66t51.5 84.5l263 418h305l-434 -680h215v-265h-322v-489h-287v489h-319v265h213zM582 1544l223 359l225 -74l-192 -285h-256z" />
<glyph horiz-adv-x="1421" d="M27 1434l329 2l254 -418q25 -40 52 -85.5t40.5 -67.5t14.5 -23h6q1 1 14 23.5t38.5 66t51.5 84.5l263 418h305l-434 -680h215v-265h-322v-489h-287v489h-319v265h213zM377 1675l340 260l342 -260l-125 -151l-217 164l-217 -162z" />
<glyph horiz-adv-x="1421" d="M27 1434l329 2l254 -418q25 -40 52 -85.5t40.5 -67.5t14.5 -23h6q1 1 14 23.5t38.5 66t51.5 84.5l263 418h305l-434 -680h215v-265h-322v-489h-287v489h-319v265h213zM383 1702q0 54 39 92.5t96 38.5q54 0 91.5 -38.5t37.5 -92.5q0 -55 -38.5 -93t-94.5 -38t-93.5 37.5 t-37.5 93.5zM803 1702q0 54 38 92.5t93 38.5t94 -38.5t39 -92.5q0 -55 -38.5 -93t-94.5 -38t-93.5 37.5t-37.5 93.5z" />
<glyph horiz-adv-x="1421" d="M27 1434l329 2l254 -418q25 -40 52 -85.5t40.5 -67.5t14.5 -23h6q1 1 14 23.5t38.5 66t51.5 84.5l263 418h305l-434 -680h215v-265h-322v-489h-287v489h-319v265h213zM416 1829l225 74l223 -359h-256z" />
<glyph horiz-adv-x="1355" d="M80 0v264l698 752q39 42 75.5 78.5t53.5 52t17 16.5l-4 8h-11q-11 0 -30 -0.5t-41.5 -1t-52 -0.5h-56.5h-629v265h1176v-275l-666 -723q-45 -48 -87 -89.5t-60.5 -58.5t-18.5 -18l5 -8h5q6 0 15.5 0.5t22.5 0.5h30t36 0.5t43 0.5h48h627v-264h-1196zM580 1544l125 387 l223 -41l-123 -346h-225z" />
<glyph horiz-adv-x="1296" d="M63 571q0 259 174.5 428.5t444.5 169.5q189 0 334 -88.5t213 -249.5l-256 -69q-112 160 -291 160q-155 0 -249.5 -96.5t-94.5 -252.5q0 -157 95.5 -253.5t248.5 -96.5q102 0 175.5 44t115.5 114l258 -70q-73 -154 -214 -244t-333 -90q-180 0 -322 76.5t-220.5 212 t-78.5 305.5zM555 1257l127 388l223 -41l-125 -347h-225z" />
<glyph horiz-adv-x="933" d="M117 0v252h215v643h-215v252h700v-252h-215v-643h215v-252h-700z" />
<glyph horiz-adv-x="933" d="M117 0v252h215v643h-215v252h700v-252h-215v-643h215v-252h-700z" />
<glyph horiz-adv-x="933" d="M117 0v252h215v643h-215v252h700v-252h-215v-643h215v-252h-700zM315 1257l226 359l223 -74l-193 -285h-256z" />
<glyph horiz-adv-x="1447" d="M123 1257l223 359l225 -74l-192 -285h-256zM129 0v1147h270v-1147h-270zM532 94l148 195q69 -66 174 -66q122 0 164.5 69.5t42.5 229.5v625h268v-641q0 -258 -119.5 -393.5t-351.5 -135.5q-209 0 -326 117zM1057 1257l223 359l223 -74l-192 -285h-254z" />
<glyph horiz-adv-x="933" d="M111 1389l342 260l340 -260l-125 -152l-215 164l-217 -162zM117 0v252h215v643h-215v252h700v-252h-215v-643h215v-252h-700z" />
<glyph horiz-adv-x="933" d="M117 0v252h215v643h-215v252h700v-252h-215v-643h215v-252h-700zM117 1415q0 54 39 92.5t96 38.5q54 0 91.5 -38.5t37.5 -92.5q0 -55 -38.5 -93t-94.5 -38t-93.5 38t-37.5 93zM537 1415q0 55 38.5 93t94.5 38q54 0 92.5 -38.5t38.5 -92.5q0 -55 -38.5 -93t-92.5 -38 q-57 0 -95 37.5t-38 93.5z" />
<glyph horiz-adv-x="526" d="M129 0v1147h270v-1147h-270zM133 1415q0 54 39 92.5t94 38.5t93 -38.5t38 -92.5q0 -55 -37.5 -93t-93.5 -38t-94.5 38t-38.5 93z" />
<glyph horiz-adv-x="933" d="M117 0v252h215v643h-215v252h700v-252h-215v-643h215v-252h-700zM328 1415q0 54 38 92.5t93 38.5t93 -38.5t38 -92.5q0 -55 -38 -93t-93 -38t-93 38t-38 93z" />
<glyph horiz-adv-x="933" d="M117 0v252h215v643h-215v252h700v-252h-215v-643h215v-252h-700zM152 1542l223 74l223 -359h-254z" />
<glyph horiz-adv-x="1849" d="M117 0v252h215v643h-215v252h700v-252h-215v-643h215v-252h-700zM934 94l147 195q66 -66 174 -66q121 0 164 69.5t43 229.5v625h269v-641q0 -258 -120 -393.5t-354 -135.5q-209 0 -323 117z" />
<glyph horiz-adv-x="1849" d="M117 0v252h215v643h-215v252h700v-252h-215v-643h215v-252h-700zM934 94l147 195q66 -66 174 -66q121 0 164 69.5t43 229.5v373h-395v252h664v-252v-389q0 -258 -120 -393.5t-354 -135.5q-209 0 -323 117z" />
<glyph horiz-adv-x="1441" d="M129 0v1147h270v-1147h-270zM526 94l148 195q69 -66 174 -66q122 0 164.5 69.5t42.5 229.5v373h-393v252h661v-641q0 -258 -119.5 -393.5t-351.5 -135.5q-209 0 -326 117z" />
<glyph horiz-adv-x="956" d="M129 0v252h215v643h-215v252h698v-252h-213v-643h213v-252h-698zM129 1276v235h698v-235h-698z" />
<glyph horiz-adv-x="933" d="M117 0v252h215v643h-215v252h700v-252h-215v-643h215v-252h-90q-176 -6 -176 -90q0 -41 35 -59.5t88 -18.5q69 0 141 33v-189q-74 -36 -184 -36q-87 0 -154.5 20.5t-110 67t-42.5 114.5q0 100 84 158h-291z" />
<glyph horiz-adv-x="915" d="M0 94l147 195q69 -66 175 -66q122 0 164 69.5t42 229.5v373h-395v252h664v-641q0 -258 -120 -393.5t-353 -135.5q-210 0 -324 117z" />
<glyph horiz-adv-x="915" d="M0 94l147 195q69 -66 175 -66q122 0 164 69.5t42 229.5v373h-395v252h664v-641q0 -258 -120 -393.5t-353 -135.5q-210 0 -324 117z" />
<glyph horiz-adv-x="915" d="M0 94l147 195q69 -66 175 -66q122 0 164 69.5t42 229.5v373h-395v252h664v-641q0 -258 -120 -393.5t-353 -135.5q-210 0 -324 117zM98 1389l342 260l340 -260l-125 -152l-215 164l-217 -162z" />
<glyph horiz-adv-x="1327" d="M129 0v1147h285l508 -434h6v194v240h270v-1147h-270v371l-525 456h-8q-1 0 0 -42t2.5 -123t1.5 -150v-512h-270z" />
<glyph horiz-adv-x="1327" d="M129 0v1147h279l516 -711h6v7q0 7 -0.5 18.5t-0.5 27.5v36t-0.5 41.5t-0.5 46.5v49v485h270v-1147h-280l-517 731h-6v-7q0 -8 0.5 -21.5t1 -31.5t1 -41t1 -47t0.5 -52.5v-55.5v-475h-270zM541 1257l125 388l223 -41l-123 -347h-225z" />
<glyph horiz-adv-x="1327" d="M129 0v1147h285l508 -434h6v194v240h270v-1147h-270v371l-525 456h-8q-1 0 0 -42t2.5 -123t1.5 -150v-512h-270zM541 1257l125 388l223 -41l-123 -347h-225z" />
<glyph horiz-adv-x="1327" d="M129 0v1147h285l508 -434h6v194v240h270v-1147h-270v371l-525 456h-8q-1 0 0 -42t2.5 -123t1.5 -150v-512h-270zM514 1257l223 359l224 -74l-193 -285h-254z" />
<glyph horiz-adv-x="1327" d="M129 0v1147h285l508 -434h6v194v240h270v-1147h-270v371l-525 456h-8q-1 0 0 -42t2.5 -123t1.5 -150v-512h-270zM315 1483l125 151l217 -151l217 151l123 -151l-340 -246z" />
<glyph horiz-adv-x="1327" d="M129 0v1147h285l508 -434h6v194v240h270v-1147h-270v371l-525 456h-8q-1 0 0 -42t2.5 -123t1.5 -150v-512h-270zM520 -338q31 8 63 31t42 47q-46 -3 -73.5 24t-27.5 70q0 53 38.5 83t103.5 30q69 0 108 -35.5t39 -106.5q0 -84 -53 -148.5t-152 -94.5z" />
<glyph horiz-adv-x="1327" d="M129 0v1147h285l508 -434h6v194v240h270v-1147h-270v371l-525 456h-8q-1 0 0 -42t2.5 -123t1.5 -150v-512h-270zM774 -133h53q55 0 78 33t23 100h270q0 -93 -25 -159t-72 -102.5t-107 -52.5t-138 -16h-82v197z" />
<glyph horiz-adv-x="1327" d="M129 0v1147h285l508 -434h6v194v240h270v-1147h-270v371l-525 456h-8q-1 0 0 -42t2.5 -123t1.5 -150v-512h-270zM317 1501q15 22 63 44t105 22t149.5 -32t151.5 -32q45 0 84.5 17t63.5 39l45 -207q-15 -21 -62 -42.5t-104 -21.5q-58 0 -151.5 32t-149.5 32 q-46 0 -86.5 -17.5t-63.5 -40.5z" />
<glyph horiz-adv-x="1355" d="M63 573q0 171 79.5 307t220 212.5t315.5 76.5t315.5 -76.5t219.5 -212.5t79 -307q0 -260 -174 -428t-440 -168t-440.5 168t-174.5 428zM338 573q0 -156 94.5 -253t245.5 -97q150 0 245 97t95 253q0 155 -95 252t-245 97q-151 0 -245.5 -97t-94.5 -252zM561 1257l127 388 l223 -41l-123 -347h-227z" />
<glyph horiz-adv-x="1402" d="M63 586q0 173 82 307t221.5 205t311.5 71q169 0 307 -69t219.5 -199t81.5 -297q0 -124 -50.5 -216t-133.5 -142l2 -4q2 1 22.5 3.5t58.5 4.5t75 2h79v-252h-667q-168 0 -306 71.5t-220.5 206.5t-82.5 308zM338 586q0 -150 95 -244t245 -94q151 0 246.5 94t95.5 244 t-95.5 243t-246.5 93q-150 0 -245 -93t-95 -243z" />
<glyph horiz-adv-x="1079" d="M61 287l244 65q12 -69 74.5 -117.5t175.5 -48.5q88 0 137 34t49 102q0 24 -7 43t-17 33t-30.5 25.5t-39 19t-51.5 16t-57.5 13.5t-68 14t-73.5 16q-53 12 -91.5 25t-83.5 38t-73.5 57t-47.5 84t-19 117q0 170 117.5 258t328.5 88q194 0 316 -72.5t162 -211.5l-236 -64 q-19 65 -76.5 102.5t-148.5 37.5q-88 0 -136.5 -32.5t-48.5 -92.5q0 -24 6.5 -41.5t25.5 -32t35.5 -23.5t54.5 -19t64 -16t82 -17l15 -3q57 -12 98.5 -23.5t97.5 -39t92 -63t61.5 -95t25.5 -135.5q0 -121 -62 -201.5t-163 -115t-238 -34.5q-65 0 -124 8t-121.5 29t-111 54.5 t-85.5 89.5t-52 129zM422 1257l125 388l225 -41l-125 -347h-225z" />
<glyph horiz-adv-x="1406" d="M129 0v1434h1102l-305 -557l4 -5h12q182 0 299 -122t117 -314q0 -90 -28.5 -171t-85 -147.5t-150.5 -105.5t-215 -39q-206 0 -338 119l123 211q77 -74 186 -74q103 0 162 59.5t59 151.5q0 95 -60 153t-171 58h-178v223l155 289l-6 6h-135h-262v-1169h-285z" />
<glyph horiz-adv-x="1175" d="M27 1147h309l141 -248q29 -52 60 -108.5t46.5 -85t16.5 -29.5h6q1 1 16 29t46.5 86t60.5 110l141 246h279l-340 -582h188v-250h-276v-315h-268v315h-267v250h181z" />
<glyph horiz-adv-x="1175" d="M27 1147h309l141 -248q29 -52 60 -108.5t46.5 -85t16.5 -29.5h6q1 1 16 29t46.5 86t60.5 110l141 246h279l-340 -582h188v-250h-276v-315h-268v315h-267v250h181zM471 1257l223 359l224 -74l-193 -285h-254z" />
<glyph horiz-adv-x="1175" d="M27 1147h309l141 -248q29 -52 60 -108.5t46.5 -85t16.5 -29.5h6q1 1 16 29t46.5 86t60.5 110l141 246h279l-340 -582h188v-250h-276v-315h-268v315h-267v250h181zM264 1389l342 260l340 -260l-125 -152l-215 164l-217 -162z" />
<glyph horiz-adv-x="1175" d="M27 1147h309l141 -248q29 -52 60 -108.5t46.5 -85t16.5 -29.5h6q1 1 16 29t46.5 86t60.5 110l141 246h279l-340 -582h188v-250h-276v-315h-268v315h-267v250h181zM270 1415q0 54 39.5 92.5t96.5 38.5q54 0 91.5 -38.5t37.5 -92.5q0 -55 -39 -93t-93 -38q-57 0 -95 37.5 t-38 93.5zM690 1415q0 55 38 93t95 38q55 0 93 -38.5t38 -92.5q0 -55 -38 -93t-93 -38q-57 0 -95 37.5t-38 93.5z" />
<glyph horiz-adv-x="1175" d="M27 1147h309l141 -248q29 -52 60 -108.5t46.5 -85t16.5 -29.5h6q1 1 16 29t46.5 86t60.5 110l141 246h279l-340 -582h188v-250h-276v-315h-268v315h-267v250h181zM305 1542l223 74l224 -359h-254z" />
<glyph horiz-adv-x="1163" d="M80 0v260l483 467q53 52 96.5 93.5t57.5 54.5t14 14l-2 6h-162h-469v252h985v-260l-450 -445q-62 -60 -113.5 -106.5t-70.5 -63.5l-19 -16l4 -6q78 2 182 2h467v-252h-1003zM469 1257l127 388l223 -41l-123 -347h-227z" />
<glyph horiz-adv-x="2091" d="M117 0v264h266v905h-266v265h817v-265h-266v-905h266v-264h-817zM383 1544l223 359l225 -74l-192 -285h-256zM1051 121l163 221q82 -100 211 -100q149 0 206 94.5t57 302.5v795h284v-818q0 -313 -138.5 -478t-406.5 -165q-240 0 -376 148zM1696 1544l223 359l225 -74 l-192 -285h-256z" />
<glyph horiz-adv-x="2091" d="M117 0v264h266v905h-266v265h817v-265h-266v-905h266v-264h-817zM383 1544l223 359l225 -74l-192 -285h-256zM1051 121l163 221q82 -100 211 -100q149 0 206 94.5t57 302.5v530h-508v265h792v-265v-553q0 -313 -138.5 -478t-406.5 -165q-240 0 -376 148zM1436 1544 l223 359l223 -74l-192 -285h-254z" />
<glyph horiz-adv-x="1581" d="M129 0v1434h285v-1434h-285zM129 1544l223 359l223 -74l-192 -285h-254zM543 121l164 221q79 -100 211 -100q149 0 204.5 94t55.5 303v530h-508v265h792v-265v-553q0 -312 -137.5 -477.5t-404.5 -165.5q-241 0 -377 148zM926 1544l223 359l225 -74l-192 -285h-256z" />
<glyph horiz-adv-x="1849" d="M117 0v252h215v643h-215v252h700v-252h-215v-643h215v-252h-700zM315 1257l226 359l223 -74l-193 -285h-256zM934 94l147 195q66 -66 174 -66q121 0 164 69.5t43 229.5v625h269v-641q0 -258 -120 -393.5t-354 -135.5q-209 0 -323 117zM1456 1257l223 359l224 -74 l-193 -285h-254z" />
<glyph horiz-adv-x="1849" d="M117 0v252h215v643h-215v252h700v-252h-215v-643h215v-252h-700zM315 1257l226 359l223 -74l-193 -285h-256zM934 94l147 195q66 -66 174 -66q121 0 164 69.5t43 229.5v373h-395v252h664v-252v-389q0 -258 -120 -393.5t-354 -135.5q-209 0 -323 117zM1237 1257l223 359 l226 -74l-193 -285h-256z" />
<glyph horiz-adv-x="1441" d="M123 1257l223 359l225 -74l-192 -285h-256zM129 0v1147h270v-1147h-270zM526 94l148 195q69 -66 174 -66q122 0 164.5 69.5t42.5 229.5v373h-393v252h661v-641q0 -258 -119.5 -393.5t-351.5 -135.5q-209 0 -326 117zM831 1257l224 359l223 -74l-193 -285h-254z" />
<glyph horiz-adv-x="854" d="M72 463v174h710v-174h-710zM74 768l243 666h222l241 -666h-176l-43 125h-274l-45 -125h-168zM330 1022h186l-37 108q-13 37 -26.5 77.5t-19.5 59.5t-7 19h-6q-1 0 -6.5 -19t-18.5 -59t-26 -78z" />
<glyph horiz-adv-x="847" d="M72 1104q0 152 102 252t250 100t250 -100t102 -252t-102 -252t-250 -100t-250 100t-102 252zM92 459v174h666v-174h-666zM242 1104q0 -83 49.5 -137t132.5 -54t132.5 54t49.5 137t-49.5 136.5t-132.5 53.5t-132.5 -53.5t-49.5 -136.5z" />
<glyph horiz-adv-x="696" d="M43 399q0 211 80.5 312.5t226.5 101.5q145 0 224 -101t79 -313q0 -211 -79 -312t-224 -101q-146 0 -226.5 101t-80.5 312zM233 399l3 -41l165 269q-21 12 -51 12q-60 0 -88.5 -54.5t-28.5 -185.5zM297 172q21 -12 53 -12q60 0 86.5 53.5t26.5 185.5l-2 39z" />
<glyph horiz-adv-x="1300" d="M72 717q0 123 19.5 231t63 203.5t109.5 163.5t164 107.5t221 39.5q153 0 267.5 -59t181.5 -163.5t99 -235t32 -287.5q0 -129 -19.5 -239t-63.5 -204.5t-110.5 -161t-164.5 -104t-222 -37.5q-123 0 -221 37.5t-164 104t-109.5 161t-63 204.5t-19.5 239zM356 717 q0 -114 14.5 -198t47.5 -148.5t90.5 -97.5t140.5 -33q68 0 118.5 22t83.5 61.5t53.5 100t29 131.5t8.5 162t-8.5 162t-29 131.5t-53.5 100t-83.5 61.5t-118.5 22q-83 0 -140.5 -33t-90.5 -97.5t-47.5 -148.5t-14.5 -198z" />
<glyph horiz-adv-x="923" d="M88 1100l371 334h268v-1434h-287v754q0 72 3.5 160.5t6 138t1.5 49.5h-7q-1 0 -13.5 -12.5t-35.5 -34.5t-43 -39l-104 -101z" />
<glyph horiz-adv-x="1224" d="M82 1081q30 173 160 277t366 104q254 0 389.5 -116.5t135.5 -321.5q0 -74 -19.5 -139t-51 -115.5t-85.5 -103t-106.5 -92.5t-131.5 -93l-305 -215l2 -6q4 0 28.5 1t70.5 2t102 1h500v-264h-1037v324l463 352q149 112 187 147q82 77 91 157q1 12 1 24q0 97 -66 156 t-184 59q-110 0 -174 -58.5t-74 -148.5z" />
<glyph horiz-adv-x="1236" d="M78 379l262 72q22 -106 94.5 -162t183.5 -56q117 0 184.5 57.5t67.5 149.5q0 96 -65.5 146.5t-177.5 50.5h-144v227h133q115 0 177.5 49t62.5 136q0 86 -60.5 132t-170.5 46q-125 0 -189 -60.5t-76 -154.5l-262 69q37 180 168.5 280.5t362.5 100.5q249 0 382.5 -105 t133.5 -274q0 -72 -25.5 -133.5t-66.5 -101t-88.5 -63t-94.5 -27.5v-6q129 -16 209 -104t80 -242q0 -196 -140.5 -314.5t-383.5 -118.5q-222 0 -370 105t-187 301z" />
<glyph horiz-adv-x="1286" d="M74 332v252l524 850h434v-850h189v-252h-189v-332h-284v332h-674zM342 590l6 -8q3 0 39.5 0.5t92 1t104.5 0.5h164v327v68t0.5 61t0.5 52v43t0.5 31t0.5 20v8h-13z" />
<glyph horiz-adv-x="1226" d="M82 346l264 68q19 -82 89 -134.5t171 -52.5q117 0 184.5 70t67.5 176q0 108 -70.5 176t-189.5 68q-89 0 -147 -36t-84 -85l-244 66l135 772h832v-265h-631l-23 -139q-7 -36 -15.5 -77.5t-13.5 -66t-6 -30.5l9 -4q92 80 247 80q211 0 345.5 -125t134.5 -338 q0 -219 -142.5 -357.5t-384.5 -138.5q-207 0 -348 102.5t-180 270.5z" />
<glyph horiz-adv-x="1247" d="M72 492q0 138 55.5 265t169.5 277l303 400h315l-434 -580l6 -6q79 76 230 76q196 0 328.5 -126.5t132.5 -328.5q0 -221 -152.5 -358.5t-400.5 -137.5q-245 0 -399 137t-154 382zM362 475q0 -112 74 -179t193 -67t192.5 66.5t73.5 179.5q1 110 -71.5 177t-192.5 67 q-121 0 -195 -66t-74 -178z" />
<glyph horiz-adv-x="1189" d="M102 1169v265h1057v-217l-637 -1217h-307l442 866q34 67 77 141.5t68 116.5l25 41l-4 6h-13q-13 0 -34 -0.5t-45.5 -1t-52 -0.5h-49.5h-527z" />
<glyph horiz-adv-x="1255" d="M78 395q0 79 26 144.5t69.5 109t94.5 71t107 38.5v8q-24 4 -52.5 17t-61.5 39t-59.5 60.5t-44.5 87t-18 113.5q0 164 133 271.5t355 107.5q224 0 356.5 -107.5t132.5 -271.5q0 -61 -18 -113.5t-44.5 -87t-59.5 -60.5t-61.5 -39t-51.5 -17v-8q53 -11 103 -37t95 -68.5 t72 -109.5t27 -148q0 -89 -35 -165t-101.5 -134t-172 -91.5t-238.5 -33.5q-258 0 -405.5 118t-147.5 306zM362 414q0 -102 73.5 -159.5t191.5 -57.5q121 0 193.5 57.5t72.5 159.5t-73 157.5t-193 55.5q-121 0 -193 -56.5t-72 -156.5zM397 1067q0 -88 64 -137t166 -49 q105 2 167 51t62 137q0 89 -62 137.5t-167 48.5q-104 0 -167 -50t-63 -138z" />
<glyph horiz-adv-x="1257" d="M68 963q0 221 157 360t400 139q115 0 215 -33.5t176 -97t120 -163.5t44 -224q0 -90 -22.5 -175t-67 -163t-86.5 -136t-105 -132l-287 -338h-331l487 569l-6 4q-86 -71 -230 -71q-208 0 -336 130.5t-128 330.5zM350 958q0 -118 75.5 -180.5t190.5 -62.5q119 0 195 64.5 t76 181.5q0 118 -77 181.5t-192 63.5t-191.5 -64.5t-76.5 -183.5z" />
<glyph horiz-adv-x="1300" d="M72 717q0 123 19.5 231t63 203.5t109.5 163.5t164 107.5t221 39.5q153 0 267.5 -59t181.5 -163.5t99 -235t32 -287.5q0 -129 -19.5 -239t-63.5 -204.5t-110.5 -161t-164.5 -104t-222 -37.5q-123 0 -221 37.5t-164 104t-109.5 161t-63 204.5t-19.5 239zM356 717 q0 -129 21 -228l411 672q-61 33 -139 33q-83 0 -140.5 -33t-90.5 -97.5t-47.5 -148.5t-14.5 -198zM520 266q60 -26 129 -26q68 0 118.5 22t83.5 61.5t53.5 100t29 131.5t8.5 162q0 126 -14 211z" />
<glyph horiz-adv-x="696" d="M43 1036q0 211 80.5 312.5t226.5 101.5q145 0 224 -101t79 -313q0 -210 -79 -311.5t-224 -101.5q-146 0 -226.5 101.5t-80.5 311.5zM233 1036l3 -41l165 269q-21 12 -51 12q-60 0 -88.5 -54.5t-28.5 -185.5zM297 809q21 -12 53 -12q60 0 86.5 53.5t26.5 185.5l-2 39z" />
<glyph horiz-adv-x="1093" d="M72 573q0 293 126 444.5t349 151.5q222 0 348.5 -151.5t126.5 -444.5t-126.5 -444.5t-348.5 -151.5q-223 0 -349 151.5t-126 444.5zM340 573q0 -77 10 -145l293 473q-41 21 -96 21q-108 0 -157.5 -82t-49.5 -267zM457 242q40 -19 90 -19q107 0 157 83t50 267q0 46 -9 134 z" />
<glyph d="M104 717q0 123 19.5 231t63.5 203.5t110 163.5t165 107.5t222 39.5q152 0 266.5 -59t181.5 -163.5t99.5 -235t32.5 -287.5q0 -129 -19.5 -239t-64 -204.5t-111 -161t-164.5 -104t-221 -37.5q-124 0 -222 37.5t-164.5 104t-110.5 161t-63.5 204.5t-19.5 239zM391 717 q0 -132 19 -217l407 665q-60 29 -133 29q-83 0 -141 -33t-91 -97.5t-47 -148.5t-14 -198zM549 270q55 -30 135 -30q83 0 141 33t91 97.5t47 148.5t14 198q0 121 -19 221z" />
<glyph horiz-adv-x="696" d="M43 1368q0 211 80.5 312.5t226.5 101.5q145 0 224 -101t79 -313q0 -210 -79.5 -312t-223.5 -102q-146 0 -226.5 102t-80.5 312zM233 1368q0 -131 28.5 -185.5t88.5 -54.5t86.5 54t26.5 186t-26.5 186t-86.5 54t-88.5 -54.5t-28.5 -185.5z" />
<glyph horiz-adv-x="696" d="M27 1147v156l266 462h266v-456h111v-162h-111v-176h-176v176h-356zM203 1317l6 -8h88h86v166q0 109 6 145h-12q-1 0 -85.5 -147.5t-88.5 -155.5z" />
<glyph horiz-adv-x="696" d="M51 1180l160 39q5 -46 40 -80.5t97 -34.5q57 0 92 32.5t35 88.5q0 57 -35 90t-94 33q-45 0 -74.5 -18t-42.5 -42l-159 43l82 434h450v-161h-338l-18 -84q-4 -22 -10.5 -44t-10.5 -34l-4 -12l8 -5q22 21 64.5 35.5t91.5 14.5q112 0 186 -67.5t74 -186.5q0 -117 -77 -192 t-212 -75t-213 67.5t-92 158.5z" />
<glyph horiz-adv-x="696" d="M47 1249q0 74 22.5 135.5t69.5 126.5l189 254h207l-267 -352l8 -6q55 63 152 63q90 0 162 -64t72 -179q0 -124 -83 -198.5t-217 -74.5q-137 0 -226 78.5t-89 216.5zM223 1227q0 -57 38 -90t97 -33q60 0 98 33t38 90q1 57 -37.5 90t-98.5 33q-59 0 -97 -33t-38 -90z" />
<glyph horiz-adv-x="696" d="M72 1604v161h567v-168l-322 -626h-186l229 454q19 38 41.5 79.5t37 67t16.5 27.5l-6 9q-12 -4 -103 -4h-274z" />
<glyph horiz-adv-x="696" d="M43 1186q0 83 48.5 136t109.5 67v8q-43 7 -83 52.5t-40 119.5q0 100 74 156.5t196 56.5t196 -56.5t74 -154.5q0 -74 -40 -119t-82 -55v-8q60 -14 109.5 -67t49.5 -136q0 -108 -82.5 -170t-224.5 -62q-141 0 -223 62t-82 170zM213 1202q0 -50 37 -78t98 -28t98 28t37 78 q0 49 -37 77t-98 28t-98 -27.5t-37 -77.5zM231 1561q0 -43 32 -68t85 -25t86 25.5t33 67.5t-33 67t-86 25t-85 -25t-32 -67z" />
<glyph horiz-adv-x="696" d="M37 1503q0 127 86 203t219 76q131 0 219 -76.5t88 -216.5q0 -155 -131 -322l-158 -196h-206l272 334l-8 4q-18 -18 -28 -26.5t-39.5 -19t-67.5 -10.5q-112 0 -179 70.5t-67 179.5zM201 1505q0 -58 38 -89.5t97 -31.5t97 31t38 88t-38 90t-97 33q-60 0 -97.5 -32.5 t-37.5 -88.5z" />
<glyph horiz-adv-x="696" d="M43 1368q0 211 80.5 312.5t226.5 101.5q145 0 224 -101t79 -313q0 -210 -79.5 -312t-223.5 -102q-146 0 -226.5 102t-80.5 312zM233 1368l3 -41l165 268q-23 13 -51 13q-60 0 -88.5 -54.5t-28.5 -185.5zM297 1141q23 -13 53 -13q60 0 86.5 54t26.5 186l-2 39z" />
<glyph d="M104 717q0 123 19.5 231t63.5 203.5t110 163.5t165 107.5t222 39.5q152 0 266.5 -59t181.5 -163.5t99.5 -235t32.5 -287.5q0 -129 -19.5 -239t-64 -204.5t-111 -161t-164.5 -104t-221 -37.5q-124 0 -222 37.5t-164.5 104t-110.5 161t-63.5 204.5t-19.5 239zM391 717 q0 -114 14 -198t47 -148.5t91 -97.5t141 -33t141 33t91 97.5t47 148.5t14 198t-14 198t-47 148.5t-91 97.5t-141 33t-141 -33t-91 -97.5t-47 -148.5t-14 -198z" />
<glyph d="M158 1079l411 355h303v-1170h340v-264h-964v264h340v592q0 71 2.5 142.5t4.5 105t1 33.5h-6q-1 0 -23.5 -19.5t-61.5 -53t-71 -58.5l-131 -121z" />
<glyph d="M162 1081q31 173 161 277t367 104q252 0 387 -116.5t135 -321.5q0 -74 -19.5 -139t-50.5 -115.5t-85 -103t-106.5 -92.5t-131.5 -93l-305 -215l2 -6q4 0 29 1t70.5 2t101.5 1h500v-264h-1037v324l465 352q11 9 33 25q60 46 87.5 67.5t65 55.5t52.5 57.5t27 55.5t12 67 q0 97 -66 156t-184 59q-110 0 -174 -58.5t-74 -148.5z" />
<glyph d="M131 379l264 72q22 -107 94 -162.5t185 -55.5q116 0 183 58t67 149q0 96 -65.5 146.5t-178.5 50.5h-141v227h131q116 0 178.5 49t62.5 136q0 85 -61.5 131.5t-169.5 46.5q-126 0 -189 -60t-75 -155l-262 69q35 180 166.5 280.5t361.5 100.5q250 0 384 -105t134 -274 q0 -72 -25.5 -133.5t-66.5 -101t-88 -63t-94 -27.5v-6q129 -16 208.5 -104t79.5 -242q0 -196 -141 -314.5t-383 -118.5q-223 0 -370.5 104.5t-188.5 301.5z" />
<glyph d="M90 332v252l524 850h437v-850h188v-252h-188v-332h-287v332h-674zM360 590l7 -8q3 0 39.5 0.5t91 1t102.5 0.5h164v327v68t0.5 61t0.5 52v43t0.5 31t0.5 20v8h-10z" />
<glyph d="M152 346l266 68q19 -82 88.5 -134.5t169.5 -52.5q117 0 185.5 70t68.5 176q0 108 -70.5 176t-191.5 68q-88 0 -147 -36t-85 -85l-241 66l133 772h833v-265h-631l-24 -139q-6 -37 -14 -77.5t-13 -65.5t-6 -31l8 -4q92 80 248 80q210 0 344.5 -125t134.5 -338 q0 -219 -143 -357.5t-385 -138.5q-206 0 -347.5 103t-180.5 270z" />
<glyph d="M121 492q0 138 55.5 265t169.5 277l301 400h316l-435 -580l9 -6q76 76 229 76q195 0 328 -127t133 -328q0 -221 -153 -358.5t-402 -137.5q-245 0 -398 137t-153 382zM410 475q0 -111 74 -178.5t192 -67.5t192.5 66.5t75.5 179.5q0 110 -73 177t-193 67q-121 0 -194.5 -66 t-73.5 -178z" />
<glyph d="M147 1182v252h1072v-217l-637 -1217h-308l443 866q34 67 77.5 145t69.5 123l25 44l-4 8h-13q-14 -1 -35 -1.5t-46 -1t-53 -1t-50 -0.5h-541z" />
<glyph d="M121 395q0 79 26 144.5t69.5 109t94.5 71t107 38.5v8q-24 4 -52.5 17t-61.5 39t-59.5 60.5t-44.5 87t-18 113.5q0 164 132.5 271.5t355.5 107.5t355 -107.5t132 -271.5q0 -75 -26 -137t-65 -98t-75.5 -56.5t-66.5 -25.5v-8q53 -11 103 -37t95 -68.5t72 -109.5t27 -148 q0 -88 -35 -164.5t-102 -134.5t-172.5 -91.5t-237.5 -33.5q-258 0 -405.5 118t-147.5 306zM406 414q0 -102 73 -159.5t191 -57.5q121 0 192.5 57.5t71.5 159.5t-72 157.5t-192 55.5q-121 0 -192.5 -56.5t-71.5 -156.5zM440 1067q0 -88 64 -137t166 -49q105 2 167 51t62 137 q0 89 -62 137.5t-167 48.5q-104 0 -167 -50t-63 -138z" />
<glyph d="M147 963q0 221 156 360t399 139q115 0 215.5 -33.5t177 -97t121 -163.5t44.5 -224q0 -90 -22.5 -175t-67 -163t-86.5 -136t-105 -132l-289 -338h-332l488 569l-6 4q-86 -71 -228 -71q-208 0 -336.5 131t-128.5 330zM428 958q0 -119 76 -181t192 -62q119 0 195 64.5 t76 181.5q0 118 -77 181.5t-192 63.5q-117 0 -193.5 -64.5t-76.5 -183.5z" />
<glyph d="M205 573q0 293 126.5 444.5t348.5 151.5q224 0 350.5 -151.5t126.5 -444.5t-126.5 -444.5t-350.5 -151.5q-222 0 -348.5 151.5t-126.5 444.5zM475 573q0 -185 48.5 -267.5t156.5 -82.5t157.5 82.5t49.5 267.5t-49.5 267t-157.5 82t-156.5 -82t-48.5 -267z" />
<glyph d="M250 829l358 314h254v-893h271v-250h-820v250h279v356q0 56 2.5 119t5.5 98l2 35h-6q-1 0 -14 -14t-31 -33t-29 -29l-125 -123z" />
<glyph d="M274 872q17 80 59 138.5t102 92.5t130.5 50t153.5 16q207 0 317.5 -93t110.5 -261q0 -60 -16 -111t-39 -88t-66 -76t-80 -64.5t-98 -63.5l-252 -170l2 -9q88 7 172 7h383v-240h-862v293l397 280q102 75 144 123.5t42 104.5q0 62 -44.5 101.5t-129.5 39.5 q-75 0 -119 -37.5t-53 -99.5z" />
<glyph d="M223 301l238 66q19 -77 73.5 -118.5t141.5 -41.5q89 0 137.5 42t48.5 109t-49 102.5t-133 35.5h-127v190h117q84 0 131 36t47 99q0 61 -45.5 96t-126.5 35q-89 0 -135 -40t-54 -103l-241 63q67 297 452 297q203 0 308.5 -78.5t105.5 -220.5q0 -65 -21 -116.5t-55.5 -82.5 t-72 -48t-76.5 -21v-8q102 -10 169.5 -80.5t67.5 -191.5q0 -157 -117 -251t-321 -94q-183 0 -305.5 83.5t-157.5 240.5z" />
<glyph d="M205 262v238l407 647h408v-658h166v-227h-166v-262h-268v262h-547zM455 496l4 -7h155h138v177v278h-11z" />
<glyph d="M248 270l231 58q18 -57 71.5 -92t133.5 -35q90 0 142.5 46.5t52.5 127.5q0 82 -53.5 128t-147.5 46q-123 0 -176 -80l-219 57l110 621h668v-252h-490l-18 -104l-9 -45t-7 -36t-2 -14l6 -4q29 22 81.5 39t114.5 17q187 0 292.5 -103t105.5 -270q0 -179 -120 -288.5 t-323 -109.5q-177 0 -294.5 82t-149.5 211z" />
<glyph d="M217 393q0 113 47 217.5t144 231.5l243 305h285l-361 -467l7 -6q64 61 180 61q158 0 266.5 -100t108.5 -262q0 -178 -126.5 -287t-334.5 -109q-204 0 -331.5 109t-127.5 307zM479 381q0 -81 55 -128.5t146 -47.5q93 0 148 47.5t55 130.5q0 82 -54 128t-149 46 q-93 0 -147 -46.5t-54 -129.5z" />
<glyph d="M242 895v252h915v-195l-536 -952h-277l365 645q32 56 69 118t56.5 94.5t19.5 33.5l-4 6l-156 -2h-452z" />
<glyph d="M223 315q0 120 71 193t171 96v4q-25 5 -55 22t-62 46.5t-53 79t-21 108.5q0 130 111 217.5t295 87.5t294.5 -87.5t110.5 -217.5q0 -59 -21 -108.5t-52.5 -79t-60.5 -46.5t-54 -22v-4q44 -10 84 -31t76.5 -54.5t58 -86.5t21.5 -117q0 -148 -117 -244t-336 -96 q-216 0 -338.5 95t-122.5 245zM481 334q0 -76 54.5 -116t144.5 -40q91 0 145 41t54 115q0 73 -54 112t-145 39t-145 -40t-54 -111zM508 848q0 -65 48 -100t124 -33q79 0 125.5 35.5t46.5 99.5q0 63 -47.5 98t-124.5 35q-79 0 -125.5 -35.5t-46.5 -99.5z" />
<glyph d="M240 770q0 176 129.5 287.5t330.5 111.5q128 0 231 -46t167.5 -142.5t64.5 -228.5q0 -79 -19 -150t-58 -135t-69.5 -103.5t-82.5 -97.5l-234 -266h-301l404 455l-6 6q-57 -60 -179 -60q-169 0 -273.5 105t-104.5 264zM492 762q0 -90 55.5 -134t146.5 -44q94 0 149.5 45.5 t55.5 134.5q0 86 -56.5 131t-148.5 45q-90 0 -146 -45.5t-56 -132.5z" />
<glyph d="M199 573q0 293 126.5 444.5t348.5 151.5q224 0 350.5 -151.5t126.5 -444.5t-126.5 -444.5t-350.5 -151.5q-222 0 -348.5 151.5t-126.5 444.5zM469 573q0 -79 4 -114l281 450q-41 13 -80 13q-108 0 -156.5 -82t-48.5 -267zM606 233q33 -10 68 -10q107 0 157 83t50 267 q0 35 -4 97z" />
<glyph horiz-adv-x="696" d="M43 397q0 211 80.5 312.5t226.5 101.5q145 0 224 -101t79 -313q0 -210 -79 -310.5t-224 -100.5q-146 0 -226.5 100.5t-80.5 310.5zM233 397q0 -130 28.5 -184.5t88.5 -54.5t86.5 54t26.5 185q0 132 -26.5 186t-86.5 54t-88.5 -54.5t-28.5 -185.5z" />
<glyph horiz-adv-x="696" d="M68 573l233 222h174v-631h162v-162h-508v162h162v254q0 28 4.5 86t7.5 76h-8q-1 0 -7.5 -9t-18.5 -23t-23 -24l-62 -61z" />
<glyph horiz-adv-x="696" d="M57 586q54 225 301 225q130 0 203.5 -64.5t73.5 -183.5q0 -132 -127 -231q-35 -27 -93.5 -67.5t-98 -68t-40.5 -28.5l3 -10q69 6 120 6h246v-162h-584v211l291 193q103 64 103 139q0 45 -30 71.5t-87 26.5q-53 0 -84.5 -22.5t-44.5 -77.5z" />
<glyph horiz-adv-x="696" d="M47 219l162 47q6 -59 42 -91t99 -32q59 0 92 30t33 75q0 46 -34 73t-91 27h-59v119h51q56 0 89.5 28.5t33.5 73.5q0 38 -30.5 64t-88.5 26q-59 0 -90 -27.5t-41 -88.5l-152 41q15 107 89 167t206 60q135 0 206 -59.5t71 -155.5q0 -75 -40 -125.5t-99 -58.5v-6 q64 -10 108.5 -60t44.5 -129q0 -100 -79.5 -165.5t-200.5 -65.5q-142 0 -222 64.5t-100 168.5z" />
<glyph horiz-adv-x="696" d="M27 178v154l266 463h266v-455h111v-162h-111v-176h-176v176h-356zM203 346l6 -8l88 2h86v164q0 109 6 145h-12q-1 0 -85.5 -147.5t-88.5 -155.5z" />
<glyph horiz-adv-x="696" d="M51 209l160 41q5 -47 40 -81t97 -34q57 0 92 32t35 89q0 55 -35 88t-94 33q-45 0 -74.5 -18t-42.5 -42l-159 43l82 435h450v-162h-338l-18 -82q-4 -22 -10.5 -45t-10.5 -35l-4 -12l8 -4q22 21 64.5 36t91.5 15q111 0 185.5 -68t74.5 -186t-77 -192t-212 -74t-213 66.5 t-92 156.5z" />
<glyph horiz-adv-x="696" d="M47 279q0 74 22.5 135.5t69.5 126.5l189 254h207l-267 -353l8 -6q56 64 152 64q56 0 108 -25.5t89 -83t37 -135.5q0 -123 -82.5 -196.5t-217.5 -73.5q-137 0 -226 77.5t-89 215.5zM223 258q0 -58 38 -90.5t97 -32.5q60 0 98 32.5t38 90.5q1 56 -37.5 88.5t-98.5 32.5 q-59 0 -97 -32.5t-38 -88.5z" />
<glyph horiz-adv-x="696" d="M72 633v162h567v-168l-322 -625h-186l229 453q19 38 41.5 79.5t37 67t16.5 27.5l-6 8q-12 -4 -103 -4h-274z" />
<glyph horiz-adv-x="696" d="M43 215q0 83 48 136t110 69v6q-44 9 -83.5 53.5t-39.5 118.5q0 100 74 156.5t196 56.5t196 -56.5t74 -154.5q0 -73 -40 -118.5t-82 -55.5v-6q61 -16 110 -69t49 -136q0 -108 -82.5 -168.5t-224.5 -60.5t-223.5 60.5t-81.5 168.5zM213 231q0 -49 37 -77.5t98 -28.5 t98 28.5t37 77.5t-37 77t-98 28t-98 -27.5t-37 -77.5zM231 590q0 -42 32 -67t85 -25t86 25t33 67t-33 67t-86 25t-85 -25t-32 -67z" />
<glyph horiz-adv-x="696" d="M37 535q0 126 86 201t219 75q131 0 219 -76.5t88 -216.5q0 -154 -131 -321l-158 -195h-206l272 332l-8 6q-16 -17 -27.5 -27t-40.5 -20t-67 -10q-112 0 -179 70.5t-67 181.5zM201 535q0 -58 38 -89.5t97 -31.5t97 31.5t38 89.5q0 57 -38 89.5t-97 32.5q-60 0 -97.5 -32.5 t-37.5 -89.5z" />
<glyph horiz-adv-x="696" d="M43 1036q0 211 80.5 312.5t226.5 101.5q145 0 224 -101t79 -313q0 -210 -79 -311.5t-224 -101.5q-146 0 -226.5 101.5t-80.5 311.5zM233 1036q0 -131 28 -185t89 -54q60 0 86.5 53.5t26.5 185.5t-26.5 186t-86.5 54t-88.5 -54.5t-28.5 -185.5z" />
<glyph horiz-adv-x="696" d="M68 1212l233 222h174v-631h162v-164h-508v162h162v256q0 28 4.5 86t7.5 76h-8q-1 0 -7.5 -9t-18.5 -23.5t-23 -25.5l-62 -61z" />
<glyph horiz-adv-x="696" d="M57 1225q54 225 301 225q130 0 203.5 -64.5t73.5 -183.5q0 -134 -127 -231q-23 -18 -55 -41.5t-61.5 -44t-56 -38.5t-43.5 -29l-16 -11l3 -10q69 6 120 6h246v-164h-584v213l291 192q103 64 103 138q0 47 -30 73.5t-87 26.5q-53 0 -84.5 -22.5t-44.5 -77.5z" />
<glyph horiz-adv-x="696" d="M47 858l162 47q6 -59 42 -91t99 -32q59 0 92 30t33 75t-34 72.5t-91 27.5h-59v119h51q56 0 89.5 27.5t33.5 72.5q0 38 -30.5 65t-88.5 27q-59 0 -90 -27.5t-41 -88.5l-152 41q16 106 90 166.5t205 60.5q135 0 206 -59.5t71 -155.5q0 -76 -40 -127t-99 -57v-9 q64 -8 108.5 -57.5t44.5 -130.5q0 -99 -79.5 -165t-200.5 -66q-142 0 -222 65.5t-100 169.5z" />
<glyph horiz-adv-x="696" d="M27 815v156l266 463h266v-457h111v-162h-111v-176h-176v176h-356zM203 985l6 -8h88h86v166q0 109 6 145h-12q-1 0 -85.5 -147.5t-88.5 -155.5z" />
<glyph horiz-adv-x="696" d="M51 848l160 39q5 -46 40 -80.5t97 -34.5q57 0 92 32.5t35 88.5q0 57 -35 90t-94 33q-45 0 -74.5 -18t-42.5 -42l-159 43l82 435h450v-162h-338l-18 -84q-4 -22 -10.5 -44t-10.5 -34l-4 -12l8 -4q22 20 64 34.5t92 14.5q112 0 186 -67.5t74 -186.5q0 -117 -77 -191.5 t-212 -74.5t-213 67.5t-92 157.5z" />
<glyph horiz-adv-x="696" d="M47 918q0 74 22.5 135.5t69.5 126.5l189 254h207l-267 -353l8 -6q56 64 152 64q56 0 108 -25.5t89 -83t37 -135.5q0 -124 -83 -198t-217 -74q-137 0 -226 78.5t-89 216.5zM223 895q0 -57 38 -90t97 -33q60 0 98 33t38 90q1 57 -37.5 90t-98.5 33q-59 0 -97 -33t-38 -90z " />
<glyph horiz-adv-x="696" d="M72 1272v162h567v-168l-322 -627h-186l229 455q19 38 41.5 79.5t37 67t16.5 27.5l-6 8q-12 -4 -103 -4h-274z" />
<glyph horiz-adv-x="696" d="M43 854q0 83 48.5 136t109.5 67v8q-43 7 -83 52.5t-40 119.5q0 100 74 156.5t196 56.5t196 -56.5t74 -154.5q0 -74 -40 -119t-82 -55v-8q60 -14 109.5 -67t49.5 -136q0 -108 -82.5 -169.5t-224.5 -61.5t-223.5 61.5t-81.5 169.5zM213 870q0 -50 37 -78t98 -28t98 28 t37 78q0 49 -37 77t-98 28t-98 -27.5t-37 -77.5zM231 1229q0 -42 32 -67t85 -25t86 25t33 67t-33 67t-86 25t-85 -25t-32 -67z" />
<glyph horiz-adv-x="696" d="M37 1171q0 127 86 203t219 76q131 0 219 -76.5t88 -216.5q0 -154 -131 -321l-158 -197h-206l272 334l-8 4q-17 -17 -28 -25.5t-40 -19t-67 -10.5q-112 0 -179 70t-67 179zM201 1174q0 -58 38 -89.5t97 -31.5t97 31t38 87q0 57 -38 90t-97 33q-60 0 -97.5 -32t-37.5 -88z " />
<glyph horiz-adv-x="919" d="M129 598v254q37 5 49 10q101 39 101 205v168q0 247 146 386.5t415 139.5v-254q-41 0 -74.5 -4.5t-68 -16.5t-60 -34.5t-46.5 -56t-31.5 -84.5t-10.5 -117v-141q0 -73 -16.5 -133t-40 -94.5t-50.5 -58.5t-45 -32.5t-28 -9.5q9 -2 27.5 -12t45.5 -36t50.5 -61t40 -93.5 t16.5 -127.5v-141q0 -66 10.5 -117t31.5 -84.5t46.5 -56t60 -34.5t68 -16.5t74.5 -4.5v-254q-269 0 -415 139t-146 385v170q0 58 -13 100.5t-30.5 63.5t-40.5 33.5t-37 15.5t-25 4h-4z" />
<glyph horiz-adv-x="919" d="M82 -59q63 0 109.5 11.5t90 43t66.5 96.5t23 162v141q0 73 16.5 133t40 94.5t50.5 58.5t45 32.5t28 9.5q-9 1 -27.5 11t-45.5 35.5t-50.5 60.5t-40 93.5t-16.5 127.5v143q0 97 -23 162t-66.5 96.5t-90 43t-109.5 11.5v254q268 0 414.5 -139.5t146.5 -386.5v-170 q-2 -172 105 -207q8 -3 43 -8v-254q-37 -5 -50 -10q-98 -40 -98 -207v-168q0 -245 -146.5 -384.5t-414.5 -139.5v254z" />
<glyph horiz-adv-x="839" d="M188 -313v2070h574v-266h-287v-1536h287v-268h-574z" />
<glyph horiz-adv-x="839" d="M78 -45h289v1536h-289v268h573v-2072h-573v268z" />
<glyph horiz-adv-x="808" d="M104 729q0 156 21.5 290.5t55.5 231.5t84.5 178.5t100.5 134t112 96t109.5 66.5t102.5 43l74 -270q-198 -66 -286.5 -255t-88.5 -515q0 -325 88.5 -513t286.5 -253l-74 -272q-55 19 -103 42t-109.5 66t-111.5 95.5t-100.5 134t-84.5 178.5t-55.5 231.5t-21.5 290.5z" />
<glyph horiz-adv-x="808" d="M45 -25q198 64 285.5 252.5t87.5 515.5q0 325 -87.5 514.5t-285.5 253.5l74 273q55 -20 103 -43t109.5 -66.5t111.5 -96.5t100.5 -134.5t84.5 -178.5t55.5 -231.5t21.5 -290.5t-21.5 -290.5t-55.5 -231.5t-84.5 -178.5t-100.5 -134t-111.5 -95.5t-109.5 -66t-103 -42z " />
<glyph horiz-adv-x="1990" d="M201 618v236h1630v-236h-1630z" />
<glyph d="M180 618v234h1006v-234h-1006z" />
<glyph horiz-adv-x="1134" d="M180 618v234h815v-234h-815z" />
<glyph horiz-adv-x="1175" d="M180 618v234h815v-234h-815z" />
<glyph horiz-adv-x="1447" d="M123 721l483 479l154 -156l-334 -319v-8l336 -320l-158 -157zM686 721l483 479l154 -156l-334 -319v-8l336 -320l-158 -157z" />
<glyph horiz-adv-x="1447" d="M123 397l336 320v8l-334 319l154 156l483 -479l-481 -481zM686 397l336 320v8l-334 319l154 156l483 -479l-481 -481z" />
<glyph horiz-adv-x="884" d="M123 721l483 479l154 -156l-334 -319v-8l336 -320l-158 -157z" />
<glyph horiz-adv-x="884" d="M123 397l336 320v8l-334 319l154 156l483 -479l-481 -481z" />
<glyph horiz-adv-x="718" d="M129 727q0 98 64.5 158.5t166.5 60.5t167 -60t65 -159t-65 -160t-167 -61t-166.5 61t-64.5 160z" />
<glyph horiz-adv-x="540" d="M115 367q0 62 40.5 101.5t114.5 39.5q73 0 113.5 -39.5t40.5 -101.5q0 -61 -41 -101.5t-113 -40.5q-74 0 -114.5 40.5t-40.5 101.5zM115 1042q0 63 40.5 102.5t114.5 39.5q73 0 113.5 -40t40.5 -102q0 -61 -41 -101t-113 -40q-74 0 -114.5 40t-40.5 101z" />
<glyph horiz-adv-x="1361" d="M63 276l74 263h135l95 342h-136l72 264h135l78 289h252l-80 -289h225l80 289h250l-80 -289h133l-71 -264h-133l-95 -342h136l-74 -263h-133l-76 -276h-250l76 276h-225l-76 -276h-250l76 276h-138zM522 539h226l94 342h-226z" />
<glyph horiz-adv-x="540" d="M115 709q0 62 40.5 101.5t114.5 39.5q73 0 113.5 -39.5t40.5 -101.5q0 -61 -41 -101.5t-113 -40.5q-74 0 -114.5 40.5t-40.5 101.5z" />
<glyph horiz-adv-x="540" d="M102 145q43 12 77 42.5t46 66.5q-48 -2 -77 28.5t-29 82.5q0 56 40.5 93.5t104.5 37.5q75 0 122.5 -49t47.5 -134q0 -91 -60.5 -171t-164.5 -113zM115 1042q0 63 40.5 102.5t114.5 39.5q73 0 113.5 -40t40.5 -102q0 -61 -41 -101t-113 -40q-74 0 -114.5 40t-40.5 101z " />
<glyph horiz-adv-x="245" />
<glyph horiz-adv-x="245" />
<glyph horiz-adv-x="245" />
<glyph horiz-adv-x="1183" d="M63 721q0 209 117 351.5t312 176.5v213h229v-213q137 -23 243 -103t156 -220l-250 -70q-74 168 -256 168q-136 0 -211 -82.5t-75 -222.5q0 -142 76.5 -226.5t205.5 -84.5q178 0 256 157l250 -67q-51 -126 -155.5 -212t-239.5 -114v-201h-229v201q-188 39 -308.5 187.5 t-120.5 361.5z" />
<glyph horiz-adv-x="1341" d="M76 1147l139 141l141 -141q140 100 312 100q174 0 315 -98l143 139l140 -141l-142 -141q99 -138 99 -312q0 -170 -99 -313l140 -141l-140 -142l-143 142q-146 -101 -313 -101q-169 0 -310 101l-141 -142l-139 142l137 139q-98 145 -98 315q0 173 98 314zM371 694 q0 -133 86 -217t213 -84q128 0 213.5 84t85.5 217q0 128 -86 213.5t-213 85.5q-126 0 -212.5 -85.5t-86.5 -213.5z" />
<glyph horiz-adv-x="1181" d="M61 365l269 71q12 -102 89 -157.5t193 -55.5q97 0 157 42.5t60 127.5q0 30 -8 54.5t-20 42t-35 33.5t-41.5 25.5t-53 20.5t-57 16.5t-64.5 16t-65 16.5q-40 11 -71.5 21.5t-73 29.5t-73 40.5t-64 54.5t-53.5 71.5t-34.5 91.5t-13.5 115q0 178 101.5 283.5t285.5 130.5 v176h236v-178q318 -49 393 -367l-266 -77q-23 104 -93.5 152t-168.5 48q-100 0 -150.5 -42t-50.5 -115q0 -37 13.5 -65t35 -46.5t57.5 -34.5t73 -27.5t89 -25.5q15 -4 23 -6q56 -17 96 -31t88.5 -36t82 -45t68 -56t55 -71.5t33.5 -90.5t13 -112q0 -179 -102 -290t-289 -136 v-164h-236v166q-74 12 -138 37t-123.5 68.5t-102.5 114.5t-64 163z" />
<glyph horiz-adv-x="1363" d="M63 410v249h76v60v53h-73v248h104q105 438 571 438q224 0 367.5 -99.5t187.5 -307.5l-266 -72q-14 52 -33 90.5t-51 74.5t-84.5 54.5t-122.5 18.5q-116 0 -183.5 -48t-98.5 -149h377v-248h-408v-27q0 -59 2 -86h406v-249h-365q34 -93 103 -133.5t178 -40.5q66 0 116 14.5 t96 57t72 114.5l266 -74q-26 -78 -69 -142t-107.5 -117.5t-158 -83.5t-207.5 -30q-219 0 -369 110t-211 325h-115z" />
<glyph horiz-adv-x="1343" d="M129 459v243l139 31v115l-139 -31v242l139 31v344h285v-281l235 51v-243l-235 -52v-114l235 51v-242l-235 -53v-299h76q77 0 138 18t100.5 46t68.5 70t44.5 83t25.5 92l260 -74q-15 -84 -46 -155.5t-83 -133.5t-121.5 -105.5t-165 -68t-209.5 -24.5h-373v489z" />
<glyph horiz-adv-x="1167" d="M129 913v199h461q-60 123 -234 123h-227v199h973v-199h-297l-4 -6q33 -54 55 -117h246v-199h-219q-7 -167 -96 -276.5t-242 -153.5l348 -485l-338 2l-358 524v172h141q71 0 125 19t85 52t47 69t21 77h-487z" />
<glyph horiz-adv-x="1232" d="M84 584v223h109q-17 183 -17 246q0 189 119 299t334 110q447 0 510 -413l-260 -70q-18 126 -75 180.5t-157 54.5q-209 0 -209 -227q0 -53 15 -180h440v-223h-410q11 -90 11 -125q0 -162 -74 -207l4 -6q125 6 352 6h379v-252h-1069v252q81 16 109 63.5t28 141.5 q0 23 -3 71t-3 56h-133z" />
<glyph horiz-adv-x="1261" d="M41 1434h313l215 -467q13 -26 30 -67t28 -69.5t12 -29.5h8q1 1 12.5 29.5t29 70.5t30.5 68l203 465h299l-209 -414h157v-248h-282l-58 -113h340v-249h-395v-410h-287v410h-374v249h319l-57 113h-262v248h137z" />
<glyph d="M156 721q0 209 116.5 351.5t311.5 176.5v213h229v-213q137 -23 243 -103t156 -220l-249 -70q-74 168 -256 168q-136 0 -211.5 -82.5t-75.5 -222.5q0 -142 76.5 -226.5t205.5 -84.5q178 0 256 157l250 -67q-51 -126 -155.5 -212t-239.5 -114v-201h-229v201 q-188 39 -308 187.5t-120 361.5z" />
<glyph d="M88 1147l139 141l144 -141q140 100 311 100q170 0 315 -98l142 139l141 -141l-143 -141q100 -140 100 -312q0 -173 -100 -313l139 -141l-139 -142l-142 142q-146 -101 -313 -101q-171 0 -309 101l-142 -142l-141 142l139 139q-98 145 -98 315q0 173 98 314zM383 694 q0 -132 86.5 -216.5t212.5 -84.5q128 0 214.5 84t86.5 217q0 128 -87 213.5t-214 85.5q-124 0 -211.5 -85.5t-87.5 -213.5z" />
<glyph d="M143 365l269 71q13 -102 90 -157.5t194 -55.5q95 0 155 42.5t60 127.5q0 30 -8 54.5t-20 42t-34.5 33.5t-41.5 25.5t-53 20.5t-56.5 16.5t-64 16t-64.5 16.5q-58 16 -102 32t-100.5 50t-93.5 76.5t-63 111.5t-26 154q0 178 101.5 283.5t285.5 130.5v176h238v-178 q316 -50 391 -367l-266 -77q-23 104 -93.5 152t-168.5 48q-100 0 -150.5 -42t-50.5 -115q0 -36 15 -64.5t32 -46t61 -36t70 -26t90 -25.5q8 -2 13.5 -3.5t11.5 -3.5q55 -17 95 -31t88 -36t82 -45t68 -56t54.5 -71.5t33.5 -90.5t13 -112q0 -179 -102 -290t-289 -136v-164 h-236v166q-74 12 -137.5 37t-123 68.5t-103 114.5t-64.5 163z" />
<glyph d="M49 410v249h76l-2 60v53h-74v248h105q108 438 571 438q224 0 367.5 -99.5t187.5 -307.5l-264 -72q-12 41 -25.5 73t-37 64.5t-53.5 53.5t-75 34t-102 13q-116 0 -184 -48t-99 -149h377v-248h-407v-27q0 -59 2 -86h405v-249h-364q36 -93 103.5 -133.5t176.5 -40.5 q102 0 175 41t110 145l268 -74q-21 -62 -52 -115t-78 -101.5t-105.5 -82.5t-138 -54t-171.5 -20q-219 0 -368.5 110t-210.5 325h-113z" />
<glyph d="M143 459v243l140 31v115l-140 -31v242l140 31v344h284v-281l238 51v-243l-238 -52v-114l238 51v-242l-238 -53v-299h78q77 0 138 18t100.5 46t68.5 70t44.5 83t25.5 92l260 -74q-15 -84 -46 -155.5t-83 -133.5t-121.5 -105.5t-165 -68t-209.5 -24.5h-374v489z" />
<glyph d="M231 913v199h461q-60 123 -233 123h-228v199h975v-199h-299l-2 -6q35 -57 53 -117h248v-199h-221q-6 -167 -94.5 -276.5t-241.5 -153.5l348 -485l-338 2l-360 524v172h141q71 0 125 19t85.5 52t48 68.5t22.5 77.5h-490z" />
<glyph d="M160 584v223h108q-16 172 -16 246q0 189 119 299t334 110q446 0 509 -413l-260 -70q-18 126 -74.5 180.5t-156.5 54.5q-209 0 -209 -227q0 -61 14 -180h441v-223h-410q10 -82 10 -125q0 -162 -73 -207l4 -6q125 6 352 6h379v-252h-1069v252q81 16 109 63.5t28 141.5 q0 23 -3 71t-3 56h-133z" />
<glyph d="M94 1434h314l217 -467q12 -26 29 -67.5t28 -69.5t12 -29h6q1 1 12.5 29.5t29 70.5t30.5 68l203 465h299l-207 -414h156v-248h-283l-57 -113h340v-249h-396v-410h-284v410h-377v249h319l-57 113h-262v248h137z" />
<glyph d="M156 586q0 209 116.5 350.5t311.5 175.5v213h229v-213q137 -23 243 -102.5t156 -218.5l-249 -70q-76 168 -256 168q-136 0 -211.5 -82.5t-75.5 -222.5q0 -143 76.5 -227.5t205.5 -84.5q178 0 256 156l250 -68q-51 -126 -155.5 -211.5t-239.5 -111.5v-203h-229v203 q-188 38 -308 186t-120 363z" />
<glyph d="M88 1026l139 141l144 -139q141 98 311 98t315 -98l142 139l141 -141l-143 -141q100 -140 100 -312q0 -170 -100 -313l139 -141l-139 -142l-142 142q-146 -101 -313 -101q-171 0 -309 101l-142 -142l-141 142l139 141q-98 145 -98 313q0 173 98 314zM383 573 q0 -132 86.5 -216.5t212.5 -84.5q128 0 214.5 84t86.5 217q0 129 -87 214t-214 85q-125 0 -212 -85t-87 -214z" />
<glyph d="M240 287l243 65q10 -71 64.5 -120.5t150.5 -49.5q75 0 119.5 33.5t44.5 97.5q0 27 -7.5 49t-25.5 38t-35 27.5t-49.5 22t-54 16.5t-63.5 16t-64 16q-51 13 -90 27.5t-81.5 41t-70 60t-45.5 85.5t-18 117q0 143 83 228t234 106v168h203v-170q274 -38 336 -276l-233 -64 q-29 146 -205 146q-84 0 -125 -34.5t-41 -90.5q0 -25 6 -44.5t23.5 -35t33 -26t49.5 -21.5t58.5 -18t73.5 -19q46 -12 72.5 -19.5t71 -23.5t71.5 -32t60.5 -43.5t52 -58.5t31.5 -75.5t13 -97.5q0 -147 -88.5 -234.5t-242.5 -109.5v-168h-203v168q-134 17 -230 89t-122 214z " />
<glyph d="M131 358v172h74l-2 60v26h-70v170h88q80 383 504 383q190 0 319.5 -82t167.5 -253l-264 -72q-45 166 -235 166q-84 0 -134 -34.5t-73 -107.5h260v-170h-285v-26q0 -42 2 -60h283v-172h-250q58 -133 209 -133q89 0 137.5 28.5t83.5 102.5l268 -71q-20 -58 -56 -110 t-92.5 -98t-141.5 -73t-189 -27q-197 0 -328.5 92.5t-179.5 288.5h-96z" />
<glyph d="M270 369v172l115 24v86l-115 -24v172l115 24v324h270v-264l187 39v-170l-187 -41v-86l187 41v-172l-187 -41v-201h70q238 0 287 211l254 -70q-15 -82 -53.5 -151t-101.5 -124t-159 -86.5t-215 -31.5h-352v395z" />
<glyph d="M324 719v172h385q-36 86 -170 86h-215v170h843v-170h-227l-2 -6q25 -35 41 -80h188v-172h-163q-10 -133 -98 -216.5t-214 -103.5l232 -399h-320l-227 410v186h153q164 0 191 123h-397z" />
<glyph d="M244 440v199h86q-15 175 -15 188q0 162 102.5 252t297.5 90q60 0 113 -8.5t110 -31.5t100 -59.5t76 -98t45 -142.5l-250 -67q-22 99 -66 139.5t-116 40.5q-73 0 -111 -37t-38 -125q0 -62 12 -141h354v-199h-330q4 -46 4 -61q0 -91 -49 -125l4 -6q113 4 279 4h317v-252 h-921v252q64 10 84 39.5t20 95.5l-2 53h-106z" />
<glyph d="M184 1147h297l137 -320q12 -31 28 -67.5t26.5 -59.5t11.5 -24h6q1 1 11.5 24t26.5 59.5t28 67.5l137 320h289l-181 -361h119v-170h-205l-43 -86h248v-172h-303v-358h-270v358h-297v172h242l-43 86h-199v170h112z" />
<glyph d="M221 782q27 34 92.5 66.5t145.5 32.5q78 0 211.5 -42t216.5 -42q63 0 119.5 26.5t95.5 61.5l43 -226q-22 -32 -88 -64t-146 -32t-214.5 42t-215.5 42q-64 0 -120 -26.5t-93 -63.5z" />
<glyph d="M276 618v236h816v-236h-816zM530 340q0 61 41 101t115 40q73 0 112.5 -39.5t39.5 -101.5q0 -63 -40 -103t-112 -40q-74 0 -115 41t-41 102zM530 1137q0 61 41 100t115 39q73 0 112.5 -38.5t39.5 -100.5q0 -63 -40 -103.5t-112 -40.5q-74 0 -115 40.5t-41 103.5z" />
<glyph d="M276 397v236h816v-236h-816zM276 840v233h816v-233h-816z" />
<glyph d="M250 221v244l606 262v6l-606 260v244l924 -414v-188z" />
<glyph d="M223 0v233h924v-233h-924zM223 440v244l662 190v9l-662 190v244l924 -303v-271z" />
<glyph d="M195 635v188l923 414v-244l-606 -260v-6l606 -262v-244z" />
<glyph d="M221 0v233h924v-233h-924zM221 743v271l924 303v-244l-662 -190v-9l662 -190v-244z" />
<glyph d="M276 618v236h816v-236h-816z" />
<glyph d="M274 967l172 170l238 -234l238 234l172 -170l-240 -236l238 -237l-170 -170l-238 235l-238 -235l-170 170l238 237z" />
<glyph d="M276 397v236h248l88 207h-336v233h435l86 203h231l-84 -203h148v-233h-244l-86 -207h330v-236h-428l-84 -202h-240l86 202h-150z" />
<glyph d="M276 618v236h285l-2 305h248l2 -305h283v-236h-283v-307h-248v307h-285z" />
<glyph d="M276 0v233h816v-233h-816zM276 758v235h283v320h250v-320h283v-235h-283l2 -322h-252v322h-283z" />
<glyph horiz-adv-x="1701" d="M68 1036q0 211 80.5 312.5t226.5 101.5t225.5 -101t79.5 -313q0 -211 -79.5 -312t-225.5 -101t-226.5 101.5t-80.5 311.5zM260 1036q0 -131 28 -185t87 -54q60 0 86 53.5t26 185.5q0 133 -26 186.5t-86 53.5q-59 0 -87 -54.5t-28 -185.5zM537 0l428 1434h200l-428 -1434 h-200zM1022 397q0 211 80.5 312.5t226.5 101.5t225.5 -101t79.5 -313q0 -210 -79.5 -310.5t-225.5 -100.5t-226.5 100.5t-80.5 310.5zM1214 397q0 -130 28 -184.5t87 -54.5q60 0 86.5 54t26.5 185q0 132 -26.5 186t-86.5 54q-59 0 -87 -54.5t-28 -185.5z" />
<glyph horiz-adv-x="2426" d="M68 1036q0 211 80.5 312.5t226.5 101.5t225.5 -101t79.5 -313q0 -211 -79.5 -312t-225.5 -101t-226.5 101.5t-80.5 311.5zM260 1036q0 -131 28 -185t87 -54q60 0 86 53.5t26 185.5q0 133 -26 186.5t-86 53.5q-59 0 -87 -54.5t-28 -185.5zM537 0l428 1434h200l-428 -1434 h-200zM1022 397q0 211 80.5 312.5t226.5 101.5t225.5 -101t79.5 -313q0 -210 -79.5 -310.5t-225.5 -100.5t-226.5 100.5t-80.5 310.5zM1214 397q0 -130 28 -184.5t87 -54.5q60 0 86.5 54t26.5 185q0 132 -26.5 186t-86.5 54q-59 0 -87 -54.5t-28 -185.5zM1745 397 q0 211 80.5 312.5t226.5 101.5t225.5 -101t79.5 -313q0 -210 -79.5 -310.5t-225.5 -100.5t-226.5 100.5t-80.5 310.5zM1937 397q0 -130 28 -184.5t87 -54.5q60 0 87.5 54.5t27.5 184.5q0 132 -27.5 186t-87.5 54q-59 0 -87 -54.5t-28 -185.5z" />
<glyph d="M33 1036q0 414 291 414q290 0 290 -414q0 -413 -290 -413q-291 0 -291 413zM231 1036q0 -112 21.5 -161.5t75.5 -49.5t74 49t20 162t-20 162t-74 49t-75.5 -49.5t-21.5 -161.5zM276 0l660 1434h158l-660 -1434h-158zM754 397q0 414 293 414q288 0 288 -414 q0 -411 -288 -411q-293 0 -293 411zM950 397q0 -111 21.5 -161t75.5 -50t74 49.5t20 161.5q0 113 -20 162t-74 49t-75.5 -49.5t-21.5 -161.5z" />
<glyph d="M78 813q0 175 58.5 265.5t195.5 90.5q136 0 194 -90.5t58 -265.5t-58 -265.5t-194 -90.5q-137 0 -195.5 90.5t-58.5 265.5zM250 813q0 -94 18.5 -136t63.5 -42q46 0 64 41.5t18 136.5t-18 135.5t-64 40.5q-45 0 -63.5 -41t-18.5 -135zM412 0l383 1147h157l-383 -1147 h-157zM784 344q0 174 59 265t195 91q135 0 193.5 -91t58.5 -265q0 -175 -58.5 -265.5t-193.5 -90.5q-137 0 -195.5 90.5t-58.5 265.5zM954 344q0 -94 19 -136t65 -42t64 41.5t18 136.5t-18 135.5t-64 40.5t-65 -41t-19 -135z" />
<glyph horiz-adv-x="1484" d="M90 387q0 142 74 236t192 118v7q-101 19 -174 105t-73 228q0 184 134 282.5t380 98.5q227 0 372 -91.5t207 -287.5l-260 -69q-31 104 -110 158.5t-199 54.5q-121 0 -177.5 -52.5t-56.5 -134.5q0 -86 60 -135t184 -49h799v-238h-223v-198q0 -217 -147.5 -332t-426.5 -115 q-272 0 -413.5 112.5t-141.5 301.5zM383 424q0 -98 67.5 -151.5t202.5 -53.5q154 0 222.5 61t68.5 185v153h-319q-123 0 -182.5 -51.5t-59.5 -142.5z" />
<glyph horiz-adv-x="1622" d="M63 715q0 215 95 388.5t267 272.5t388 99q228 0 399 -99t259 -268t88 -383q0 -92 -19.5 -169t-59 -138t-106 -95t-153.5 -34t-155.5 38.5t-94.5 86.5h-4q-25 -52 -87 -88.5t-145 -36.5q-71 0 -132 23.5t-109 70t-75.5 122.5t-27.5 173q0 194 91 295.5t239 101.5 q118 0 190 -78h4v58h271v-379q0 -103 5 -127q15 -54 69 -55q102 0 102 235q0 261 -142.5 413t-400.5 152q-259 0 -409 -158.5t-150 -424.5q0 -128 27.5 -229t73.5 -166.5t111.5 -108t137.5 -60.5t154 -18q52 0 97.5 5t80.5 15t62 20t50 24.5t34.5 22t26 20.5t15.5 14 l152 -119q-27 -26 -69.5 -54t-106.5 -58.5t-152 -50t-182 -19.5q-121 0 -225.5 26.5t-194.5 86t-153.5 147.5t-99.5 217t-36 289zM655 682q0 -79 34.5 -124.5t94.5 -45.5q62 0 95 43.5t36 116.5v22q0 73 -34.5 116.5t-96.5 43.5q-64 0 -96.5 -46.5t-32.5 -125.5z" />
<glyph horiz-adv-x="1617" d="M63 717q0 217 100.5 388.5t270 264t373.5 92.5q205 0 374.5 -92.5t270 -264t100.5 -388.5q0 -162 -58.5 -302.5t-159 -237t-237.5 -151.5t-290 -55t-289.5 55t-236.5 151.5t-159 237t-59 302.5zM211 719q0 -267 167.5 -436.5t428.5 -169.5q262 0 431 169.5t169 436.5 q0 132 -45 244.5t-124 191t-190.5 122.5t-240.5 44q-171 0 -307 -75.5t-212.5 -213.5t-76.5 -313zM406 715q0 172 111.5 282.5t285.5 110.5q126 0 219 -60t131 -167l-170 -45q-50 96 -174 96q-98 0 -157.5 -58.5t-59.5 -156.5t60 -156.5t157 -58.5q120 0 178 90l172 -57 q-44 -94 -138.5 -151.5t-219.5 -57.5q-176 0 -285.5 109t-109.5 280z" />
<glyph horiz-adv-x="2367" d="M129 0v1434h289l686 -945h6v11q0 11 -0.5 29.5t-1 43.5t-1 55.5t-1 62.5t-0.5 68v68v607h285v-1434h-289l-686 958h-6v-10q0 -11 0.5 -30t1 -43.5t1 -56.5t1 -66t0.5 -73.5v-76.5v-602h-285zM1591 1104q0 152 102.5 252t250.5 100t250 -100t102 -252t-102 -252t-250 -100 t-250.5 100t-102.5 252zM1614 459v174h663v-174h-663zM1761 1104q0 -83 50 -136t133 -53q84 0 133 52.5t49 136.5t-49 137t-133 53q-83 0 -133 -53.5t-50 -136.5z" />
<glyph horiz-adv-x="1341" d="M63 1063q0 178 110 274.5t319 96.5h720v-1434h-284v1169h-152v-1169h-284v680q-209 0 -319 99.5t-110 283.5z" />
<glyph horiz-adv-x="1617" d="M63 717q0 217 100.5 388.5t270 264t373.5 92.5q205 0 374.5 -92.5t270 -264t100.5 -388.5q0 -162 -58.5 -302.5t-159 -237t-237.5 -151.5t-290 -55t-289.5 55t-236.5 151.5t-159 237t-59 302.5zM211 719q0 -267 167.5 -436.5t428.5 -169.5q262 0 431 169.5t169 436.5 q0 132 -45 244.5t-124 191t-190.5 122.5t-240.5 44q-171 0 -307 -75.5t-212.5 -213.5t-76.5 -313zM547 342v756h303q145 0 225 -73.5t80 -199.5q0 -120 -82.5 -188t-251.5 -68h-86v-227h-188zM735 719h113q59 0 90 26t31 74q0 101 -121 101h-113v-201z" />
<glyph horiz-adv-x="1617" d="M63 717q0 217 100.5 388.5t270 264t373.5 92.5q205 0 374.5 -92.5t270 -264t100.5 -388.5q0 -162 -58.5 -302.5t-159 -237t-237.5 -151.5t-290 -55t-289.5 55t-236.5 151.5t-159 237t-59 302.5zM211 719q0 -267 167.5 -436.5t428.5 -169.5q262 0 431 169.5t169 436.5 q0 132 -45 244.5t-124 191t-190.5 122.5t-240.5 44q-171 0 -307 -75.5t-212.5 -213.5t-76.5 -313zM508 342v756h305q151 0 235.5 -67.5t84.5 -184.5q0 -76 -39.5 -127t-104.5 -72l168 -305h-211l-145 270q-16 -2 -60 -2h-43v-268h-190zM698 752h125q56 0 85.5 24t29.5 66 q0 43 -29.5 66.5t-85.5 23.5h-125v-180z" />
<glyph horiz-adv-x="1163" d="M213 1786q18 23 68.5 45t119.5 22q63 0 166 -31.5t170 -31.5q99 0 166 55l43 -205q-15 -22 -66 -43.5t-120 -21.5q-64 0 -167 31.5t-167 31.5q-53 0 -98 -17t-70 -40z" />
<glyph horiz-adv-x="1163" d="M418 1032q31 63 54.5 188t21.5 214h223q3 -85 -27 -210t-67 -192h-205z" />
</font>
</defs>
</svg>
