<?xml version="1.0" standalone="no"?>
<!DOCTYPE svg PUBLIC "-//W3C//DTD SVG 1.1//EN" "http://www.w3.org/Graphics/SVG/1.1/DTD/svg11.dtd" >
<svg xmlns="http://www.w3.org/2000/svg" xmlns:xlink="http://www.w3.org/1999/xlink" version="1.1">
<metadata></metadata>
<defs>
<font id="novecento_sans_widenormal" horiz-adv-x="1368" >
<font-face units-per-em="2048" ascent="1681" descent="-367" />
<missing-glyph horiz-adv-x="512" />
<glyph unicode=" "  horiz-adv-x="512" />
<glyph unicode="&#x09;" horiz-adv-x="512" />
<glyph unicode="&#xa0;" horiz-adv-x="512" />
<glyph unicode="!" horiz-adv-x="536" d="M158 84q0 45 29 73.5t81 28.5t81.5 -29t29.5 -73q0 -45 -29.5 -74.5t-81.5 -29.5t-81 29.5t-29 74.5zM184 332v1102h168v-1102h-168z" />
<glyph unicode="&#x22;" horiz-adv-x="657" d="M100 1434h158l-8 -471h-139zM393 1434h160l-10 -471h-140z" />
<glyph unicode="#" horiz-adv-x="1353" d="M78 219l41 148h196l113 417h-195l41 146h193l57 217h142l-60 -217h330l59 217h142l-60 -217h199l-41 -146h-197l-112 -417h194l-39 -148h-196l-58 -219h-141l57 219h-327l-60 -219h-141l59 219h-196zM455 367h329l113 417h-330z" />
<glyph unicode="$" horiz-adv-x="970" d="M72 285l145 39q12 -101 88 -161.5t197 -60.5q109 0 173 52.5t64 146.5q0 26 -5.5 48.5t-13 40t-24 33.5t-28 26.5t-36.5 22t-39 17.5t-45.5 15t-46 12.5t-50 11.5t-48.5 11q-41 10 -71 19.5t-69.5 26t-66.5 39.5t-52 54t-37.5 75.5t-12.5 98.5q0 133 83.5 215.5 t232.5 97.5v166h135v-164q283 -28 344 -276l-144 -39q-41 190 -262 190q-115 0 -176 -50t-61 -132q0 -42 14.5 -74t36 -52t62 -37t75 -26.5t92.5 -21.5q34 -8 53.5 -12.5t55 -15t57.5 -20t52.5 -25.5t50 -33t41.5 -41.5t34.5 -52t20.5 -64t8 -78.5q0 -144 -90.5 -228.5 t-247.5 -98.5v-164h-133v164q-62 6 -116 24.5t-105 52t-86.5 92t-48.5 136.5z" />
<glyph unicode="%" horiz-adv-x="1456" d="M72 807q0 360 262 360t262 -360q0 -358 -262 -358t-262 358zM184 807q0 -130 38 -188t112 -58t110.5 58t36.5 188q0 132 -36.5 190t-110.5 58q-75 0 -112.5 -58.5t-37.5 -189.5zM477 0l385 1147h115l-385 -1147h-115zM862 346q0 363 262 363t262 -363q0 -360 -262 -360 t-262 360zM975 346q0 -130 37 -188t112 -58q74 0 111 58t37 188q0 131 -37 189.5t-111 58.5q-75 0 -112 -58t-37 -190z" />
<glyph unicode="&#x26;" horiz-adv-x="1253" d="M111 309q0 116 65 191.5t164 93.5v4q-87 17 -152 86t-65 186q0 147 103.5 223t297.5 76q396 0 484 -303l-148 -41q-29 100 -103 154.5t-218 54.5q-252 0 -252 -176q0 -86 66 -140t194 -54h649v-144l-182 -2v-145q0 -195 -118 -296.5t-341 -101.5q-217 0 -330.5 91 t-113.5 243zM272 315q0 -98 71.5 -152t213.5 -54q149 0 223 64.5t74 201.5v145h-313q-123 0 -196 -52t-73 -153z" />
<glyph unicode="'" horiz-adv-x="364" d="M100 1434h158l-8 -471h-139z" />
<glyph unicode="(" horiz-adv-x="729" d="M115 596q0 846 532 1032l47 -151q-212 -72 -315 -288t-103 -593t103 -593t315 -288l-47 -153q-91 32 -167.5 84t-145 137t-116 196.5t-75.5 269t-28 347.5z" />
<glyph unicode=")" horiz-adv-x="729" d="M35 -285q212 72 315 288t103 593t-103 593t-315 288l49 153q91 -32 166.5 -84t144.5 -137t116 -196.5t75 -269t28 -347.5q0 -845 -530 -1032z" />
<glyph unicode="*" horiz-adv-x="1001" d="M158 1139l35 108l249 -78v265h117v-265l250 78l37 -108l-252 -78l156 -217l-95 -68l-153 219l-154 -219l-96 68l156 217z" />
<glyph unicode="+" d="M295 520v142h313v335h152v-335h313v-142h-313v-338h-152v338h-313z" />
<glyph unicode="," horiz-adv-x="458" d="M100 -139q46 16 79.5 57.5t41.5 81.5q-42 -6 -68 17.5t-26 66.5q0 41 29 68.5t77 27.5q55 0 87 -34.5t32 -98.5q0 -75 -50 -151.5t-134 -106.5z" />
<glyph unicode="-" horiz-adv-x="1189" d="M205 520v142h778v-142h-778z" />
<glyph unicode="." horiz-adv-x="458" d="M119 84q0 45 29 73.5t81 28.5t81.5 -29t29.5 -73q0 -45 -29.5 -74.5t-81.5 -29.5q-53 0 -81.5 29.5t-28.5 74.5z" />
<glyph unicode="/" horiz-adv-x="993" d="M47 0l727 1434h172l-723 -1434h-176z" />
<glyph unicode="0" horiz-adv-x="1067" d="M76 573q0 289 118.5 442.5t337.5 153.5t338 -153.5t119 -442.5t-119 -443.5t-338 -154.5t-337.5 154.5t-118.5 443.5zM236 573q0 -450 296 -450q297 0 297 450q0 224 -72.5 336.5t-224.5 112.5t-224 -112.5t-72 -336.5z" />
<glyph unicode="1" horiz-adv-x="700" d="M82 866l303 281h152v-1147h-160v766q0 38 2 88.5t3.5 80.5t0.5 30h-4q-1 0 -16.5 -19t-36 -42t-31.5 -32l-117 -118z" />
<glyph unicode="2" horiz-adv-x="1003" d="M90 866q12 80 50 139.5t94.5 94.5t124 52t145.5 17q192 0 297.5 -95.5t105.5 -258.5q0 -66 -17.5 -119.5t-58.5 -104.5t-90 -93.5t-129 -100.5l-327 -252l2 -4q3 0 26 0.5t62.5 1t81.5 0.5h456v-143h-813v174l416 320q124 99 176.5 168t52.5 149q0 95 -65 158t-188 63 q-118 0 -181 -58.5t-71 -148.5z" />
<glyph unicode="3" horiz-adv-x="1001" d="M76 305l141 39q20 -108 98 -168.5t197 -60.5q123 0 189.5 63.5t66.5 159.5q0 98 -69.5 148.5t-190.5 50.5h-115v120h111q120 0 186 48t66 141q0 91 -64.5 140.5t-181.5 49.5q-239 0 -264 -209l-146 39q28 158 142 230.5t282 72.5q192 0 290.5 -80.5t98.5 -216.5 q0 -115 -66 -185t-161 -85v-6q105 -11 172.5 -84.5t67.5 -194.5q0 -154 -113.5 -248t-298.5 -94q-175 0 -293.5 89t-144.5 241z" />
<glyph unicode="4" horiz-adv-x="1075" d="M70 299v145l510 703h235v-711h168v-137h-168v-299h-160v299h-585zM219 440l4 -4h189h243v316v264h-6z" />
<glyph unicode="5" horiz-adv-x="1030" d="M90 291l139 35q20 -100 97.5 -156.5t187.5 -56.5q122 0 197 68.5t75 185.5q0 118 -76 187t-204 69q-98 0 -161 -39t-89 -92l-129 36l104 619h633v-150h-524l-33 -190q-6 -41 -14 -80t-12.5 -58.5t-4.5 -21.5l5 -2q32 38 102 69t160 31q180 0 288.5 -103.5t108.5 -274.5 q0 -177 -116.5 -284.5t-305.5 -107.5q-166 0 -281.5 86t-146.5 230z" />
<glyph unicode="6" horiz-adv-x="1021" d="M74 385q0 101 39 195.5t120 199.5l285 367h174l-387 -500l6 -4q85 98 242 98q170 0 280.5 -103.5t110.5 -266.5q0 -174 -121 -285t-315 -111q-192 0 -313 110t-121 300zM231 375q0 -118 76.5 -189t202.5 -71q127 0 204.5 70.5t78.5 189.5q0 116 -76.5 184t-206.5 68 q-129 0 -204 -68t-75 -184z" />
<glyph unicode="7" horiz-adv-x="962" d="M61 997v150h854v-119l-579 -1028h-166l461 821q23 40 50 83.5t41.5 66.5t14.5 24l-4 4q-71 -2 -149 -2h-523z" />
<glyph unicode="8" horiz-adv-x="1028" d="M76 309q0 126 79.5 202t188.5 89v6q-28 3 -62 20t-69.5 47t-59.5 81t-24 112q0 130 103.5 216.5t281.5 86.5q176 0 280.5 -86.5t104.5 -214.5q0 -50 -16.5 -93.5t-41 -72.5t-54.5 -50.5t-55.5 -32t-45.5 -13.5v-6q106 -14 186 -89.5t80 -201.5q0 -148 -116.5 -241 t-319.5 -93q-202 0 -321 92.5t-119 241.5zM229 319q0 -103 78 -161t207 -58q131 0 208 58t77 161q0 100 -77 154.5t-208 54.5q-132 0 -208.5 -55t-76.5 -154zM268 858q0 -89 69.5 -139.5t176.5 -50.5q110 1 177 54t67 138q0 86 -66.5 139.5t-177.5 53.5q-115 0 -180.5 -54 t-65.5 -141z" />
<glyph unicode="9" horiz-adv-x="1038" d="M82 772q0 176 122.5 286.5t315.5 110.5q123 0 221.5 -45.5t159 -139.5t60.5 -222q0 -129 -57.5 -237.5t-178.5 -248.5l-240 -276h-180l422 489l-4 5q-93 -99 -248 -99q-176 0 -284.5 106t-108.5 271zM233 768q0 -87 40.5 -146.5t102.5 -84.5t142 -25q125 0 205 66t80 192 q0 129 -81 194.5t-204 65.5t-204 -66t-81 -196z" />
<glyph unicode=":" horiz-adv-x="458" d="M119 84q0 45 29 73.5t81 28.5t81.5 -29t29.5 -73q0 -45 -29.5 -74.5t-81.5 -29.5q-53 0 -81.5 29.5t-28.5 74.5zM119 797q0 45 29 73.5t81 28.5t81.5 -29.5t29.5 -72.5q0 -46 -29.5 -75.5t-81.5 -29.5q-53 0 -81.5 30t-28.5 75z" />
<glyph unicode=";" horiz-adv-x="458" d="M100 -139q46 16 79.5 58t41.5 83q-42 -6 -68 17t-26 65t28.5 69t77.5 27q55 0 87 -34.5t32 -96.5q0 -76 -50 -152.5t-134 -105.5zM119 797q0 45 29 73.5t81 28.5t81.5 -29.5t29.5 -72.5q0 -46 -29.5 -75.5t-81.5 -29.5q-53 0 -81.5 30t-28.5 75z" />
<glyph unicode="&#x3c;" d="M186 528v127l924 445v-150l-741 -356v-4l741 -357v-149z" />
<glyph unicode="=" d="M295 336v141h778v-141h-778zM295 711v141h778v-141h-778z" />
<glyph unicode="&#x3e;" d="M258 84v149l741 357v4l-741 356v150l924 -445v-127z" />
<glyph unicode="?" horiz-adv-x="1153" d="M78 1085q44 181 180.5 279t341.5 98q119 0 212.5 -33.5t149.5 -90t84.5 -126t28.5 -147.5q0 -74 -25.5 -137.5t-65.5 -109.5t-99.5 -86.5t-116.5 -67t-129 -52.5v-280h-170v362q244 85 340 163.5t96 186.5q0 48 -15.5 91t-49 82.5t-97.5 62.5t-151 23q-154 0 -237 -66.5 t-119 -194.5zM440 84q0 44 30.5 73t82.5 29t81.5 -29t29.5 -73q0 -45 -29.5 -74.5t-81.5 -29.5q-53 0 -83 29.5t-30 74.5z" />
<glyph unicode="@" horiz-adv-x="1611" d="M78 541q0 158 54.5 296.5t150.5 237.5t232 156t292 57q215 0 381.5 -97t256 -265t89.5 -377q0 -187 -77.5 -299.5t-223.5 -112.5q-81 0 -143.5 44t-77.5 110h-4q-30 -69 -98 -111.5t-158 -42.5q-140 0 -238 99.5t-98 275.5q0 177 90 281t239 104q56 0 101 -14t71 -36.5 t39 -38.5t21 -32h6v-239q0 101 -56.5 163t-150.5 62q-97 0 -150 -68t-53 -180t55.5 -176t147.5 -64q94 0 146.5 62t60.5 160v372h158v-424q0 -92 25 -136t85 -44q76 0 117 77.5t41 209.5q0 278 -165 450.5t-435 172.5q-271 0 -438.5 -176t-167.5 -459q0 -153 42.5 -274 t119 -199t180.5 -119t229 -41q68 0 130 9.5t103 23t79 32.5t56 32t36.5 28.5t19.5 15.5l94 -74q-78 -80 -224.5 -131t-289.5 -51q-155 0 -283.5 50.5t-221 144.5t-144 236t-51.5 319z" />
<glyph unicode="A" horiz-adv-x="1499" d="M47 0l610 1434h183l610 -1434h-178l-160 381h-727l-160 -381h-178zM449 532h600l-158 375q-20 47 -58 139t-60 144t-23 53h-5q-3 -3 -139 -334z" />
<glyph unicode="B" horiz-adv-x="1275" d="M158 0v1434h516q193 0 310.5 -100t117.5 -253q0 -130 -67.5 -208.5t-157.5 -100.5v-6q56 -9 109 -33.5t103.5 -66.5t81.5 -111t31 -156q0 -184 -128 -291.5t-361 -107.5h-555zM324 143h381q149 0 236 68t87 197q0 130 -95 205t-233 75h-376v-545zM324 819h333 q124 0 200.5 62t76.5 176q0 107 -78 170t-215 63h-317v-471z" />
<glyph unicode="C" horiz-adv-x="1574" d="M78 721q0 166 56.5 305.5t154.5 234.5t233.5 148t292.5 53q237 0 408 -111t243 -280l-161 -45q-19 34 -43 67t-68 73t-95 69.5t-127 49.5t-161 20q-252 0 -408.5 -159.5t-156.5 -426.5q0 -133 43.5 -244t119 -185.5t178 -115.5t220.5 -41q174 0 311 84t205 229l162 -43 q-83 -201 -262.5 -315.5t-407.5 -114.5q-208 0 -375.5 91.5t-264.5 263t-97 393.5z" />
<glyph unicode="D" horiz-adv-x="1492" d="M158 0v1434h495q221 0 393.5 -87.5t270.5 -253t98 -382.5q0 -163 -56.5 -297t-156.5 -224.5t-237 -140t-297 -49.5h-510zM324 156h335q122 0 227 35t186.5 102t128 174.5t46.5 243.5t-46.5 244.5t-128.5 178.5t-190.5 107t-234.5 37h-323v-1122z" />
<glyph unicode="E" horiz-adv-x="1228" d="M158 0v1434h964v-156h-798v-451h622v-155h-622v-516h802v-156h-968z" />
<glyph unicode="F" horiz-adv-x="1193" d="M158 0v1434h956v-156h-790v-479h628v-156h-628v-643h-166z" />
<glyph unicode="G" horiz-adv-x="1617" d="M78 719q0 167 56.5 307t155.5 235t235.5 148t293.5 53q235 0 407 -111t244 -280l-163 -45q-17 32 -39 63t-65.5 72.5t-94.5 71.5t-128 51t-165 21q-252 0 -410.5 -159.5t-158.5 -424.5q0 -268 163 -428t414 -160q96 0 185.5 24.5t153.5 64t109 82.5t68 85v205h-426v156 h582v-750h-149q0 72 0.5 119t1 66t0.5 22h-5q-32 -37 -74.5 -71.5t-108.5 -74.5t-156.5 -64t-190.5 -24q-152 0 -286.5 53.5t-234 149.5t-157 237t-57.5 306z" />
<glyph unicode="H" horiz-adv-x="1437" d="M158 0v1434h166v-605h790v605h168v-1434h-168v670h-790v-670h-166z" />
<glyph unicode="I" horiz-adv-x="481" d="M158 0v1434h166v-1434h-166z" />
<glyph unicode="J" horiz-adv-x="999" d="M0 137l94 131q106 -135 266 -135q169 0 246.5 111.5t77.5 337.5v852h168v-861q0 -291 -125.5 -445.5t-366.5 -154.5q-225 0 -360 164z" />
<glyph unicode="K" horiz-adv-x="1329" d="M158 0v1434h166v-447v-309h4l233 248l477 508h201l-539 -574l594 -862l-196 2l-520 741l-254 -264v-477h-166z" />
<glyph unicode="L" horiz-adv-x="1155" d="M158 0v1434h166v-1278h755v-156h-921z" />
<glyph unicode="M" horiz-adv-x="1642" d="M158 0v1434h176l487 -873h4l490 873h172v-1434h-168v645q0 45 0.5 98t1 101.5t1 96.5t1 87.5t1 69.5t0.5 48l1 17h-4l-19 -36q-18 -36 -64 -122.5t-103 -187.5l-263 -465h-100l-260 459q-59 104 -105.5 192t-64.5 124l-18 36h-5l1 -17v-48t1 -69.5t1.5 -87.5t0.5 -96.5 t0.5 -101.5t0.5 -98v-645h-166z" />
<glyph unicode="N" horiz-adv-x="1488" d="M158 0v1434h168l839 -1155h4v10q0 10 -0.5 28t-1 42t-1 54.5t-1 62t-0.5 68v70.5v820h168v-1434h-170l-839 1165h-5l1 -10v-28t1 -42t1.5 -55t0.5 -63.5t0.5 -71t0.5 -74.5v-821h-166z" />
<glyph unicode="O" horiz-adv-x="1642" d="M78 719q0 163 57 302.5t156.5 236t236.5 150.5t293 54t292.5 -54t236.5 -150.5t157.5 -236t57.5 -302.5q0 -164 -57.5 -304t-157.5 -236.5t-236.5 -151t-292.5 -54.5q-209 0 -378 92.5t-267 263.5t-98 390zM246 719q0 -178 76.5 -312.5t206 -204t292.5 -69.5 q162 0 292 69.5t207 204t77 312.5t-77 312.5t-207 204t-292 69.5t-292 -70t-206.5 -204.5t-76.5 -311.5z" />
<glyph unicode="P" horiz-adv-x="1179" d="M158 0v1434h434q253 0 393.5 -115t140.5 -332q0 -212 -141 -328t-393 -116h-268v-543h-166zM324 690h272q179 0 270.5 75.5t91.5 219.5q0 149 -94 222t-268 73h-272v-590z" />
<glyph unicode="Q" horiz-adv-x="1642" d="M78 719q0 163 57 302.5t156.5 236t236.5 150.5t293 54t292.5 -54t236.5 -150.5t157.5 -236t57.5 -302.5q0 -204 -86.5 -367t-235.5 -259t-338 -116v-253h-170v253q-141 15 -261.5 74.5t-208.5 154.5t-137.5 227.5t-49.5 285.5zM246 719q0 -178 76.5 -312.5t206 -204 t292.5 -69.5q162 0 292 69.5t207 204t77 312.5t-77 312.5t-207 204t-292 69.5t-292 -70t-206.5 -204.5t-76.5 -311.5z" />
<glyph unicode="R" horiz-adv-x="1232" d="M158 0v1434h438q252 0 393 -118t141 -329q0 -162 -85.5 -261t-241.5 -132l354 -594h-201l-325 563q-31 -2 -131 -2h-176v-561h-166zM324 700h288q349 0 349 281q0 149 -94 224t-265 75h-278v-580z" />
<glyph unicode="S" horiz-adv-x="1214" d="M72 377l159 43q12 -148 122.5 -222.5t283.5 -74.5q160 0 248 64.5t88 191.5q0 43 -11.5 78.5t-28 60.5t-46 45.5t-55 32.5t-66.5 24t-68 17.5t-73 14.5t-68 14q-51 12 -86.5 21.5t-86 27.5t-85 37.5t-72.5 51t-61 68t-38 88t-15 111.5q0 186 129 288.5t356 102.5 q206 0 343 -88.5t181 -267.5l-159 -43q-62 250 -367 250q-154 0 -233.5 -62.5t-79.5 -173.5q0 -35 7.5 -64.5t24.5 -52.5t35 -41.5t49 -33.5t56.5 -25.5t66.5 -21.5t70 -17.5t76 -15.5q54 -10 94 -19.5t93 -27.5t90.5 -38t77 -52.5t64 -71.5t41 -94t15.5 -121 q0 -200 -133 -304t-375 -104q-78 0 -147.5 10.5t-141.5 38.5t-126.5 72.5t-94.5 116.5t-53 166z" />
<glyph unicode="T" horiz-adv-x="1304" d="M76 1278v156h1153v-156h-494v-1278h-168v1278h-491z" />
<glyph unicode="U" horiz-adv-x="1425" d="M139 598v836h170v-836q0 -235 99 -350t305 -115q208 0 307.5 115t99.5 350v836h166v-836q0 -304 -147.5 -464.5t-425.5 -160.5q-280 0 -427 160t-147 465z" />
<glyph unicode="V" horiz-adv-x="1404" d="M35 1434h186l293 -752q173 -443 191 -496h4q33 98 186 486l297 762h180l-569 -1434h-199z" />
<glyph unicode="W" horiz-adv-x="1992" d="M37 1434h184l213 -682q161 -512 164 -519h4q2 3 135 453l170 555h195l168 -557q19 -64 55 -184.5t57.5 -192.5t22.5 -74h4q1 2 24.5 77t64 206t69.5 223l223 695h166l-461 -1434h-176l-205 647q-29 91 -58 189.5t-43.5 149.5t-15.5 52h-4q-1 -1 -15 -52t-42.5 -153.5 t-58.5 -199.5l-197 -633h-180z" />
<glyph unicode="X" horiz-adv-x="1392" d="M41 0l555 745l-510 689h203l252 -344q164 -224 166 -224h2q1 0 15.5 21.5t54.5 79.5t87 123l244 344h199l-506 -691l549 -743h-209l-264 360q-52 71 -101 138t-66 90.5t-18 23.5h-2q-2 0 -190 -256l-258 -356h-203z" />
<glyph unicode="Y" horiz-adv-x="1345" d="M35 1434h192l322 -471q32 -46 64 -93t47 -70t16 -24h4l15 23q15 23 45 68t63 91l325 476h183l-555 -811v-623h-168v623z" />
<glyph unicode="Z" horiz-adv-x="1339" d="M86 0v154l803 946q45 53 85.5 96.5t56.5 60t16 17.5l-3 6h-8q-9 0 -24 -0.5t-35 -1t-48.5 -0.5h-58.5h-764v156h1147v-160l-786 -928q-53 -63 -95.5 -110t-57.5 -62l-15 -16l4 -4h9q9 0 25 0.5t36.5 1t49.5 0.5h58h772v-156h-1167z" />
<glyph unicode="[" horiz-adv-x="745" d="M193 -430v2064h471v-151h-308v-1762h308v-151h-471z" />
<glyph unicode="\" horiz-adv-x="993" d="M47 1434h174l725 -1434h-176z" />
<glyph unicode="]" horiz-adv-x="745" d="M82 -274h307v1761h-307v151h471v-2064h-471v152z" />
<glyph unicode="^" d="M131 829l477 615h152l475 -615l-123 -81l-428 557l-428 -557z" />
<glyph unicode="_" horiz-adv-x="1492" d="M158 0h1177v-131h-1177v131z" />
<glyph unicode="`" horiz-adv-x="1091" d="M371 1829l137 45l213 -330h-156z" />
<glyph unicode="a" horiz-adv-x="1220" d="M47 0l469 1147h189l469 -1147h-168l-121 307h-553l-119 -307h-166zM387 446h442l-100 256q-117 292 -117 308h-6q0 -8 -123 -322z" />
<glyph unicode="b" horiz-adv-x="1110" d="M158 0v1147h456q152 0 249.5 -84t97.5 -203q0 -106 -53 -165t-134 -83v-6q47 -8 90.5 -28t83 -53.5t63 -86t23.5 -116.5q0 -141 -105.5 -231.5t-291.5 -90.5h-479zM317 135h316q105 0 171 52.5t66 142.5q0 93 -69.5 146.5t-175.5 53.5h-308v-395zM317 659h267 q89 0 153 47t64 134q0 74 -58 123t-157 49h-269v-353z" />
<glyph unicode="c" horiz-adv-x="1320" d="M78 573q0 169 78.5 305.5t217 213.5t310.5 77q117 0 220 -36t187.5 -113.5t131.5 -188.5l-152 -40q-12 21 -17.5 29.5t-26.5 37t-39.5 45.5t-51.5 42.5t-67 40t-82 25.5t-101 11q-195 0 -320.5 -125.5t-125.5 -323.5q0 -199 126 -324.5t318 -125.5q135 0 236 63t157 166 l154 -41q-74 -154 -217 -245t-328 -91q-173 0 -312 77t-217.5 213.5t-78.5 307.5z" />
<glyph unicode="d" horiz-adv-x="1265" d="M158 0v1147h395q282 0 458.5 -156.5t176.5 -421.5q0 -175 -81.5 -305.5t-222 -197t-321.5 -66.5h-405zM317 150h242q212 0 339.5 107.5t127.5 311.5q0 205 -128.5 316.5t-346.5 111.5h-234v-847z" />
<glyph unicode="e" horiz-adv-x="1075" d="M158 0v1147h805v-150h-646v-331h498v-146h-498v-370h656v-150h-815z" />
<glyph unicode="f" horiz-adv-x="1019" d="M158 0v1147h784v-150h-625v-372h465v-150h-465v-475h-159z" />
<glyph unicode="g" horiz-adv-x="1376" d="M78 573q0 170 78.5 306.5t216.5 213t309 76.5q83 0 161.5 -19.5t151.5 -58.5t133 -105.5t97 -154.5l-148 -38q-45 95 -146.5 163t-244.5 68q-196 0 -321 -125t-125 -328q0 -199 128 -323.5t334 -124.5q136 0 250 58.5t156 127.5v146h-348v143h493v-598h-143v67.5t0.5 48 t1 29t0.5 17v6.5h-4q-25 -31 -58.5 -59t-86 -61t-126.5 -53t-157 -20q-170 0 -307.5 77t-216 214t-78.5 307z" />
<glyph unicode="h" horiz-adv-x="1261" d="M158 0v1147h159v-481h629v481h160v-1147h-160v516h-629v-516h-159z" />
<glyph unicode="i" horiz-adv-x="475" d="M158 0v1147h159v-1147h-159z" />
<glyph unicode="j" horiz-adv-x="868" d="M0 102l88 117q84 -96 215 -96q135 0 196.5 86t61.5 260v678h160v-684q0 -235 -107 -361.5t-309 -126.5q-193 0 -305 127z" />
<glyph unicode="k" horiz-adv-x="1167" d="M158 0v1147h159v-326v-65.5t-0.5 -58t-0.5 -49v-40.5t-0.5 -29.5t-0.5 -18.5v-7h4q61 64 156 162l418 432h203l-445 -457l482 -690h-185l-416 584l-215 -222v-362h-159z" />
<glyph unicode="l" horiz-adv-x="989" d="M158 0v1147h159v-997h598v-150h-757z" />
<glyph unicode="m" horiz-adv-x="1435" d="M158 0v1147h194l242 -434q36 -65 68.5 -127.5t46 -88.5t14.5 -26h4q2 0 15.5 25.5t47.5 90.5t68 128l238 432h182v-1147h-160v582l2 331h-4l-346 -634h-108l-349 643h-4l1 -24q0 -24 0.5 -62t1 -81t1 -88.5t0.5 -76.5v-590h-155z" />
<glyph unicode="n" horiz-adv-x="1290" d="M158 0v1147h164l649 -889h4v8q0 7 -0.5 19.5t-0.5 30v39.5t-0.5 45t-0.5 50.5v53.5v643h160v-1147h-164l-652 903h-4v-7q0 -8 0.5 -22t1 -32t1 -41.5t1 -48t0.5 -54v-57.5v-641h-159z" />
<glyph unicode="o" horiz-adv-x="1361" d="M78 571q0 171 79.5 308.5t217 213.5t305.5 76t305.5 -76t217 -213.5t79.5 -308.5q0 -127 -46.5 -238t-126.5 -189.5t-191.5 -123.5t-237.5 -45t-237.5 45t-191.5 123.5t-126.5 189.5t-46.5 238zM240 571q0 -196 125.5 -322t314.5 -126t314.5 126t125.5 322 q0 199 -125 325t-315 126t-315 -126t-125 -325z" />
<glyph unicode="p" horiz-adv-x="1032" d="M158 0v1147h372q213 0 330 -96.5t117 -262.5q0 -167 -116 -261.5t-331 -94.5h-213v-432h-159zM317 567h220q136 0 207 57.5t71 159.5t-71 161t-207 59h-220v-437z" />
<glyph unicode="q" horiz-adv-x="1357" d="M78 571q0 171 79.5 308.5t217 213.5t305.5 76t305.5 -76t217 -213.5t79.5 -308.5q0 -236 -147.5 -399.5t-376.5 -189.5v-220h-160v220q-227 28 -373.5 191t-146.5 398zM240 571q0 -196 125.5 -322t314.5 -126t314.5 126t125.5 322q0 199 -125 325t-315 126t-315 -126 t-125 -325z" />
<glyph unicode="r" horiz-adv-x="1095" d="M158 0v1147h377q214 0 331 -90t117 -256q0 -128 -70 -209.5t-188 -108.5l295 -483h-174l-275 455q-45 -2 -127 -2h-127v-453h-159zM317 582h224q280 0 280 209q0 210 -280 210h-224v-419z" />
<glyph unicode="s" horiz-adv-x="1024" d="M72 285l145 39q12 -101 95 -160.5t218 -59.5q121 0 191 51t70 150q0 29 -5.5 53.5t-19.5 43.5t-27 33.5t-39 27t-44 20.5t-53.5 17.5t-56 14t-63 13t-63.5 13.5q-37 8 -63 15t-62.5 20t-62 28t-53 39t-44.5 52t-28 68t-11 87q0 155 108 237t302 82q177 0 290 -70 t146 -208l-141 -39q-51 188 -285 188q-123 0 -189.5 -47.5t-66.5 -136.5q0 -41 16 -71.5t39.5 -50t68.5 -36t82.5 -25.5t102.5 -22q43 -9 68 -14.5t70.5 -20t74 -29.5t64.5 -42t56.5 -58.5t35 -78t14.5 -101.5q0 -164 -114 -248t-308 -84q-59 0 -113.5 7.5t-113 28.5 t-103.5 54.5t-80 90t-48 129.5z" />
<glyph unicode="t" horiz-adv-x="1112" d="M76 997v150h960v-150h-401v-997h-160v997h-399z" />
<glyph unicode="u" horiz-adv-x="1251" d="M139 494v653h162v-670q0 -179 80.5 -266.5t245.5 -87.5t245 87.5t80 266.5v670h160v-653q0 -258 -125.5 -388.5t-361.5 -130.5t-361 130.5t-125 388.5z" />
<glyph unicode="v" horiz-adv-x="1234" d="M35 1147h176l240 -561q52 -121 94 -222.5t59 -143.5l17 -42h4q0 1 6.5 16.5t19.5 48.5t31.5 77.5t48 115t62.5 148.5l237 563h170l-491 -1147h-185z" />
<glyph unicode="w" horiz-adv-x="1665" d="M37 1147h170l172 -531q36 -111 68.5 -215t46 -147.5t14.5 -44.5h2q1 1 13.5 42.5t41.5 134.5t58 183l135 432h166l133 -432q28 -92 55.5 -183.5t39.5 -133.5t13 -43h2q1 1 14.5 44t46.5 147t70 216l172 531h158l-377 -1147h-161l-144 446q-31 96 -58.5 186.5t-39 130 t-12.5 40.5h-5q-1 -1 -13 -40t-41.5 -132t-59.5 -187l-142 -444h-161z" />
<glyph unicode="x" horiz-adv-x="1179" d="M41 0l444 592l-409 555h190l166 -223q46 -61 89.5 -118.5t59.5 -79t17 -21.5h2l168 227l156 215h176l-412 -557l451 -590h-193l-205 266q-48 62 -88.5 116t-55 74.5t-15.5 20.5h-2q-1 0 -162 -213l-195 -264h-182z" />
<glyph unicode="y" horiz-adv-x="1107" d="M35 1147h182l184 -281q40 -59 79.5 -119.5t59.5 -90.5l19 -31h4q1 1 20 30t60 92t80 121l182 279h168l-440 -674v-473h-160v473z" />
<glyph unicode="z" horiz-adv-x="1140" d="M86 0v152l573 634q64 71 113 123.5t63.5 67.5t14.5 16l-4 4h-146h-598v150h953v-152l-549 -616q-75 -85 -128.5 -141.5t-69.5 -71.5l-15 -14l4 -5q62 3 156 3h602v-150h-969z" />
<glyph unicode="{" horiz-adv-x="825" d="M158 526v148q33 5 43 10q102 44 102 244v241q0 233 115.5 348t322.5 115v-145q-63 0 -110 -13.5t-88.5 -47.5t-63.5 -100.5t-22 -164.5v-235q0 -73 -14.5 -132t-33.5 -92t-44 -57.5t-39.5 -32.5t-26.5 -12q10 -2 26 -11.5t40 -34.5t43.5 -59t34 -93t14.5 -130v-233 q0 -98 22 -165t63 -101t88.5 -48t110.5 -14v-143q-207 0 -322.5 115t-115.5 348v241q2 201 -102 244q-10 5 -43 10z" />
<glyph unicode="|" horiz-adv-x="382" d="M123 -152v1739h137v-1739h-137z" />
<glyph unicode="}" horiz-adv-x="825" d="M84 -287q63 0 110.5 13.5t89 47.5t63.5 100.5t22 164.5v235q0 73 14.5 132t34 92t44.5 57.5t39.5 32.5t26.5 12q-10 3 -26 12t-40.5 33.5t-44 58.5t-34 92.5t-14.5 129.5v235q0 98 -22 164.5t-63.5 100.5t-89 47.5t-110.5 13.5v145q208 0 323 -115t115 -350v-239 q0 -201 105 -246q11 -5 43 -10v-146q-35 -6 -49 -13q-99 -48 -99 -243v-239q0 -233 -115.5 -348t-322.5 -115v145z" />
<glyph unicode="~" d="M246 606q31 36 90 68.5t139 32.5q75 0 204 -44.5t208 -44.5q111 0 207 91l26 -138q-24 -32 -84.5 -63t-140.5 -31q-75 0 -205 44t-209 44q-116 0 -205 -94z" />
<glyph unicode="&#xa1;" horiz-adv-x="536" d="M158 1350q0 45 29 74.5t81 29.5q53 0 82 -29.5t29 -74.5t-29.5 -74t-81.5 -29t-81 29t-29 74zM186 0v1102h166v-1102h-166z" />
<glyph unicode="&#xa2;" horiz-adv-x="1196" d="M78 578q0 218 127.5 362t335.5 166v213h139v-213q145 -14 259 -94.5t167 -229.5l-148 -41q-42 104 -129 166t-211 62q-174 0 -278 -107t-104 -284q0 -179 104 -286.5t272 -107.5q115 0 203 54t135 153l148 -41q-55 -129 -166.5 -210.5t-251.5 -98.5v-213h-137v213 q-203 22 -334 168.5t-131 368.5z" />
<glyph unicode="&#xa3;" horiz-adv-x="1044" d="M72 498v131h110q-16 148 -16 207q0 159 98.5 246t270.5 87q356 0 403 -321l-150 -41q-19 114 -77.5 167.5t-169.5 53.5q-219 0 -219 -225q0 -20 14 -174h407v-131h-391q10 -95 10 -152q0 -79 -18 -127t-63 -69l2 -5q20 5 350 5h328v-150h-887v150q79 14 105 60t26 134 q0 48 -8 154h-125z" />
<glyph unicode="&#xa4;" horiz-adv-x="1320" d="M84 96l149 152q-110 141 -110 323q0 197 123 342l-146 144l88 88l148 -146q142 113 323 113q182 0 328 -111l146 144l88 -88l-146 -146q125 -144 125 -340q0 -176 -113 -325l150 -150l-88 -88l-150 150q-151 -125 -340 -125q-190 0 -337 125l-150 -150zM274 571 q0 -163 112 -275t273 -112q163 0 276.5 111.5t113.5 275.5t-113.5 277t-276.5 113q-160 0 -272.5 -113t-112.5 -277z" />
<glyph unicode="&#xa5;" horiz-adv-x="1019" d="M41 1147h178l197 -359q15 -28 38 -67.5t39 -66t17 -27.5h4q1 1 17 27.5t39 66t38 67.5l197 359h172l-229 -399h161v-123h-233l-60 -105h293v-125h-321v-395h-160v395h-317v125h290l-59 105h-231v123h159z" />
<glyph unicode="&#xa6;" horiz-adv-x="382" d="M123 -152v584h137v-584h-137zM123 1004v583h137v-583h-137z" />
<glyph unicode="&#xa7;" d="M176 262l158 41q9 -103 105 -154t259 -51q312 0 312 183q0 38 -15.5 65t-43 45.5t-76.5 32.5t-105 25t-140 25q-36 6 -55 9q-61 10 -106.5 21t-101.5 32.5t-91.5 48t-60.5 70t-25 97.5q0 165 195 229q-86 32 -130 84.5t-44 136.5q0 71 35.5 123t98 81t137.5 42.5 t165 13.5q126 0 224.5 -25t175 -91t100.5 -170l-141 -39q-21 76 -73.5 123t-122.5 65t-165 18q-53 0 -97.5 -6.5t-84.5 -21t-63 -43t-23 -68.5q0 -42 20 -70.5t77.5 -48.5t100.5 -29t148 -26q23 -4 35 -6q87 -14 143.5 -26.5t115.5 -33.5t92.5 -48.5t55 -69.5t21.5 -98 q0 -172 -189 -232q90 -34 136.5 -91.5t46.5 -150.5q0 -153 -123.5 -227t-345.5 -74q-94 0 -176 13t-162 43.5t-132 90t-65 142.5zM344 772q0 -37 19 -65t51.5 -46.5t79.5 -32.5t100 -24t115 -21q7 -1 11 -1.5t10 -1.5t11 -2q27 -3 99 -17q88 16 139 57t51 105 q0 102 -126 147q-62 22 -236 47q-18 3 -31 5l-78 14q-91 -14 -153 -54t-62 -110z" />
<glyph unicode="&#xa8;" horiz-adv-x="1091" d="M258 1683q0 40 27.5 68.5t66.5 28.5q38 0 66 -28.5t28 -68.5q0 -38 -28 -66t-68 -28q-38 0 -65 28t-27 66zM643 1683q0 40 28 68.5t68 28.5q38 0 66.5 -28.5t28.5 -68.5q0 -38 -28.5 -66t-66.5 -28q-40 0 -68 28t-28 66z" />
<glyph unicode="&#xa9;" horiz-adv-x="1646" d="M78 543q0 214 100 385.5t269.5 265.5t373.5 94q205 0 375 -94t270.5 -265.5t100.5 -385.5q0 -213 -100.5 -385t-270.5 -266.5t-375 -94.5q-152 0 -288.5 56t-237 153t-159 237t-58.5 300zM178 545q0 -191 83.5 -340t230 -230t329.5 -81q184 0 331 80.5t231.5 229.5 t84.5 341t-84.5 340t-231.5 227.5t-331 79.5t-330 -80t-229.5 -228t-83.5 -339zM416 543q0 173 113 282t286 109q124 0 220 -60t132 -169l-108 -31q-6 19 -20.5 41t-41.5 48t-74 43t-104 17q-126 0 -204 -76t-78 -202t76.5 -203.5t201.5 -77.5q85 0 148.5 37.5t99.5 99.5 l111 -34q-47 -98 -143 -156.5t-220 -58.5q-174 0 -284.5 110t-110.5 281z" />
<glyph unicode="&#xaa;" horiz-adv-x="819" d="M72 229v113h676v-113h-676zM72 481l274 666h127l272 -666h-114l-64 160h-319l-64 -160h-112zM283 729h249l-53 131q-17 43 -34.5 88.5t-25.5 67.5t-9 22h-4q-1 0 -9 -21.5t-26 -68t-35 -88.5z" />
<glyph unicode="&#xab;" horiz-adv-x="1325" d="M123 571l481 480l96 -97l-393 -381v-6l393 -381l-96 -96zM625 571l481 480l96 -97l-393 -381v-6l393 -381l-96 -96z" />
<glyph unicode="&#xad;" horiz-adv-x="1189" d="M205 520v142h778v-142h-778z" />
<glyph unicode="&#xae;" horiz-adv-x="1646" d="M78 543q0 214 100 385.5t269.5 265.5t373.5 94q205 0 375 -94t270.5 -265.5t100.5 -385.5q0 -213 -100.5 -385t-270.5 -266.5t-375 -94.5q-152 0 -288.5 56t-237 153t-159 237t-58.5 300zM178 545q0 -191 83.5 -340t230 -230t329.5 -81q184 0 331 80.5t231.5 229.5 t84.5 341t-84.5 340t-231.5 227.5t-331 79.5t-330 -80t-229.5 -228t-83.5 -339zM561 168v756h258q141 0 220 -61.5t79 -170.5q0 -82 -44.5 -133.5t-121.5 -69.5l187 -321h-133l-175 301q-27 -2 -73 -2h-74v-299h-123zM684 563h141q170 0 170 125q0 63 -44.5 95t-125.5 32 h-141v-252z" />
<glyph unicode="&#xaf;" horiz-adv-x="1091" d="M248 1587v142h596v-142h-596z" />
<glyph unicode="&#xb0;" horiz-adv-x="534" d="M35 1436q0 101 65 165t166 64q103 0 168.5 -64t65.5 -165t-65.5 -165.5t-168.5 -64.5q-101 0 -166 64.5t-65 165.5zM141 1436q0 -54 35 -89.5t90 -35.5q56 0 91.5 35.5t35.5 89.5q0 57 -35 92t-92 35q-56 0 -90.5 -35t-34.5 -92z" />
<glyph unicode="&#xb1;" d="M295 0v141h778v-141h-778zM295 631v141h313l-2 330h154v-330h313v-141h-313v-326h-152v326h-313z" />
<glyph unicode="&#xb2;" horiz-adv-x="696" d="M66 967v129l333 252q113 78 113 182q0 65 -42 104t-122 39q-75 0 -117 -32t-61 -105l-98 29q49 217 284 217q128 0 201.5 -65.5t73.5 -178.5q0 -135 -146 -252q-45 -37 -115 -89t-117 -86t-50 -38l4 -6q54 6 151 6h279v-106h-571z" />
<glyph unicode="&#xb3;" horiz-adv-x="696" d="M55 1194l109 31q5 -78 56 -124t138 -46q82 0 126 40.5t44 100.5q0 63 -48.5 102t-127.5 39h-67v82h63q78 0 125 38.5t47 96.5q0 52 -41 88.5t-131 36.5q-82 0 -120 -34.5t-52 -108.5l-100 29q36 217 282 217q136 0 205.5 -59.5t69.5 -151.5q0 -77 -48 -130t-116 -59v-6 q74 -9 124 -61t50 -133q0 -102 -78.5 -167t-197.5 -65q-131 0 -214.5 68t-97.5 176z" />
<glyph unicode="&#xb4;" horiz-adv-x="1091" d="M371 1544l213 330l137 -45l-195 -285h-155z" />
<glyph unicode="&#xb6;" horiz-adv-x="1187" d="M78 784q0 168 109.5 265.5t324.5 97.5h518v-1434h-168v1278h-182v-1278h-168v703q-215 0 -324.5 98.5t-109.5 269.5z" />
<glyph unicode="&#xb7;" horiz-adv-x="458" d="M119 578q0 45 29 73.5t81 28.5t81.5 -29t29.5 -73q0 -46 -29.5 -75.5t-81.5 -29.5q-53 0 -81.5 30t-28.5 75z" />
<glyph unicode="&#xb8;" horiz-adv-x="1091" d="M356 -207q50 -29 150 -29q145 0 145 76q0 47 -55 67.5t-174 22.5v119h123v-53q231 -17 231 -176q0 -83 -63.5 -127.5t-186.5 -44.5q-108 0 -170 30v115z" />
<glyph unicode="&#xb9;" horiz-adv-x="696" d="M96 1552l223 213h113v-692h186v-106h-489v106h184v377q0 31 3.5 98.5t5.5 75.5h-7q-1 0 -8.5 -8t-21.5 -23t-25 -26l-88 -88z" />
<glyph unicode="&#xba;" horiz-adv-x="854" d="M72 813q0 154 102.5 255t251.5 101q148 0 252 -101.5t104 -254.5q0 -150 -104 -251t-252 -101q-149 0 -251.5 100.5t-102.5 251.5zM94 227v113h668v-113h-668zM182 813q0 -106 68.5 -176t175.5 -70t175.5 70t68.5 176q0 108 -68.5 179t-175.5 71t-175.5 -71t-68.5 -179z " />
<glyph unicode="&#xbb;" horiz-adv-x="1325" d="M123 186l393 381v6l-393 381l96 97l481 -480l-481 -481zM625 186l393 381v6l-393 381l96 97l481 -480l-481 -481z" />
<glyph unicode="&#xbc;" horiz-adv-x="1675" d="M96 1221l223 213h113v-695h186v-104h-489v104h184v379q0 31 3.5 98.5t5.5 75.5h-7q-1 0 -8.5 -8t-21.5 -23t-25 -26l-88 -88zM559 0l428 1434h129l-430 -1434h-127zM1012 203v106l340 492h157v-492h136v-106h-136v-203h-114v203h-383zM1130 313l5 -6h7q6 0 17 0.5t24 1 t30 0.5h32h150v189q0 47 2 92.5t4 72t2 27.5h-8q-2 0 -133 -186.5t-132 -190.5z" />
<glyph unicode="&#xbd;" horiz-adv-x="1675" d="M96 1221l223 213h113v-693h186v-106h-489v106h184v377q0 31 3.5 98.5t5.5 75.5h-7q-1 0 -8.5 -8t-21.5 -23t-25 -26l-88 -88zM559 0l428 1434h129l-430 -1434h-127zM1044 0v131l336 252q113 80 113 182q0 64 -43 104t-123 40q-75 0 -117 -32.5t-61 -105.5l-98 29 q49 217 286 217q127 0 200 -65.5t73 -178.5q0 -74 -37 -133.5t-109 -117.5q-46 -37 -115 -89t-115.5 -86.5t-49.5 -37.5l2 -7q36 4 151 4h281v-106h-574z" />
<glyph unicode="&#xbe;" horiz-adv-x="1675" d="M55 862l109 31q5 -78 56 -124t138 -46q82 0 126 40.5t44 100.5q0 63 -48.5 102.5t-127.5 39.5h-67v81h63q78 0 125 39t47 97q0 52 -41 88.5t-131 36.5q-82 0 -120 -35t-52 -109l-100 29q36 217 282 217q136 0 205.5 -59.5t69.5 -151.5q0 -77 -48 -129.5t-116 -58.5v-7 q74 -9 124 -61t50 -133q0 -102 -78.5 -167t-197.5 -65q-131 0 -214.5 68t-97.5 176zM559 0l428 1434h129l-430 -1434h-127zM1012 203v106l340 492h157v-492h136v-106h-136v-203h-114v203h-383zM1130 313l5 -6h7q6 0 17 0.5t24 1t30 0.5h32h150v189q0 47 2 92.5t4 72t2 27.5 h-8q-2 0 -133 -186.5t-132 -190.5z" />
<glyph unicode="&#xbf;" horiz-adv-x="1153" d="M78 369q0 73 25.5 137t65.5 109.5t100 86t117 67t128 52.5v281h170v-363q-243 -85 -338.5 -163.5t-95.5 -186.5q0 -48 15 -91t48.5 -82t97.5 -62t152 -23q153 0 237 66.5t118 193.5l157 -43q-44 -181 -179.5 -279t-340.5 -98q-120 0 -214 33.5t-150 90.5t-84.5 126.5 t-28.5 147.5zM492 1350q0 45 29 74.5t81 29.5t81.5 -29.5t29.5 -74.5t-29.5 -74t-81.5 -29q-53 0 -81.5 29t-28.5 74z" />
<glyph unicode="&#xc0;" horiz-adv-x="1499" d="M47 0l610 1434h183l610 -1434h-178l-160 381h-727l-160 -381h-178zM449 532h600l-158 375q-20 47 -58 139t-60 144t-23 53h-5q-3 -3 -139 -334zM496 1829l137 45l213 -330h-156z" />
<glyph unicode="&#xc1;" horiz-adv-x="1499" d="M47 0l610 1434h183l610 -1434h-178l-160 381h-727l-160 -381h-178zM449 532h600l-158 375q-20 47 -58 139t-60 144t-23 53h-5q-3 -3 -139 -334zM639 1544l213 330l137 -45l-194 -285h-156z" />
<glyph unicode="&#xc2;" horiz-adv-x="1499" d="M47 0l610 1434h183l610 -1434h-178l-160 381h-727l-160 -381h-178zM449 532h600l-158 375q-20 47 -58 139t-60 144t-23 53h-5q-3 -3 -139 -334zM451 1640l294 242l291 -242l-78 -94l-213 180l-215 -178z" />
<glyph unicode="&#xc3;" horiz-adv-x="1499" d="M47 0l610 1434h183l610 -1434h-178l-160 381h-727l-160 -381h-178zM418 1726q56 72 168 72q56 0 147 -36t154 -36q83 0 141 54l33 -121q-17 -22 -59 -44t-105 -22q-59 0 -150.5 35t-148.5 35q-88 0 -145 -57zM449 532h600l-158 375q-20 47 -58 139t-60 144t-23 53h-5 q-3 -3 -139 -334z" />
<glyph unicode="&#xc4;" horiz-adv-x="1499" d="M47 0l610 1434h183l610 -1434h-178l-160 381h-727l-160 -381h-178zM449 532h600l-158 375q-20 47 -58 139t-60 144t-23 53h-5q-3 -3 -139 -334zM461 1683q0 40 28 68.5t66 28.5q39 0 66.5 -28.5t27.5 -68.5q0 -38 -28 -66t-66 -28q-39 0 -66.5 27.5t-27.5 66.5zM848 1683 q0 40 27.5 68.5t66.5 28.5t66.5 -28.5t27.5 -68.5q0 -39 -27.5 -66.5t-66.5 -27.5t-66.5 27.5t-27.5 66.5z" />
<glyph unicode="&#xc5;" horiz-adv-x="1499" d="M47 0l610 1434h183l610 -1434h-178l-160 381h-727l-160 -381h-178zM449 532h600l-158 375q-20 47 -58 139t-60 144t-23 53h-5q-3 -3 -139 -334zM539 1706q0 86 58 138t151 52q94 0 151 -52t57 -138q0 -88 -57 -140.5t-151 -52.5q-93 0 -151 53t-58 140zM649 1706 q0 -42 28 -68t71 -26q44 0 71 25.5t27 68.5q0 41 -27 66.5t-71 25.5q-43 0 -71 -25.5t-28 -66.5z" />
<glyph unicode="&#xc6;" horiz-adv-x="2017" d="M47 0l612 1434h1252v-150h-797v-463h629v-143h-629v-528h801v-150h-965v387h-563l-162 -387h-178zM449 530h501v754h-186z" />
<glyph unicode="&#xc7;" horiz-adv-x="1574" d="M78 721q0 166 56.5 305.5t154.5 234.5t233.5 148t292.5 53q237 0 408 -111t243 -280l-161 -45q-19 34 -43 67t-68 73t-95 69.5t-127 49.5t-161 20q-252 0 -408.5 -159.5t-156.5 -426.5q0 -133 43.5 -244t119 -185.5t178 -115.5t220.5 -41q174 0 311 84t205 229l162 -43 q-71 -175 -218 -284.5t-339 -136.5q143 -38 143 -162q0 -83 -63.5 -127.5t-186.5 -44.5q-108 0 -170 30v115q50 -29 150 -29q145 0 145 76q0 47 -55 67.5t-174 22.5v50q-185 22 -329 117.5t-227 257.5t-83 366z" />
<glyph unicode="&#xc8;" horiz-adv-x="1228" d="M158 0v1434h964v-156h-798v-451h622v-155h-622v-516h802v-156h-968zM393 1829l137 45l213 -330h-155z" />
<glyph unicode="&#xc9;" horiz-adv-x="1228" d="M158 0v1434h964v-156h-798v-451h622v-155h-622v-516h802v-156h-968zM539 1544l213 330l137 -45l-195 -285h-155z" />
<glyph unicode="&#xca;" horiz-adv-x="1228" d="M158 0v1434h964v-156h-798v-451h622v-155h-622v-516h802v-156h-968zM350 1640l293 242l293 -242l-80 -94l-213 180l-215 -178z" />
<glyph unicode="&#xcb;" horiz-adv-x="1228" d="M158 0v1434h964v-156h-798v-451h622v-155h-622v-516h802v-156h-968zM358 1683q0 40 28.5 68.5t68.5 28.5q38 0 65 -28.5t27 -68.5q0 -39 -27.5 -66.5t-66.5 -27.5q-38 0 -66.5 28t-28.5 66zM745 1683q0 40 27.5 68.5t67.5 28.5t68 -28.5t28 -68.5q0 -38 -28 -66t-68 -28 t-67.5 27.5t-27.5 66.5z" />
<glyph unicode="&#xcc;" horiz-adv-x="481" d="M-12 1829l139 45l211 -330h-156zM158 0v1434h166v-1434h-166z" />
<glyph unicode="&#xcd;" horiz-adv-x="481" d="M133 1544l213 330l137 -45l-194 -285h-156zM158 0v1434h166v-1434h-166z" />
<glyph unicode="&#xce;" horiz-adv-x="481" d="M4 1647l238 235l237 -237l-84 -91l-153 160l-154 -158zM158 0v1434h166v-1434h-166z" />
<glyph unicode="&#xcf;" horiz-adv-x="481" d="M23 1683q0 40 28 68.5t66 28.5q39 0 66.5 -28.5t27.5 -68.5q0 -38 -28 -66t-66 -28q-39 0 -66.5 27.5t-27.5 66.5zM158 0v1434h166v-1434h-166zM272 1683q0 40 27.5 68.5t67.5 28.5q39 0 66.5 -28.5t27.5 -68.5q0 -39 -27.5 -66.5t-66.5 -27.5t-67 27.5t-28 66.5z" />
<glyph unicode="&#xd0;" horiz-adv-x="1492" d="M23 674v149h135v611h495q221 0 393.5 -87.5t270.5 -253t98 -382.5q0 -163 -56.5 -297t-156.5 -224.5t-237 -140t-297 -49.5h-510v674h-135zM324 156h335q122 0 227 35t186.5 102t128 174.5t46.5 243.5t-46.5 244.5t-128.5 178.5t-190.5 107t-234.5 37h-323v-455h362v-149 h-362v-518z" />
<glyph unicode="&#xd1;" horiz-adv-x="1488" d="M158 0v1434h168l839 -1155h4v10q0 10 -0.5 28t-1 42t-1 54.5t-1 62t-0.5 68v70.5v820h168v-1434h-170l-839 1165h-5l1 -10v-28t1 -42t1.5 -55t0.5 -63.5t0.5 -71t0.5 -74.5v-821h-166zM426 1726q58 72 166 72q56 0 147 -36t154 -36q83 0 141 54l35 -121q-12 -13 -29 -26 t-55 -26.5t-82 -13.5q-59 0 -150 35t-147 35q-95 0 -145 -57z" />
<glyph unicode="&#xd2;" horiz-adv-x="1642" d="M78 719q0 163 57 302.5t156.5 236t236.5 150.5t293 54t292.5 -54t236.5 -150.5t157.5 -236t57.5 -302.5q0 -164 -57.5 -304t-157.5 -236.5t-236.5 -151t-292.5 -54.5q-209 0 -378 92.5t-267 263.5t-98 390zM246 719q0 -178 76.5 -312.5t206 -204t292.5 -69.5 q162 0 292 69.5t207 204t77 312.5t-77 312.5t-207 204t-292 69.5t-292 -70t-206.5 -204.5t-76.5 -311.5zM569 1829l138 45l213 -330h-156z" />
<glyph unicode="&#xd3;" horiz-adv-x="1642" d="M78 719q0 163 57 302.5t156.5 236t236.5 150.5t293 54t292.5 -54t236.5 -150.5t157.5 -236t57.5 -302.5q0 -164 -57.5 -304t-157.5 -236.5t-236.5 -151t-292.5 -54.5q-209 0 -378 92.5t-267 263.5t-98 390zM246 719q0 -178 76.5 -312.5t206 -204t292.5 -69.5 q162 0 292 69.5t207 204t77 312.5t-77 312.5t-207 204t-292 69.5t-292 -70t-206.5 -204.5t-76.5 -311.5zM715 1544l213 330l137 -45l-195 -285h-155z" />
<glyph unicode="&#xd4;" horiz-adv-x="1642" d="M78 719q0 163 57 302.5t156.5 236t236.5 150.5t293 54t292.5 -54t236.5 -150.5t157.5 -236t57.5 -302.5q0 -164 -57.5 -304t-157.5 -236.5t-236.5 -151t-292.5 -54.5q-209 0 -378 92.5t-267 263.5t-98 390zM246 719q0 -178 76.5 -312.5t206 -204t292.5 -69.5 q162 0 292 69.5t207 204t77 312.5t-77 312.5t-207 204t-292 69.5t-292 -70t-206.5 -204.5t-76.5 -311.5zM526 1640l293 242l293 -242l-80 -94l-213 180l-215 -178z" />
<glyph unicode="&#xd5;" horiz-adv-x="1642" d="M78 719q0 163 57 302.5t156.5 236t236.5 150.5t293 54t292.5 -54t236.5 -150.5t157.5 -236t57.5 -302.5q0 -164 -57.5 -304t-157.5 -236.5t-236.5 -151t-292.5 -54.5q-209 0 -378 92.5t-267 263.5t-98 390zM246 719q0 -178 76.5 -312.5t206 -204t292.5 -69.5 q162 0 292 69.5t207 204t77 312.5t-77 312.5t-207 204t-292 69.5t-292 -70t-206.5 -204.5t-76.5 -311.5zM494 1726q18 26 58.5 49t106.5 23q57 0 148.5 -36t153.5 -36q83 0 141 54l35 -121q-12 -13 -29 -26t-55 -26.5t-82 -13.5q-59 0 -150 35t-147 35q-96 0 -146 -57z" />
<glyph unicode="&#xd6;" horiz-adv-x="1642" d="M78 719q0 163 57 302.5t156.5 236t236.5 150.5t293 54t292.5 -54t236.5 -150.5t157.5 -236t57.5 -302.5q0 -164 -57.5 -304t-157.5 -236.5t-236.5 -151t-292.5 -54.5q-209 0 -378 92.5t-267 263.5t-98 390zM246 719q0 -178 76.5 -312.5t206 -204t292.5 -69.5 q162 0 292 69.5t207 204t77 312.5t-77 312.5t-207 204t-292 69.5t-292 -70t-206.5 -204.5t-76.5 -311.5zM535 1683q0 40 28 68.5t68 28.5q38 0 65 -28.5t27 -68.5q0 -39 -27.5 -66.5t-66.5 -27.5q-38 0 -66 28t-28 66zM922 1683q0 40 27.5 68.5t66.5 28.5q40 0 68 -28.5 t28 -68.5q0 -38 -28 -66t-68 -28q-39 0 -66.5 27.5t-27.5 66.5z" />
<glyph unicode="&#xd7;" d="M328 340l256 254l-256 256l100 100l256 -254l256 254l100 -102l-254 -254l256 -254l-102 -102l-256 256l-256 -256z" />
<glyph unicode="&#xd8;" horiz-adv-x="1642" d="M78 719q0 163 57 302.5t156.5 236t236.5 150.5t293 54q218 0 393 -102l152 196l127 -94l-152 -196q106 -101 165 -241t59 -306q0 -164 -57.5 -304t-157.5 -236.5t-236.5 -151t-292.5 -54.5q-216 0 -389 101l-153 -203l-125 96l151 201q-108 99 -167.5 240t-59.5 311z M246 719q0 -259 160 -422l710 934q-135 74 -295 74q-162 0 -292 -70t-206.5 -204.5t-76.5 -311.5zM530 203q134 -70 291 -70q160 0 290 69t208 204t78 313q0 253 -156 416z" />
<glyph unicode="&#xd9;" horiz-adv-x="1425" d="M139 598v836h170v-836q0 -235 99 -350t305 -115q208 0 307.5 115t99.5 350v836h166v-836q0 -304 -147.5 -464.5t-425.5 -160.5q-280 0 -427 160t-147 465zM463 1829l137 45l213 -330h-156z" />
<glyph unicode="&#xda;" horiz-adv-x="1425" d="M139 598v836h170v-836q0 -235 99 -350t305 -115q208 0 307.5 115t99.5 350v836h166v-836q0 -304 -147.5 -464.5t-425.5 -160.5q-280 0 -427 160t-147 465zM606 1544l213 330l137 -45l-194 -285h-156z" />
<glyph unicode="&#xdb;" horiz-adv-x="1425" d="M139 598v836h170v-836q0 -235 99 -350t305 -115q208 0 307.5 115t99.5 350v836h166v-836q0 -304 -147.5 -464.5t-425.5 -160.5q-280 0 -427 160t-147 465zM418 1640l295 242l291 -242l-78 -94l-213 180l-215 -178z" />
<glyph unicode="&#xdc;" horiz-adv-x="1425" d="M139 598v836h170v-836q0 -235 99 -350t305 -115q208 0 307.5 115t99.5 350v836h166v-836q0 -304 -147.5 -464.5t-425.5 -160.5q-280 0 -427 160t-147 465zM428 1683q0 40 28 68.5t66 28.5q39 0 66.5 -28.5t27.5 -68.5q0 -38 -28 -66t-66 -28q-39 0 -66.5 27.5t-27.5 66.5 zM815 1683q0 40 27.5 68.5t66.5 28.5q40 0 67.5 -28.5t27.5 -68.5q0 -39 -28 -66.5t-67 -27.5t-66.5 27.5t-27.5 66.5z" />
<glyph unicode="&#xdd;" horiz-adv-x="1345" d="M35 1434h192l322 -471q32 -46 64 -93t47 -70t16 -24h4l15 23q15 23 45 68t63 91l325 476h183l-555 -811v-623h-168v623zM580 1544l213 330l137 -45l-195 -285h-155z" />
<glyph unicode="&#xde;" horiz-adv-x="1150" d="M158 0v1434h166v-291h249q249 0 386 -111t137 -313t-136.5 -310t-386.5 -108h-249v-301h-166zM324 453h256q171 0 260.5 67.5t89.5 198.5q0 132 -89 200t-261 68h-256v-534z" />
<glyph unicode="&#xdf;" horiz-adv-x="1189" d="M158 0v1147h856l-258 -445v-4h12q156 0 259 -96.5t103 -257.5q0 -162 -103 -266.5t-277 -104.5q-90 0 -162.5 26t-116.5 67l68 114q86 -71 196 -71q107 0 173.5 64.5t66.5 164.5q0 98 -65.5 160.5t-178.5 62.5h-143v137l170 295l-2 4h-97h-342v-997h-159z" />
<glyph unicode="&#xe0;" horiz-adv-x="1220" d="M47 0l469 1147h189l469 -1147h-168l-121 307h-553l-119 -307h-166zM358 1542l140 45l211 -330h-156zM387 446h442l-100 256q-117 292 -117 308h-6q0 -8 -123 -322z" />
<glyph unicode="&#xe1;" horiz-adv-x="1220" d="M47 0l469 1147h189l469 -1147h-168l-121 307h-553l-119 -307h-166zM387 446h442l-100 256q-117 292 -117 308h-6q0 -8 -123 -322zM504 1257l213 330l137 -45l-195 -285h-155z" />
<glyph unicode="&#xe2;" horiz-adv-x="1220" d="M47 0l469 1147h189l469 -1147h-168l-121 307h-553l-119 -307h-166zM375 1360l237 235l238 -237l-84 -90l-154 159l-153 -157zM387 446h442l-100 256q-117 292 -117 308h-6q0 -8 -123 -322z" />
<glyph unicode="&#xe3;" horiz-adv-x="1220" d="M47 0l469 1147h189l469 -1147h-168l-121 307h-553l-119 -307h-166zM315 1442q14 24 53 46.5t93 22.5q53 0 136 -35.5t138 -35.5q30 0 57.5 10.5t37 18t28.5 24.5l33 -123q-12 -20 -51.5 -41.5t-91.5 -21.5q-55 0 -140 34.5t-135 34.5q-75 0 -125 -57zM387 446h442 l-100 256q-117 292 -117 308h-6q0 -8 -123 -322z" />
<glyph unicode="&#xe4;" horiz-adv-x="1220" d="M47 0l469 1147h189l469 -1147h-168l-121 307h-553l-119 -307h-166zM326 1397q0 40 27 68t67 28q38 0 66 -28t28 -68q0 -38 -28 -66t-68 -28q-38 0 -65 28t-27 66zM387 446h442l-100 256q-117 292 -117 308h-6q0 -8 -123 -322zM711 1397q0 40 28 68t68 28q38 0 66 -28 t28 -68q0 -38 -28 -66t-66 -28q-40 0 -68 28t-28 66z" />
<glyph unicode="&#xe5;" horiz-adv-x="1220" d="M47 0l469 1147h189l469 -1147h-168l-121 307h-553l-119 -307h-166zM387 446h442l-100 256q-117 292 -117 308h-6q0 -8 -123 -322zM403 1419q0 86 58 138.5t151 52.5t151 -52.5t58 -138.5q0 -87 -58 -139.5t-151 -52.5t-151 52.5t-58 139.5zM514 1419q0 -43 27 -68.5 t71 -25.5t71.5 25.5t27.5 68.5q0 41 -27.5 66.5t-71.5 25.5t-71 -25.5t-27 -66.5z" />
<glyph unicode="&#xe6;" horiz-adv-x="1669" d="M47 0l471 1147h240h798v-150h-645v-331h500v-146h-500v-370h656v-150h-809v299h-428l-119 -299h-164zM385 438h373v563h-152z" />
<glyph unicode="&#xe7;" horiz-adv-x="1320" d="M78 573q0 169 78.5 305.5t217 213.5t310.5 77q117 0 220 -36t187.5 -113.5t131.5 -188.5l-152 -40q-12 21 -17.5 29.5t-26.5 37t-39.5 45.5t-51.5 42.5t-67 40t-82 25.5t-101 11q-195 0 -320.5 -125.5t-125.5 -323.5q0 -199 126 -324.5t318 -125.5q135 0 236 63t157 166 l154 -41q-64 -134 -181 -220t-270 -107q164 -33 164 -166q0 -84 -64 -129t-186 -45q-111 0 -170 32v115q53 -31 148 -31q147 0 147 78q0 46 -54.5 66t-174.5 22v58q-227 31 -369.5 193.5t-142.5 395.5z" />
<glyph unicode="&#xe8;" horiz-adv-x="1075" d="M158 0v1147h805v-150h-646v-331h498v-146h-498v-370h656v-150h-815zM309 1542l140 45l213 -330h-158z" />
<glyph unicode="&#xe9;" horiz-adv-x="1075" d="M158 0v1147h805v-150h-646v-331h498v-146h-498v-370h656v-150h-815zM455 1257l213 330l137 -45l-195 -285h-155z" />
<glyph unicode="&#xea;" horiz-adv-x="1075" d="M158 0v1147h805v-150h-646v-331h498v-146h-498v-370h656v-150h-815zM266 1354l293 241l293 -241l-78 -94l-215 180l-215 -178z" />
<glyph unicode="&#xeb;" horiz-adv-x="1075" d="M158 0v1147h805v-150h-646v-331h498v-146h-498v-370h656v-150h-815zM276 1397q0 40 27.5 68t67.5 28q38 0 66 -28t28 -68q0 -38 -28 -66t-68 -28q-38 0 -65.5 28t-27.5 66zM662 1397q0 40 28 68t68 28q38 0 66 -28t28 -68q0 -38 -28 -66t-66 -28q-40 0 -68 28t-28 66z " />
<glyph unicode="&#xec;" horiz-adv-x="475" d="M-14 1542l137 45l213 -330h-156zM158 0v1147h159v-1147h-159z" />
<glyph unicode="&#xed;" horiz-adv-x="475" d="M131 1257l213 330l137 -45l-194 -285h-156zM158 0v1147h159v-1147h-159z" />
<glyph unicode="&#xee;" horiz-adv-x="475" d="M2 1360l238 235l235 -237l-82 -90l-153 159l-156 -157zM158 0v1147h159v-1147h-159z" />
<glyph unicode="&#xef;" horiz-adv-x="475" d="M20 1397q0 40 27.5 68t67.5 28q38 0 66 -28t28 -68q0 -38 -28 -66t-68 -28q-38 0 -65.5 28t-27.5 66zM158 0v1147h159v-1147h-159zM270 1397q0 40 27.5 68t67.5 28q38 0 66 -28t28 -68q0 -38 -28 -66t-66 -28q-39 0 -67 27.5t-28 66.5z" />
<glyph unicode="&#xf0;" horiz-adv-x="1265" d="M23 518v144h135v485h395q282 0 458.5 -156.5t176.5 -421.5q0 -175 -81.5 -305.5t-222 -197t-321.5 -66.5h-405v518h-135zM317 150h242q212 0 339.5 107.5t127.5 311.5q0 205 -128.5 316.5t-346.5 111.5h-234v-335h355v-144h-355v-368z" />
<glyph unicode="&#xf1;" horiz-adv-x="1290" d="M158 0v1147h164l649 -889h4v8q0 7 -0.5 19.5t-0.5 30v39.5t-0.5 45t-0.5 50.5v53.5v643h160v-1147h-164l-652 903h-4v-7q0 -8 0.5 -22t1 -32t1 -41.5t1 -48t0.5 -54v-57.5v-641h-159zM340 1442q15 24 53 46.5t92 22.5q53 0 136.5 -35.5t138.5 -35.5q30 0 57.5 10.5t37 18 t28.5 24.5l32 -123q-12 -20 -51.5 -41.5t-91.5 -21.5q-55 0 -139.5 34.5t-134.5 34.5q-75 0 -125 -57z" />
<glyph unicode="&#xf2;" horiz-adv-x="1361" d="M78 571q0 171 79.5 308.5t217 213.5t305.5 76t305.5 -76t217 -213.5t79.5 -308.5q0 -127 -46.5 -238t-126.5 -189.5t-191.5 -123.5t-237.5 -45t-237.5 45t-191.5 123.5t-126.5 189.5t-46.5 238zM240 571q0 -196 125.5 -322t314.5 -126t314.5 126t125.5 322 q0 199 -125 325t-315 126t-315 -126t-125 -325zM428 1542l139 45l213 -330h-155z" />
<glyph unicode="&#xf3;" horiz-adv-x="1361" d="M78 571q0 171 79.5 308.5t217 213.5t305.5 76t305.5 -76t217 -213.5t79.5 -308.5q0 -127 -46.5 -238t-126.5 -189.5t-191.5 -123.5t-237.5 -45t-237.5 45t-191.5 123.5t-126.5 189.5t-46.5 238zM240 571q0 -196 125.5 -322t314.5 -126t314.5 126t125.5 322 q0 199 -125 325t-315 126t-315 -126t-125 -325zM573 1257l213 330l138 -45l-195 -285h-156z" />
<glyph unicode="&#xf4;" horiz-adv-x="1361" d="M78 571q0 171 79.5 308.5t217 213.5t305.5 76t305.5 -76t217 -213.5t79.5 -308.5q0 -127 -46.5 -238t-126.5 -189.5t-191.5 -123.5t-237.5 -45t-237.5 45t-191.5 123.5t-126.5 189.5t-46.5 238zM240 571q0 -196 125.5 -322t314.5 -126t314.5 126t125.5 322 q0 199 -125 325t-315 126t-315 -126t-125 -325zM385 1354l293 241l293 -241l-78 -94l-215 180l-215 -178z" />
<glyph unicode="&#xf5;" horiz-adv-x="1361" d="M78 571q0 171 79.5 308.5t217 213.5t305.5 76t305.5 -76t217 -213.5t79.5 -308.5q0 -127 -46.5 -238t-126.5 -189.5t-191.5 -123.5t-237.5 -45t-237.5 45t-191.5 123.5t-126.5 189.5t-46.5 238zM240 571q0 -196 125.5 -322t314.5 -126t314.5 126t125.5 322 q0 199 -125 325t-315 126t-315 -126t-125 -325zM385 1442q15 24 53 46.5t92 22.5q53 0 136.5 -35.5t138.5 -35.5q30 0 57.5 10.5t37 18t28.5 24.5l33 -123q-12 -20 -52 -41.5t-92 -21.5q-55 0 -139.5 34.5t-134.5 34.5q-75 0 -125 -57z" />
<glyph unicode="&#xf6;" horiz-adv-x="1361" d="M78 571q0 171 79.5 308.5t217 213.5t305.5 76t305.5 -76t217 -213.5t79.5 -308.5q0 -127 -46.5 -238t-126.5 -189.5t-191.5 -123.5t-237.5 -45t-237.5 45t-191.5 123.5t-126.5 189.5t-46.5 238zM240 571q0 -196 125.5 -322t314.5 -126t314.5 126t125.5 322 q0 199 -125 325t-315 126t-315 -126t-125 -325zM395 1397q0 40 27 68t67 28q39 0 67 -28.5t28 -67.5q0 -38 -28.5 -66t-68.5 -28q-38 0 -65 28t-27 66zM780 1397q0 40 28.5 68t68.5 28q38 0 66 -28t28 -68q0 -38 -28 -66t-66 -28q-40 0 -68.5 28t-28.5 66z" />
<glyph unicode="&#xf7;" d="M295 520v142h778v-142h-778zM573 217q0 44 29.5 73t81.5 29q53 0 82 -29t29 -73q0 -46 -29.5 -75t-81.5 -29t-81.5 29.5t-29.5 74.5zM573 975q0 44 29.5 73t81.5 29q53 0 82 -29t29 -73q0 -46 -29.5 -75.5t-81.5 -29.5t-81.5 30t-29.5 75z" />
<glyph unicode="&#xf8;" horiz-adv-x="1361" d="M78 571q0 171 79.5 308.5t217 213.5t305.5 76q172 0 305 -77l121 155l119 -88l-121 -153q85 -81 131.5 -193t46.5 -242q0 -127 -46.5 -238t-126.5 -189.5t-191.5 -123.5t-237.5 -45q-174 0 -313 82l-117 -153l-119 90l119 151q-81 81 -126.5 190.5t-45.5 235.5zM240 571 q0 -179 106 -301l547 701q-97 51 -213 51q-190 0 -315 -126t-125 -325zM461 178q99 -55 219 -55q189 0 314.5 126t125.5 322q0 187 -110 310z" />
<glyph unicode="&#xf9;" horiz-adv-x="1251" d="M139 494v653h162v-670q0 -179 80.5 -266.5t245.5 -87.5t245 87.5t80 266.5v670h160v-653q0 -258 -125.5 -388.5t-361.5 -130.5t-361 130.5t-125 388.5zM377 1542l139 45l213 -330h-158z" />
<glyph unicode="&#xfa;" horiz-adv-x="1251" d="M139 494v653h162v-670q0 -179 80.5 -266.5t245.5 -87.5t245 87.5t80 266.5v670h160v-653q0 -258 -125.5 -388.5t-361.5 -130.5t-361 130.5t-125 388.5zM522 1257l213 330l137 -45l-194 -285h-156z" />
<glyph unicode="&#xfb;" horiz-adv-x="1251" d="M139 494v653h162v-670q0 -179 80.5 -266.5t245.5 -87.5t245 87.5t80 266.5v670h160v-653q0 -258 -125.5 -388.5t-361.5 -130.5t-361 130.5t-125 388.5zM334 1354l293 241l293 -241l-78 -94l-215 180l-215 -178z" />
<glyph unicode="&#xfc;" horiz-adv-x="1251" d="M139 494v653h162v-670q0 -179 80.5 -266.5t245.5 -87.5t245 87.5t80 266.5v670h160v-653q0 -258 -125.5 -388.5t-361.5 -130.5t-361 130.5t-125 388.5zM344 1397q0 40 27 68t67 28q38 0 66 -28t28 -68q0 -38 -28 -66t-68 -28q-38 0 -65 28t-27 66zM729 1397q0 40 28 68 t68 28q39 0 67 -28.5t28 -67.5q0 -38 -28.5 -66t-66.5 -28q-40 0 -68 28t-28 66z" />
<glyph unicode="&#xfd;" horiz-adv-x="1107" d="M35 1147h182l184 -281q40 -59 79.5 -119.5t59.5 -90.5l19 -31h4q1 1 20 30t60 92t80 121l182 279h168l-440 -674v-473h-160v473zM461 1257l213 330l137 -45l-195 -285h-155z" />
<glyph unicode="&#xfe;" horiz-adv-x="972" d="M158 0v1147h159v-244h160q215 0 328 -82t113 -246q0 -158 -113 -237.5t-328 -79.5h-160v-258h-159zM317 389h164q141 0 208 43t67 141q0 97 -68 141t-207 44h-164v-369z" />
<glyph unicode="&#xff;" horiz-adv-x="1107" d="M35 1147h182l184 -281q40 -59 79.5 -119.5t59.5 -90.5l19 -31h4q1 1 20 30t60 92t80 121l182 279h168l-440 -674v-473h-160v473zM281 1397q0 40 28 68t68 28q38 0 65 -28t27 -68q0 -39 -27.5 -66.5t-66.5 -27.5q-38 0 -66 28t-28 66zM668 1397q0 40 27 68t67 28t67 -28 t27 -68q0 -39 -27.5 -66.5t-66.5 -27.5t-66.5 27.5t-27.5 66.5z" />
<glyph unicode="&#x100;" horiz-adv-x="1499" d="M47 0l610 1434h183l610 -1434h-178l-160 381h-727l-160 -381h-178zM449 532h600l-158 375q-20 47 -58 139t-60 144t-23 53h-5q-3 -3 -139 -334zM449 1587v142h598v-142h-598z" />
<glyph unicode="&#x101;" horiz-adv-x="1220" d="M47 0l469 1147h189l469 -1147h-168l-121 307h-553l-119 -307h-166zM313 1300v142h598v-142h-598zM387 446h442l-100 256q-117 292 -117 308h-6q0 -8 -123 -322z" />
<glyph unicode="&#x102;" horiz-adv-x="1499" d="M47 0l610 1434h183l610 -1434h-178l-160 381h-727l-160 -381h-178zM430 1786h129q5 -64 54.5 -108t134.5 -44q86 0 135.5 45t52.5 107h129q-5 -114 -93 -189t-224 -75t-224 73.5t-94 190.5zM449 532h600l-158 375q-20 47 -58 139t-60 144t-23 53h-5q-3 -3 -139 -334z" />
<glyph unicode="&#x103;" horiz-adv-x="1220" d="M47 0l469 1147h189l469 -1147h-168l-121 307h-553l-119 -307h-166zM293 1499h131q3 -64 52.5 -107.5t135.5 -43.5t136 44.5t53 106.5h129q-6 -114 -94 -189t-224 -75q-137 0 -224 73t-95 191zM387 446h442l-100 256q-117 292 -117 308h-6q0 -8 -123 -322z" />
<glyph unicode="&#x104;" horiz-adv-x="1499" d="M47 0l610 1434h183l610 -1434h-90q-279 0 -279 -123q0 -52 42.5 -76t111.5 -24q128 0 197 35v-127q-82 -37 -209 -37q-54 0 -103 12.5t-89.5 38.5t-64.5 70t-24 102q0 38 12.5 74t42 72t87.5 63t139 37l-111 264h-727l-160 -381h-178zM449 532h600l-158 375 q-20 47 -58 139t-60 144t-23 53h-5q-3 -3 -139 -334z" />
<glyph unicode="&#x105;" horiz-adv-x="1220" d="M47 0l469 1147h189l469 -1147h-76q-277 0 -277 -123q0 -100 154 -100q125 0 194 35v-127q-79 -37 -208 -37q-54 0 -103 12.5t-89.5 38.5t-64.5 70t-24 102q0 38 12.5 74t42 72t87.5 63t139 37l-76 190h-553l-119 -307h-166zM387 446h442l-100 256q-117 292 -117 308h-6 q0 -8 -123 -322z" />
<glyph unicode="&#x106;" horiz-adv-x="1574" d="M78 721q0 166 56.5 305.5t154.5 234.5t233.5 148t292.5 53q237 0 408 -111t243 -280l-161 -45q-19 34 -43 67t-68 73t-95 69.5t-127 49.5t-161 20q-252 0 -408.5 -159.5t-156.5 -426.5q0 -133 43.5 -244t119 -185.5t178 -115.5t220.5 -41q174 0 311 84t205 229l162 -43 q-83 -201 -262.5 -315.5t-407.5 -114.5q-208 0 -375.5 91.5t-264.5 263t-97 393.5zM707 1544l213 330l137 -45l-195 -285h-155z" />
<glyph unicode="&#x107;" horiz-adv-x="1320" d="M78 573q0 169 78.5 305.5t217 213.5t310.5 77q117 0 220 -36t187.5 -113.5t131.5 -188.5l-152 -40q-12 21 -17.5 29.5t-26.5 37t-39.5 45.5t-51.5 42.5t-67 40t-82 25.5t-101 11q-195 0 -320.5 -125.5t-125.5 -323.5q0 -199 126 -324.5t318 -125.5q135 0 236 63t157 166 l154 -41q-74 -154 -217 -245t-328 -91q-173 0 -312 77t-217.5 213.5t-78.5 307.5zM571 1257l213 330l138 -45l-195 -285h-156z" />
<glyph unicode="&#x108;" horiz-adv-x="1574" d="M78 721q0 166 56.5 305.5t154.5 234.5t233.5 148t292.5 53q237 0 408 -111t243 -280l-161 -45q-19 34 -43 67t-68 73t-95 69.5t-127 49.5t-161 20q-252 0 -408.5 -159.5t-156.5 -426.5q0 -133 43.5 -244t119 -185.5t178 -115.5t220.5 -41q174 0 311 84t205 229l162 -43 q-83 -201 -262.5 -315.5t-407.5 -114.5q-208 0 -375.5 91.5t-264.5 263t-97 393.5zM518 1640l293 242l293 -242l-78 -94l-215 180l-215 -178z" />
<glyph unicode="&#x109;" horiz-adv-x="1320" d="M78 573q0 169 78.5 305.5t217 213.5t310.5 77q117 0 220 -36t187.5 -113.5t131.5 -188.5l-152 -40q-12 21 -17.5 29.5t-26.5 37t-39.5 45.5t-51.5 42.5t-67 40t-82 25.5t-101 11q-195 0 -320.5 -125.5t-125.5 -323.5q0 -199 126 -324.5t318 -125.5q135 0 236 63t157 166 l154 -41q-74 -154 -217 -245t-328 -91q-173 0 -312 77t-217.5 213.5t-78.5 307.5zM383 1354l293 241l293 -241l-78 -94l-215 180l-215 -178z" />
<glyph unicode="&#x10a;" horiz-adv-x="1574" d="M78 721q0 166 56.5 305.5t154.5 234.5t233.5 148t292.5 53q237 0 408 -111t243 -280l-161 -45q-19 34 -43 67t-68 73t-95 69.5t-127 49.5t-161 20q-252 0 -408.5 -159.5t-156.5 -426.5q0 -133 43.5 -244t119 -185.5t178 -115.5t220.5 -41q174 0 311 84t205 229l162 -43 q-83 -201 -262.5 -315.5t-407.5 -114.5q-208 0 -375.5 91.5t-264.5 263t-97 393.5zM721 1683q0 40 27.5 68.5t66.5 28.5t66.5 -28.5t27.5 -68.5q0 -39 -27.5 -66.5t-66.5 -27.5t-66.5 27.5t-27.5 66.5z" />
<glyph unicode="&#x10b;" horiz-adv-x="1320" d="M78 573q0 169 78.5 305.5t217 213.5t310.5 77q117 0 220 -36t187.5 -113.5t131.5 -188.5l-152 -40q-12 21 -17.5 29.5t-26.5 37t-39.5 45.5t-51.5 42.5t-67 40t-82 25.5t-101 11q-195 0 -320.5 -125.5t-125.5 -323.5q0 -199 126 -324.5t318 -125.5q135 0 236 63t157 166 l154 -41q-74 -154 -217 -245t-328 -91q-173 0 -312 77t-217.5 213.5t-78.5 307.5zM586 1397q0 40 27 68t67 28t67 -28t27 -68q0 -39 -27.5 -66.5t-66.5 -27.5t-66.5 27.5t-27.5 66.5z" />
<glyph unicode="&#x10c;" horiz-adv-x="1574" d="M78 721q0 166 56.5 305.5t154.5 234.5t233.5 148t292.5 53q237 0 408 -111t243 -280l-161 -45q-19 34 -43 67t-68 73t-95 69.5t-127 49.5t-161 20q-252 0 -408.5 -159.5t-156.5 -426.5q0 -133 43.5 -244t119 -185.5t178 -115.5t220.5 -41q174 0 311 84t205 229l162 -43 q-83 -201 -262.5 -315.5t-407.5 -114.5q-208 0 -375.5 91.5t-264.5 263t-97 393.5zM522 1782l80 92l215 -176l215 176l78 -92l-293 -238z" />
<glyph unicode="&#x10d;" horiz-adv-x="1320" d="M78 573q0 169 78.5 305.5t217 213.5t310.5 77q117 0 220 -36t187.5 -113.5t131.5 -188.5l-152 -40q-12 21 -17.5 29.5t-26.5 37t-39.5 45.5t-51.5 42.5t-67 40t-82 25.5t-101 11q-195 0 -320.5 -125.5t-125.5 -323.5q0 -199 126 -324.5t318 -125.5q135 0 236 63t157 166 l154 -41q-74 -154 -217 -245t-328 -91q-173 0 -312 77t-217.5 213.5t-78.5 307.5zM387 1495l80 92l215 -176l215 176l78 -92l-293 -238z" />
<glyph unicode="&#x10e;" horiz-adv-x="1492" d="M158 0v1434h495q221 0 393.5 -87.5t270.5 -253t98 -382.5q0 -163 -56.5 -297t-156.5 -224.5t-237 -140t-297 -49.5h-510zM324 156h335q122 0 227 35t186.5 102t128 174.5t46.5 243.5t-46.5 244.5t-128.5 178.5t-190.5 107t-234.5 37h-323v-1122zM428 1782l78 92l215 -176 l215 176l80 -92l-295 -238z" />
<glyph unicode="&#x10f;" horiz-adv-x="1265" d="M158 0v1147h395q282 0 458.5 -156.5t176.5 -421.5q0 -175 -81.5 -305.5t-222 -197t-321.5 -66.5h-405zM313 1495l80 92l215 -176l215 176l78 -92l-293 -238zM317 150h242q212 0 339.5 107.5t127.5 311.5q0 205 -128.5 316.5t-346.5 111.5h-234v-847z" />
<glyph unicode="&#x110;" horiz-adv-x="1492" d="M23 674v149h135v611h495q221 0 393.5 -87.5t270.5 -253t98 -382.5q0 -163 -56.5 -297t-156.5 -224.5t-237 -140t-297 -49.5h-510v674h-135zM324 156h335q122 0 227 35t186.5 102t128 174.5t46.5 243.5t-46.5 244.5t-128.5 178.5t-190.5 107t-234.5 37h-323v-455h362v-149 h-362v-518z" />
<glyph unicode="&#x111;" horiz-adv-x="1265" d="M23 518v144h135v485h395q282 0 458.5 -156.5t176.5 -421.5q0 -175 -81.5 -305.5t-222 -197t-321.5 -66.5h-405v518h-135zM317 150h242q212 0 339.5 107.5t127.5 311.5q0 205 -128.5 316.5t-346.5 111.5h-234v-335h355v-144h-355v-368z" />
<glyph unicode="&#x112;" horiz-adv-x="1228" d="M158 0v1434h964v-156h-798v-451h622v-155h-622v-516h802v-156h-968zM348 1587v142h598v-142h-598z" />
<glyph unicode="&#x113;" horiz-adv-x="1075" d="M158 0v1147h805v-150h-646v-331h498v-146h-498v-370h656v-150h-815zM264 1300v142h598v-142h-598z" />
<glyph unicode="&#x116;" horiz-adv-x="1228" d="M158 0v1434h964v-156h-798v-451h622v-155h-622v-516h802v-156h-968zM551 1683q0 40 28 68.5t68 28.5q38 0 66 -28.5t28 -68.5q0 -38 -28 -66t-66 -28q-40 0 -68 28t-28 66z" />
<glyph unicode="&#x117;" horiz-adv-x="1075" d="M158 0v1147h805v-150h-646v-331h498v-146h-498v-370h656v-150h-815zM469 1397q0 40 27 68t67 28t67 -28t27 -68q0 -39 -27.5 -66.5t-66.5 -27.5t-66.5 27.5t-27.5 66.5z" />
<glyph unicode="&#x118;" horiz-adv-x="1228" d="M158 0v1434h964v-156h-798v-451h622v-155h-622v-516h802v-156h-65q-197 -16 -197 -123q0 -102 129 -102q102 0 158 35v-127q-65 -35 -168 -35q-113 0 -185.5 58.5t-72.5 152.5q0 84 57 141h-624z" />
<glyph unicode="&#x119;" horiz-adv-x="1075" d="M158 0v1147h805v-150h-646v-331h498v-146h-498v-370h656v-150h-96q-197 -16 -197 -123q0 -50 34 -76t95 -26q101 0 160 35v-127q-65 -35 -170 -35q-113 0 -184.5 58t-71.5 153q0 83 55 141h-440z" />
<glyph unicode="&#x11a;" horiz-adv-x="1228" d="M158 0v1434h964v-156h-798v-451h622v-155h-622v-516h802v-156h-968zM354 1782l78 92l215 -176l215 176l80 -92l-295 -238z" />
<glyph unicode="&#x11b;" horiz-adv-x="1075" d="M158 0v1147h805v-150h-646v-331h498v-146h-498v-370h656v-150h-815zM270 1495l80 92l215 -176l215 176l78 -92l-293 -238z" />
<glyph unicode="&#x11c;" horiz-adv-x="1617" d="M78 719q0 167 56.5 307t155.5 235t235.5 148t293.5 53q235 0 407 -111t244 -280l-163 -45q-17 32 -39 63t-65.5 72.5t-94.5 71.5t-128 51t-165 21q-252 0 -410.5 -159.5t-158.5 -424.5q0 -268 163 -428t414 -160q96 0 185.5 24.5t153.5 64t109 82.5t68 85v205h-426v156 h582v-750h-149q0 72 0.5 119t1 66t0.5 22h-5q-32 -37 -74.5 -71.5t-108.5 -74.5t-156.5 -64t-190.5 -24q-152 0 -286.5 53.5t-234 149.5t-157 237t-57.5 306zM518 1640l293 242l293 -242l-78 -94l-215 180l-215 -178z" />
<glyph unicode="&#x11d;" horiz-adv-x="1376" d="M78 573q0 170 78.5 306.5t216.5 213t309 76.5q83 0 161.5 -19.5t151.5 -58.5t133 -105.5t97 -154.5l-148 -38q-45 95 -146.5 163t-244.5 68q-196 0 -321 -125t-125 -328q0 -199 128 -323.5t334 -124.5q136 0 250 58.5t156 127.5v146h-348v143h493v-598h-143v67.5t0.5 48 t1 29t0.5 17v6.5h-4q-25 -31 -58.5 -59t-86 -61t-126.5 -53t-157 -20q-170 0 -307.5 77t-216 214t-78.5 307zM375 1354l295 241l291 -241l-78 -94l-213 180l-215 -178z" />
<glyph unicode="&#x11e;" horiz-adv-x="1617" d="M78 719q0 167 56.5 307t155.5 235t235.5 148t293.5 53q235 0 407 -111t244 -280l-163 -45q-17 32 -39 63t-65.5 72.5t-94.5 71.5t-128 51t-165 21q-252 0 -410.5 -159.5t-158.5 -424.5q0 -268 163 -428t414 -160q96 0 185.5 24.5t153.5 64t109 82.5t68 85v205h-426v156 h582v-750h-149q0 72 0.5 119t1 66t0.5 22h-5q-32 -37 -74.5 -71.5t-108.5 -74.5t-156.5 -64t-190.5 -24q-152 0 -286.5 53.5t-234 149.5t-157 237t-57.5 306zM496 1786h131q3 -64 52.5 -108t135.5 -44t136 45t53 107h129q-6 -114 -94 -189t-224 -75q-137 0 -224 73t-95 191z " />
<glyph unicode="&#x11f;" horiz-adv-x="1376" d="M78 573q0 170 78.5 306.5t216.5 213t309 76.5q83 0 161.5 -19.5t151.5 -58.5t133 -105.5t97 -154.5l-148 -38q-45 95 -146.5 163t-244.5 68q-196 0 -321 -125t-125 -328q0 -199 128 -323.5t334 -124.5q136 0 250 58.5t156 127.5v146h-348v143h493v-598h-143v67.5t0.5 48 t1 29t0.5 17v6.5h-4q-25 -31 -58.5 -59t-86 -61t-126.5 -53t-157 -20q-170 0 -307.5 77t-216 214t-78.5 307zM354 1499h129q5 -64 54.5 -107.5t134.5 -43.5q86 0 135.5 44.5t52.5 106.5h129q-5 -114 -93 -189t-224 -75t-224 73.5t-94 190.5z" />
<glyph unicode="&#x120;" horiz-adv-x="1617" d="M78 719q0 167 56.5 307t155.5 235t235.5 148t293.5 53q235 0 407 -111t244 -280l-163 -45q-17 32 -39 63t-65.5 72.5t-94.5 71.5t-128 51t-165 21q-252 0 -410.5 -159.5t-158.5 -424.5q0 -268 163 -428t414 -160q96 0 185.5 24.5t153.5 64t109 82.5t68 85v205h-426v156 h582v-750h-149q0 72 0.5 119t1 66t0.5 22h-5q-32 -37 -74.5 -71.5t-108.5 -74.5t-156.5 -64t-190.5 -24q-152 0 -286.5 53.5t-234 149.5t-157 237t-57.5 306zM721 1683q0 40 27.5 68.5t66.5 28.5t66.5 -28.5t27.5 -68.5q0 -39 -27.5 -66.5t-66.5 -27.5t-66.5 27.5 t-27.5 66.5z" />
<glyph unicode="&#x121;" horiz-adv-x="1376" d="M78 573q0 170 78.5 306.5t216.5 213t309 76.5q83 0 161.5 -19.5t151.5 -58.5t133 -105.5t97 -154.5l-148 -38q-45 95 -146.5 163t-244.5 68q-196 0 -321 -125t-125 -328q0 -199 128 -323.5t334 -124.5q136 0 250 58.5t156 127.5v146h-348v143h493v-598h-143v67.5t0.5 48 t1 29t0.5 17v6.5h-4q-25 -31 -58.5 -59t-86 -61t-126.5 -53t-157 -20q-170 0 -307.5 77t-216 214t-78.5 307zM578 1397q0 40 28 68t66 28q40 0 68 -28t28 -68q0 -38 -28 -66t-68 -28q-38 0 -66 28t-28 66z" />
<glyph unicode="&#x122;" horiz-adv-x="1617" d="M78 719q0 167 56.5 307t155.5 235t235.5 148t293.5 53q235 0 407 -111t244 -280l-163 -45q-17 32 -39 63t-65.5 72.5t-94.5 71.5t-128 51t-165 21q-252 0 -410.5 -159.5t-158.5 -424.5q0 -268 163 -428t414 -160q96 0 185.5 24.5t153.5 64t109 82.5t68 85v205h-426v156 h582v-750h-149q0 72 0.5 119t1 66t0.5 22h-5q-32 -37 -74.5 -71.5t-108.5 -74.5t-156.5 -64t-190.5 -24q-152 0 -286.5 53.5t-234 149.5t-157 237t-57.5 306zM717 -326q34 12 66 45.5t40 63.5q-39 -7 -65.5 14.5t-26.5 57.5q0 40 28 64t77 24q48 0 76 -28.5t28 -82.5 q0 -72 -44 -132.5t-126 -90.5z" />
<glyph unicode="&#x123;" horiz-adv-x="1376" d="M78 573q0 170 78.5 306.5t216.5 213t309 76.5q83 0 161.5 -19.5t151.5 -58.5t133 -105.5t97 -154.5l-148 -38q-45 95 -146.5 163t-244.5 68q-196 0 -321 -125t-125 -328q0 -199 128 -323.5t334 -124.5q136 0 250 58.5t156 127.5v146h-348v143h493v-598h-143v67.5t0.5 48 t1 29t0.5 17v6.5h-4q-25 -31 -58.5 -59t-86 -61t-126.5 -53t-157 -20q-170 0 -307.5 77t-216 214t-78.5 307zM594 -326q36 12 68 45.5t40 63.5q-40 -7 -66 14.5t-26 57.5q0 40 28 64t75 24q49 0 77.5 -28.5t28.5 -82.5q0 -71 -44.5 -132t-125.5 -91z" />
<glyph unicode="&#x124;" horiz-adv-x="1437" d="M158 0v1434h166v-605h790v605h168v-1434h-168v670h-790v-670h-166zM426 1640l293 242l293 -242l-80 -94l-213 180l-215 -178z" />
<glyph unicode="&#x125;" horiz-adv-x="1261" d="M158 0v1147h159v-481h629v481h160v-1147h-160v516h-629v-516h-159zM334 1354l295 241l291 -241l-78 -94l-213 180l-215 -178z" />
<glyph unicode="&#x126;" horiz-adv-x="1509" d="M41 1024v141h152v269h167v-269h789v269h168v-269h151v-141h-151v-1024h-168v631h-789v-631h-167v1024h-152zM360 791h789v233h-789v-233z" />
<glyph unicode="&#x127;" horiz-adv-x="1306" d="M55 823v129h123v195h160v-195h629v195h159v-195h125v-129h-125v-823h-159v518h-629v-518h-160v823h-123zM338 664h629v159h-629v-159z" />
<glyph unicode="&#x12a;" horiz-adv-x="481" d="M20 1587v139h443v-139h-443zM158 0v1434h166v-1434h-166z" />
<glyph unicode="&#x12b;" horiz-adv-x="475" d="M18 1300v140h443v-140h-443zM158 0v1147h159v-1147h-159z" />
<glyph unicode="&#x12e;" horiz-adv-x="481" d="M23 -139q0 67 33 125.5t102 91.5v1356h166v-1434q-81 -5 -125.5 -37t-44.5 -88q0 -47 29 -73.5t85 -26.5q88 0 138 35v-127q-58 -35 -154 -35q-100 0 -164.5 58t-64.5 155z" />
<glyph unicode="&#x12f;" horiz-adv-x="475" d="M0 -139q0 71 38.5 133t119.5 94v1059h159v-1147h-14q-81 -5 -126.5 -37t-45.5 -88q0 -47 29.5 -73.5t85.5 -26.5q86 0 139 35v-127q-58 -35 -154 -35q-100 0 -165.5 58.5t-65.5 154.5z" />
<glyph unicode="&#x130;" horiz-adv-x="481" d="M147 1683q0 40 27.5 68.5t67.5 28.5q39 0 66.5 -28.5t27.5 -68.5q0 -39 -27.5 -66.5t-66.5 -27.5q-40 0 -67.5 27.5t-27.5 66.5zM158 0v1434h166v-1434h-166z" />
<glyph unicode="&#x131;" horiz-adv-x="475" d="M158 0v1147h159v-1147h-159z" />
<glyph unicode="&#x132;" horiz-adv-x="1507" d="M158 0v1434h166v-1434h-166zM508 137l94 131q106 -135 266 -135q169 0 246.5 111.5t77.5 337.5v852h170v-861q0 -290 -126 -445t-368 -155q-222 0 -360 164z" />
<glyph unicode="&#x133;" horiz-adv-x="1355" d="M158 0v1147h159v-1147h-159zM489 102l86 117q84 -96 218 -96q135 0 196.5 86t61.5 260v678h159v-684q0 -236 -107 -362t-310 -126q-195 0 -304 127z" />
<glyph unicode="&#x134;" horiz-adv-x="999" d="M0 137l94 131q106 -135 266 -135q169 0 246.5 111.5t77.5 337.5v852h168v-861q0 -291 -125.5 -445.5t-366.5 -154.5q-225 0 -360 164zM477 1640l293 242l293 -242l-78 -94l-215 180l-215 -178z" />
<glyph unicode="&#x135;" horiz-adv-x="868" d="M0 102l88 117q84 -96 215 -96q135 0 196.5 86t61.5 260v678h160v-684q0 -235 -107 -361.5t-309 -126.5q-193 0 -305 127zM346 1354l293 241l291 -241l-78 -94l-213 180l-215 -178z" />
<glyph unicode="&#x136;" horiz-adv-x="1329" d="M158 0v1434h166v-447v-309h4l233 248l477 508h201l-539 -574l594 -862l-196 2l-520 741l-254 -264v-477h-166zM557 -326q35 12 67 45.5t40 63.5q-39 -7 -66 14.5t-27 57.5q0 40 28 64t77 24q48 0 76 -28.5t28 -82.5q0 -72 -44 -132.5t-126 -90.5z" />
<glyph unicode="&#x137;" horiz-adv-x="1167" d="M158 0v1147h159v-326v-65.5t-0.5 -58t-0.5 -49v-40.5t-0.5 -29.5t-0.5 -18.5v-7h4q61 64 156 162l418 432h203l-445 -457l482 -690h-185l-416 584l-215 -222v-362h-159zM492 -326q34 12 66 45.5t40 63.5q-39 -7 -65.5 14.5t-26.5 57.5q0 40 27.5 64t76.5 24t77 -28.5 t28 -82.5q0 -71 -44.5 -132t-125.5 -91z" />
<glyph unicode="&#x139;" horiz-adv-x="1155" d="M123 1544l213 330l137 -45l-194 -285h-156zM158 0v1434h166v-1278h755v-156h-921z" />
<glyph unicode="&#x13a;" horiz-adv-x="989" d="M158 0v1147h159v-997h598v-150h-757zM158 1257l213 330l137 -45l-195 -285h-155z" />
<glyph unicode="&#x13b;" horiz-adv-x="1155" d="M158 0v1434h166v-1278h755v-156h-921zM473 -326q35 12 67 45.5t40 63.5q-39 -7 -66 14.5t-27 57.5q0 40 28 64t77 24q48 0 76 -28.5t28 -82.5q0 -72 -44 -132.5t-126 -90.5z" />
<glyph unicode="&#x13c;" horiz-adv-x="989" d="M158 0v1147h159v-997h598v-150h-757zM414 -326q36 12 68 45.5t40 63.5q-40 -7 -66 14.5t-26 57.5q0 40 27.5 64t74.5 24q49 0 78 -28.5t29 -82.5q0 -71 -44.5 -132t-125.5 -91z" />
<glyph unicode="&#x13d;" horiz-adv-x="1155" d="M158 0v1434h166v-1278h755v-156h-921zM670 1032q30 62 55 183t25 219h135q1 -95 -28 -215.5t-62 -186.5h-125z" />
<glyph unicode="&#x13e;" horiz-adv-x="989" d="M158 0v1147h159v-997h598v-150h-757zM506 745q30 62 55 183t25 219h135q1 -95 -28 -215.5t-62 -186.5h-125z" />
<glyph unicode="&#x13f;" horiz-adv-x="1155" d="M158 0v1434h166v-1278h755v-156h-921zM682 774q0 45 29.5 74t81.5 29t81 -29.5t29 -73.5q0 -46 -29 -75t-81 -29q-53 0 -82 29.5t-29 74.5z" />
<glyph unicode="&#x140;" horiz-adv-x="989" d="M158 0v1147h159v-997h598v-150h-757zM623 602q0 45 27.5 74t78.5 29t79 -29t28 -74q0 -46 -28 -75t-79 -29q-50 0 -78 29.5t-28 74.5z" />
<glyph unicode="&#x141;" horiz-adv-x="1155" d="M158 0v1434h166v-703l561 273v-162l-561 -273v-413h755v-156h-921z" />
<glyph unicode="&#x142;" horiz-adv-x="989" d="M158 0v1147h159v-549l420 201v-154l-420 -201v-294h598v-150h-757z" />
<glyph unicode="&#x143;" horiz-adv-x="1488" d="M158 0v1434h168l839 -1155h4v10q0 10 -0.5 28t-1 42t-1 54.5t-1 62t-0.5 68v70.5v820h168v-1434h-170l-839 1165h-5l1 -10v-28t1 -42t1.5 -55t0.5 -63.5t0.5 -71t0.5 -74.5v-821h-166zM647 1544l213 330l137 -45l-194 -285h-156z" />
<glyph unicode="&#x144;" horiz-adv-x="1290" d="M158 0v1147h164l649 -889h4v8q0 7 -0.5 19.5t-0.5 30v39.5t-0.5 45t-0.5 50.5v53.5v643h160v-1147h-164l-652 903h-4v-7q0 -8 0.5 -22t1 -32t1 -41.5t1 -48t0.5 -54v-57.5v-641h-159zM528 1257l213 330l138 -45l-195 -285h-156z" />
<glyph unicode="&#x145;" horiz-adv-x="1488" d="M158 0v1434h168l839 -1155h4v10q0 10 -0.5 28t-1 42t-1 54.5t-1 62t-0.5 68v70.5v820h168v-1434h-170l-839 1165h-5l1 -10v-28t1 -42t1.5 -55t0.5 -63.5t0.5 -71t0.5 -74.5v-821h-166zM608 -326q36 12 68.5 45.5t40.5 63.5q-40 -7 -66 14.5t-26 57.5q0 40 27.5 64 t74.5 24q49 0 78 -28.5t29 -82.5q0 -71 -44.5 -132t-125.5 -91z" />
<glyph unicode="&#x146;" horiz-adv-x="1290" d="M158 0v1147h164l649 -889h4v8q0 7 -0.5 19.5t-0.5 30v39.5t-0.5 45t-0.5 50.5v53.5v643h160v-1147h-164l-652 903h-4v-7q0 -8 0.5 -22t1 -32t1 -41.5t1 -48t0.5 -54v-57.5v-641h-159zM514 -326q35 12 67 45.5t40 63.5q-39 -7 -66 14.5t-27 57.5q0 40 28 64t77 24 q48 0 76 -28.5t28 -82.5q0 -72 -44 -132.5t-126 -90.5z" />
<glyph unicode="&#x147;" horiz-adv-x="1488" d="M158 0v1434h168l839 -1155h4v10q0 10 -0.5 28t-1 42t-1 54.5t-1 62t-0.5 68v70.5v820h168v-1434h-170l-839 1165h-5l1 -10v-28t1 -42t1.5 -55t0.5 -63.5t0.5 -71t0.5 -74.5v-821h-166zM463 1782l78 92l215 -176l215 176l80 -92l-295 -238z" />
<glyph unicode="&#x148;" horiz-adv-x="1290" d="M158 0v1147h164l649 -889h4v8q0 7 -0.5 19.5t-0.5 30v39.5t-0.5 45t-0.5 50.5v53.5v643h160v-1147h-164l-652 903h-4v-7q0 -8 0.5 -22t1 -32t1 -41.5t1 -48t0.5 -54v-57.5v-641h-159zM344 1495l80 92l215 -176l215 176l78 -92l-293 -238z" />
<glyph unicode="&#x14a;" horiz-adv-x="1488" d="M158 0v1434h168l839 -1155h4v10q0 10 -0.5 28t-1 42t-1 54.5t-1 62t-0.5 68v70.5v820h168v-1434q-1 -94 -24 -160t-66 -102t-94.5 -52t-118.5 -16h-69v127h55q155 0 147 203l-839 1165h-5l1 -10v-28t1 -42t1.5 -55t0.5 -63.5t0.5 -71t0.5 -74.5v-821h-166z" />
<glyph unicode="&#x14b;" horiz-adv-x="1290" d="M158 0v1147h164l649 -889h4v8q0 7 -0.5 19.5t-0.5 30v39.5t-0.5 45t-0.5 50.5v53.5v643h160v-1145v-2q0 -330 -310 -330h-65v129h61q156 0 150 201l-652 903h-4v-7q0 -8 0.5 -22t1 -32t1 -41.5t1 -48t0.5 -54v-57.5v-641h-159z" />
<glyph unicode="&#x14c;" horiz-adv-x="1642" d="M78 719q0 163 57 302.5t156.5 236t236.5 150.5t293 54t292.5 -54t236.5 -150.5t157.5 -236t57.5 -302.5q0 -164 -57.5 -304t-157.5 -236.5t-236.5 -151t-292.5 -54.5q-209 0 -378 92.5t-267 263.5t-98 390zM246 719q0 -178 76.5 -312.5t206 -204t292.5 -69.5 q162 0 292 69.5t207 204t77 312.5t-77 312.5t-207 204t-292 69.5t-292 -70t-206.5 -204.5t-76.5 -311.5zM524 1587v142h598v-142h-598z" />
<glyph unicode="&#x14d;" horiz-adv-x="1361" d="M78 571q0 171 79.5 308.5t217 213.5t305.5 76t305.5 -76t217 -213.5t79.5 -308.5q0 -127 -46.5 -238t-126.5 -189.5t-191.5 -123.5t-237.5 -45t-237.5 45t-191.5 123.5t-126.5 189.5t-46.5 238zM240 571q0 -196 125.5 -322t314.5 -126t314.5 126t125.5 322 q0 199 -125 325t-315 126t-315 -126t-125 -325zM383 1300v142h598v-142h-598z" />
<glyph unicode="&#x150;" horiz-adv-x="1642" d="M78 719q0 163 57 302.5t156.5 236t236.5 150.5t293 54t292.5 -54t236.5 -150.5t157.5 -236t57.5 -302.5q0 -164 -57.5 -304t-157.5 -236.5t-236.5 -151t-292.5 -54.5q-209 0 -378 92.5t-267 263.5t-98 390zM246 719q0 -178 76.5 -312.5t206 -204t292.5 -69.5 q162 0 292 69.5t207 204t77 312.5t-77 312.5t-207 204t-292 69.5t-292 -70t-206.5 -204.5t-76.5 -311.5zM530 1544l213 330l138 -45l-195 -285h-156zM899 1544l213 330l137 -45l-194 -285h-156z" />
<glyph unicode="&#x151;" horiz-adv-x="1361" d="M78 571q0 171 79.5 308.5t217 213.5t305.5 76t305.5 -76t217 -213.5t79.5 -308.5q0 -127 -46.5 -238t-126.5 -189.5t-191.5 -123.5t-237.5 -45t-237.5 45t-191.5 123.5t-126.5 189.5t-46.5 238zM240 571q0 -196 125.5 -322t314.5 -126t314.5 126t125.5 322 q0 199 -125 325t-315 126t-315 -126t-125 -325zM389 1257l213 330l137 -45l-194 -285h-156zM758 1257l213 330l137 -45l-195 -285h-155z" />
<glyph unicode="&#x152;" horiz-adv-x="2041" d="M78 717q0 214 97.5 380t267.5 255.5t384 89.5q93 0 150 -8h950v-156h-797v-449h629v-155h-629v-518h801v-156h-952q-49 -8 -154 -8q-213 0 -382.5 89.5t-267 255.5t-97.5 380zM246 719q0 -265 159 -420.5t422 -155.5q75 0 140 21v1110q-59 16 -140 16q-264 0 -422.5 -153 t-158.5 -418z" />
<glyph unicode="&#x153;" horiz-adv-x="1720" d="M78 573q0 260 171 420t439 160q82 0 133 -6h781v-150h-646v-331h498v-146h-498v-370h656v-150h-795q-43 -6 -131 -6q-175 0 -313 71t-216.5 203.5t-78.5 304.5zM240 575q0 -198 123 -317t327 -119q49 0 113 11v847q-64 11 -113 11q-204 0 -327 -117.5t-123 -315.5z" />
<glyph unicode="&#x154;" horiz-adv-x="1232" d="M158 0v1434h438q252 0 393 -118t141 -329q0 -162 -85.5 -261t-241.5 -132l354 -594h-201l-325 563q-31 -2 -131 -2h-176v-561h-166zM324 700h288q349 0 349 281q0 149 -94 224t-265 75h-278v-580zM471 1544l213 330l137 -45l-194 -285h-156z" />
<glyph unicode="&#x155;" horiz-adv-x="1095" d="M158 0v1147h377q214 0 331 -90t117 -256q0 -128 -70 -209.5t-188 -108.5l295 -483h-174l-275 455q-45 -2 -127 -2h-127v-453h-159zM317 582h224q280 0 280 209q0 210 -280 210h-224v-419zM420 1257l213 330l137 -45l-195 -285h-155z" />
<glyph unicode="&#x156;" horiz-adv-x="1232" d="M158 0v1434h438q252 0 393 -118t141 -329q0 -162 -85.5 -261t-241.5 -132l354 -594h-201l-325 563q-31 -2 -131 -2h-176v-561h-166zM324 700h288q349 0 349 281q0 149 -94 224t-265 75h-278v-580zM543 -326q36 12 68 45.5t40 63.5q-40 -7 -66 14.5t-26 57.5q0 40 28 64 t75 24q49 0 77.5 -28.5t28.5 -82.5q0 -71 -44.5 -132t-125.5 -91z" />
<glyph unicode="&#x157;" horiz-adv-x="1095" d="M158 0v1147h377q214 0 331 -90t117 -256q0 -128 -70 -209.5t-188 -108.5l295 -483h-174l-275 455q-45 -2 -127 -2h-127v-453h-159zM317 582h224q280 0 280 209q0 210 -280 210h-224v-419zM455 -326q36 12 68 45.5t38 63.5q-39 -7 -64.5 14.5t-25.5 57.5q0 40 26.5 64 t75.5 24t77 -28.5t28 -82.5q0 -72 -43.5 -132.5t-124.5 -90.5z" />
<glyph unicode="&#x158;" horiz-adv-x="1232" d="M158 0v1434h438q252 0 393 -118t141 -329q0 -162 -85.5 -261t-241.5 -132l354 -594h-201l-325 563q-31 -2 -131 -2h-176v-561h-166zM287 1782l80 92l215 -176l215 176l77 -92l-292 -238zM324 700h288q349 0 349 281q0 149 -94 224t-265 75h-278v-580z" />
<glyph unicode="&#x159;" horiz-adv-x="1095" d="M158 0v1147h377q214 0 331 -90t117 -256q0 -128 -70 -209.5t-188 -108.5l295 -483h-174l-275 455q-45 -2 -127 -2h-127v-453h-159zM238 1495l77 92l215 -176l215 176l78 -92l-293 -238zM317 582h224q280 0 280 209q0 210 -280 210h-224v-419z" />
<glyph unicode="&#x15a;" horiz-adv-x="1214" d="M72 377l159 43q12 -148 122.5 -222.5t283.5 -74.5q160 0 248 64.5t88 191.5q0 43 -11.5 78.5t-28 60.5t-46 45.5t-55 32.5t-66.5 24t-68 17.5t-73 14.5t-68 14q-51 12 -86.5 21.5t-86 27.5t-85 37.5t-72.5 51t-61 68t-38 88t-15 111.5q0 186 129 288.5t356 102.5 q206 0 343 -88.5t181 -267.5l-159 -43q-62 250 -367 250q-154 0 -233.5 -62.5t-79.5 -173.5q0 -35 7.5 -64.5t24.5 -52.5t35 -41.5t49 -33.5t56.5 -25.5t66.5 -21.5t70 -17.5t76 -15.5q54 -10 94 -19.5t93 -27.5t90.5 -38t77 -52.5t64 -71.5t40.5 -94t16 -121 q0 -200 -133 -304t-375 -104q-78 0 -147.5 10.5t-141.5 38.5t-126.5 72.5t-94.5 116.5t-53 166zM500 1544l213 330l137 -45l-195 -285h-155z" />
<glyph unicode="&#x15b;" horiz-adv-x="1024" d="M72 285l145 39q12 -101 95 -160.5t218 -59.5q121 0 191 51t70 150q0 29 -5.5 53.5t-19.5 43.5t-27 33.5t-39 27t-44 20.5t-53.5 17.5t-56 14t-63 13t-63.5 13.5q-37 8 -63 15t-62.5 20t-62 28t-53 39t-44.5 52t-28 68t-11 87q0 155 108 237t302 82q177 0 290 -70 t146 -208l-141 -39q-51 188 -285 188q-123 0 -189.5 -47.5t-66.5 -136.5q0 -41 16 -71.5t39.5 -50t68.5 -36t82.5 -25.5t102.5 -22q43 -9 68 -14.5t70.5 -20t74 -29.5t64.5 -42t56.5 -58.5t35 -78t14.5 -101.5q0 -164 -114 -248t-308 -84q-59 0 -113.5 7.5t-113 28.5 t-103.5 54.5t-80 90t-48 129.5zM410 1257l213 330l137 -45l-195 -285h-155z" />
<glyph unicode="&#x15c;" horiz-adv-x="1214" d="M72 377l159 43q12 -148 122.5 -222.5t283.5 -74.5q160 0 248 64.5t88 191.5q0 43 -11.5 78.5t-28 60.5t-46 45.5t-55 32.5t-66.5 24t-68 17.5t-73 14.5t-68 14q-51 12 -86.5 21.5t-86 27.5t-85 37.5t-72.5 51t-61 68t-38 88t-15 111.5q0 186 129 288.5t356 102.5 q206 0 343 -88.5t181 -267.5l-159 -43q-62 250 -367 250q-154 0 -233.5 -62.5t-79.5 -173.5q0 -35 7.5 -64.5t24.5 -52.5t35 -41.5t49 -33.5t56.5 -25.5t66.5 -21.5t70 -17.5t76 -15.5q54 -10 94 -19.5t93 -27.5t90.5 -38t77 -52.5t64 -71.5t40.5 -94t16 -121 q0 -200 -133 -304t-375 -104q-78 0 -147.5 10.5t-141.5 38.5t-126.5 72.5t-94.5 116.5t-53 166zM311 1640l293 242l291 -242l-78 -94l-213 180l-215 -178z" />
<glyph unicode="&#x15d;" horiz-adv-x="1024" d="M72 285l145 39q12 -101 95 -160.5t218 -59.5q121 0 191 51t70 150q0 29 -5.5 53.5t-19.5 43.5t-27 33.5t-39 27t-44 20.5t-53.5 17.5t-56 14t-63 13t-63.5 13.5q-37 8 -63 15t-62.5 20t-62 28t-53 39t-44.5 52t-28 68t-11 87q0 155 108 237t302 82q177 0 290 -70 t146 -208l-141 -39q-51 188 -285 188q-123 0 -189.5 -47.5t-66.5 -136.5q0 -41 16 -71.5t39.5 -50t68.5 -36t82.5 -25.5t102.5 -22q43 -9 68 -14.5t70.5 -20t74 -29.5t64.5 -42t56.5 -58.5t35 -78t14.5 -101.5q0 -164 -114 -248t-308 -84q-59 0 -113.5 7.5t-113 28.5 t-103.5 54.5t-80 90t-48 129.5zM221 1354l293 241l291 -241l-78 -94l-213 180l-215 -178z" />
<glyph unicode="&#x15e;" horiz-adv-x="1214" d="M72 377l159 43q12 -148 122.5 -222.5t283.5 -74.5q160 0 248 64.5t88 191.5q0 43 -11.5 78.5t-28 60.5t-46 45.5t-55 32.5t-66.5 24t-68 17.5t-73 14.5t-68 14q-51 12 -86.5 21.5t-86 27.5t-85 37.5t-72.5 51t-61 68t-38 88t-15 111.5q0 186 129 288.5t356 102.5 q206 0 343 -88.5t181 -267.5l-159 -43q-62 250 -367 250q-154 0 -233.5 -62.5t-79.5 -173.5q0 -35 7.5 -64.5t24.5 -52.5t35 -41.5t49 -33.5t56.5 -25.5t66.5 -21.5t70 -17.5t76 -15.5q54 -10 94 -19.5t93 -27.5t90.5 -38t77 -52.5t64 -71.5t40.5 -94t16 -121 q0 -176 -104 -277.5t-296 -123.5q138 -39 138 -160q0 -82 -64 -127t-186 -45q-108 0 -170 30v115q50 -29 147 -29q148 0 148 76q0 46 -56.5 67t-175.5 23v50q-66 8 -123.5 24.5t-114 47.5t-99 74t-73.5 107t-42 144z" />
<glyph unicode="&#x15f;" horiz-adv-x="1024" d="M72 285l145 39q12 -101 95 -160.5t218 -59.5q121 0 191 51t70 150q0 29 -5.5 53.5t-19.5 43.5t-27 33.5t-39 27t-44 20.5t-53.5 17.5t-56 14t-63 13t-63.5 13.5q-37 8 -63 15t-62.5 20t-62 28t-53 39t-44.5 52t-28 68t-11 87q0 155 108 237t302 82q177 0 290 -70 t146 -208l-141 -39q-51 188 -285 188q-123 0 -189.5 -47.5t-66.5 -136.5q0 -41 16 -71.5t39.5 -50t68.5 -36t82.5 -25.5t102.5 -22q43 -9 68 -14.5t70.5 -20t74 -29.5t64.5 -42t56.5 -58.5t35 -78t14.5 -101.5q0 -141 -83.5 -221.5t-233.5 -101.5q147 -38 147 -164 q0 -83 -62.5 -127.5t-184.5 -44.5q-108 0 -170 30v115q50 -29 147 -29q147 0 147 76q0 46 -56 67t-175 23v52q-309 39 -356 303z" />
<glyph unicode="&#x160;" horiz-adv-x="1214" d="M72 377l159 43q12 -148 122.5 -222.5t283.5 -74.5q160 0 248 64.5t88 191.5q0 43 -11.5 78.5t-28 60.5t-46 45.5t-55 32.5t-66.5 24t-68 17.5t-73 14.5t-68 14q-51 12 -86.5 21.5t-86 27.5t-85 37.5t-72.5 51t-61 68t-38 88t-15 111.5q0 186 129 288.5t356 102.5 q206 0 343 -88.5t181 -267.5l-159 -43q-62 250 -367 250q-154 0 -233.5 -62.5t-79.5 -173.5q0 -35 7.5 -64.5t24.5 -52.5t35 -41.5t49 -33.5t56.5 -25.5t66.5 -21.5t70 -17.5t76 -15.5q54 -10 94 -19.5t93 -27.5t90.5 -38t77 -52.5t64 -71.5t40.5 -94t16 -121 q0 -200 -133 -304t-375 -104q-78 0 -147.5 10.5t-141.5 38.5t-126.5 72.5t-94.5 116.5t-53 166zM315 1782l78 92l215 -176l215 176l78 -92l-293 -238z" />
<glyph unicode="&#x161;" horiz-adv-x="1024" d="M72 285l145 39q12 -101 95 -160.5t218 -59.5q121 0 191 51t70 150q0 29 -5.5 53.5t-19.5 43.5t-27 33.5t-39 27t-44 20.5t-53.5 17.5t-56 14t-63 13t-63.5 13.5q-37 8 -63 15t-62.5 20t-62 28t-53 39t-44.5 52t-28 68t-11 87q0 155 108 237t302 82q177 0 290 -70 t146 -208l-141 -39q-51 188 -285 188q-123 0 -189.5 -47.5t-66.5 -136.5q0 -41 16 -71.5t39.5 -50t68.5 -36t82.5 -25.5t102.5 -22q43 -9 68 -14.5t70.5 -20t74 -29.5t64.5 -42t56.5 -58.5t35 -78t14.5 -101.5q0 -164 -114 -248t-308 -84q-59 0 -113.5 7.5t-113 28.5 t-103.5 54.5t-80 90t-48 129.5zM225 1495l78 92l215 -176l215 176l78 -92l-293 -238z" />
<glyph unicode="&#x162;" horiz-adv-x="1304" d="M76 1278v156h1153v-156h-494v-1278h-45v-4q234 -18 234 -176q0 -82 -64 -127t-186 -45q-108 0 -170 30v115q50 -29 147 -29q148 0 148 76q0 46 -56.5 67t-175.5 23v1348h-491z" />
<glyph unicode="&#x163;" horiz-adv-x="1112" d="M76 997v150h960v-150h-401v-997h-37v-4q233 -18 233 -176q0 -83 -63.5 -127.5t-185.5 -44.5q-108 0 -170 30v115q50 -29 147 -29q148 0 148 76q0 46 -56.5 67t-175.5 23v70v997h-399z" />
<glyph unicode="&#x164;" horiz-adv-x="1304" d="M76 1278v156h1153v-156h-494v-1278h-168v1278h-491zM360 1782l78 92l215 -176l215 176l78 -92l-293 -238z" />
<glyph unicode="&#x165;" horiz-adv-x="1112" d="M76 997v150h960v-150h-401v-997h-160v997h-399zM260 1495l80 92l215 -176l215 176l78 -92l-293 -238z" />
<glyph unicode="&#x166;" horiz-adv-x="1304" d="M76 1278v156h1153v-156h-494v-469h264v-156h-264v-653h-168v653h-262v156h262v469h-491z" />
<glyph unicode="&#x167;" horiz-adv-x="1112" d="M76 997v150h960v-150h-401v-344h221v-141h-221v-512h-160v512h-219v141h219v344h-399z" />
<glyph unicode="&#x16a;" horiz-adv-x="1425" d="M139 598v836h170v-836q0 -235 99 -350t305 -115q208 0 307.5 115t99.5 350v836h166v-836q0 -304 -147.5 -464.5t-425.5 -160.5q-280 0 -427 160t-147 465zM416 1587v142h598v-142h-598z" />
<glyph unicode="&#x16b;" horiz-adv-x="1251" d="M139 494v653h162v-670q0 -179 80.5 -266.5t245.5 -87.5t245 87.5t80 266.5v670h160v-653q0 -258 -125.5 -388.5t-361.5 -130.5t-361 130.5t-125 388.5zM332 1300v142h598v-142h-598z" />
<glyph unicode="&#x16c;" horiz-adv-x="1425" d="M139 598v836h170v-836q0 -235 99 -350t305 -115q208 0 307.5 115t99.5 350v836h166v-836q0 -304 -147.5 -464.5t-425.5 -160.5q-280 0 -427 160t-147 465zM397 1786h129q5 -64 54.5 -108t134.5 -44q86 0 135.5 45t52.5 107h129q-5 -114 -93 -189t-224 -75t-224 73.5 t-94 190.5z" />
<glyph unicode="&#x16d;" horiz-adv-x="1251" d="M139 494v653h162v-670q0 -179 80.5 -266.5t245.5 -87.5t245 87.5t80 266.5v670h160v-653q0 -258 -125.5 -388.5t-361.5 -130.5t-361 130.5t-125 388.5zM311 1499h131q3 -64 52.5 -107.5t136.5 -43.5q86 0 135.5 44.5t52.5 106.5h129q-6 -114 -93.5 -189t-223.5 -75 q-137 0 -224.5 73t-95.5 191z" />
<glyph unicode="&#x16e;" horiz-adv-x="1425" d="M139 598v836h170v-836q0 -235 99 -350t305 -115q208 0 307.5 115t99.5 350v836h166v-836q0 -304 -147.5 -464.5t-425.5 -160.5q-280 0 -427 160t-147 465zM506 1706q0 86 58 138t151 52q94 0 151.5 -52t57.5 -138q0 -87 -57.5 -140t-151.5 -53q-93 0 -151 53t-58 140z M616 1706q0 -42 28 -68t71 -26q44 0 71 25.5t27 68.5q0 41 -27 66.5t-71 25.5q-43 0 -71 -25.5t-28 -66.5z" />
<glyph unicode="&#x16f;" horiz-adv-x="1251" d="M139 494v653h162v-670q0 -179 80.5 -266.5t245.5 -87.5t245 87.5t80 266.5v670h160v-653q0 -258 -125.5 -388.5t-361.5 -130.5t-361 130.5t-125 388.5zM422 1419q0 86 58 138.5t151 52.5t151 -52.5t58 -138.5q0 -87 -58 -139.5t-151 -52.5t-151 52.5t-58 139.5zM532 1419 q0 -43 27.5 -68.5t71.5 -25.5t71 25.5t27 68.5q0 41 -27 66.5t-71 25.5t-71.5 -25.5t-27.5 -66.5z" />
<glyph unicode="&#x170;" horiz-adv-x="1425" d="M139 598v836h170v-836q0 -235 99 -350t305 -115q208 0 307.5 115t99.5 350v836h166v-836q0 -304 -147.5 -464.5t-425.5 -160.5q-280 0 -427 160t-147 465zM422 1544l213 330l137 -45l-194 -285h-156zM791 1544l213 330l137 -45l-195 -285h-155z" />
<glyph unicode="&#x171;" horiz-adv-x="1251" d="M139 494v653h162v-670q0 -179 80.5 -266.5t245.5 -87.5t245 87.5t80 266.5v670h160v-653q0 -258 -125.5 -388.5t-361.5 -130.5t-361 130.5t-125 388.5zM338 1257l213 330l137 -45l-194 -285h-156zM707 1257l213 330l137 -45l-195 -285h-155z" />
<glyph unicode="&#x172;" horiz-adv-x="1411" d="M139 598v836h170v-836q0 -235 99 -350t305 -115q208 0 307.5 115t99.5 350v836h166v-836q0 -274 -120.5 -431.5t-350.5 -186.5q-65 -16 -95 -39.5t-30 -67.5t37 -71t107 -27q105 0 165 32v-126q-68 -33 -186 -33t-191 58t-73 153q0 70 47 123q-224 32 -340.5 189 t-116.5 427z" />
<glyph unicode="&#x173;" horiz-adv-x="1239" d="M139 494v653h162v-670q0 -179 80.5 -266.5t245.5 -87.5t245 87.5t80 266.5v670h160v-653q0 -232 -101.5 -360t-295.5 -152q-125 -28 -125 -109q0 -46 36.5 -72t108.5 -26q106 0 174 35v-127q-72 -35 -182 -35q-122 0 -200 58t-78 153q0 73 51 127q-176 33 -268.5 160 t-92.5 348z" />
<glyph unicode="&#x174;" horiz-adv-x="1992" d="M37 1434h184l213 -682q161 -512 164 -519h4q2 3 135 453l170 555h195l168 -557q19 -64 55 -184.5t57.5 -192.5t22.5 -74h4q1 2 24.5 77t64 206t69.5 223l223 695h166l-461 -1434h-176l-205 647q-29 91 -58 189.5t-43.5 149.5t-15.5 52h-4q-1 -1 -15 -52t-42.5 -153.5 t-58.5 -199.5l-197 -633h-180zM717 1640l293 242l293 -242l-80 -94l-213 180l-215 -178z" />
<glyph unicode="&#x175;" horiz-adv-x="1665" d="M37 1147h170l172 -531q36 -111 68.5 -215t46 -147.5t14.5 -44.5h2q1 1 13.5 42.5t41.5 134.5t58 183l135 432h166l133 -432q28 -92 55.5 -183.5t39.5 -133.5t13 -43h2q1 1 14.5 44t46.5 147t70 216l172 531h158l-377 -1147h-161l-144 446q-31 96 -58.5 186.5t-39 130 t-12.5 40.5h-5q-1 -1 -13 -40t-41.5 -132t-59.5 -187l-142 -444h-161zM547 1354l293 241l293 -241l-78 -94l-215 180l-215 -178z" />
<glyph unicode="&#x176;" horiz-adv-x="1345" d="M35 1434h192l322 -471q32 -46 64 -93t47 -70t16 -24h4l15 23q15 23 45 68t63 91l325 476h183l-555 -811v-623h-168v623zM391 1640l295 242l291 -242l-78 -94l-213 180l-215 -178z" />
<glyph unicode="&#x177;" horiz-adv-x="1107" d="M35 1147h182l184 -281q40 -59 79.5 -119.5t59.5 -90.5l19 -31h4q1 1 20 30t60 92t80 121l182 279h168l-440 -674v-473h-160v473zM272 1354l293 241l291 -241l-78 -94l-213 180l-215 -178z" />
<glyph unicode="&#x178;" horiz-adv-x="1345" d="M35 1434h192l322 -471q32 -46 64 -93t47 -70t16 -24h4l15 23q15 23 45 68t63 91l325 476h183l-555 -811v-623h-168v623zM401 1683q0 40 28.5 68.5t66.5 28.5q39 0 66.5 -28.5t27.5 -68.5q0 -38 -28 -66t-66 -28q-40 0 -67.5 27.5t-27.5 66.5zM788 1683q0 40 27.5 68.5 t67.5 28.5q38 0 66 -28.5t28 -68.5q0 -38 -28 -66t-66 -28q-39 0 -67 27.5t-28 66.5z" />
<glyph unicode="&#x179;" horiz-adv-x="1339" d="M86 0v154l803 946q45 53 85.5 96.5t56.5 60t16 17.5l-3 6h-8q-9 0 -24 -0.5t-35 -1t-48.5 -0.5h-58.5h-764v156h1147v-160l-786 -928q-53 -63 -95.5 -110t-57.5 -62l-15 -16l4 -4h9q9 0 25 0.5t36.5 1t49.5 0.5h58h772v-156h-1167zM569 1544l213 330l138 -45l-195 -285 h-156z" />
<glyph unicode="&#x17a;" horiz-adv-x="1140" d="M86 0v152l573 634q64 71 113 123.5t63.5 67.5t14.5 16l-4 4h-146h-598v150h953v-152l-549 -616q-75 -85 -128.5 -141.5t-69.5 -71.5l-15 -14l4 -5q62 3 156 3h602v-150h-969zM463 1257l213 330l137 -45l-195 -285h-155z" />
<glyph unicode="&#x17b;" horiz-adv-x="1339" d="M86 0v154l803 946q45 53 85.5 96.5t56.5 60t16 17.5l-3 6h-8q-9 0 -24 -0.5t-35 -1t-48.5 -0.5h-58.5h-764v156h1147v-160l-786 -928q-53 -63 -95.5 -110t-57.5 -62l-15 -16l4 -4h9q9 0 25 0.5t36.5 1t49.5 0.5h58h772v-156h-1167zM584 1683q0 40 27.5 68.5t66.5 28.5 t66.5 -28.5t27.5 -68.5q0 -39 -27.5 -66.5t-66.5 -27.5t-66.5 27.5t-27.5 66.5z" />
<glyph unicode="&#x17c;" horiz-adv-x="1140" d="M86 0v152l573 634q64 71 113 123.5t63.5 67.5t14.5 16l-4 4h-146h-598v150h953v-152l-549 -616q-75 -85 -128.5 -141.5t-69.5 -71.5l-15 -14l4 -5q62 3 156 3h602v-150h-969zM477 1397q0 40 28 68t66 28q40 0 68.5 -28t28.5 -68q0 -38 -28.5 -66t-68.5 -28q-38 0 -66 28 t-28 66z" />
<glyph unicode="&#x17d;" horiz-adv-x="1339" d="M86 0v154l803 946q45 53 85.5 96.5t56.5 60t16 17.5l-3 6h-8q-9 0 -24 -0.5t-35 -1t-48.5 -0.5h-58.5h-764v156h1147v-160l-786 -928q-53 -63 -95.5 -110t-57.5 -62l-15 -16l4 -4h9q9 0 25 0.5t36.5 1t49.5 0.5h58h772v-156h-1167zM385 1782l80 92l215 -176l215 176 l78 -92l-293 -238z" />
<glyph unicode="&#x17e;" horiz-adv-x="1140" d="M86 0v152l573 634q64 71 113 123.5t63.5 67.5t14.5 16l-4 4h-146h-598v150h953v-152l-549 -616q-75 -85 -128.5 -141.5t-69.5 -71.5l-15 -14l4 -5q62 3 156 3h602v-150h-969zM281 1495l77 92l215 -176l215 176l78 -92l-293 -238z" />
<glyph unicode="&#x218;" horiz-adv-x="1214" d="M72 377l159 43q12 -148 122.5 -222.5t283.5 -74.5q160 0 248 64.5t88 191.5q0 43 -11.5 78.5t-28 60.5t-46 45.5t-55 32.5t-66.5 24t-68 17.5t-73 14.5t-68 14q-51 12 -86.5 21.5t-86 27.5t-85 37.5t-72.5 51t-61 68t-38 88t-15 111.5q0 186 129 288.5t356 102.5 q206 0 343 -88.5t181 -267.5l-159 -43q-62 250 -367 250q-154 0 -233.5 -62.5t-79.5 -173.5q0 -35 7.5 -64.5t24.5 -52.5t35 -41.5t49 -33.5t56.5 -25.5t66.5 -21.5t70 -17.5t76 -15.5q54 -10 94 -19.5t93 -27.5t90.5 -38t77 -52.5t64 -71.5t40.5 -94t16 -121 q0 -200 -133 -304t-375 -104q-78 0 -147.5 10.5t-141.5 38.5t-126.5 72.5t-94.5 116.5t-53 166zM492 -326q34 12 66 45.5t40 63.5q-39 -7 -65.5 14.5t-26.5 57.5q0 40 27.5 64t76.5 24t77 -28.5t28 -82.5q0 -72 -44 -132.5t-126 -90.5z" />
<glyph unicode="&#x219;" horiz-adv-x="1024" d="M72 285l145 39q12 -101 95 -160.5t218 -59.5q121 0 191 51t70 150q0 29 -5.5 53.5t-19.5 43.5t-27 33.5t-39 27t-44 20.5t-53.5 17.5t-56 14t-63 13t-63.5 13.5q-37 8 -63 15t-62.5 20t-62 28t-53 39t-44.5 52t-28 68t-11 87q0 155 108 237t302 82q177 0 290 -70 t146 -208l-141 -39q-51 188 -285 188q-123 0 -189.5 -47.5t-66.5 -136.5q0 -41 16 -71.5t39.5 -50t68.5 -36t82.5 -25.5t102.5 -22q43 -9 68 -14.5t70.5 -20t74 -29.5t64.5 -42t56.5 -58.5t35 -78t14.5 -101.5q0 -164 -114 -248t-308 -84q-59 0 -113.5 7.5t-113 28.5 t-103.5 54.5t-80 90t-48 129.5zM395 -326q35 12 67 45.5t40 63.5q-39 -7 -65.5 14.5t-26.5 57.5q0 40 27.5 64t76.5 24q48 0 76 -28.5t28 -82.5q0 -72 -43.5 -132.5t-125.5 -90.5z" />
<glyph unicode="&#x21a;" horiz-adv-x="1304" d="M76 1278v156h1153v-156h-494v-1278h-168v1278h-491zM535 -326q34 12 66 45.5t40 63.5q-39 -7 -65.5 14.5t-26.5 57.5q0 40 27.5 64t76.5 24t77 -28.5t28 -82.5q0 -72 -44 -132.5t-126 -90.5z" />
<glyph unicode="&#x21b;" horiz-adv-x="1112" d="M76 997v150h960v-150h-401v-997h-160v997h-399zM442 -326q35 12 67 45.5t40 63.5q-39 -7 -65.5 14.5t-26.5 57.5q0 40 27.5 64t76.5 24t77 -28.5t28 -82.5q0 -72 -44 -132.5t-126 -90.5z" />
<glyph unicode="&#x237;" horiz-adv-x="868" d="M0 102l88 117q84 -96 215 -96q135 0 196.5 86t61.5 260v678h160v-684q0 -235 -107 -361.5t-309 -126.5q-193 0 -305 127z" />
<glyph unicode="&#x2c6;" horiz-adv-x="1091" d="M252 1640l295 242l291 -242l-78 -94l-213 180l-215 -178z" />
<glyph unicode="&#x2c7;" horiz-adv-x="1091" d="M252 1782l80 92l215 -176l215 176l78 -92l-293 -238z" />
<glyph unicode="&#x2d8;" horiz-adv-x="1091" d="M221 1786h129q5 -64 54.5 -108t134.5 -44q87 0 136 45t52 107h129q-5 -114 -93 -189t-224 -75t-224 73.5t-94 190.5z" />
<glyph unicode="&#x2d9;" horiz-adv-x="1091" d="M451 1683q0 40 28 68.5t68 28.5q38 0 66 -28.5t28 -68.5q0 -38 -28 -66t-66 -28q-40 0 -68 28t-28 66z" />
<glyph unicode="&#x2da;" horiz-adv-x="1091" d="M338 1708q0 87 57.5 140t151.5 53q93 0 150 -53t57 -140t-57 -139.5t-150 -52.5q-94 0 -151.5 52.5t-57.5 139.5zM449 1708q0 -42 27 -68t71 -26q43 0 70.5 26.5t27.5 67.5t-27.5 67.5t-70.5 26.5q-44 0 -71 -26t-27 -68z" />
<glyph unicode="&#x2db;" horiz-adv-x="1091" d="M332 -141q0 88 68 152.5t212 80.5l56 -92q-197 -16 -197 -123q0 -102 129 -102q102 0 158 35v-127q-65 -35 -168 -35q-113 0 -185.5 58.5t-72.5 152.5z" />
<glyph unicode="&#x2dc;" horiz-adv-x="1091" d="M256 1729q15 24 53 46.5t92 22.5q53 0 136.5 -36t138.5 -36q30 0 57.5 11t36.5 18t29 25l32 -123q-15 -21 -53.5 -42.5t-89.5 -21.5q-55 0 -139.5 35t-134.5 35q-75 0 -125 -57z" />
<glyph unicode="&#x2dd;" horiz-adv-x="1091" d="M260 1544l213 330l137 -45l-194 -285h-156zM629 1544l213 330l137 -45l-195 -285h-155z" />
<glyph unicode="&#x326;" horiz-adv-x="0" d="M432 -326q36 12 68.5 45.5t38.5 63.5q-39 -7 -64.5 14.5t-25.5 57.5q0 40 26.5 64t75.5 24q48 0 76 -28.5t28 -82.5q0 -72 -43.5 -132.5t-124.5 -90.5z" />
<glyph unicode="&#x1e80;" horiz-adv-x="1992" d="M37 1434h184l213 -682q161 -512 164 -519h4q2 3 135 453l170 555h195l168 -557q19 -64 55 -184.5t57.5 -192.5t22.5 -74h4q1 2 24.5 77t64 206t69.5 223l223 695h166l-461 -1434h-176l-205 647q-29 91 -58 189.5t-43.5 149.5t-15.5 52h-4q-1 -1 -15 -52t-42.5 -153.5 t-58.5 -199.5l-197 -633h-180zM760 1829l137 45l213 -330h-156z" />
<glyph unicode="&#x1e81;" horiz-adv-x="1665" d="M37 1147h170l172 -531q36 -111 68.5 -215t46 -147.5t14.5 -44.5h2q1 1 13.5 42.5t41.5 134.5t58 183l135 432h166l133 -432q28 -92 55.5 -183.5t39.5 -133.5t13 -43h2q1 1 14.5 44t46.5 147t70 216l172 531h158l-377 -1147h-161l-144 446q-31 96 -58.5 186.5t-39 130 t-12.5 40.5h-5q-1 -1 -13 -40t-41.5 -132t-59.5 -187l-142 -444h-161zM590 1542l137 45l213 -330h-156z" />
<glyph unicode="&#x1e82;" horiz-adv-x="1992" d="M37 1434h184l213 -682q30 -96 72.5 -230.5t66.5 -210.5t25 -78h4q2 3 135 453l170 555h195l168 -557q19 -64 55 -184.5t57.5 -192.5t22.5 -74h4q1 2 24.5 77t64 206t69.5 223l223 695h166l-461 -1434h-176l-205 647q-29 91 -58 189.5t-43.5 149.5t-15.5 52h-4 q-1 -1 -15 -52t-42.5 -153.5t-58.5 -199.5l-197 -633h-180zM905 1544l213 330l137 -45l-194 -285h-156z" />
<glyph unicode="&#x1e83;" horiz-adv-x="1665" d="M37 1147h170l172 -531q36 -111 68.5 -215t46 -147.5t14.5 -44.5h2q1 1 13.5 42.5t41.5 134.5t58 183l135 432h166l133 -432q28 -92 55.5 -183.5t39.5 -133.5t13 -43h2q1 1 14.5 44t46.5 147t70 216l172 531h158l-377 -1147h-161l-144 446q-31 96 -58.5 186.5t-39 130 t-12.5 40.5h-5q-1 -1 -13 -40t-41.5 -132t-59.5 -187l-142 -444h-161zM735 1257l213 330l137 -45l-194 -285h-156z" />
<glyph unicode="&#x1e84;" horiz-adv-x="1992" d="M37 1434h184l213 -682q161 -512 164 -519h4q2 3 135 453l170 555h195l168 -557q19 -64 55 -184.5t57.5 -192.5t22.5 -74h4q1 2 24.5 77t64 206t69.5 223l223 695h166l-461 -1434h-176l-205 647q-29 91 -58 189.5t-43.5 149.5t-15.5 52h-4q-1 -1 -15 -52t-42.5 -153.5 t-58.5 -199.5l-197 -633h-180zM727 1683q0 40 27.5 68.5t66.5 28.5q38 0 65 -28.5t27 -68.5q0 -39 -27.5 -66.5t-66.5 -27.5q-38 0 -65 28t-27 66zM1112 1683q0 40 27.5 68.5t66.5 28.5q40 0 68.5 -28.5t28.5 -68.5q0 -38 -28.5 -66t-68.5 -28q-39 0 -66.5 27.5t-27.5 66.5z " />
<glyph unicode="&#x1e85;" horiz-adv-x="1665" d="M37 1147h170l172 -531q36 -111 68.5 -215t46 -147.5t14.5 -44.5h2q1 1 13.5 42.5t41.5 134.5t58 183l135 432h166l133 -432q28 -92 55.5 -183.5t39.5 -133.5t13 -43h2q1 1 14.5 44t46.5 147t70 216l172 531h158l-377 -1147h-161l-144 446q-31 96 -58.5 186.5t-39 130 t-12.5 40.5h-5q-1 -1 -13 -40t-41.5 -132t-59.5 -187l-142 -444h-161zM557 1397q0 40 27 68t67 28q38 0 65 -28t27 -68q0 -39 -27.5 -66.5t-66.5 -27.5q-38 0 -65 28t-27 66zM942 1397q0 40 28 68t66 28q40 0 68.5 -28t28.5 -68q0 -38 -28.5 -66t-68.5 -28q-38 0 -66 28 t-28 66z" />
<glyph unicode="&#x1e9e;" horiz-adv-x="1374" d="M158 0v1434h1009l-313 -560l4 -4h12q194 0 318.5 -117t124.5 -315q0 -129 -53.5 -233t-161 -168t-252.5 -64q-191 0 -338 115l76 127q104 -88 245 -88q142 0 229 84.5t87 218.5q0 132 -83 211.5t-228 79.5h-164v141l227 412l-4 4h-133h-436v-1278h-166z" />
<glyph unicode="&#x1ef2;" horiz-adv-x="1345" d="M35 1434h192l322 -471q32 -46 64 -93t47 -70t16 -24h4l15 23q15 23 45 68t63 91l325 476h183l-555 -811v-623h-168v623zM436 1829l137 45l213 -330h-155z" />
<glyph unicode="&#x1ef3;" horiz-adv-x="1107" d="M35 1147h182l184 -281q40 -59 79.5 -119.5t59.5 -90.5l19 -31h4q1 1 20 30t60 92t80 121l182 279h168l-440 -674v-473h-160v473zM315 1542l138 45l213 -330h-156z" />
<glyph unicode="&#x2000;" horiz-adv-x="952" />
<glyph unicode="&#x2001;" horiz-adv-x="1905" />
<glyph unicode="&#x2002;" horiz-adv-x="716" />
<glyph unicode="&#x2003;" horiz-adv-x="1263" />
<glyph unicode="&#x2004;" horiz-adv-x="635" />
<glyph unicode="&#x2005;" horiz-adv-x="476" />
<glyph unicode="&#x2006;" horiz-adv-x="317" />
<glyph unicode="&#x2007;" />
<glyph unicode="&#x2008;" horiz-adv-x="458" />
<glyph unicode="&#x2009;" horiz-adv-x="256" />
<glyph unicode="&#x200a;" horiz-adv-x="81" />
<glyph unicode="&#x200b;" horiz-adv-x="0" />
<glyph unicode="&#x2010;" horiz-adv-x="1189" d="M205 520v142h778v-142h-778z" />
<glyph unicode="&#x2011;" horiz-adv-x="1189" d="M205 520v142h778v-142h-778z" />
<glyph unicode="&#x2012;" horiz-adv-x="1189" d="M205 520v142h778v-142h-778z" />
<glyph unicode="&#x2013;" d="M205 520v142h956v-142h-956z" />
<glyph unicode="&#x2014;" horiz-adv-x="2050" d="M205 520v142h1638v-142h-1638z" />
<glyph unicode="&#x2018;" horiz-adv-x="458" d="M104 1196q0 76 51 153.5t136 106.5l67 -78q-45 -14 -79.5 -55.5t-40.5 -79.5q41 6 67.5 -17.5t26.5 -66.5q0 -41 -29.5 -68.5t-77.5 -27.5q-55 0 -88 35.5t-33 97.5z" />
<glyph unicode="&#x2019;" horiz-adv-x="458" d="M100 1143q43 14 78 55.5t43 79.5q-42 -6 -68 17.5t-26 66.5q0 41 29 68.5t77 27.5q55 0 87 -35.5t32 -97.5q0 -75 -50 -153t-134 -107z" />
<glyph unicode="&#x201a;" horiz-adv-x="458" d="M100 -139q44 14 78.5 55t42.5 80q-42 -6 -68 17t-26 65t28.5 69t77.5 27q55 0 87 -34.5t32 -96.5q0 -76 -50 -154t-134 -108z" />
<glyph unicode="&#x201c;" horiz-adv-x="833" d="M100 1196q0 76 51 153.5t136 106.5l65 -78q-43 -14 -78 -55.5t-41 -79.5q41 6 67 -17.5t26 -66.5q0 -41 -28.5 -68.5t-76.5 -27.5q-55 0 -88 35.5t-33 97.5zM475 1196q0 76 51 153.5t136 106.5l67 -78q-43 -14 -78 -55.5t-43 -79.5q42 6 68 -17.5t26 -66.5 q0 -41 -29 -68.5t-77 -27.5q-55 0 -88 35.5t-33 97.5z" />
<glyph unicode="&#x201d;" horiz-adv-x="833" d="M100 1143q43 14 78 55.5t43 79.5q-42 -6 -68 17.5t-26 66.5q0 41 29 68.5t77 27.5q55 0 87 -35.5t32 -97.5q0 -75 -50 -153t-134 -107zM475 1143q45 14 80 55.5t41 79.5q-41 -6 -66.5 17.5t-25.5 66.5q0 41 28 68.5t76 27.5q55 0 88 -35.5t33 -97.5q0 -76 -50.5 -153.5 t-135.5 -106.5z" />
<glyph unicode="&#x201e;" horiz-adv-x="806" d="M100 -139q44 14 78.5 55t42.5 80q-42 -6 -68 17t-26 65t28.5 69t77.5 27q55 0 87 -34.5t32 -96.5q0 -76 -50 -154t-134 -108zM449 -139q44 14 78 55t42 80q-42 -6 -68 17t-26 65t29 69t78 27q55 0 87.5 -34.5t32.5 -96.5q0 -49 -20.5 -100t-64 -96.5t-101.5 -65.5z" />
<glyph unicode="&#x2020;" d="M240 907v150h360v377h168v-377h362v-150h-362v-282q0 -136 -4.5 -290.5t-9.5 -244t-6 -90.5h-125q-1 1 -6.5 90.5t-11 244.5t-5.5 290v282h-360z" />
<glyph unicode="&#x2021;" d="M240 467v147h360v11v282h-360v150h360v377h168v-377h362v-150h-362v-282v-11h362v-147h-364q-2 -112 -6 -226.5t-7.5 -177t-4.5 -63.5h-125q-1 1 -5 63.5t-8.5 177t-7.5 226.5h-362z" />
<glyph unicode="&#x2022;" horiz-adv-x="651" d="M158 584q0 70 48 115.5t120 45.5t120 -45.5t48 -115.5q0 -72 -48 -118t-120 -46t-120 46t-48 118z" />
<glyph unicode="&#x2026;" horiz-adv-x="1421" d="M117 63q0 37 24.5 60.5t67.5 23.5t66.5 -23.5t23.5 -60.5q0 -38 -23.5 -62t-66.5 -24t-67.5 24.5t-24.5 61.5zM608 63q0 37 24.5 60.5t67.5 23.5t67 -23.5t24 -60.5q0 -38 -24 -62t-67 -24t-67.5 24.5t-24.5 61.5zM1120 63q0 37 24.5 60.5t67.5 23.5t67 -23.5t24 -60.5 q0 -38 -24 -62t-67 -24t-67.5 24.5t-24.5 61.5z" />
<glyph unicode="&#x202f;" horiz-adv-x="381" />
<glyph unicode="&#x2030;" horiz-adv-x="2062" d="M72 807q0 360 262 360t262 -360q0 -358 -262 -358t-262 358zM184 807q0 -130 38 -188t112 -58t110.5 58t36.5 188q0 132 -36.5 190t-110.5 58q-75 0 -112.5 -58.5t-37.5 -189.5zM477 0l385 1147h115l-385 -1147h-115zM862 346q0 363 262 363t262 -363q0 -360 -262 -360 t-262 360zM975 346q0 -130 37 -188t112 -58q74 0 111 58t37 188q0 131 -37 189.5t-111 58.5q-75 0 -112 -58t-37 -190zM1468 346q0 363 263 363q260 0 260 -363q0 -360 -260 -360q-263 0 -263 360zM1581 346q0 -130 37 -188t113 -58q74 0 110.5 58t36.5 188q0 132 -36.5 190 t-110.5 58q-76 0 -113 -58t-37 -190z" />
<glyph unicode="&#x2039;" horiz-adv-x="823" d="M123 571l481 480l96 -97l-393 -381v-6l393 -381l-96 -96z" />
<glyph unicode="&#x203a;" horiz-adv-x="823" d="M123 186l393 381v6l-393 381l96 97l481 -480l-481 -481z" />
<glyph unicode="&#x2044;" horiz-adv-x="282" d="M-137 0l428 1434h129l-430 -1434h-127z" />
<glyph unicode="&#x205f;" horiz-adv-x="476" />
<glyph unicode="&#x20ac;" horiz-adv-x="1232" d="M78 395v125h86l-2 64v41h-82v123h94q35 206 160.5 313.5t335.5 107.5q180 0 306 -80.5t161 -238.5l-156 -43q-10 40 -30.5 75t-55 69t-92 53.5t-131.5 19.5q-268 0 -324 -276h354v-123h-368l-2 -39q0 -12 1 -34t1 -32h368v-125h-350q62 -270 336 -270q224 0 299 192 l156 -43q-47 -132 -162.5 -215.5t-298.5 -83.5q-206 0 -335.5 106.5t-168.5 313.5h-100z" />
<glyph unicode="&#x20b9;" horiz-adv-x="999" d="M158 795v123h415q-54 106 -233 106h-182v123h782v-123h-274l-2 -6q42 -33 65 -100h211v-123h-188v-13q0 -151 -106.5 -242.5t-260.5 -101.5l293 -438h-186l-285 444v129h133q118 0 189 54.5t71 167.5h-442z" />
<glyph unicode="&#x20ba;" horiz-adv-x="1132" d="M137 375v125l127 39v104l-127 -39v125l127 39v379h160v-330l260 80v-125l-260 -80v-104l260 78v-125l-260 -80v-311h90q95 0 166 20.5t115.5 60t71 88t40.5 111.5l152 -41q-80 -389 -539 -389h-256v414z" />
<glyph unicode="&#x2116;" horiz-adv-x="2144" d="M158 0v1147h164l649 -889h4v8q0 7 -0.5 19.5t-0.5 30v39.5t-0.5 45t-0.5 50.5v53.5v643h160v-1147h-164l-652 903h-4v-7q0 -8 0.5 -22t1 -32t1 -41.5t1 -48t0.5 -54v-57.5v-641h-159zM1362 813q0 154 102.5 255t251.5 101q148 0 252.5 -101.5t104.5 -254.5 q0 -150 -104.5 -251t-252.5 -101q-149 0 -251.5 100.5t-102.5 251.5zM1384 227v113h668v-113h-668zM1473 813q0 -106 68 -176t175 -70t175.5 70t68.5 176q0 108 -68.5 179t-175.5 71t-175 -71t-68 -179z" />
<glyph unicode="&#x2117;" horiz-adv-x="1646" d="M78 543q0 214 100 385.5t269.5 265.5t373.5 94q205 0 375 -94t270.5 -265.5t100.5 -385.5q0 -213 -100.5 -385t-270.5 -266.5t-375 -94.5q-152 0 -288.5 56t-237 153t-159 237t-58.5 300zM178 545q0 -191 83.5 -340t230 -230t329.5 -81q184 0 331 80.5t231.5 229.5 t84.5 341t-84.5 340t-231.5 227.5t-331 79.5t-330 -80t-229.5 -228t-83.5 -339zM600 168v756h258q140 0 216.5 -65.5t76.5 -180.5q0 -111 -77.5 -174.5t-229.5 -63.5h-123v-272h-121zM721 541h137q83 0 127.5 35t44.5 98q0 64 -44.5 100.5t-127.5 36.5h-137v-270z" />
<glyph unicode="&#x2122;" horiz-adv-x="1605" d="M76 1327v107h563v-107h-225v-559h-113v559h-225zM770 768v666h139l146 -283q14 -25 28 -52l21 -40.5t8 -14.5h2q3 3 53 105l142 285h139v-666h-111v270v254h-2q-1 -1 -10.5 -21t-27 -56t-33.5 -66l-119 -229h-70l-119 229q-16 30 -35.5 67t-30 57t-11.5 21h-2l2 -256 v-270h-109z" />
<glyph unicode="&#x2150;" horiz-adv-x="1675" d="M96 1221l223 213h113v-693h186v-106h-489v106h184v377q0 31 3.5 98.5t5.5 75.5h-7q-1 0 -8.5 -8t-21.5 -23t-25 -26l-88 -88zM559 0l428 1434h129l-430 -1434h-127zM1051 694v107h561v-109l-355 -692h-118l280 549q15 29 34.5 65t30.5 56.5t11 21.5l-2 4q-1 0 -19.5 -0.5 t-44 -1t-43.5 -0.5h-335z" />
<glyph unicode="&#x2151;" horiz-adv-x="1675" d="M96 1221l223 213h113v-695h186v-104h-489v104h184v379q0 31 3.5 98.5t5.5 75.5h-7q-1 0 -8.5 -8t-21.5 -23t-25 -26l-88 -88zM559 0l428 1434h129l-430 -1434h-127zM1024 537q0 125 84.5 202.5t216.5 77.5q129 0 215 -79t86 -208q0 -151 -123 -299l-192 -231h-135 l297 350l-5 4q-36 -41 -73.5 -61.5t-98.5 -20.5q-120 0 -196 75t-76 190zM1133 539q-1 -80 51 -127t137 -47q84 0 136 46.5t52 125.5q0 81 -51.5 128.5t-134.5 47.5t-136 -47.5t-54 -126.5z" />
<glyph unicode="&#x2152;" horiz-adv-x="2371" d="M96 1221l223 213h113v-693h186v-106h-489v106h184v377q0 31 3.5 98.5t5.5 75.5h-7q-1 0 -8.5 -8t-21.5 -23t-25 -26l-88 -88zM559 0l428 1434h129l-430 -1434h-127zM1075 586l223 215h113v-695h186v-106h-489v106h186v379q0 37 3 101.5t6 72.5h-7q-1 0 -9 -8.5t-22.5 -24 t-25.5 -26.5l-88 -88zM1724 399q0 206 79.5 312t221.5 106q141 0 220 -106.5t79 -311.5t-79 -310t-220 -105q-143 0 -222 105t-79 310zM1845 399q0 -303 180 -303q177 0 177 303q0 306 -177 306q-180 0 -180 -306z" />
<glyph unicode="&#x2153;" horiz-adv-x="1675" d="M96 1221l223 213h113v-693h186v-106h-489v106h184v377q0 31 3.5 98.5t5.5 75.5h-7q-1 0 -8.5 -8t-21.5 -23t-25 -26l-88 -88zM559 0l428 1434h129l-430 -1434h-127zM1034 229l109 29q5 -76 56.5 -122t137.5 -46q82 0 126 40.5t44 100.5q0 62 -48 101t-126 39h-67v84h63 q77 0 123.5 38t46.5 97q0 51 -40.5 88t-129.5 37q-83 0 -121.5 -35t-52.5 -109l-100 27q39 219 282 219q136 0 205.5 -59.5t69.5 -151.5q0 -80 -47.5 -131.5t-116.5 -56.5v-8q74 -8 124 -60t50 -135q0 -101 -78.5 -166t-197.5 -65q-131 0 -214.5 68.5t-97.5 176.5z" />
<glyph unicode="&#x2154;" horiz-adv-x="1675" d="M66 635v129l333 252q113 78 113 182q0 65 -42 104t-122 39q-75 0 -117 -32t-61 -105l-98 29q49 217 284 217q128 0 201.5 -65.5t73.5 -178.5q0 -135 -146 -252q-45 -37 -115 -89t-117 -86t-50 -38l4 -6q54 6 151 6h279v-106h-571zM559 0l428 1434h129l-430 -1434h-127z M1034 229l109 29q5 -76 56.5 -122t137.5 -46q82 0 126 40.5t44 100.5q0 62 -48 101t-126 39h-67v84h63q77 0 123.5 38t46.5 97q0 51 -40.5 88t-129.5 37q-83 0 -121.5 -35t-52.5 -109l-100 27q39 219 282 219q136 0 205.5 -59.5t69.5 -151.5q0 -80 -47.5 -131.5 t-116.5 -56.5v-8q74 -8 124 -60t50 -135q0 -101 -78.5 -166t-197.5 -65q-131 0 -214.5 68.5t-97.5 176.5z" />
<glyph unicode="&#x2155;" horiz-adv-x="1675" d="M96 1221l223 213h113v-693h186v-106h-489v106h184v377q0 31 3.5 98.5t5.5 75.5h-7q-1 0 -8.5 -8t-21.5 -23t-25 -26l-88 -88zM559 0l428 1434h129l-430 -1434h-127zM1038 221l105 27q8 -72 56 -118t130 -46q80 0 129 47t49 125t-49 126t-129 48q-64 0 -106.5 -26 t-59.5 -58l-102 27l74 428h444v-107h-365l-24 -129q-4 -21 -8.5 -40t-8.5 -32t-7 -23t-5 -16l-2 -5l6 -3q26 29 74.5 51.5t108.5 22.5q118 0 194 -72.5t76 -193.5q0 -119 -78 -194.5t-207 -75.5q-127 0 -203 67t-92 170z" />
<glyph unicode="&#x2156;" horiz-adv-x="1675" d="M66 635v129l333 252q113 78 113 182q0 65 -42 104t-122 39q-75 0 -117 -32t-61 -105l-98 29q49 217 284 217q128 0 201.5 -65.5t73.5 -178.5q0 -135 -146 -252q-45 -37 -115 -89t-117 -86t-50 -38l4 -6q54 6 151 6h279v-106h-571zM559 0l428 1434h129l-430 -1434h-127z M1038 221l105 27q8 -72 56 -118t130 -46q80 0 129 47t49 125t-49 126t-129 48q-64 0 -106.5 -26t-59.5 -58l-102 27l74 428h444v-107h-365l-24 -129q-4 -21 -8.5 -40t-8.5 -32t-7 -23t-5 -16l-2 -5l6 -3q26 29 74.5 51.5t108.5 22.5q118 0 194 -72.5t76 -193.5 q0 -119 -78 -194.5t-207 -75.5q-127 0 -203 67t-92 170z" />
<glyph unicode="&#x2157;" horiz-adv-x="1675" d="M55 862l109 31q5 -78 56 -124t138 -46q82 0 126 40.5t44 100.5q0 63 -48.5 102.5t-127.5 39.5h-67v81h63q78 0 125 39t47 97q0 52 -41 88.5t-131 36.5q-82 0 -120 -35t-52 -109l-100 29q36 217 282 217q136 0 205.5 -59.5t69.5 -151.5q0 -77 -48 -129.5t-116 -58.5v-7 q74 -9 124 -61t50 -133q0 -102 -78.5 -167t-197.5 -65q-131 0 -214.5 68t-97.5 176zM559 0l428 1434h129l-430 -1434h-127zM1038 221l105 27q8 -72 56 -118t130 -46q80 0 129 47t49 125t-49 126t-129 48q-64 0 -106.5 -26t-59.5 -58l-102 27l74 428h444v-107h-365l-24 -129 q-4 -21 -8.5 -40t-8.5 -32t-7 -23t-5 -16l-2 -5l6 -3q26 29 74.5 51.5t108.5 22.5q118 0 194 -72.5t76 -193.5q0 -119 -78 -194.5t-207 -75.5q-127 0 -203 67t-92 170z" />
<glyph unicode="&#x2158;" horiz-adv-x="1675" d="M33 836v108l340 490h157v-492h136v-106h-136v-201h-114v201h-383zM152 948l4 -6h110h150v188q0 169 8 193h-8q-1 0 -131.5 -185.5t-132.5 -189.5zM559 0l428 1434h129l-430 -1434h-127zM1038 221l105 27q8 -72 56 -118t130 -46q80 0 129 47t49 125t-49 126t-129 48 q-64 0 -106.5 -26t-59.5 -58l-102 27l74 428h444v-107h-365l-24 -129q-4 -21 -8.5 -40t-8.5 -32t-7 -23t-5 -16l-2 -5l6 -3q26 29 74.5 51.5t108.5 22.5q118 0 194 -72.5t76 -193.5q0 -119 -78 -194.5t-207 -75.5q-127 0 -203 67t-92 170z" />
<glyph unicode="&#x2159;" horiz-adv-x="1675" d="M96 1221l223 213h113v-695h186v-104h-489v104h184v379q0 31 3.5 98.5t5.5 75.5h-7q-1 0 -8.5 -8t-21.5 -23t-25 -26l-88 -88zM559 0l428 1434h129l-430 -1434h-127zM1030 270q0 135 80 242l219 289h133l-288 -369l6 -4q40 46 69 64q50 30 117 30q110 0 188 -71.5 t78 -190.5q0 -123 -83 -199.5t-214 -76.5q-133 0 -219 78t-86 208zM1145 260q0 -79 52 -127.5t136 -48.5q82 0 135 48.5t54 127.5t-52 127.5t-137 48.5t-136 -48.5t-52 -127.5z" />
<glyph unicode="&#x215a;" horiz-adv-x="1675" d="M59 854l105 29q8 -73 55.5 -118.5t130.5 -45.5q79 0 128.5 47.5t49.5 124.5q0 78 -49 125t-129 47q-64 0 -106.5 -26t-59.5 -58l-102 27l74 428h444v-107h-364l-25 -129q-6 -32 -14 -60t-13 -42l-4 -13l6 -4q26 29 74.5 51.5t108.5 22.5q118 0 194 -72t76 -192 t-78 -195.5t-207 -75.5t-205 66.5t-90 169.5zM559 0l428 1434h129l-430 -1434h-127zM1030 270q0 135 80 242l219 289h133l-288 -369l6 -4q40 46 69 64q50 30 117 30q110 0 188 -71.5t78 -190.5q0 -123 -83 -199.5t-214 -76.5q-133 0 -219 78t-86 208zM1145 260 q0 -79 52 -127.5t136 -48.5q82 0 135 48.5t54 127.5t-52 127.5t-137 48.5t-136 -48.5t-52 -127.5z" />
<glyph unicode="&#x215b;" horiz-adv-x="1675" d="M96 1221l223 213h113v-693h186v-106h-489v106h184v377q0 31 3.5 98.5t5.5 75.5h-7q-1 0 -8.5 -8t-21.5 -23t-25 -26l-88 -88zM559 0l428 1434h129l-430 -1434h-127zM1028 215q0 87 56 140.5t120 64.5v6q-47 8 -95 56.5t-48 125.5q0 94 74 151.5t192 57.5q119 0 193.5 -57 t74.5 -152q0 -77 -49 -125.5t-94 -56.5v-6q65 -11 121.5 -64.5t56.5 -140.5q0 -104 -84 -167.5t-219 -63.5t-217 63.5t-82 167.5zM1139 223q0 -64 51.5 -102.5t136.5 -40.5q86 2 138.5 40.5t52.5 102.5t-53 104t-138 40t-136.5 -39t-51.5 -105zM1163 602q0 -58 45 -92.5 t119 -34.5t120 35t46 92q0 56 -46 89.5t-120 33.5q-73 0 -118.5 -33.5t-45.5 -89.5z" />
<glyph unicode="&#x215c;" horiz-adv-x="1675" d="M55 862l109 31q5 -78 56 -124t138 -46q82 0 126 40.5t44 100.5q0 63 -48.5 102.5t-127.5 39.5h-67v81h63q78 0 125 39t47 97q0 52 -41 88.5t-131 36.5q-82 0 -120 -35t-52 -109l-100 29q36 217 282 217q136 0 205.5 -59.5t69.5 -151.5q0 -77 -48 -129.5t-116 -58.5v-7 q74 -9 124 -61t50 -133q0 -102 -78.5 -167t-197.5 -65q-131 0 -214.5 68t-97.5 176zM559 0l428 1434h129l-430 -1434h-127zM1028 215q0 87 56 140.5t120 64.5v6q-47 8 -95 56.5t-48 125.5q0 94 74 151.5t192 57.5q119 0 193.5 -57t74.5 -152q0 -77 -49 -125.5t-94 -56.5v-6 q65 -11 121.5 -64.5t56.5 -140.5q0 -104 -84 -167.5t-219 -63.5t-217 63.5t-82 167.5zM1139 223q0 -64 51.5 -102.5t136.5 -40.5q86 2 138.5 40.5t52.5 102.5t-53 104t-138 40t-136.5 -39t-51.5 -105zM1163 602q0 -58 45 -92.5t119 -34.5t120 35t46 92q0 56 -46 89.5 t-120 33.5q-73 0 -118.5 -33.5t-45.5 -89.5z" />
<glyph unicode="&#x215d;" horiz-adv-x="1675" d="M59 854l105 29q8 -73 55.5 -118.5t130.5 -45.5q79 0 128.5 47.5t49.5 124.5q0 78 -49 125t-129 47q-64 0 -106.5 -26t-59.5 -58l-102 27l74 428h444v-107h-364l-25 -129q-6 -32 -14 -60t-13 -42l-4 -13l6 -4q26 29 74.5 51.5t108.5 22.5q118 0 194 -72t76 -192 t-78 -195.5t-207 -75.5t-205 66.5t-90 169.5zM559 0l428 1434h129l-430 -1434h-127zM1028 215q0 87 56 140.5t120 64.5v6q-47 8 -95 56.5t-48 125.5q0 94 74 151.5t192 57.5q119 0 193.5 -57t74.5 -152q0 -77 -49 -125.5t-94 -56.5v-6q65 -11 121.5 -64.5t56.5 -140.5 q0 -104 -84 -167.5t-219 -63.5t-217 63.5t-82 167.5zM1139 223q0 -64 51.5 -102.5t136.5 -40.5q86 2 138.5 40.5t52.5 102.5t-53 104t-138 40t-136.5 -39t-51.5 -105zM1163 602q0 -58 45 -92.5t119 -34.5t120 35t46 92q0 56 -46 89.5t-120 33.5q-73 0 -118.5 -33.5 t-45.5 -89.5z" />
<glyph unicode="&#x215e;" horiz-adv-x="1675" d="M72 1327v107h561v-109l-354 -690h-121l282 549q15 29 34.5 64.5t30.5 55.5t11 21l-2 4q-1 0 -19 -0.5t-43.5 -1t-43.5 -0.5h-336zM559 0l428 1434h129l-430 -1434h-127zM1028 215q0 87 56 140.5t120 64.5v6q-47 8 -95 56.5t-48 125.5q0 94 74 151.5t192 57.5 q119 0 193.5 -57t74.5 -152q0 -77 -49 -125.5t-94 -56.5v-6q65 -11 121.5 -64.5t56.5 -140.5q0 -104 -84 -167.5t-219 -63.5t-217 63.5t-82 167.5zM1139 223q0 -64 51.5 -102.5t136.5 -40.5q86 2 138.5 40.5t52.5 102.5t-53 104t-138 40t-136.5 -39t-51.5 -105zM1163 602 q0 -58 45 -92.5t119 -34.5t120 35t46 92q0 56 -46 89.5t-120 33.5q-73 0 -118.5 -33.5t-45.5 -89.5z" />
<glyph unicode="&#x215f;" horiz-adv-x="978" d="M96 1221l223 213h113v-695h186v-104h-489v104h184v379q0 31 3.5 98.5t5.5 75.5h-7q-1 0 -8.5 -8t-21.5 -23t-25 -26l-88 -88zM559 0l428 1434h129l-430 -1434h-127z" />
<glyph unicode="&#x2189;" horiz-adv-x="1646" d="M47 1032q0 207 79 312.5t222 105.5t222 -105.5t79 -312.5q0 -205 -79 -309.5t-222 -104.5t-222 104.5t-79 309.5zM170 1032q0 -303 178 -303t178 303q0 305 -178 305t-178 -305zM530 0l428 1434h129l-430 -1434h-127zM1006 229l108 29q5 -76 56.5 -122t138.5 -46 q82 0 126 40.5t44 100.5q0 62 -48 101t-126 39h-68v84h63q77 0 123.5 38t46.5 97q0 51 -40.5 88t-129.5 37q-83 0 -121.5 -35t-52.5 -109l-100 27q39 219 283 219q136 0 205 -59.5t69 -151.5q0 -80 -47.5 -131.5t-116.5 -56.5v-8q74 -8 124 -60t50 -135q0 -101 -78.5 -166 t-197.5 -65q-131 0 -214 68.5t-97 176.5z" />
<glyph unicode="&#x2212;" d="M295 520v142h778v-142h-778z" />
<glyph unicode="&#x2260;" d="M295 336v141h264l107 234h-371v141h434l113 250h143l-113 -250h201v-141h-264l-104 -234h368v-141h-434l-109 -244h-147l111 244h-199z" />
<glyph unicode="&#x2264;" d="M221 0v141h924v-141h-924zM221 594v166l924 368v-149l-768 -299v-6l768 -301v-150z" />
<glyph unicode="&#x2265;" d="M223 0v141h924v-141h-924zM223 223v150l768 301v6l-768 299v149l924 -368v-166z" />
<glyph unicode="&#x25ca;" horiz-adv-x="1587" d="M47 719l746 743l745 -743l-745 -746zM242 719l551 -549l553 549l-553 549z" />
<glyph unicode="&#x25fc;" horiz-adv-x="1146" d="M0 0v1147h1147v-1147h-1147z" />
<glyph unicode="&#xf8ff;" horiz-adv-x="1579" d="M158 4q12 -6 32 -6q25 0 37.5 10t12.5 25q0 22 -29 33q-23 8 -23 14q0 8 15 8q8 0 24 -8l6 24q-11 7 -30 7t-31 -10.5t-12 -24.5q0 -23 30 -33q19 -6 19 -12q0 -11 -14 -11q-2 0 -29 9zM158 168h88q191 0 296.5 8.5t128.5 16.5t40 24l55 47l22 21l27 -21l55 -47 q17 -16 38.5 -23.5t126.5 -16t298 -9.5h90v92q-1 185 -9.5 290t-15.5 126t-20 39l-51 59l-22 27l22 24l45 54q17 17 25 38.5t16.5 126.5t9.5 299v91h-90q-193 0 -298.5 -9t-126.5 -17.5t-40 -25.5l-41 -34l-34 -33l-37 33l-41 38q-18 14 -39 21.5t-129 16.5t-301 10h-88v-91 q0 -190 8.5 -297t16.5 -128t22 -39l49 -56l20 -22l-20 -25l-49 -55q-14 -17 -22 -37.5t-16.5 -128t-8.5 -299.5v-88zM242 109l34 -68v-41h29v41l35 68h-33l-16 -48l-15 48h-34zM336 348q8 227 14 270l162 183l-162 182q-6 42 -14 272q200 -3 272 -14l180 -166l187 166 q72 11 270 14q-8 -229 -14 -272l-166 -182l166 -187q7 -74 14 -266q-217 4 -272 14l-185 162l-182 -162q-52 -10 -270 -14zM350 0h29l-2 72l39 -72h30v109h-26v-66l-33 66h-37v-109zM457 86h28v-86h27v86h29v23h-84v-23zM551 0h31v43h36v-43h29v109h-29v-41h-36v41h-31v-109 zM657 109l35 -109h33l35 109h-31l-20 -80l-19 80h-33zM770 0h31v109h-31v-109zM817 0h74v23h-43v20h39v23h-39v20h43v23h-74v-109zM899 109l27 -109h30l15 72l12 -72h33l26 109h-28l-15 -74l-12 74h-31l-12 -74l-14 74h-31zM1032 10q0 13 12 13q13 0 13 -13q0 -12 -13 -12 q-12 0 -12 12zM1059 51q0 -24 14 -38.5t43 -14.5q17 0 29 4l-6 25q-7 -7 -19 -7q-14 0 -22 9t-8 24q0 17 8.5 26t21.5 9t19 -6l8 24q-10 5 -29 5q-26 0 -42.5 -16t-16.5 -44zM1149 53q0 -24 14 -39.5t41 -15.5q25 0 40.5 14.5t15.5 40.5q0 25 -15 41.5t-41 16.5t-40.5 -16.5 t-14.5 -41.5zM1180 53q0 35 24 35q10 0 16.5 -10t6.5 -25q0 -33 -23 -33q-24 0 -24 33zM1268 0h28l2 82l23 -80h20l23 80v-82h29l-4 109h-39l-19 -70l-16 70h-39z" />
<glyph horiz-adv-x="1574" d="M78 721q0 166 56.5 305.5t154.5 234.5t233.5 148t292.5 53q237 0 408 -111t243 -280l-161 -45q-19 34 -43 67t-68 73t-95 69.5t-127 49.5t-161 20q-252 0 -408.5 -159.5t-156.5 -426.5q0 -133 43.5 -244t119 -185.5t178 -115.5t220.5 -41q174 0 311 84t205 229l162 -43 q-83 -201 -262.5 -315.5t-407.5 -114.5q-208 0 -375.5 91.5t-264.5 263t-97 393.5zM735 1544l121 361l135 -31l-117 -330h-139z" />
<glyph horiz-adv-x="956" d="M133 0v156h262v1122h-262v156h690v-156h-262v-1122h262v-156h-690z" />
<glyph horiz-adv-x="1955" d="M133 0v156h262v1122h-262v156h690v-156h-262v-1122h262v-156h-690zM956 137l95 131q106 -135 266 -135q169 0 246 111.5t77 337.5v852h170v-861q0 -290 -125.5 -445t-367.5 -155q-226 0 -361 164z" />
<glyph horiz-adv-x="1955" d="M133 0v156h262v1122h-262v156h690v-156h-262v-1122h262v-156h-690zM956 137l95 131q103 -135 266 -135q169 0 246 111.5t77 337.5v696h-561v156h731v-861q0 -290 -125.5 -445t-367.5 -155q-223 0 -361 164z" />
<glyph horiz-adv-x="1480" d="M158 0v1434h166v-1434h-166zM481 137l94 131q103 -135 267 -135q169 0 246 111.5t77 337.5v696h-561v156h731v-861q0 -290 -125.5 -445t-367.5 -155q-223 0 -361 164z" />
<glyph horiz-adv-x="956" d="M133 0v156h262v1122h-262v156h690v-156h-262v-1122h262v-156h-690zM371 1544l213 330l137 -45l-195 -285h-155z" />
<glyph horiz-adv-x="1507" d="M133 1544l213 330l137 -45l-194 -285h-156zM158 0v1434h166v-1434h-166zM508 137l94 131q106 -135 266 -135q169 0 246.5 111.5t77.5 337.5v852h170v-861q0 -290 -126 -445t-368 -155q-222 0 -360 164zM1176 1544l213 330l137 -45l-195 -285h-155z" />
<glyph horiz-adv-x="956" d="M133 0v156h262v1122h-262v156h690v-156h-262v-1122h262v-156h-690zM182 1640l293 242l293 -242l-78 -94l-215 180l-215 -178z" />
<glyph horiz-adv-x="956" d="M133 0v156h262v1122h-262v156h690v-156h-262v-1122h262v-156h-690zM193 1683q0 40 27.5 68.5t66.5 28.5q38 0 65 -28.5t27 -68.5q0 -39 -27.5 -66.5t-66.5 -27.5q-38 0 -65 28t-27 66zM578 1683q0 40 28 68.5t66 28.5q40 0 68 -28.5t28 -68.5q0 -38 -28 -66t-68 -28 q-38 0 -66 28t-28 66z" />
<glyph horiz-adv-x="956" d="M133 0v156h262v1122h-262v156h690v-156h-262v-1122h262v-156h-690zM385 1683q0 40 27.5 68.5t66.5 28.5q38 0 66 -28.5t28 -68.5q0 -38 -28 -66t-66 -28q-39 0 -66.5 27.5t-27.5 66.5z" />
<glyph horiz-adv-x="956" d="M133 0v156h262v1122h-262v156h690v-156h-262v-1122h262v-156h-690zM225 1829l137 45l213 -330h-155z" />
<glyph horiz-adv-x="1005" d="M158 0v156h262v1122h-262v156h690v-156h-262v-1122h262v-156h-690zM158 1595v134h690v-134h-690z" />
<glyph horiz-adv-x="956" d="M133 0v156h262v1122h-262v156h690v-156h-262v-1122h262v-156h-86q-196 -16 -196 -123q0 -50 34 -76t95 -26q100 0 159 35v-127q-65 -35 -170 -35q-113 0 -184.5 58t-71.5 153q0 82 56 141h-326z" />
<glyph horiz-adv-x="999" d="M0 137l94 131q103 -135 266 -135q169 0 246.5 111.5t77.5 337.5v696h-561v156h729v-861q0 -290 -126 -445t-366 -155q-222 0 -360 164z" />
<glyph horiz-adv-x="999" d="M0 137l94 131q103 -135 266 -135q169 0 246.5 111.5t77.5 337.5v696h-561v156h729v-861q0 -290 -126 -445t-366 -155q-222 0 -360 164zM184 1640l293 242l293 -242l-78 -94l-215 180l-215 -178z" />
<glyph horiz-adv-x="1488" d="M158 0v1434h174l829 -684h4v331v353h168v-1434h-168v535l-837 690h-4v-385v-840h-166z" />
<glyph horiz-adv-x="1488" d="M158 0v1434h168l839 -1155h4v10q0 10 -0.5 28t-1 42t-1 54.5t-1 62t-0.5 68v70.5v820h168v-1434h-170l-839 1165h-5l1 -10v-28t1 -42t1.5 -55t0.5 -63.5t0.5 -71t0.5 -74.5v-821h-166zM676 1544l119 361l135 -31l-115 -330h-139z" />
<glyph horiz-adv-x="1488" d="M158 0v1434h174l829 -684h4v331v353h168v-1434h-168v535l-837 690h-4v-385v-840h-166zM676 1544l121 361l135 -31l-117 -330h-139z" />
<glyph horiz-adv-x="1488" d="M158 0v1434h174l829 -684h4v331v353h168v-1434h-168v535l-837 690h-4v-385v-840h-166zM647 1544l213 330l137 -45l-194 -285h-156z" />
<glyph horiz-adv-x="1488" d="M158 0v1434h174l829 -684h4v331v353h168v-1434h-168v535l-837 690h-4v-385v-840h-166zM463 1782l80 92l215 -176l215 176l78 -92l-293 -238z" />
<glyph horiz-adv-x="1488" d="M158 0v1434h174l829 -684h4v331v353h168v-1434h-168v535l-837 690h-4v-385v-840h-166zM608 -326q36 12 68.5 45.5t40.5 63.5q-40 -7 -66 14.5t-26 57.5q0 40 27.5 64t74.5 24q49 0 78 -28.5t29 -82.5q0 -71 -44.5 -132t-125.5 -91z" />
<glyph horiz-adv-x="1488" d="M158 0v1434h174l502 -404q326 -259 327 -260h4v311v353h168v-1434q0 -94 -24.5 -160t-70.5 -102t-102.5 -52t-131.5 -16h-43v127h51q78 0 118.5 48t40.5 155v559l-423 342q-412 332 -420 340h-4v-401v-840h-166z" />
<glyph horiz-adv-x="1488" d="M158 0v1434h174l829 -684h4v331v353h168v-1434h-168v535l-837 690h-4v-385v-840h-166zM426 1726q65 72 166 72q58 0 149 -36t152 -36q80 0 143 54l33 -121q-17 -22 -59 -44t-105 -22q-59 0 -151 35t-148 35q-95 0 -145 -57z" />
<glyph horiz-adv-x="1642" d="M78 719q0 163 57 302.5t156.5 236t236.5 150.5t293 54t292.5 -54t236.5 -150.5t157.5 -236t57.5 -302.5q0 -164 -57.5 -304t-157.5 -236.5t-236.5 -151t-292.5 -54.5q-209 0 -378 92.5t-267 263.5t-98 390zM246 719q0 -178 76.5 -312.5t206 -204t292.5 -69.5 q162 0 292 69.5t207 204t77 312.5t-77 312.5t-207 204t-292 69.5t-292 -70t-206.5 -204.5t-76.5 -311.5zM743 1544l119 361l137 -31l-116 -330h-140z" />
<glyph horiz-adv-x="1695" d="M78 731q0 159 58.5 296t158 232t236 149t288.5 54q204 0 373 -92t269 -259.5t100 -375.5q0 -211 -100 -365.5t-261 -219.5l2 -5l6 1q5 0 15 1t24 2t33 2.5t41 2.5t49.5 1.5t56.5 0.5h183v-156h-793q-203 0 -372 93.5t-268 261.5t-99 376zM246 731q0 -166 74.5 -297.5 t205 -203.5t293.5 -72t293.5 72t205.5 203.5t75 297.5q0 254 -163 414t-411 160t-410.5 -160t-162.5 -414z" />
<glyph horiz-adv-x="1214" d="M72 377l159 43q12 -148 122.5 -222.5t283.5 -74.5q160 0 248 64.5t88 191.5q0 43 -11.5 78.5t-28 60.5t-46 45.5t-55 32.5t-66.5 24t-68 17.5t-73 14.5t-68 14q-51 12 -86.5 21.5t-86 27.5t-85 37.5t-72.5 51t-61 68t-38 88t-15 111.5q0 186 129 288.5t356 102.5 q206 0 343 -88.5t181 -267.5l-159 -43q-62 250 -367 250q-154 0 -233.5 -62.5t-79.5 -173.5q0 -35 7.5 -64.5t24.5 -52.5t35 -41.5t49 -33.5t56.5 -25.5t66.5 -21.5t70 -17.5t76 -15.5q54 -10 94 -19.5t93 -27.5t90.5 -38t77 -52.5t64 -71.5t40.5 -94t16 -121 q0 -200 -133 -304t-375 -104q-78 0 -147.5 10.5t-141.5 38.5t-126.5 72.5t-94.5 116.5t-53 166zM528 1544l119 361l135 -31l-114 -330h-140z" />
<glyph horiz-adv-x="1345" d="M35 1434h192l322 -471q32 -46 64 -93t47 -70t16 -24h4l15 23q15 23 45 68t63 91l325 476h183l-490 -715h250v-154h-315v-565h-168v565h-312v154h246z" />
<glyph horiz-adv-x="1345" d="M35 1434h192l322 -471q32 -46 64 -93t47 -70t16 -24h4l15 23q15 23 45 68t63 91l325 476h183l-490 -715h250v-154h-315v-565h-168v565h-312v154h246zM573 1544l213 330l138 -45l-195 -285h-156z" />
<glyph horiz-adv-x="1345" d="M35 1434h192l322 -471q32 -46 64 -93t47 -70t16 -24h4l15 23q15 23 45 68t63 91l325 476h183l-490 -715h250v-154h-315v-565h-168v565h-312v154h246zM385 1640l293 242l293 -242l-78 -94l-215 180l-215 -178z" />
<glyph horiz-adv-x="1345" d="M35 1434h192l322 -471q32 -46 64 -93t47 -70t16 -24h4l15 23q15 23 45 68t63 91l325 476h183l-490 -715h250v-154h-315v-565h-168v565h-312v154h246zM395 1683q0 40 27.5 68.5t66.5 28.5q38 0 65.5 -28.5t27.5 -68.5q0 -39 -28 -66.5t-67 -27.5q-38 0 -65 28t-27 66z M780 1683q0 40 28.5 68.5t68.5 28.5q38 0 66 -28.5t28 -68.5q0 -38 -28 -66t-66 -28q-40 0 -68.5 28t-28.5 66z" />
<glyph horiz-adv-x="1345" d="M35 1434h192l322 -471q32 -46 64 -93t47 -70t16 -24h4l15 23q15 23 45 68t63 91l325 476h183l-490 -715h250v-154h-315v-565h-168v565h-312v154h246zM428 1829l137 45l213 -330h-155z" />
<glyph horiz-adv-x="1339" d="M86 0v154l803 946q45 53 85.5 96.5t56.5 60t16 17.5l-3 6h-8q-9 0 -24 -0.5t-35 -1t-48.5 -0.5h-58.5h-764v156h1147v-160l-786 -928q-53 -63 -95.5 -110t-57.5 -62l-15 -16l4 -4h9q9 0 25 0.5t36.5 1t49.5 0.5h58h772v-156h-1167zM598 1544l121 361l135 -31l-117 -330 h-139z" />
<glyph horiz-adv-x="1320" d="M78 573q0 169 78.5 305.5t217 213.5t310.5 77q117 0 220 -36t187.5 -113.5t131.5 -188.5l-152 -40q-12 21 -17.5 29.5t-26.5 37t-39.5 45.5t-51.5 42.5t-67 40t-82 25.5t-101 11q-195 0 -320.5 -125.5t-125.5 -323.5q0 -199 126 -324.5t318 -125.5q135 0 236 63t157 166 l154 -41q-74 -154 -217 -245t-328 -91q-173 0 -312 77t-217.5 213.5t-78.5 307.5zM600 1257l121 361l135 -31l-117 -330h-139z" />
<glyph horiz-adv-x="858" d="M133 0v150h217v847h-217v150h594v-150h-217v-847h217v-150h-594z" />
<glyph horiz-adv-x="858" d="M133 0v150h217v847h-217v150h594v-150h-217v-847h217v-150h-594z" />
<glyph horiz-adv-x="858" d="M133 0v150h217v847h-217v150h594v-150h-217v-847h217v-150h-594zM317 1257l213 330l138 -45l-195 -285h-156z" />
<glyph horiz-adv-x="1355" d="M131 1257l213 330l137 -45l-194 -285h-156zM158 0v1147h159v-1147h-159zM489 102l86 117q84 -96 218 -96q135 0 196.5 86t61.5 260v678h159v-684q0 -236 -107 -362t-310 -126q-195 0 -304 127zM1022 1257l213 330l137 -45l-194 -285h-156z" />
<glyph horiz-adv-x="858" d="M129 1354l293 241l291 -241l-78 -94l-213 180l-215 -178zM133 0v150h217v847h-217v150h594v-150h-217v-847h217v-150h-594z" />
<glyph horiz-adv-x="858" d="M133 0v150h217v847h-217v150h594v-150h-217v-847h217v-150h-594zM137 1397q0 40 28 68t68 28q38 0 65.5 -28t27.5 -68q0 -39 -28 -66.5t-67 -27.5q-38 0 -66 28t-28 66zM524 1397q0 40 27 68t67 28t67.5 -28t27.5 -68q0 -39 -27.5 -66.5t-67.5 -27.5q-39 0 -66.5 27.5 t-27.5 66.5z" />
<glyph horiz-adv-x="475" d="M143 1397q0 40 28.5 68t68.5 28q38 0 66 -28t28 -68q0 -38 -28 -66t-66 -28q-40 0 -68.5 28t-28.5 66zM158 0v1147h159v-1147h-159z" />
<glyph horiz-adv-x="858" d="M133 0v150h217v847h-217v150h594v-150h-217v-847h217v-150h-594zM330 1397q0 40 28 68t68 28q38 0 66 -28t28 -68q0 -38 -28 -66t-66 -28q-40 0 -68 28t-28 66z" />
<glyph horiz-adv-x="858" d="M133 0v150h217v847h-217v150h594v-150h-217v-847h217v-150h-594zM172 1542l137 45l213 -330h-155z" />
<glyph horiz-adv-x="1726" d="M133 0v150h217v847h-217v150h594v-150h-217v-847h217v-150h-594zM858 102l88 117q84 -96 217 -96q135 0 196.5 86t61.5 260v678h160v-684q0 -236 -107.5 -362t-310.5 -126q-193 0 -305 127z" />
<glyph horiz-adv-x="1726" d="M133 0v150h217v847h-217v150h594v-150h-217v-847h217v-150h-594zM858 102l88 117q83 -96 217 -96q135 0 196.5 86t61.5 260v528h-442v150h602v-684q0 -236 -107.5 -362t-310.5 -126q-190 0 -305 127z" />
<glyph horiz-adv-x="1341" d="M158 0v1147h159v-1147h-159zM475 102l86 117q83 -96 217 -96q135 0 196.5 86t61.5 260v528h-442v150h602v-684q0 -236 -107.5 -362t-310.5 -126q-191 0 -303 127z" />
<glyph horiz-adv-x="909" d="M158 0v150h217v847h-217v150h594v-150h-217v-847h217v-150h-594zM158 1300v142h594v-142h-594z" />
<glyph horiz-adv-x="858" d="M133 0v150h217v847h-217v150h594v-150h-217v-847h217v-150h-94q-197 -16 -197 -123q0 -50 34 -76t95 -26q101 0 160 35v-127q-65 -35 -170 -35q-112 0 -184 58.5t-72 152.5q0 84 57 141h-223z" />
<glyph horiz-adv-x="868" d="M0 102l88 117q80 -96 215 -96t196.5 86t61.5 260v528h-440v150h600v-684q0 -235 -107 -361.5t-309 -126.5q-190 0 -305 127z" />
<glyph horiz-adv-x="868" d="M0 102l88 117q80 -96 215 -96t196.5 86t61.5 260v528h-440v150h600v-684q0 -235 -107 -361.5t-309 -126.5q-190 0 -305 127z" />
<glyph horiz-adv-x="868" d="M0 102l88 117q80 -96 215 -96t196.5 86t61.5 260v528h-440v150h600v-684q0 -235 -107 -361.5t-309 -126.5q-190 0 -305 127zM115 1354l293 241l290 -241l-77 -94l-213 180l-215 -178z" />
<glyph horiz-adv-x="1290" d="M158 0v1147h170l641 -524h4v221v303h160v-1147h-160v426l-654 535h-6q4 -145 4 -299v-662h-159z" />
<glyph horiz-adv-x="1290" d="M158 0v1147h164l649 -889h4v8q0 7 -0.5 19.5t-0.5 30v39.5t-0.5 45t-0.5 50.5v53.5v643h160v-1147h-164l-652 903h-4v-7q0 -8 0.5 -22t1 -32t1 -41.5t1 -48t0.5 -54v-57.5v-641h-159zM557 1257l121 361l135 -31l-117 -330h-139z" />
<glyph horiz-adv-x="1290" d="M158 0v1147h170l641 -524h4v221v303h160v-1147h-160v426l-654 535h-6q4 -145 4 -299v-662h-159zM557 1257l121 361l135 -31l-117 -330h-139z" />
<glyph horiz-adv-x="1290" d="M158 0v1147h170l641 -524h4v221v303h160v-1147h-160v426l-654 535h-6q4 -145 4 -299v-662h-159zM528 1257l213 330l138 -45l-195 -285h-156z" />
<glyph horiz-adv-x="1290" d="M158 0v1147h170l641 -524h4v221v303h160v-1147h-160v426l-654 535h-6q4 -145 4 -299v-662h-159zM344 1495l80 92l215 -176l215 176l78 -92l-293 -238z" />
<glyph horiz-adv-x="1290" d="M158 0v1147h170l641 -524h4v221v303h160v-1147h-160v426l-654 535h-6q4 -145 4 -299v-662h-159zM520 -326q36 12 68.5 45.5t40.5 63.5q-40 -7 -66 14.5t-26 57.5q0 40 27.5 64t74.5 24q49 0 77.5 -28.5t28.5 -82.5q0 -71 -44.5 -132t-125.5 -91z" />
<glyph horiz-adv-x="1290" d="M158 0v1147h170l641 -524h4v221v303h160v-1147h-160v426l-654 535h-6q4 -145 4 -299v-662h-159zM778 -207h37q158 0 158 207h160q0 -330 -304 -330h-51v123z" />
<glyph horiz-adv-x="1290" d="M158 0v1147h170l641 -524h4v221v303h160v-1147h-160v426l-654 535h-6q4 -145 4 -299v-662h-159zM340 1442q15 24 53 46.5t92 22.5q53 0 136.5 -35.5t138.5 -35.5q30 0 57.5 10.5t37 18t28.5 24.5l32 -123q-12 -20 -51.5 -41.5t-91.5 -21.5q-55 0 -139.5 34.5t-134.5 34.5 q-75 0 -125 -57z" />
<glyph horiz-adv-x="1361" d="M78 571q0 171 79.5 308.5t217 213.5t305.5 76t305.5 -76t217 -213.5t79.5 -308.5q0 -127 -46.5 -238t-126.5 -189.5t-191.5 -123.5t-237.5 -45t-237.5 45t-191.5 123.5t-126.5 189.5t-46.5 238zM240 571q0 -196 125.5 -322t314.5 -126t314.5 126t125.5 322 q0 199 -125 325t-315 126t-315 -126t-125 -325zM602 1257l121 361l135 -31l-117 -330h-139z" />
<glyph horiz-adv-x="1394" d="M78 586q0 168 80.5 301.5t217.5 205.5t304 72t303.5 -71t216.5 -202.5t80 -297.5q0 -159 -79 -278t-208 -175l2 -2q1 0 10.5 1t26.5 2.5t38.5 3.5t52 3t61.5 1h133v-150h-641q-165 0 -301.5 73t-216.5 208t-80 305zM240 584q0 -191 126 -314t316 -123q189 0 314.5 123 t125.5 314q0 193 -125 313.5t-315 120.5q-191 0 -316.5 -120.5t-125.5 -313.5z" />
<glyph horiz-adv-x="1024" d="M72 285l145 39q12 -101 95 -160.5t218 -59.5q121 0 191 51t70 150q0 29 -5.5 53.5t-19.5 43.5t-27 33.5t-39 27t-44 20.5t-53.5 17.5t-56 14t-63 13t-63.5 13.5q-37 8 -63 15t-62.5 20t-62 28t-53 39t-44.5 52t-28 68t-11 87q0 155 108 237t302 82q177 0 290 -70 t146 -208l-141 -39q-51 188 -285 188q-123 0 -189.5 -47.5t-66.5 -136.5q0 -41 16 -71.5t39.5 -50t68.5 -36t82.5 -25.5t102.5 -22q43 -9 68 -14.5t70.5 -20t74 -29.5t64.5 -42t56.5 -58.5t35 -78t14.5 -101.5q0 -164 -114 -248t-308 -84q-59 0 -113.5 7.5t-113 28.5 t-103.5 54.5t-80 90t-48 129.5zM438 1257l119 361l135 -31l-114 -330h-140z" />
<glyph horiz-adv-x="1374" d="M158 0v1434h1009l-313 -560l4 -4h12q194 0 318.5 -117t124.5 -315q0 -129 -53.5 -233t-161 -168t-252.5 -64q-191 0 -338 115l76 127q104 -88 245 -88q142 0 229 84.5t87 218.5q0 132 -83 211.5t-228 79.5h-164v141l227 412l-4 4h-133h-436v-1278h-166z" />
<glyph horiz-adv-x="1107" d="M35 1147h182l184 -281q40 -59 79.5 -119.5t59.5 -90.5l19 -31h4q1 1 20 30t60 92t80 121l182 279h168l-387 -594h240v-147h-293v-406h-160v406h-285v147h234z" />
<glyph horiz-adv-x="1107" d="M35 1147h182l184 -281q40 -59 79.5 -119.5t59.5 -90.5l19 -31h4q1 1 20 30t60 92t80 121l182 279h168l-387 -594h240v-147h-293v-406h-160v406h-285v147h234zM461 1257l213 330l137 -45l-195 -285h-155z" />
<glyph horiz-adv-x="1107" d="M35 1147h182l184 -281q40 -59 79.5 -119.5t59.5 -90.5l19 -31h4q1 1 20 30t60 92t80 121l182 279h168l-387 -594h240v-147h-293v-406h-160v406h-285v147h234zM272 1354l293 241l291 -241l-78 -94l-213 180l-215 -178z" />
<glyph horiz-adv-x="1107" d="M35 1147h182l184 -281q40 -59 79.5 -119.5t59.5 -90.5l19 -31h4q1 1 20 30t60 92t80 121l182 279h168l-387 -594h240v-147h-293v-406h-160v406h-285v147h234zM281 1397q0 40 28 68t68 28q38 0 65 -28t27 -68q0 -39 -27.5 -66.5t-66.5 -27.5q-38 0 -66 28t-28 66z M668 1397q0 40 27 68t67 28t67 -28t27 -68q0 -39 -27.5 -66.5t-66.5 -27.5t-66.5 27.5t-27.5 66.5z" />
<glyph horiz-adv-x="1107" d="M35 1147h182l184 -281q40 -59 79.5 -119.5t59.5 -90.5l19 -31h4q1 1 20 30t60 92t80 121l182 279h168l-387 -594h240v-147h-293v-406h-160v406h-285v147h234zM315 1542l138 45l213 -330h-156z" />
<glyph horiz-adv-x="1140" d="M86 0v152l573 634q64 71 113 123.5t63.5 67.5t14.5 16l-4 4h-146h-598v150h953v-152l-549 -616q-75 -85 -128.5 -141.5t-69.5 -71.5l-15 -14l4 -5q62 3 156 3h602v-150h-969zM492 1257l120 361l136 -31l-117 -330h-139z" />
<glyph horiz-adv-x="1955" d="M133 0v156h262v1122h-262v156h690v-156h-262v-1122h262v-156h-690zM371 1544l213 330l137 -45l-195 -285h-155zM956 137l95 131q106 -135 266 -135q169 0 246 111.5t77 337.5v852h170v-861q0 -290 -125.5 -445t-367.5 -155q-226 0 -361 164zM1622 1544l213 330l137 -45 l-194 -285h-156z" />
<glyph horiz-adv-x="1955" d="M133 0v156h262v1122h-262v156h690v-156h-262v-1122h262v-156h-690zM371 1544l213 330l137 -45l-195 -285h-155zM956 137l95 131q103 -135 266 -135q169 0 246 111.5t77 337.5v696h-561v156h731v-861q0 -290 -125.5 -445t-367.5 -155q-223 0 -361 164zM1329 1544l213 330 l137 -45l-194 -285h-156z" />
<glyph horiz-adv-x="1480" d="M133 1544l213 330l137 -45l-194 -285h-156zM158 0v1434h166v-1434h-166zM481 137l94 131q103 -135 267 -135q169 0 246 111.5t77 337.5v696h-561v156h731v-861q0 -290 -125.5 -445t-367.5 -155q-223 0 -361 164zM854 1544l213 330l137 -45l-194 -285h-156z" />
<glyph horiz-adv-x="1726" d="M133 0v150h217v847h-217v150h594v-150h-217v-847h217v-150h-594zM317 1257l213 330l138 -45l-195 -285h-156zM858 102l88 117q84 -96 217 -96q135 0 196.5 86t61.5 260v678h160v-684q0 -236 -107.5 -362t-310.5 -126q-193 0 -305 127zM1393 1257l213 330l137 -45 l-195 -285h-155z" />
<glyph horiz-adv-x="1726" d="M133 0v150h217v847h-217v150h594v-150h-217v-847h217v-150h-594zM317 1257l213 330l138 -45l-195 -285h-156zM858 102l88 117q83 -96 217 -96q135 0 196.5 86t61.5 260v528h-442v150h602v-684q0 -236 -107.5 -362t-310.5 -126q-190 0 -305 127zM1161 1257l213 330 l137 -45l-194 -285h-156z" />
<glyph horiz-adv-x="1341" d="M131 1257l213 330l137 -45l-194 -285h-156zM158 0v1147h159v-1147h-159zM475 102l86 117q83 -96 217 -96q135 0 196.5 86t61.5 260v528h-442v150h602v-684q0 -236 -107.5 -362t-310.5 -126q-191 0 -303 127zM776 1257l213 330l137 -45l-194 -285h-156z" />
<glyph horiz-adv-x="819" d="M72 516v113h676v-113h-676zM72 768l274 666h127l272 -666h-114l-64 160h-319l-64 -160h-112zM283 1016h249l-53 131q-17 43 -34.5 88.5t-25.5 67.5t-9 22h-4q-1 0 -9 -21.5t-26 -68t-35 -88.5z" />
<glyph horiz-adv-x="854" d="M72 1100q0 154 102.5 255t251.5 101q148 0 252 -101.5t104 -254.5q0 -150 -104 -251t-252 -101q-149 0 -251.5 100.5t-102.5 251.5zM94 514v113h668v-113h-668zM182 1100q0 -106 68.5 -176t175.5 -70t175.5 70t68.5 176q0 108 -68.5 179t-175.5 71t-175.5 -71t-68.5 -179 z" />
<glyph horiz-adv-x="696" d="M47 399q0 207 79 312.5t222 105.5t222 -105.5t79 -312.5q0 -205 -79 -309t-222 -104t-222 104t-79 309zM170 399q0 -95 18 -159l267 424q-38 41 -107 41q-178 0 -178 -306zM242 139q43 -43 106 -43q178 0 178 303q0 93 -16 162z" />
<glyph horiz-adv-x="1284" d="M76 717q0 117 17.5 221.5t59.5 201.5t105.5 167.5t162 112.5t222.5 42q123 0 221 -42t161.5 -112t105.5 -167t59.5 -202t17.5 -222q0 -120 -17.5 -225.5t-59.5 -202.5t-105.5 -166.5t-161.5 -110.5t-221 -41q-124 0 -222 41t-162 110.5t-106 166.5t-59.5 202.5 t-17.5 225.5zM244 717q0 -588 399 -588q397 0 397 588t-397 588q-399 0 -399 -588z" />
<glyph horiz-adv-x="811" d="M96 1081l367 353h158v-1434h-168v963q0 57 2.5 127t4.5 109.5t1 39.5h-4q-1 0 -19.5 -19.5t-44.5 -46.5t-41 -40l-159 -160z" />
<glyph horiz-adv-x="1196" d="M92 1081q31 189 165 285t341 96q236 0 367 -120t131 -318q0 -81 -22 -148t-72 -132.5t-115.5 -125t-169.5 -137.5l-416 -323l2 -4q1 0 27 0.5t75.5 1t106.5 0.5h590v-156h-1000v188l510 406q90 72 136.5 113.5t93.5 95.5t65.5 104t18.5 109q0 131 -89.5 216t-248.5 85 q-84 0 -150 -26.5t-105 -69.5t-60 -89t-27 -94z" />
<glyph horiz-adv-x="1220" d="M90 383l154 43q22 -138 124 -217.5t257 -79.5q158 0 247 84t89 205q0 132 -91.5 200t-251.5 68h-135v139h131q158 0 245 63.5t87 182.5q0 118 -84 184t-233 66q-77 0 -138 -19.5t-98.5 -48t-64.5 -68.5t-39 -74.5t-19 -72.5l-153 43q11 58 33 110t63 102.5t96 87 t137.5 59t182.5 22.5q122 0 216.5 -29.5t153 -81t88 -117.5t29.5 -144q0 -134 -82 -224t-200 -104v-8q132 -18 214 -107.5t82 -247.5q0 -191 -138.5 -308.5t-364.5 -117.5q-215 0 -360 109.5t-177 300.5z" />
<glyph horiz-adv-x="1263" d="M72 381v154l653 899h250v-904h205v-149h-205v-381h-168v381h-735zM236 535l4 -5h258h309v455v299h-4z" />
<glyph horiz-adv-x="1208" d="M92 369l156 41q23 -129 121 -207t233 -78q154 0 250 96t96 244q0 147 -97 241.5t-259 94.5q-122 0 -202 -53t-111 -123l-144 39l127 770h795v-156h-674l-39 -246q-10 -54 -21.5 -111t-17.5 -85.5t-6 -32.5l6 -2q37 47 119.5 89t204.5 42q212 0 347.5 -130t135.5 -341 q0 -212 -141 -350t-367 -138q-196 0 -336.5 108.5t-175.5 287.5z" />
<glyph horiz-adv-x="1226" d="M80 483q0 125 47.5 240.5t144.5 243.5l355 467h188l-473 -621l6 -4q106 125 311 125q212 0 349 -130.5t137 -336.5q0 -216 -149 -355t-386 -139q-234 0 -382 138t-148 372zM250 469q0 -153 100 -247.5t262 -94.5t264.5 94.5t102.5 249.5q2 150 -97.5 243t-265.5 93 t-266 -93t-100 -245z" />
<glyph horiz-adv-x="1146" d="M82 1278v156h1024v-134l-660 -1300h-184l533 1065q25 48 55 100t48 81l17 28l-4 6h-13q-12 0 -32 -0.5t-43.5 -1t-51.5 -0.5h-50h-639z" />
<glyph horiz-adv-x="1255" d="M90 389q0 82 29 150.5t77.5 113.5t106 72t119.5 35v4q-25 3 -57 16t-69.5 40t-68 63t-51 90.5t-20.5 116.5q0 162 126.5 267t346.5 105q218 0 345.5 -105t127.5 -267q0 -62 -20.5 -116.5t-51.5 -90.5t-68.5 -63t-69 -40t-56.5 -16v-4q60 -8 117 -35t105 -71.5 t77.5 -113.5t29.5 -151q0 -184 -143.5 -300t-390.5 -116q-246 0 -393.5 115.5t-147.5 300.5zM258 399q0 -134 101 -211t270 -77t269.5 77.5t100.5 210.5q0 134 -99.5 208.5t-270.5 74.5t-271 -75t-100 -208zM309 1081q0 -116 90 -182.5t230 -64.5q143 0 230 67.5t87 181.5 q0 115 -85 183.5t-232 68.5q-148 0 -234 -69t-86 -185z" />
<glyph horiz-adv-x="1247" d="M80 969q0 219 150.5 356t387.5 137q152 0 272.5 -57t193.5 -173.5t73 -275.5q0 -107 -37 -209.5t-96.5 -191t-159.5 -205.5l-301 -350h-194l524 616l-6 5q-119 -125 -318 -125q-220 0 -354.5 132.5t-134.5 340.5zM246 965q0 -86 30 -152.5t82 -106t116.5 -59.5t139.5 -20 q161 0 267 89t106 253q0 86 -30.5 152.5t-83 107.5t-118 61.5t-139.5 20.5t-139.5 -21t-117.5 -61.5t-82.5 -108.5t-30.5 -155z" />
<glyph horiz-adv-x="1284" d="M76 717q0 117 17.5 221.5t59.5 201.5t105.5 167.5t162 112.5t222.5 42q123 0 221 -42t161.5 -112t105.5 -167t59.5 -202t17.5 -222q0 -120 -17.5 -225.5t-59.5 -202.5t-105.5 -166.5t-161.5 -110.5t-221 -41q-124 0 -222 41t-162 110.5t-106 166.5t-59.5 202.5 t-17.5 225.5zM244 717q0 -253 75 -398l568 900q-92 86 -244 86q-399 0 -399 -588zM412 203q90 -74 231 -74q397 0 397 588q0 238 -63 377z" />
<glyph horiz-adv-x="696" d="M47 1032q0 207 79 312.5t222 105.5t222 -105.5t79 -312.5q0 -205 -79 -309.5t-222 -104.5t-222 104.5t-79 309.5zM170 1032q0 -95 18 -160l267 424q-38 41 -107 41q-178 0 -178 -305zM242 770q44 -41 106 -41q178 0 178 303q0 93 -16 162z" />
<glyph horiz-adv-x="1067" d="M76 573q0 289 118.5 442.5t337.5 153.5t338 -153.5t119 -442.5t-119 -443.5t-338 -154.5t-337.5 154.5t-118.5 443.5zM236 573q0 -174 47 -286l428 678q-72 57 -179 57q-152 0 -224 -112.5t-72 -336.5zM373 170q65 -47 159 -47q297 0 297 450q0 160 -34 261z" />
<glyph d="M119 717q0 117 17.5 221t59 201.5t105 168t161.5 112.5t222 42t222 -42t161.5 -112t105 -167.5t59 -202t17.5 -221.5q0 -120 -17.5 -225t-59 -202.5t-105 -166.5t-161.5 -110.5t-222 -41.5t-222 41.5t-161.5 110.5t-105 166.5t-59 202.5t-17.5 225zM287 717 q0 -243 65 -381l568 893q-95 76 -236 76q-397 0 -397 -588zM442 213q94 -84 242 -84q397 0 397 588q0 253 -69 391z" />
<glyph horiz-adv-x="696" d="M47 1364q0 207 79 312.5t222 105.5t222 -105.5t79 -312.5q0 -205 -79 -309.5t-222 -104.5t-222 104.5t-79 309.5zM170 1364q0 -303 178 -303t178 303q0 305 -178 305t-178 -305z" />
<glyph horiz-adv-x="696" d="M33 1167v109l340 489h157v-491h136v-107h-136v-200h-114v200h-383zM152 1280l4 -6h110h150v188q0 169 8 193h-8q-1 0 -131.5 -185.5t-132.5 -189.5z" />
<glyph horiz-adv-x="696" d="M59 1186l105 28q8 -73 55.5 -118t130.5 -45q79 0 128.5 47.5t49.5 124.5q0 78 -49 125t-129 47q-64 0 -106.5 -26t-59.5 -58l-102 26l74 428h444v-106h-364l-25 -129q-6 -32 -14 -60t-13 -42l-4 -13l6 -4q26 29 74.5 51.5t108.5 22.5q118 0 194 -72t76 -192t-78 -195.5 t-207 -75.5t-205 66.5t-90 169.5z" />
<glyph horiz-adv-x="696" d="M49 1237q0 130 82 242l217 286h135l-290 -366l6 -6q17 20 26.5 29t34 28t56.5 28t71 9q110 0 187 -71.5t77 -190.5q0 -123 -82 -199t-213 -76q-135 0 -221 78t-86 209zM166 1227q0 -81 52 -128.5t136 -47.5q81 0 133.5 47.5t55.5 128.5q0 79 -52.5 126.5t-136.5 47.5 t-136 -47.5t-52 -126.5z" />
<glyph horiz-adv-x="696" d="M72 1659v106h561v-108l-354 -690h-121l282 549q15 29 34.5 64.5t30.5 55.5t11 21l-2 4q-1 0 -19 -0.5t-43.5 -1t-43.5 -0.5h-336z" />
<glyph horiz-adv-x="696" d="M47 1180q0 87 55.5 140t120.5 66v5q-47 10 -94 57.5t-47 124.5q0 94 74 151.5t192 57.5q119 0 193.5 -57t74.5 -152q0 -76 -49 -125t-94 -57v-5q65 -13 120.5 -66t55.5 -140q0 -104 -83 -167t-218 -63t-218 63t-83 167zM160 1190q0 -66 51.5 -105t136.5 -41 q86 2 138.5 41.5t52.5 104.5q0 64 -53 102.5t-138 38.5t-136.5 -38.5t-51.5 -102.5zM184 1567q0 -58 45 -91.5t119 -33.5t119 34t45 91t-45 91t-119 34q-73 0 -118.5 -33.5t-45.5 -91.5z" />
<glyph horiz-adv-x="696" d="M45 1503q0 125 84.5 202t216.5 77q129 0 215 -78.5t86 -208.5q0 -148 -123 -299l-192 -229h-135l297 348l-5 4q-35 -40 -74 -61t-100 -21q-121 0 -195.5 74.5t-74.5 191.5zM154 1503q-1 -80 51 -127t137 -47q84 0 136 46.5t52 127.5q0 79 -52.5 127.5t-133.5 48.5 q-82 0 -135.5 -48.5t-54.5 -127.5z" />
<glyph horiz-adv-x="696" d="M47 1364q0 207 79 312.5t222 105.5t222 -105.5t79 -312.5q0 -205 -79 -309.5t-222 -104.5t-222 104.5t-79 309.5zM170 1364q0 -96 18 -160l267 424q-38 41 -107 41q-178 0 -178 -305zM242 1102q44 -41 106 -41q178 0 178 303q0 93 -16 162z" />
<glyph d="M119 717q0 117 17.5 221t59 201.5t105 168t161.5 112.5t222 42t222 -42t161.5 -112t105 -167.5t59 -202t17.5 -221.5q0 -120 -17.5 -225t-59 -202.5t-105 -166.5t-161.5 -110.5t-222 -41.5t-222 41.5t-161.5 110.5t-105 166.5t-59 202.5t-17.5 225zM287 717 q0 -588 397 -588t397 588t-397 588t-397 -588z" />
<glyph d="M217 1036l420 398h178v-1278h373v-156h-916v156h375v852q0 71 2 133.5t3.5 87t0.5 24.5h-4q-1 0 -17 -16t-49.5 -48t-66.5 -61l-207 -206z" />
<glyph d="M188 1081q33 189 167 285t339 96q236 0 367 -120t131 -318q0 -81 -21.5 -148t-71.5 -132.5t-116 -125t-170 -137.5l-414 -323l2 -4h12t28 0.5t41.5 1t57.5 0.5h70h588v-156h-999v188l510 406q71 57 111 91.5t84.5 79.5t66.5 80.5t36.5 79t14.5 91.5q0 131 -88.5 216 t-247.5 85q-84 0 -150.5 -26.5t-105.5 -69.5t-60.5 -89.5t-27.5 -93.5z" />
<glyph d="M164 383l153 43q22 -138 124 -217.5t257 -79.5q158 0 247 84t89 205q0 132 -91 200t-251 68h-135v139h131q158 0 245 63.5t87 182.5t-83.5 184.5t-234.5 65.5q-77 0 -138 -19.5t-98 -48t-64 -68.5t-39 -74.5t-19 -72.5l-154 43q11 58 33 110t63 102.5t96 87t137.5 59 t182.5 22.5q122 0 216.5 -29.5t153 -81t88.5 -117.5t30 -144q0 -134 -82.5 -224t-200.5 -104v-8q132 -18 214.5 -108t82.5 -247q0 -191 -139 -308.5t-365 -117.5q-215 0 -359.5 109.5t-176.5 300.5z" />
<glyph d="M117 381v154l653 899h250v-904h205v-149h-205v-381h-168v381h-735zM281 535l4 -5h258h309v455l2 299h-6z" />
<glyph d="M182 369l156 41q23 -129 121 -207t233 -78q155 0 250.5 96t95.5 244q0 147 -97 241.5t-259 94.5q-121 0 -200.5 -53t-112.5 -123l-144 39l127 770h795v-156h-674l-39 -246q-10 -54 -21.5 -111t-17.5 -85.5t-6 -32.5l6 -2q37 47 119.5 89t204.5 42q212 0 347.5 -130 t135.5 -341q0 -212 -141 -350t-367 -138q-196 0 -336.5 108.5t-175.5 287.5z" />
<glyph d="M145 483q0 125 47.5 240.5t145.5 243.5l354 467h189l-471 -621l4 -4q106 125 311 125q212 0 349.5 -130.5t137.5 -336.5q0 -216 -149 -355t-387 -139q-234 0 -382.5 138t-148.5 372zM315 469q0 -153 101 -247.5t264 -94.5q161 0 263.5 94.5t103.5 249.5 q0 151 -98.5 243.5t-264.5 92.5t-267.5 -93t-101.5 -245z" />
<glyph d="M158 1284v150h1032v-134l-660 -1300h-184l533 1065q24 48 54.5 101.5t48.5 83.5l17 30l-4 6h-13q-12 0 -32 -0.5t-44 -1t-52 -0.5h-51h-645z" />
<glyph d="M145 389q0 82 29 150.5t77.5 113.5t106 72t119.5 35v4q-25 3 -57 16t-69.5 40t-68 63t-51 90.5t-20.5 116.5q0 162 126.5 267t346.5 105q218 0 345.5 -105t127.5 -267q0 -62 -20.5 -116.5t-51.5 -90.5t-68.5 -63t-69 -40t-56.5 -16v-4q60 -8 117 -35t105.5 -71.5 t78 -113.5t29.5 -151q0 -184 -144 -300t-391 -116q-246 0 -393.5 115.5t-147.5 300.5zM313 399q0 -134 101 -211t270 -77q170 0 270.5 77.5t100.5 210.5t-100 208t-271 75t-271 -75t-100 -208zM365 1081q0 -116 89.5 -182.5t229.5 -64.5q143 0 230 67.5t87 181.5 q0 115 -85 183.5t-232 68.5q-148 0 -233.5 -69t-85.5 -185z" />
<glyph d="M168 969q0 219 151 356t388 137q112 0 209.5 -33.5t171 -96t115.5 -159.5t42 -217q0 -107 -37.5 -209.5t-97 -190.5t-160.5 -206l-299 -350h-196l524 616l-4 5q-122 -125 -320 -125q-219 0 -353 132.5t-134 340.5zM332 965q0 -86 30.5 -152.5t82.5 -106t116.5 -59.5 t138.5 -20q161 0 267 89t106 253q0 86 -30.5 152.5t-83 107.5t-118 61.5t-139.5 20.5t-139.5 -21t-117.5 -61.5t-82.5 -108.5t-30.5 -155z" />
<glyph d="M221 573q0 289 118.5 442.5t338.5 153.5q218 0 337.5 -154t119.5 -442q0 -289 -119.5 -443.5t-337.5 -154.5q-220 0 -338.5 154t-118.5 444zM381 573q0 -450 297 -450t297 450q0 449 -297 449q-152 0 -224.5 -112.5t-72.5 -336.5z" />
<glyph d="M295 817l342 324h149v-994h279v-147h-727v147h289v613q0 45 2.5 98t4.5 82t1 29h-4q-1 0 -16.5 -17t-35.5 -38.5t-30 -30.5l-164 -168z" />
<glyph d="M293 866q12 80 50 139.5t94.5 94.5t124 52t145.5 17q192 0 297.5 -95.5t105.5 -258.5q0 -66 -17.5 -119.5t-58.5 -104.5t-90 -93.5t-129 -100.5l-328 -252l2 -4q3 0 26 0.5t62.5 1t81.5 0.5h457v-143h-813v174l416 320q124 98 176.5 167t52.5 150q0 95 -65.5 158 t-188.5 63q-118 0 -181 -58.5t-71 -148.5z" />
<glyph d="M246 305l139 39q20 -108 98 -168.5t197 -60.5q123 0 189.5 63.5t66.5 159.5q0 98 -68.5 148.5t-189.5 50.5h-115v120h109q121 0 187.5 48t66.5 141q0 91 -65 140.5t-183 49.5q-71 0 -122 -17.5t-79.5 -49.5t-42.5 -65.5t-20 -76.5l-144 39q13 81 51.5 141t96.5 94.5 t126.5 51t149.5 16.5q190 0 288.5 -80.5t98.5 -216.5q0 -116 -65.5 -185.5t-161.5 -84.5v-6q105 -11 172.5 -84.5t67.5 -194.5q0 -154 -113 -248t-299 -94q-175 0 -292.5 89t-143.5 241z" />
<glyph d="M199 299v145l510 703h235v-711h168v-137h-168v-299h-160v299h-585zM348 440l4 -4h189h243v316v264h-6z" />
<glyph d="M281 291l139 35q20 -100 97.5 -156.5t187.5 -56.5q122 0 197 68.5t75 185.5q0 118 -76.5 187t-204.5 69q-99 0 -161.5 -39t-88.5 -92l-131 36l107 619h633v-150h-525l-32 -190q-21 -125 -33 -160l6 -2q30 37 100.5 68.5t161.5 31.5q180 0 287.5 -103.5t107.5 -274.5 q0 -177 -115.5 -284.5t-303.5 -107.5q-166 0 -281.5 86t-146.5 230z" />
<glyph d="M244 385q0 102 38.5 196.5t118.5 198.5l287 367h172l-385 -500l4 -4q85 98 244 98q169 0 279 -103.5t110 -266.5q0 -174 -121 -285t-315 -111q-191 0 -311.5 110t-120.5 300zM399 375q0 -118 76.5 -189t204.5 -71q125 0 202.5 70.5t78.5 189.5q1 115 -75.5 183.5 t-205.5 68.5t-205 -68t-76 -184z" />
<glyph d="M272 997v150h854v-119l-579 -1028h-166l463 821q22 40 48.5 83.5t41 66.5t14.5 24l-2 4h-8q-9 0 -23.5 -0.5t-32 -1t-41.5 -0.5h-46h-523z" />
<glyph d="M240 309q0 126 79.5 202t188.5 89v6q-28 3 -62 20t-69.5 47t-59.5 81t-24 112q0 130 103.5 216.5t281.5 86.5q176 0 280.5 -86.5t104.5 -214.5q0 -50 -16.5 -93.5t-41 -72.5t-54.5 -50.5t-55.5 -32t-45.5 -13.5v-6q106 -14 186 -89.5t80 -201.5q0 -148 -116.5 -241 t-319.5 -93q-202 0 -321 92.5t-119 241.5zM393 319q0 -103 78 -161t207 -58q131 0 208 58t77 161q0 100 -77 154.5t-208 54.5q-132 0 -208.5 -55t-76.5 -154zM432 858q0 -89 69.5 -139.5t176.5 -50.5q110 2 178 54.5t68 137.5q0 86 -67.5 139.5t-178.5 53.5 q-113 0 -179.5 -54.5t-66.5 -140.5z" />
<glyph d="M264 772q0 176 122.5 286.5t315.5 110.5q123 0 221.5 -45.5t159 -139.5t60.5 -222q0 -129 -57.5 -237.5t-178.5 -248.5l-239 -276h-181l422 489l-4 5q-93 -99 -248 -99q-176 0 -284.5 106t-108.5 271zM416 768q0 -129 80 -192.5t204 -63.5q125 0 205 66t80 192 q0 129 -81 194.5t-204 65.5t-203.5 -65.5t-80.5 -196.5z" />
<glyph d="M207 573q0 289 119 442.5t338 153.5t337.5 -153.5t118.5 -442.5t-118.5 -443.5t-337.5 -154.5t-338 154.5t-119 443.5zM367 573q0 -183 47 -286l428 676q-68 59 -178 59q-152 0 -224.5 -112.5t-72.5 -336.5zM504 170q65 -47 160 -47q297 0 297 450q0 157 -37 261z" />
<glyph horiz-adv-x="696" d="M47 399q0 206 79.5 312t221.5 106t221.5 -106t79.5 -312q0 -205 -79 -310t-222 -105t-222 105t-79 310zM170 399q0 -303 178 -303t178 303q0 306 -178 306t-178 -306z" />
<glyph horiz-adv-x="696" d="M96 586l223 215h113v-695h186v-106h-489v106h184v379q0 31 3.5 97.5t5.5 76.5h-7q-1 0 -8.5 -8.5t-21.5 -24t-25 -26.5l-88 -88z" />
<glyph horiz-adv-x="696" d="M66 0v131l333 252q113 78 113 182q0 64 -42.5 104t-121.5 40q-75 0 -117 -32.5t-61 -105.5l-98 29q49 217 284 217q128 0 201.5 -65.5t73.5 -178.5q0 -74 -37 -133.5t-109 -117.5q-46 -37 -115.5 -89t-116.5 -86.5t-50 -37.5l4 -7q36 4 151 4h279v-106h-571z" />
<glyph horiz-adv-x="696" d="M55 229l109 29q5 -76 56.5 -122t137.5 -46q82 0 126 40.5t44 100.5q0 62 -48.5 101t-127.5 39h-67v84h63q78 0 125 38t47 97q0 52 -41 88.5t-131 36.5q-82 0 -120 -35t-52 -109l-100 27q36 219 282 219q136 0 205.5 -59.5t69.5 -151.5q0 -79 -48 -131t-116 -57v-8 q74 -8 124 -60t50 -135q0 -101 -78.5 -166t-197.5 -65q-131 0 -214.5 68.5t-97.5 176.5z" />
<glyph horiz-adv-x="696" d="M33 203v106l340 492h157v-492h136v-106h-136v-203h-114v203h-383zM152 313l4 -6h6q7 0 18 0.5t24 1t30 0.5h32h150v189q0 160 8 192h-8q-2 0 -132.5 -186.5t-131.5 -190.5z" />
<glyph horiz-adv-x="696" d="M59 221l105 27q8 -72 56 -118t130 -46q79 0 128.5 47.5t49.5 124.5q0 78 -49 126t-129 48q-64 0 -106.5 -26t-59.5 -58l-102 27l74 428h444v-107h-364l-25 -129q-4 -21 -8.5 -40t-8.5 -32t-7 -23t-5 -16l-2 -5l6 -3q26 29 74.5 51.5t108.5 22.5q118 0 194 -72.5 t76 -193.5q0 -119 -78 -194.5t-207 -75.5t-205 67t-90 170z" />
<glyph horiz-adv-x="696" d="M49 270q0 133 82 242l217 289h135l-290 -369l6 -4q17 20 26.5 29t34 28t56.5 28t71 9q110 0 187 -71.5t77 -190.5q0 -123 -82 -199.5t-213 -76.5q-134 0 -220.5 78t-86.5 208zM166 260q0 -79 52 -127.5t136 -48.5q80 0 133 48.5t56 127.5q0 79 -52.5 127.5t-136.5 48.5 t-136 -48.5t-52 -127.5z" />
<glyph horiz-adv-x="696" d="M72 694v107h561v-109l-354 -692h-121l282 549q15 29 34.5 65t30.5 56.5t11 21.5l-2 4q-1 0 -19 -0.5t-43.5 -1t-43.5 -0.5h-336z" />
<glyph horiz-adv-x="696" d="M47 215q0 87 56 140.5t120 64.5v6q-46 8 -93.5 56.5t-47.5 125.5q0 94 74 151.5t192 57.5q119 0 193.5 -57t74.5 -152q0 -77 -49 -125.5t-94 -56.5v-6q64 -11 120 -64.5t56 -140.5q0 -104 -83 -167.5t-218 -63.5t-218 63.5t-83 167.5zM160 223q0 -64 51.5 -102.5 t136.5 -40.5q86 2 138.5 40.5t52.5 102.5t-53 104t-138 40t-136.5 -39t-51.5 -105zM184 602q0 -58 45 -92.5t119 -34.5t119 35t45 92t-45 90t-119 33q-73 0 -118.5 -33.5t-45.5 -89.5z" />
<glyph horiz-adv-x="696" d="M45 537q0 125 84.5 202.5t216.5 77.5q129 0 215 -79t86 -208q0 -148 -123 -299l-192 -231h-135l297 350l-5 4q-35 -40 -74 -61t-100 -21q-120 0 -195 75t-75 190zM154 539q-1 -80 51 -127t137 -47q84 0 136 46.5t52 125.5q0 80 -52.5 128t-133.5 48q-83 0 -136 -47.5 t-54 -126.5z" />
<glyph horiz-adv-x="696" d="M47 1032q0 207 79 312.5t222 105.5t222 -105.5t79 -312.5q0 -205 -79 -309.5t-222 -104.5t-222 104.5t-79 309.5zM170 1032q0 -303 178 -303t178 303q0 305 -178 305t-178 -305z" />
<glyph horiz-adv-x="696" d="M96 1221l223 213h113v-693h186v-106h-489v106h184v377q0 31 3.5 98.5t5.5 75.5h-7q-1 0 -8.5 -8t-21.5 -23t-25 -26l-88 -88z" />
<glyph horiz-adv-x="696" d="M66 635v129l333 252q113 78 113 182q0 65 -42 104t-122 39q-75 0 -117 -32t-61 -105l-98 29q49 217 284 217q128 0 201.5 -65.5t73.5 -178.5q0 -135 -146 -252q-45 -37 -115 -89t-117 -86t-50 -38l4 -6q54 6 151 6h279v-106h-571z" />
<glyph horiz-adv-x="696" d="M55 862l109 31q5 -78 56 -124t138 -46q82 0 126 40.5t44 100.5q0 63 -48.5 102.5t-127.5 39.5h-67v81h63q78 0 125 39t47 97q0 52 -41 88.5t-131 36.5q-82 0 -120 -35t-52 -109l-100 29q36 217 282 217q136 0 205.5 -59.5t69.5 -151.5q0 -77 -48 -129.5t-116 -58.5v-7 q74 -9 124 -61t50 -133q0 -102 -78.5 -167t-197.5 -65q-131 0 -214.5 68t-97.5 176z" />
<glyph horiz-adv-x="696" d="M33 836v108l340 490h157v-492h136v-106h-136v-201h-114v201h-383zM152 948l4 -6h110h150v188q0 169 8 193h-8q-1 0 -131.5 -185.5t-132.5 -189.5z" />
<glyph horiz-adv-x="696" d="M59 854l105 29q8 -73 55.5 -118.5t130.5 -45.5q79 0 128.5 47.5t49.5 124.5q0 78 -49 125t-129 47q-64 0 -106.5 -26t-59.5 -58l-102 27l74 428h444v-107h-364l-25 -129q-6 -32 -14 -60t-13 -42l-4 -13l6 -4q26 29 74.5 51.5t108.5 22.5q118 0 194 -72t76 -192 t-78 -195.5t-207 -75.5t-205 66.5t-90 169.5z" />
<glyph horiz-adv-x="696" d="M49 905q0 130 82 242l217 287h135l-290 -367l6 -6q17 20 26.5 29t34 28t56.5 28t71 9q110 0 187 -71.5t77 -190.5q0 -123 -82 -199t-213 -76q-135 0 -221 78t-86 209zM166 895q0 -81 52 -128.5t136 -47.5q81 0 133.5 47.5t55.5 128.5q0 79 -52.5 126.5t-136.5 47.5 t-136 -47.5t-52 -126.5z" />
<glyph horiz-adv-x="696" d="M72 1327v107h561v-109l-354 -690h-121l282 549q15 29 34.5 64.5t30.5 55.5t11 21l-2 4q-1 0 -19 -0.5t-43.5 -1t-43.5 -0.5h-336z" />
<glyph horiz-adv-x="696" d="M47 848q0 87 55.5 140.5t120.5 66.5v4q-47 10 -94 57.5t-47 124.5q0 94 74 151.5t192 57.5q119 0 193.5 -57t74.5 -152q0 -76 -49 -125t-94 -57v-4q65 -13 120.5 -66.5t55.5 -140.5q0 -104 -83 -167t-218 -63t-218 63t-83 167zM160 858q0 -65 51.5 -104t136.5 -41 q86 2 138.5 41t52.5 104q0 64 -53 102.5t-138 38.5t-136.5 -38.5t-51.5 -102.5zM184 1235q0 -58 45 -91.5t119 -33.5t119 34t45 91t-45 91t-119 34q-73 0 -118.5 -33.5t-45.5 -91.5z" />
<glyph horiz-adv-x="696" d="M45 1171q0 125 84.5 202t216.5 77q129 0 215 -78.5t86 -208.5q0 -148 -123 -299l-192 -229h-135l297 348l-5 4q-35 -40 -74 -61t-100 -21q-121 0 -195.5 74.5t-74.5 191.5zM154 1171q-1 -80 51 -127t137 -47q84 0 136 46.5t52 127.5q0 79 -53 128t-133 49 q-82 0 -135.5 -49t-54.5 -128z" />
<glyph horiz-adv-x="825" d="M158 653v152q34 6 50 15q91 50 91 239v237q0 233 116 349t326 116v-149q-62 0 -109 -13.5t-88 -47.5t-63 -100.5t-22 -164.5v-231q0 -73 -14 -132t-33 -92.5t-43.5 -57.5t-39 -32t-26.5 -12q10 -2 26 -11.5t39.5 -34t43 -59t33.5 -92.5t14 -129v-231q0 -79 15 -137.5 t40 -93.5t62.5 -56.5t76.5 -29t88 -7.5v-151q-210 0 -326 116t-116 351v237q1 68 -11.5 117.5t-29 74t-38.5 39t-34.5 17.5t-24.5 4h-3z" />
<glyph horiz-adv-x="825" d="M84 -152q49 0 88 7.5t77 29t63 56.5t40 93.5t15 137.5v231q0 73 14.5 132t33 92t43.5 57.5t39 32.5t25 12q-10 3 -25.5 12t-39 34t-43 59t-33.5 93t-14 130v229q0 97 -22 164t-63.5 101t-88.5 47.5t-109 13.5v149q210 0 326 -116t116 -349v-237q0 -68 13 -118t29.5 -74.5 t39 -39.5t35.5 -18t24 -4h3v-152q-35 -6 -50 -14q-93 -51 -94 -240v-235q0 -235 -116 -351t-326 -116v151z" />
<glyph horiz-adv-x="745" d="M193 -303v2064h471v-157h-302v-1749h302v-158h-471z" />
<glyph horiz-adv-x="745" d="M82 -145h301v1749h-301v157h471v-2064h-471v158z" />
<glyph horiz-adv-x="729" d="M115 733q0 191 28.5 349t77 269t117.5 196t144.5 136t164.5 82l49 -155q-212 -74 -313.5 -286t-101.5 -591t101.5 -591.5t313.5 -284.5l-49 -158q-89 31 -164.5 82t-144.5 136t-117.5 196.5t-77 270t-28.5 349.5z" />
<glyph horiz-adv-x="729" d="M35 -137q211 73 312.5 285.5t101.5 590.5q0 379 -101.5 592t-312.5 285l49 158q89 -32 164 -83t144.5 -136.5t117.5 -196.5t77 -269.5t29 -349.5t-29 -349.5t-77 -269.5t-117.5 -196t-144.5 -136t-164 -83z" />
<glyph horiz-adv-x="2050" d="M215 659v142h1638v-142h-1638z" />
<glyph d="M205 659v142h956v-142h-956z" />
<glyph horiz-adv-x="1169" d="M205 657v144h778v-144h-778z" />
<glyph horiz-adv-x="1189" d="M205 657v144h778v-144h-778z" />
<glyph horiz-adv-x="1325" d="M123 721l481 479l96 -94l-393 -383v-4l393 -383l-96 -94zM625 721l481 479l96 -94l-393 -383v-4l393 -383l-96 -94z" />
<glyph horiz-adv-x="1325" d="M123 336l393 383v4l-393 383l96 94l481 -479l-481 -479zM625 336l393 383v4l-393 383l96 94l481 -479l-481 -479z" />
<glyph horiz-adv-x="823" d="M123 721l481 479l96 -94l-393 -383v-4l393 -383l-96 -94z" />
<glyph horiz-adv-x="823" d="M123 336l393 383v4l-393 383l96 94l481 -479l-481 -479z" />
<glyph horiz-adv-x="681" d="M158 727q0 78 52 128t132 50q78 0 130 -50t52 -128t-52 -129t-130 -51q-80 0 -132 51t-52 129z" />
<glyph horiz-adv-x="458" d="M119 365q0 45 29 73.5t81 28.5t81.5 -29.5t29.5 -72.5q0 -46 -29.5 -75.5t-81.5 -29.5q-53 0 -81.5 30t-28.5 75zM119 1059q0 45 29 73.5t81 28.5t81.5 -29t29.5 -73q0 -45 -29.5 -75t-81.5 -30q-53 0 -81.5 30t-28.5 75z" />
<glyph horiz-adv-x="1353" d="M78 328l43 153h172l127 467h-170l41 152h172l90 334h147l-90 -334h346l91 334h149l-92 -334h172l-43 -152h-170l-129 -467h174l-43 -153h-172l-88 -328h-150l90 328h-346l-90 -328h-147l88 328h-172zM440 481h346l129 467h-346z" />
<glyph horiz-adv-x="458" d="M119 719q0 45 29 73.5t81 28.5t81.5 -29t29.5 -73q0 -45 -29.5 -75t-81.5 -30q-53 0 -81.5 30t-28.5 75z" />
<glyph horiz-adv-x="458" d="M100 125q46 16 79.5 57.5t41.5 81.5q-42 -6 -68 17.5t-26 66.5q0 42 28.5 69t77.5 27q55 0 87 -34.5t32 -98.5q0 -75 -50 -151.5t-134 -106.5zM119 1059q0 45 29 73.5t81 28.5t81.5 -29t29.5 -73q0 -45 -29.5 -75t-81.5 -30q-53 0 -81.5 30t-28.5 75z" />
<glyph horiz-adv-x="235" />
<glyph horiz-adv-x="235" />
<glyph horiz-adv-x="235" />
<glyph horiz-adv-x="1196" d="M78 723q0 218 127 361.5t336 166.5v211h139v-211q145 -16 259 -96t167 -227l-148 -43q-42 104 -129 165.5t-211 61.5q-175 0 -278.5 -106t-103.5 -283q0 -179 104 -287t272 -108q115 0 202.5 55t135.5 154l148 -43q-55 -128 -167 -210.5t-251 -99.5v-213h-137v213 q-204 24 -334.5 170t-130.5 369z" />
<glyph horiz-adv-x="1320" d="M84 221l149 152q-110 141 -110 323q0 197 123 342l-146 144l88 88l148 -146q142 113 323 113q182 0 328 -111l146 144l88 -88l-146 -146q125 -144 125 -340q0 -176 -113 -325l150 -150l-88 -88l-150 150q-151 -125 -340 -125q-190 0 -337 125l-150 -150zM274 696 q0 -163 112 -275t273 -112q163 0 276.5 111.5t113.5 275.5t-113.5 276.5t-276.5 112.5q-160 0 -272.5 -112.5t-112.5 -276.5z" />
<glyph horiz-adv-x="1144" d="M72 377l157 43q9 -147 112 -222t255 -75q139 0 223 65.5t84 188.5q0 33 -7 62t-17 51.5t-28.5 42.5t-35 34t-44.5 28t-48 22t-54 18t-54 15t-57.5 14t-55.5 14q-40 10 -72 19.5t-74 27t-74 37.5t-65 51t-55 67t-35.5 86.5t-13.5 108.5q0 170 105.5 270.5t293.5 114.5v164 h141v-166q166 -19 273.5 -114t140.5 -261l-158 -45q-24 135 -114.5 205t-229.5 70q-136 0 -210 -61.5t-74 -170.5q0 -37 10 -68.5t25 -54.5t43.5 -43.5t53 -33.5t66 -27t71.5 -22.5t79 -20.5q53 -14 92 -25.5t88 -31.5t84 -41.5t70.5 -54t57.5 -70.5t36 -90t14 -113 q0 -181 -111 -288.5t-309 -121.5v-159h-139v161q-61 6 -116 21.5t-110.5 46.5t-97.5 74.5t-73.5 109.5t-42.5 148z" />
<glyph horiz-adv-x="1376" d="M78 492v149h92q-2 25 -2 80v70h-88v147h102q80 520 568 520q212 0 350 -98.5t178 -292.5l-158 -43q-11 44 -25.5 79.5t-43 76.5t-66 68.5t-98 46t-135.5 18.5q-178 0 -275 -94t-127 -281h504v-147h-518v-56q0 -65 2 -94h516v-149h-500q35 -185 135.5 -273t274.5 -88 q134 0 225.5 59t143.5 193l155 -45q-134 -363 -522 -363q-239 0 -387.5 131.5t-192.5 385.5h-108z" />
<glyph horiz-adv-x="1316" d="M158 481v148l151 47v153l-151 -45v148l151 45v457h166v-406l320 96v-147l-320 -96v-154l320 96v-147l-320 -96v-430h107q117 0 204 26.5t143 78t89 117.5t51 154l154 -43q-95 -483 -635 -483h-279v528z" />
<glyph horiz-adv-x="1134" d="M158 987v150h540q-67 149 -286 149h-254v148h919v-148h-323l-4 -6q70 -53 106 -143h221v-150h-194v-24q0 -186 -115.5 -293.5t-327.5 -124.5l414 -545h-201l-426 573v113h131q369 0 369 297v4h-569z" />
<glyph horiz-adv-x="1204" d="M84 645v137h135q-18 211 -18 260q0 206 113.5 313t312.5 107q61 0 114.5 -8.5t113.5 -34.5t106 -68t81.5 -115t49.5 -169l-154 -43q-21 144 -92.5 217.5t-208.5 73.5q-281 0 -281 -299q0 -49 21 -234h489v-137h-475q17 -143 17 -227q0 -221 -107 -268l2 -5q2 0 25.5 0.5 t64 1.5t91 1.5t117 1t130.5 0.5h389v-150h-1034v150q50 11 83 33.5t49.5 58.5t23 76t6.5 96q0 77 -15 231h-149z" />
<glyph horiz-adv-x="1183" d="M41 1434h184l275 -494q15 -27 39 -72.5t40 -76t17 -31.5h4l100 184l265 490h178l-281 -496h225v-147h-309l-86 -150h395v-149h-411v-492h-168v492h-391v149h375l-84 150h-291v147h205z" />
<glyph d="M170 723q0 218 127 361.5t336 166.5v211h139v-211q145 -16 259 -96t167 -227l-147 -43q-42 104 -129 165.5t-211 61.5q-175 0 -279 -106t-104 -283q0 -179 104.5 -287t272.5 -108q114 0 201.5 55t135.5 154l148 -43q-55 -128 -167 -210.5t-251 -99.5v-213h-137v213 q-204 24 -334.5 170t-130.5 369z" />
<glyph d="M109 221l149 152q-113 145 -113 323q0 193 123 342l-145 144l88 88l147 -146q145 113 324 113q185 0 328 -111l147 144l86 -88l-145 -146q125 -144 125 -340q0 -181 -113 -325l150 -150l-89 -88l-147 150q-151 -125 -342 -125t-338 125l-149 -150zM297 696 q0 -164 112.5 -275.5t274.5 -111.5q163 0 275 111.5t112 275.5t-112 276.5t-275 112.5q-162 0 -274.5 -112.5t-112.5 -276.5z" />
<glyph d="M178 377l158 43q10 -147 113 -222t253 -75q141 0 224.5 65.5t83.5 188.5q0 33 -7 62t-16.5 51.5t-28.5 42.5t-35.5 34t-44 28t-47.5 22t-54 18t-54 15t-57.5 14t-55.5 14q-40 10 -72 19.5t-74.5 27t-74.5 37.5t-65.5 51t-55 67t-35.5 86.5t-14 108.5q0 170 106.5 270.5 t292.5 114.5v164h142v-166q166 -19 274 -114t140 -261l-156 -45q-24 135 -115 205t-229 70q-137 0 -212 -62t-75 -170q0 -37 10 -68.5t25 -54.5t43.5 -43.5t53 -33.5t66 -27t71.5 -22.5t79 -20.5q54 -14 93 -25.5t88.5 -31.5t84 -41.5t70.5 -54t57.5 -70.5t35.5 -90t14 -113 q0 -181 -110.5 -288.5t-307.5 -121.5v-159h-142v161q-61 6 -115.5 21.5t-109.5 46.5t-97.5 74.5t-74 109.5t-43.5 148z" />
<glyph d="M66 492v149h90q0 12 -1 39t-1 41l2 70h-90v147h104q80 520 567 520q212 0 350.5 -98.5t178.5 -292.5l-158 -43q-12 45 -26.5 79.5t-43.5 76t-66 69t-97.5 46t-135.5 18.5q-178 0 -275.5 -94t-127.5 -281h506v-147h-518l-2 -56q0 -36 4 -94h516v-149h-500 q35 -185 135 -273t273 -88q135 0 226 58.5t142 193.5l158 -45q-137 -363 -522 -363q-239 0 -387.5 131.5t-194.5 385.5h-106z" />
<glyph d="M193 481v148l151 47v153l-151 -45v148l151 45v457h168v-406l317 96v-147l-317 -96v-154l317 96v-147l-317 -96v-430h104q117 0 204 26.5t143.5 78t89.5 117.5t51 154l153 -43q-45 -231 -197 -357t-437 -126h-279v528z" />
<glyph d="M287 987v150h540q-67 149 -286 149h-254v148h919v-148h-323l-2 -6q69 -55 104 -143h221v-150h-194v-24q0 -186 -115.5 -293.5t-327.5 -124.5l414 -545h-201l-426 573v113h131q369 0 369 297v4h-569z" />
<glyph d="M172 645v137h135q-18 169 -18 260q0 206 113.5 313t312.5 107q42 0 80.5 -4t82.5 -16t81.5 -30.5t74 -49t65 -71t50 -97.5t31.5 -127l-154 -43q-21 144 -92.5 217.5t-208.5 73.5q-281 0 -281 -299q0 -67 19 -234h489v-137h-473q17 -178 17 -227q0 -220 -107 -268l2 -5 q2 0 25.5 0.5t64 1.5t91 1.5t117 1t130.5 0.5h387v-150h-1032v150q94 20 128 85t34 179q0 88 -14 231h-150z" />
<glyph d="M133 1434h184l275 -494q15 -27 39 -72.5t40 -76t17 -31.5h4l101 184l264 490h178l-281 -496h228v-147h-312l-86 -150h398v-149h-414v-492h-168v492h-391v149h375l-84 150h-291v147h207z" />
<glyph d="M170 578q0 218 127.5 362t335.5 166v213h139v-213q145 -14 259 -94.5t167 -229.5l-147 -41q-42 104 -129 166t-211 62q-174 0 -278.5 -107t-104.5 -284q0 -179 104.5 -286.5t272.5 -107.5q115 0 202 54t135 153l148 -41q-55 -129 -166.5 -210.5t-251.5 -98.5v-213h-137 v213q-203 22 -334 168.5t-131 368.5z" />
<glyph d="M109 96l149 152q-113 145 -113 323q0 193 123 342l-145 144l88 88l147 -146q145 113 324 113q185 0 328 -111l147 144l86 -88l-145 -146q125 -144 125 -340q0 -181 -113 -325l150 -150l-89 -88l-147 150q-151 -125 -342 -125t-338 125l-149 -150zM297 571 q0 -164 112.5 -275.5t274.5 -111.5q163 0 275 111.5t112 275.5t-112 277t-275 113q-162 0 -274.5 -113t-112.5 -277z" />
<glyph d="M270 285l146 39q12 -102 86.5 -162t195.5 -60q110 0 175 52.5t65 146.5q0 26 -5.5 48.5t-13 40t-24 33.5t-28.5 26.5t-36.5 22t-39.5 17.5t-45.5 14.5t-45.5 12.5t-49.5 12t-48.5 11q-41 10 -71 19.5t-69.5 26t-66.5 39.5t-52 54t-37.5 75.5t-12.5 98.5q0 133 83 215.5 t232 97.5v166h135v-164q284 -28 342 -276l-141 -39q-21 93 -83 141.5t-179 48.5q-115 0 -176.5 -50t-61.5 -132q0 -42 15 -74t36 -52t61.5 -37t75 -26t91.5 -22q44 -10 70.5 -16.5t71 -21.5t72 -30.5t61 -42t52.5 -58t32.5 -76t13.5 -97.5q0 -143 -90.5 -228t-245.5 -99 v-164h-135v164q-62 6 -116 24.5t-105 52t-86 92t-48 136.5z" />
<glyph d="M127 395v125h86l-2 64v41h-84v123h96q34 206 160 313.5t336 107.5q180 0 305.5 -80.5t159.5 -238.5l-154 -43q-10 40 -30.5 75t-55 69t-92 53.5t-131.5 19.5q-270 0 -326 -276h357v-123h-371v-39q0 -46 2 -66h369v-125h-353q62 -270 338 -270q225 0 297 192l158 -43 q-47 -132 -163 -215.5t-300 -83.5q-204 0 -333.5 106.5t-168.5 313.5h-100z" />
<glyph d="M301 375v125l127 39v104l-127 -39v125l127 39v379h160v-330l260 80v-125l-260 -80v-104l260 78v-125l-260 -80v-311h90q95 0 166 20.5t116 60t71.5 87.5t41.5 112l150 -41q-80 -389 -539 -389h-256v414z" />
<glyph d="M352 795v123h416q-54 106 -233 106h-183v123h783v-123h-275l-2 -6q44 -34 66 -100h211v-123h-189v-13q0 -151 -106 -242.5t-260 -101.5l292 -438h-186l-285 444v129h134q118 0 189 54.5t71 167.5h-443z" />
<glyph d="M256 498v131h111q-17 157 -17 207q0 159 98.5 246t270.5 87q356 0 403 -321l-149 -41q-19 114 -78 167.5t-170 53.5q-219 0 -219 -225q0 -20 14 -174h408v-131h-391q10 -95 10 -152q0 -78 -18.5 -126.5t-63.5 -69.5l2 -5q20 5 350 5h328v-150h-887v150q79 14 105 60 t26 134q0 48 -8 154h-125z" />
<glyph d="M215 1147h178l197 -359q81 -150 92 -161h4q1 1 17.5 27.5t39.5 66.5t37 67l199 359h172l-229 -399h161v-123h-233l-62 -105h295v-125h-321v-395h-160v395h-317v125h290l-61 105h-229v123h159z" />
<glyph d="M246 743q31 36 90 68.5t139 32.5q75 0 204 -44t208 -44q112 0 207 90l26 -139q-24 -32 -84.5 -63.5t-140.5 -31.5q-75 0 -205 44t-209 44q-120 0 -205 -94z" />
<glyph d="M295 659v142h778v-142h-778zM573 356q0 45 29.5 74t81.5 29q53 0 82 -29.5t29 -73.5q0 -46 -29.5 -75t-81.5 -29t-81.5 29.5t-29.5 74.5zM573 1114q0 45 29.5 74t81.5 29q53 0 82 -29.5t29 -73.5q0 -46 -29.5 -75t-81.5 -29t-81.5 29.5t-29.5 74.5z" />
<glyph d="M295 473v141h778v-141h-778zM295 848v141h778v-141h-778z" />
<glyph d="M258 221v150l741 354v6l-741 354v152l924 -446v-125z" />
<glyph d="M223 0v141h924v-141h-924zM223 360v150l768 301v4l-768 301v150l924 -369v-166z" />
<glyph d="M186 666v125l924 446v-152l-741 -354v-6l741 -354v-150z" />
<glyph d="M221 0v141h924v-141h-924zM221 731v166l924 369v-150l-768 -301v-4l768 -301v-150z" />
<glyph d="M295 659v142h778v-142h-778z" />
<glyph d="M328 473l256 254l-256 256l100 102l256 -256l256 254l100 -100l-254 -256l256 -254l-102 -102l-256 256l-256 -256z" />
<glyph d="M295 473v141h264l107 234h-371v141h434l113 250h143l-113 -250h201v-141h-264l-104 -234h368v-141h-434l-109 -244h-147l111 244h-199z" />
<glyph d="M295 659v142h313v336h152v-336h313v-142h-313v-337h-152v337h-313z" />
<glyph d="M295 0v141h778v-141h-778zM295 727v141h313l-2 353h154v-353h313v-141h-313v-354h-152v354h-313z" />
<glyph horiz-adv-x="1667" d="M72 1032q0 207 79 312.5t222 105.5q141 0 220 -106t79 -312q0 -205 -79 -309.5t-220 -104.5q-143 0 -222 104.5t-79 309.5zM193 1032q0 -303 180 -303q178 0 178 303q0 305 -178 305q-180 0 -180 -305zM555 0l428 1434h129l-430 -1434h-127zM995 399q0 206 79.5 312 t221.5 106t221.5 -106t79.5 -312q0 -205 -79 -310t-222 -105t-222 105t-79 310zM1118 399q0 -303 178 -303q179 0 179 303q0 306 -179 306q-178 0 -178 -306z" />
<glyph horiz-adv-x="2398" d="M72 1032q0 207 79 312.5t222 105.5q141 0 220 -106t79 -312q0 -205 -79 -309.5t-220 -104.5q-143 0 -222 104.5t-79 309.5zM193 1032q0 -303 180 -303q178 0 178 303q0 305 -178 305q-180 0 -180 -305zM555 0l428 1434h129l-430 -1434h-127zM995 399q0 206 79.5 312 t221.5 106t221.5 -106t79.5 -312q0 -205 -79 -310t-222 -105t-222 105t-79 310zM1118 399q0 -303 178 -303q179 0 179 303q0 306 -179 306q-178 0 -178 -306zM1726 399q0 205 80 311.5t222 106.5t220.5 -106t78.5 -312q0 -205 -78.5 -310t-220.5 -105q-143 0 -222.5 105 t-79.5 310zM1847 399q0 -153 47 -228t134 -75q178 0 178 303q0 306 -178 306q-87 0 -134 -75.5t-47 -230.5z" />
<glyph d="M63 1032q0 205 65.5 311.5t207.5 106.5q143 0 207.5 -106t64.5 -312q0 -204 -64.5 -309t-207.5 -105q-142 0 -207.5 105.5t-65.5 308.5zM188 1032q0 -147 34.5 -218t115.5 -71q82 0 115.5 70.5t33.5 218.5q0 152 -33.5 222.5t-115.5 70.5q-81 0 -115.5 -71t-34.5 -222z M301 0l660 1434h108l-659 -1434h-109zM760 399q0 204 64.5 311t207.5 107t208 -107t65 -311t-65 -309.5t-208 -105.5t-207.5 105.5t-64.5 309.5zM881 399q0 -150 34.5 -220t116.5 -70t116 70t34 220q0 151 -34 221t-116 70q-83 0 -117 -70t-34 -221z" />
<glyph d="M102 807q0 178 55.5 269t182.5 91t182.5 -91t55.5 -269t-55.5 -269.5t-182.5 -91.5t-182.5 91.5t-55.5 269.5zM211 807q0 -127 30 -187.5t99 -60.5q70 0 99.5 60t29.5 188t-29.5 189t-99.5 61q-69 0 -99 -61t-30 -189zM434 0l385 1147h109l-385 -1147h-109zM791 346 q0 179 55 271t182 92t182.5 -92.5t55.5 -270.5t-55.5 -269t-182.5 -91t-182 91t-55 269zM899 346q0 -127 29.5 -187.5t99.5 -60.5t99.5 60.5t29.5 187.5q0 128 -29.5 189t-99.5 61t-99.5 -61t-29.5 -189z" />
<glyph horiz-adv-x="1462" d="M111 383q0 151 82.5 249t207.5 116v6q-109 19 -189.5 108t-80.5 232q0 171 125.5 269.5t364.5 98.5q454 0 546 -379l-153 -41q-59 279 -389 279q-167 0 -245.5 -67.5t-78.5 -178.5q0 -115 84 -184.5t250 -69.5h795v-143h-248v-248q0 -226 -140 -341.5t-401 -115.5 q-258 0 -394 111.5t-136 298.5zM281 401q0 -132 91.5 -206t276.5 -74q189 0 279 80.5t90 249.5v227h-391q-163 0 -254.5 -72.5t-91.5 -204.5z" />
<glyph horiz-adv-x="1611" d="M78 717q0 158 54.5 296.5t150.5 237t231.5 155t292.5 56.5q215 0 381.5 -97t256 -265t89.5 -377q0 -185 -77.5 -297.5t-223.5 -112.5q-82 0 -144 43.5t-77 110.5h-4q-30 -69 -98 -111.5t-158 -42.5q-141 0 -238.5 99t-97.5 276t90 281t239 104q56 0 100.5 -14t71 -37 t39.5 -38.5t21 -31.5h6v90h158v-421q0 -94 25 -138.5t85 -44.5q76 0 117 77.5t41 211.5q0 277 -165 449t-435 172q-271 0 -438.5 -176t-167.5 -459q0 -153 42.5 -273.5t119 -198.5t180.5 -118.5t229 -40.5q52 0 100.5 5.5t84.5 14t70 20.5t56.5 23.5t44.5 25.5t32.5 22.5 t22.5 18.5t13 11l94 -76q-79 -79 -225.5 -130.5t-288.5 -51.5q-155 0 -283.5 50.5t-221 144.5t-144 237t-51.5 320zM573 688q0 -112 55.5 -175.5t147.5 -63.5q94 0 146.5 62t60.5 161v41q0 100 -57 162.5t-150 62.5q-97 0 -150 -69t-53 -181z" />
<glyph horiz-adv-x="1646" d="M78 717q0 214 100 385.5t269.5 265.5t373.5 94q205 0 375 -94t270.5 -265.5t100.5 -385.5q0 -213 -100.5 -385t-270.5 -266.5t-375 -94.5q-152 0 -288.5 56t-237 153t-159 237t-58.5 300zM178 719q0 -191 83.5 -340t230 -230t329.5 -81q184 0 331 80.5t231.5 229.5 t84.5 341t-84.5 340t-231.5 227.5t-331 79.5t-330 -80t-229.5 -228t-83.5 -339zM416 717q0 173 113 282t286 109q124 0 220 -60t132 -169l-108 -31q-6 19 -20.5 41t-41.5 48t-74 43t-104 17q-126 0 -204 -76t-78 -202t76.5 -203.5t201.5 -77.5q85 0 148.5 37.5t99.5 99.5 l111 -34q-47 -98 -143 -156.5t-220 -58.5q-174 0 -284.5 110t-110.5 281z" />
<glyph horiz-adv-x="2342" d="M158 0v1434h168l839 -1155h4v10q0 10 -0.5 28t-1 42t-1 54.5t-1 62t-0.5 68v70.5v820h168v-1434h-170l-839 1165h-5l1 -10v-28t1 -42t1.5 -55t0.5 -63.5t0.5 -71t0.5 -74.5v-821h-166zM1561 1100q0 153 103 254.5t251 101.5q150 0 253 -101t103 -255 q0 -151 -103.5 -251.5t-252.5 -100.5q-148 0 -251 100.5t-103 251.5zM1583 514v113h670v-113h-670zM1671 1100q0 -107 68.5 -177.5t175.5 -70.5t175.5 70.5t68.5 177.5q0 108 -68.5 179t-175.5 71t-175.5 -71t-68.5 -179z" />
<glyph horiz-adv-x="1187" d="M78 1071q0 168 109.5 265.5t324.5 97.5h518v-1434h-168v1278h-182v-1278h-168v702q-215 0 -324.5 99t-109.5 270z" />
<glyph horiz-adv-x="1646" d="M78 717q0 214 100 385.5t269.5 265.5t373.5 94q205 0 375 -94t270.5 -265.5t100.5 -385.5q0 -213 -100.5 -385t-270.5 -266.5t-375 -94.5q-152 0 -288.5 56t-237 153t-159 237t-58.5 300zM178 719q0 -191 83.5 -340t230 -230t329.5 -81q184 0 331 80.5t231.5 229.5 t84.5 341t-84.5 340t-231.5 227.5t-331 79.5t-330 -80t-229.5 -228t-83.5 -339zM600 342v756h258q140 0 216.5 -65.5t76.5 -180.5q0 -111 -77.5 -174.5t-229.5 -63.5h-123v-272h-121zM721 715h137q83 0 127.5 35t44.5 98q0 64 -44.5 100.5t-127.5 36.5h-137v-270z" />
<glyph horiz-adv-x="1646" d="M78 717q0 214 100 385.5t269.5 265.5t373.5 94q205 0 375 -94t270.5 -265.5t100.5 -385.5q0 -213 -100.5 -385t-270.5 -266.5t-375 -94.5q-152 0 -288.5 56t-237 153t-159 237t-58.5 300zM178 719q0 -191 83.5 -340t230 -230t329.5 -81q184 0 331 80.5t231.5 229.5 t84.5 341t-84.5 340t-231.5 227.5t-331 79.5t-330 -80t-229.5 -228t-83.5 -339zM561 342v756h258q141 0 220 -61.5t79 -170.5q0 -82 -44.5 -133t-121.5 -69l187 -322h-133l-175 301q-27 -2 -73 -2h-74v-299h-123zM684 737h141q170 0 170 125q0 63 -44.5 95t-125.5 32h-141 v-252z" />
<glyph horiz-adv-x="1091" d="M223 1726q65 72 166 72q58 0 149 -36t152 -36q83 0 141 54l35 -121q-12 -13 -29 -26t-54.5 -26.5t-80.5 -13.5q-59 0 -151 35t-148 35q-95 0 -145 -57z" />
<glyph horiz-adv-x="1091" d="M430 1032q30 64 55.5 184.5t24.5 217.5h137q1 -95 -29 -215t-63 -187h-125z" />
</font>
</defs>
</svg>
